G04 MADE WITH FRITZING*
G04 WWW.FRITZING.ORG*
G04 DOUBLE SIDED*
G04 HOLES PLATED*
G04 CONTOUR ON CENTER OF CONTOUR VECTOR*
%ASAXBY*%
%FSLAX23Y23*%
%MOIN*%
%OFA0B0*%
%SFA1.0B1.0*%
%ADD10R,2.097930X1.107440X2.081930X1.091440*%
%ADD11C,0.008000*%
%ADD12C,0.005000*%
%ADD13R,0.001000X0.001000*%
%LNSILK1*%
G90*
G70*
G54D11*
X4Y1103D02*
X2094Y1103D01*
X2094Y4D01*
X4Y4D01*
X4Y1103D01*
D02*
G54D12*
X1777Y345D02*
X1997Y345D01*
D02*
X1777Y745D02*
X1997Y745D01*
D02*
X1777Y745D02*
X1777Y345D01*
D02*
X1997Y745D02*
X1997Y695D01*
D02*
X1997Y695D02*
X1997Y395D01*
D02*
X1997Y395D02*
X1997Y345D01*
D02*
X1997Y395D02*
X1947Y395D01*
D02*
X1947Y395D02*
X1947Y695D01*
D02*
X1947Y695D02*
X1997Y695D01*
G54D13*
X387Y1107D02*
X393Y1107D01*
X387Y1106D02*
X392Y1106D01*
X387Y1105D02*
X392Y1105D01*
X388Y1104D02*
X391Y1104D01*
X394Y1087D02*
X400Y1087D01*
X392Y1086D02*
X401Y1086D01*
X390Y1085D02*
X401Y1085D01*
X389Y1084D02*
X401Y1084D01*
X388Y1083D02*
X401Y1083D01*
X388Y1082D02*
X401Y1082D01*
X387Y1081D02*
X399Y1081D01*
X387Y1080D02*
X394Y1080D01*
X387Y1079D02*
X393Y1079D01*
X387Y1078D02*
X393Y1078D01*
X387Y1077D02*
X393Y1077D01*
X387Y1076D02*
X393Y1076D01*
X387Y1075D02*
X393Y1075D01*
X387Y1074D02*
X393Y1074D01*
X387Y1073D02*
X393Y1073D01*
X387Y1072D02*
X393Y1072D01*
X387Y1071D02*
X393Y1071D01*
X387Y1070D02*
X394Y1070D01*
X387Y1069D02*
X395Y1069D01*
X387Y1068D02*
X396Y1068D01*
X388Y1067D02*
X396Y1067D01*
X389Y1066D02*
X397Y1066D01*
X390Y1065D02*
X398Y1065D01*
X391Y1064D02*
X399Y1064D01*
X392Y1063D02*
X400Y1063D01*
X392Y1062D02*
X401Y1062D01*
X393Y1061D02*
X402Y1061D01*
X390Y1060D02*
X422Y1060D01*
X388Y1059D02*
X424Y1059D01*
X387Y1058D02*
X425Y1058D01*
X387Y1057D02*
X425Y1057D01*
X387Y1056D02*
X425Y1056D01*
X387Y1055D02*
X425Y1055D01*
X388Y1054D02*
X424Y1054D01*
X405Y1037D02*
X423Y1037D01*
X393Y1036D02*
X424Y1036D01*
X391Y1035D02*
X425Y1035D01*
X390Y1034D02*
X425Y1034D01*
X389Y1033D02*
X425Y1033D01*
X388Y1032D02*
X424Y1032D01*
X388Y1031D02*
X423Y1031D01*
X387Y1030D02*
X410Y1030D01*
X415Y1030D02*
X422Y1030D01*
X387Y1029D02*
X394Y1029D01*
X402Y1029D02*
X408Y1029D01*
X415Y1029D02*
X422Y1029D01*
X387Y1028D02*
X393Y1028D01*
X401Y1028D02*
X408Y1028D01*
X416Y1028D02*
X423Y1028D01*
X387Y1027D02*
X393Y1027D01*
X401Y1027D02*
X407Y1027D01*
X416Y1027D02*
X424Y1027D01*
X387Y1026D02*
X393Y1026D01*
X401Y1026D02*
X407Y1026D01*
X417Y1026D02*
X424Y1026D01*
X387Y1025D02*
X393Y1025D01*
X401Y1025D02*
X407Y1025D01*
X418Y1025D02*
X425Y1025D01*
X387Y1024D02*
X393Y1024D01*
X401Y1024D02*
X407Y1024D01*
X418Y1024D02*
X425Y1024D01*
X387Y1023D02*
X393Y1023D01*
X401Y1023D02*
X407Y1023D01*
X419Y1023D02*
X425Y1023D01*
X387Y1022D02*
X393Y1022D01*
X401Y1022D02*
X407Y1022D01*
X419Y1022D02*
X425Y1022D01*
X387Y1021D02*
X393Y1021D01*
X401Y1021D02*
X407Y1021D01*
X419Y1021D02*
X425Y1021D01*
X387Y1020D02*
X393Y1020D01*
X401Y1020D02*
X407Y1020D01*
X419Y1020D02*
X425Y1020D01*
X387Y1019D02*
X393Y1019D01*
X401Y1019D02*
X407Y1019D01*
X419Y1019D02*
X425Y1019D01*
X387Y1018D02*
X393Y1018D01*
X401Y1018D02*
X407Y1018D01*
X419Y1018D02*
X425Y1018D01*
X387Y1017D02*
X393Y1017D01*
X401Y1017D02*
X407Y1017D01*
X419Y1017D02*
X425Y1017D01*
X387Y1016D02*
X393Y1016D01*
X401Y1016D02*
X407Y1016D01*
X419Y1016D02*
X425Y1016D01*
X387Y1015D02*
X393Y1015D01*
X401Y1015D02*
X407Y1015D01*
X419Y1015D02*
X425Y1015D01*
X387Y1014D02*
X393Y1014D01*
X401Y1014D02*
X407Y1014D01*
X419Y1014D02*
X425Y1014D01*
X387Y1013D02*
X392Y1013D01*
X401Y1013D02*
X407Y1013D01*
X419Y1013D02*
X425Y1013D01*
X387Y1012D02*
X392Y1012D01*
X401Y1012D02*
X408Y1012D01*
X419Y1012D02*
X425Y1012D01*
X388Y1011D02*
X392Y1011D01*
X402Y1011D02*
X408Y1011D01*
X418Y1011D02*
X425Y1011D01*
X390Y1010D02*
X390Y1010D01*
X402Y1010D02*
X424Y1010D01*
X402Y1009D02*
X424Y1009D01*
X403Y1008D02*
X423Y1008D01*
X404Y1007D02*
X423Y1007D01*
X404Y1006D02*
X422Y1006D01*
X406Y1005D02*
X421Y1005D01*
X407Y1004D02*
X419Y1004D01*
X379Y987D02*
X397Y987D01*
X377Y986D02*
X399Y986D01*
X375Y985D02*
X401Y985D01*
X374Y984D02*
X402Y984D01*
X374Y983D02*
X402Y983D01*
X373Y982D02*
X403Y982D01*
X373Y981D02*
X404Y981D01*
X372Y980D02*
X380Y980D01*
X397Y980D02*
X404Y980D01*
X372Y979D02*
X378Y979D01*
X398Y979D02*
X404Y979D01*
X372Y978D02*
X378Y978D01*
X398Y978D02*
X404Y978D01*
X372Y977D02*
X378Y977D01*
X398Y977D02*
X404Y977D01*
X372Y976D02*
X378Y976D01*
X398Y976D02*
X404Y976D01*
X372Y975D02*
X378Y975D01*
X398Y975D02*
X404Y975D01*
X372Y974D02*
X378Y974D01*
X398Y974D02*
X404Y974D01*
X372Y973D02*
X378Y973D01*
X398Y973D02*
X404Y973D01*
X372Y972D02*
X378Y972D01*
X398Y972D02*
X404Y972D01*
X372Y971D02*
X378Y971D01*
X398Y971D02*
X404Y971D01*
X372Y970D02*
X378Y970D01*
X398Y970D02*
X404Y970D01*
X372Y969D02*
X378Y969D01*
X398Y969D02*
X404Y969D01*
X372Y968D02*
X378Y968D01*
X398Y968D02*
X404Y968D01*
X372Y967D02*
X378Y967D01*
X398Y967D02*
X404Y967D01*
X372Y966D02*
X378Y966D01*
X398Y966D02*
X404Y966D01*
X372Y965D02*
X378Y965D01*
X398Y965D02*
X404Y965D01*
X372Y964D02*
X378Y964D01*
X398Y964D02*
X404Y964D01*
X372Y963D02*
X378Y963D01*
X398Y963D02*
X404Y963D01*
X372Y962D02*
X378Y962D01*
X398Y962D02*
X404Y962D01*
X372Y961D02*
X378Y961D01*
X398Y961D02*
X404Y961D01*
X372Y960D02*
X422Y960D01*
X372Y959D02*
X424Y959D01*
X372Y958D02*
X425Y958D01*
X372Y957D02*
X425Y957D01*
X372Y956D02*
X425Y956D01*
X372Y955D02*
X425Y955D01*
X372Y954D02*
X424Y954D01*
X545Y945D02*
X1107Y945D01*
X536Y944D02*
X1116Y944D01*
X531Y943D02*
X1121Y943D01*
X527Y942D02*
X1125Y942D01*
X523Y941D02*
X1129Y941D01*
X520Y940D02*
X1132Y940D01*
X517Y939D02*
X1135Y939D01*
X514Y938D02*
X1138Y938D01*
X512Y937D02*
X544Y937D01*
X1108Y937D02*
X1140Y937D01*
X510Y936D02*
X535Y936D01*
X1117Y936D02*
X1142Y936D01*
X508Y935D02*
X530Y935D01*
X1122Y935D02*
X1144Y935D01*
X506Y934D02*
X526Y934D01*
X1126Y934D02*
X1146Y934D01*
X504Y933D02*
X523Y933D01*
X1129Y933D02*
X1148Y933D01*
X502Y932D02*
X520Y932D01*
X1132Y932D02*
X1150Y932D01*
X500Y931D02*
X517Y931D01*
X1135Y931D02*
X1152Y931D01*
X499Y930D02*
X515Y930D01*
X1137Y930D02*
X1153Y930D01*
X497Y929D02*
X513Y929D01*
X1139Y929D02*
X1155Y929D01*
X496Y928D02*
X510Y928D01*
X1142Y928D02*
X1156Y928D01*
X494Y927D02*
X508Y927D01*
X1144Y927D02*
X1158Y927D01*
X493Y926D02*
X506Y926D01*
X1145Y926D02*
X1159Y926D01*
X491Y925D02*
X505Y925D01*
X1147Y925D02*
X1160Y925D01*
X490Y924D02*
X503Y924D01*
X1149Y924D02*
X1162Y924D01*
X489Y923D02*
X501Y923D01*
X1151Y923D02*
X1163Y923D01*
X487Y922D02*
X500Y922D01*
X1152Y922D02*
X1164Y922D01*
X486Y921D02*
X498Y921D01*
X1154Y921D02*
X1166Y921D01*
X485Y920D02*
X497Y920D01*
X1155Y920D02*
X1167Y920D01*
X484Y919D02*
X496Y919D01*
X1156Y919D02*
X1168Y919D01*
X483Y918D02*
X494Y918D01*
X1158Y918D02*
X1169Y918D01*
X482Y917D02*
X493Y917D01*
X1159Y917D02*
X1170Y917D01*
X481Y916D02*
X492Y916D01*
X1160Y916D02*
X1171Y916D01*
X480Y915D02*
X491Y915D01*
X1161Y915D02*
X1172Y915D01*
X479Y914D02*
X490Y914D01*
X1162Y914D02*
X1173Y914D01*
X478Y913D02*
X488Y913D01*
X1163Y913D02*
X1174Y913D01*
X477Y912D02*
X487Y912D01*
X1165Y912D02*
X1175Y912D01*
X476Y911D02*
X486Y911D01*
X1166Y911D02*
X1176Y911D01*
X475Y910D02*
X485Y910D01*
X1167Y910D02*
X1177Y910D01*
X475Y909D02*
X484Y909D01*
X1168Y909D02*
X1177Y909D01*
X474Y908D02*
X483Y908D01*
X1169Y908D02*
X1178Y908D01*
X473Y907D02*
X483Y907D01*
X1169Y907D02*
X1179Y907D01*
X472Y906D02*
X482Y906D01*
X1170Y906D02*
X1180Y906D01*
X472Y905D02*
X481Y905D01*
X1171Y905D02*
X1180Y905D01*
X471Y904D02*
X480Y904D01*
X1172Y904D02*
X1181Y904D01*
X470Y903D02*
X479Y903D01*
X1173Y903D02*
X1182Y903D01*
X469Y902D02*
X478Y902D01*
X1174Y902D02*
X1183Y902D01*
X469Y901D02*
X477Y901D01*
X1174Y901D02*
X1183Y901D01*
X468Y900D02*
X477Y900D01*
X1175Y900D02*
X1184Y900D01*
X467Y899D02*
X476Y899D01*
X1176Y899D02*
X1185Y899D01*
X467Y898D02*
X475Y898D01*
X1177Y898D02*
X1185Y898D01*
X466Y897D02*
X475Y897D01*
X1177Y897D02*
X1186Y897D01*
X465Y896D02*
X474Y896D01*
X1178Y896D02*
X1186Y896D01*
X465Y895D02*
X473Y895D01*
X1179Y895D02*
X1187Y895D01*
X464Y894D02*
X473Y894D01*
X1179Y894D02*
X1188Y894D01*
X464Y893D02*
X472Y893D01*
X1180Y893D02*
X1188Y893D01*
X463Y892D02*
X471Y892D01*
X1181Y892D02*
X1189Y892D01*
X463Y891D02*
X471Y891D01*
X1181Y891D02*
X1189Y891D01*
X462Y890D02*
X470Y890D01*
X1182Y890D02*
X1190Y890D01*
X1699Y890D02*
X1715Y890D01*
X1726Y890D02*
X1741Y890D01*
X462Y889D02*
X470Y889D01*
X1182Y889D02*
X1190Y889D01*
X1697Y889D02*
X1717Y889D01*
X1723Y889D02*
X1744Y889D01*
X461Y888D02*
X469Y888D01*
X1183Y888D02*
X1191Y888D01*
X1696Y888D02*
X1719Y888D01*
X1722Y888D02*
X1745Y888D01*
X461Y887D02*
X469Y887D01*
X1183Y887D02*
X1191Y887D01*
X1695Y887D02*
X1746Y887D01*
X460Y886D02*
X468Y886D01*
X1184Y886D02*
X1192Y886D01*
X1694Y886D02*
X1746Y886D01*
X460Y885D02*
X468Y885D01*
X1184Y885D02*
X1192Y885D01*
X1694Y885D02*
X1747Y885D01*
X459Y884D02*
X467Y884D01*
X1185Y884D02*
X1192Y884D01*
X1694Y884D02*
X1747Y884D01*
X459Y883D02*
X467Y883D01*
X1185Y883D02*
X1193Y883D01*
X1694Y883D02*
X1700Y883D01*
X1715Y883D02*
X1726Y883D01*
X1741Y883D02*
X1747Y883D01*
X459Y882D02*
X466Y882D01*
X1186Y882D02*
X1193Y882D01*
X1694Y882D02*
X1700Y882D01*
X1716Y882D02*
X1724Y882D01*
X1741Y882D02*
X1747Y882D01*
X458Y881D02*
X466Y881D01*
X1186Y881D02*
X1194Y881D01*
X1694Y881D02*
X1700Y881D01*
X1717Y881D02*
X1724Y881D01*
X1741Y881D02*
X1747Y881D01*
X458Y880D02*
X465Y880D01*
X1187Y880D02*
X1194Y880D01*
X1694Y880D02*
X1700Y880D01*
X1717Y880D02*
X1723Y880D01*
X1741Y880D02*
X1747Y880D01*
X458Y879D02*
X465Y879D01*
X1187Y879D02*
X1194Y879D01*
X1694Y879D02*
X1700Y879D01*
X1717Y879D02*
X1723Y879D01*
X1741Y879D02*
X1747Y879D01*
X457Y878D02*
X465Y878D01*
X1187Y878D02*
X1195Y878D01*
X1694Y878D02*
X1700Y878D01*
X1717Y878D02*
X1723Y878D01*
X1741Y878D02*
X1747Y878D01*
X457Y877D02*
X464Y877D01*
X1188Y877D02*
X1195Y877D01*
X1694Y877D02*
X1700Y877D01*
X1717Y877D02*
X1723Y877D01*
X1741Y877D02*
X1747Y877D01*
X457Y876D02*
X464Y876D01*
X1188Y876D02*
X1195Y876D01*
X1694Y876D02*
X1700Y876D01*
X1717Y876D02*
X1723Y876D01*
X1741Y876D02*
X1747Y876D01*
X456Y875D02*
X463Y875D01*
X1188Y875D02*
X1196Y875D01*
X1694Y875D02*
X1700Y875D01*
X1717Y875D02*
X1723Y875D01*
X1741Y875D02*
X1747Y875D01*
X456Y874D02*
X463Y874D01*
X1189Y874D02*
X1196Y874D01*
X1694Y874D02*
X1700Y874D01*
X1717Y874D02*
X1723Y874D01*
X1741Y874D02*
X1747Y874D01*
X456Y873D02*
X463Y873D01*
X1189Y873D02*
X1196Y873D01*
X1694Y873D02*
X1700Y873D01*
X1717Y873D02*
X1723Y873D01*
X1741Y873D02*
X1747Y873D01*
X455Y872D02*
X462Y872D01*
X1189Y872D02*
X1197Y872D01*
X1694Y872D02*
X1700Y872D01*
X1717Y872D02*
X1723Y872D01*
X1741Y872D02*
X1747Y872D01*
X455Y871D02*
X462Y871D01*
X1190Y871D02*
X1197Y871D01*
X1694Y871D02*
X1700Y871D01*
X1717Y871D02*
X1723Y871D01*
X1741Y871D02*
X1747Y871D01*
X455Y870D02*
X462Y870D01*
X1190Y870D02*
X1197Y870D01*
X1694Y870D02*
X1700Y870D01*
X1717Y870D02*
X1723Y870D01*
X1741Y870D02*
X1747Y870D01*
X455Y869D02*
X462Y869D01*
X1190Y869D02*
X1197Y869D01*
X1694Y869D02*
X1700Y869D01*
X1717Y869D02*
X1723Y869D01*
X1741Y869D02*
X1747Y869D01*
X454Y868D02*
X461Y868D01*
X1191Y868D02*
X1198Y868D01*
X1694Y868D02*
X1700Y868D01*
X1717Y868D02*
X1723Y868D01*
X1741Y868D02*
X1747Y868D01*
X454Y867D02*
X461Y867D01*
X1191Y867D02*
X1198Y867D01*
X1694Y867D02*
X1700Y867D01*
X1717Y867D02*
X1723Y867D01*
X1741Y867D02*
X1747Y867D01*
X454Y866D02*
X461Y866D01*
X1191Y866D02*
X1198Y866D01*
X1694Y866D02*
X1700Y866D01*
X1717Y866D02*
X1723Y866D01*
X1741Y866D02*
X1747Y866D01*
X454Y865D02*
X461Y865D01*
X1191Y865D02*
X1198Y865D01*
X1694Y865D02*
X1700Y865D01*
X1717Y865D02*
X1723Y865D01*
X1741Y865D02*
X1747Y865D01*
X453Y864D02*
X460Y864D01*
X1191Y864D02*
X1198Y864D01*
X1694Y864D02*
X1700Y864D01*
X1718Y864D02*
X1723Y864D01*
X1741Y864D02*
X1747Y864D01*
X453Y863D02*
X460Y863D01*
X1192Y863D02*
X1199Y863D01*
X1694Y863D02*
X1700Y863D01*
X1719Y863D02*
X1722Y863D01*
X1741Y863D02*
X1747Y863D01*
X453Y862D02*
X460Y862D01*
X1192Y862D02*
X1199Y862D01*
X1694Y862D02*
X1700Y862D01*
X1741Y862D02*
X1747Y862D01*
X453Y861D02*
X460Y861D01*
X1192Y861D02*
X1199Y861D01*
X1694Y861D02*
X1700Y861D01*
X1741Y861D02*
X1747Y861D01*
X453Y860D02*
X460Y860D01*
X1192Y860D02*
X1199Y860D01*
X1694Y860D02*
X1700Y860D01*
X1741Y860D02*
X1747Y860D01*
X453Y859D02*
X460Y859D01*
X1192Y859D02*
X1199Y859D01*
X1694Y859D02*
X1700Y859D01*
X1741Y859D02*
X1747Y859D01*
X452Y858D02*
X459Y858D01*
X1192Y858D02*
X1199Y858D01*
X1694Y858D02*
X1700Y858D01*
X1741Y858D02*
X1747Y858D01*
X452Y857D02*
X459Y857D01*
X1193Y857D02*
X1200Y857D01*
X1694Y857D02*
X1699Y857D01*
X1742Y857D02*
X1746Y857D01*
X452Y856D02*
X459Y856D01*
X1193Y856D02*
X1200Y856D01*
X1696Y856D02*
X1698Y856D01*
X1743Y856D02*
X1745Y856D01*
X452Y855D02*
X459Y855D01*
X1193Y855D02*
X1200Y855D01*
X452Y854D02*
X459Y854D01*
X1193Y854D02*
X1200Y854D01*
X452Y853D02*
X459Y853D01*
X1193Y853D02*
X1200Y853D01*
X452Y852D02*
X459Y852D01*
X1193Y852D02*
X1200Y852D01*
X452Y851D02*
X459Y851D01*
X1193Y851D02*
X1200Y851D01*
X452Y850D02*
X459Y850D01*
X1193Y850D02*
X1200Y850D01*
X452Y849D02*
X459Y849D01*
X1193Y849D02*
X1200Y849D01*
X452Y848D02*
X459Y848D01*
X1193Y848D02*
X1200Y848D01*
X452Y847D02*
X459Y847D01*
X1193Y847D02*
X1200Y847D01*
X452Y846D02*
X459Y846D01*
X1193Y846D02*
X1200Y846D01*
X452Y845D02*
X459Y845D01*
X1193Y845D02*
X1200Y845D01*
X452Y844D02*
X459Y844D01*
X1193Y844D02*
X1200Y844D01*
X452Y843D02*
X459Y843D01*
X1193Y843D02*
X1200Y843D01*
X452Y842D02*
X459Y842D01*
X1193Y842D02*
X1200Y842D01*
X452Y841D02*
X459Y841D01*
X1193Y841D02*
X1200Y841D01*
X452Y840D02*
X459Y840D01*
X1193Y840D02*
X1200Y840D01*
X1702Y840D02*
X1718Y840D01*
X452Y839D02*
X459Y839D01*
X1193Y839D02*
X1200Y839D01*
X1699Y839D02*
X1720Y839D01*
X452Y838D02*
X459Y838D01*
X1193Y838D02*
X1200Y838D01*
X1698Y838D02*
X1722Y838D01*
X452Y837D02*
X459Y837D01*
X1193Y837D02*
X1200Y837D01*
X1697Y837D02*
X1723Y837D01*
X452Y836D02*
X459Y836D01*
X1193Y836D02*
X1200Y836D01*
X1696Y836D02*
X1724Y836D01*
X452Y835D02*
X459Y835D01*
X1193Y835D02*
X1200Y835D01*
X1695Y835D02*
X1725Y835D01*
X452Y834D02*
X459Y834D01*
X1193Y834D02*
X1200Y834D01*
X1695Y834D02*
X1725Y834D01*
X452Y833D02*
X459Y833D01*
X1193Y833D02*
X1200Y833D01*
X1694Y833D02*
X1702Y833D01*
X1718Y833D02*
X1726Y833D01*
X452Y832D02*
X459Y832D01*
X1193Y832D02*
X1200Y832D01*
X1694Y832D02*
X1701Y832D01*
X1719Y832D02*
X1726Y832D01*
X452Y831D02*
X459Y831D01*
X1193Y831D02*
X1200Y831D01*
X1694Y831D02*
X1700Y831D01*
X1720Y831D02*
X1726Y831D01*
X452Y830D02*
X459Y830D01*
X1193Y830D02*
X1200Y830D01*
X1694Y830D02*
X1700Y830D01*
X1720Y830D02*
X1726Y830D01*
X452Y829D02*
X459Y829D01*
X1193Y829D02*
X1200Y829D01*
X1694Y829D02*
X1700Y829D01*
X1720Y829D02*
X1726Y829D01*
X452Y828D02*
X459Y828D01*
X1193Y828D02*
X1200Y828D01*
X1694Y828D02*
X1700Y828D01*
X1720Y828D02*
X1726Y828D01*
X452Y827D02*
X459Y827D01*
X1193Y827D02*
X1200Y827D01*
X1694Y827D02*
X1700Y827D01*
X1720Y827D02*
X1726Y827D01*
X452Y826D02*
X459Y826D01*
X1193Y826D02*
X1200Y826D01*
X1694Y826D02*
X1700Y826D01*
X1720Y826D02*
X1726Y826D01*
X452Y825D02*
X459Y825D01*
X1193Y825D02*
X1200Y825D01*
X1694Y825D02*
X1700Y825D01*
X1720Y825D02*
X1726Y825D01*
X452Y824D02*
X459Y824D01*
X1193Y824D02*
X1200Y824D01*
X1694Y824D02*
X1700Y824D01*
X1720Y824D02*
X1726Y824D01*
X452Y823D02*
X459Y823D01*
X1193Y823D02*
X1200Y823D01*
X1694Y823D02*
X1700Y823D01*
X1720Y823D02*
X1726Y823D01*
X452Y822D02*
X459Y822D01*
X1193Y822D02*
X1200Y822D01*
X1694Y822D02*
X1700Y822D01*
X1720Y822D02*
X1726Y822D01*
X452Y821D02*
X459Y821D01*
X1193Y821D02*
X1200Y821D01*
X1694Y821D02*
X1700Y821D01*
X1720Y821D02*
X1726Y821D01*
X452Y820D02*
X459Y820D01*
X1193Y820D02*
X1200Y820D01*
X1694Y820D02*
X1700Y820D01*
X1720Y820D02*
X1726Y820D01*
X452Y819D02*
X459Y819D01*
X1193Y819D02*
X1200Y819D01*
X1694Y819D02*
X1700Y819D01*
X1720Y819D02*
X1726Y819D01*
X452Y818D02*
X459Y818D01*
X1193Y818D02*
X1200Y818D01*
X1694Y818D02*
X1700Y818D01*
X1720Y818D02*
X1726Y818D01*
X452Y817D02*
X459Y817D01*
X1193Y817D02*
X1200Y817D01*
X1694Y817D02*
X1700Y817D01*
X1720Y817D02*
X1726Y817D01*
X452Y816D02*
X459Y816D01*
X1193Y816D02*
X1200Y816D01*
X1694Y816D02*
X1700Y816D01*
X1720Y816D02*
X1726Y816D01*
X452Y815D02*
X459Y815D01*
X1193Y815D02*
X1200Y815D01*
X1694Y815D02*
X1700Y815D01*
X1720Y815D02*
X1726Y815D01*
X452Y814D02*
X459Y814D01*
X1193Y814D02*
X1200Y814D01*
X1694Y814D02*
X1700Y814D01*
X1720Y814D02*
X1726Y814D01*
X452Y813D02*
X459Y813D01*
X1193Y813D02*
X1200Y813D01*
X1694Y813D02*
X1700Y813D01*
X1720Y813D02*
X1726Y813D01*
X452Y812D02*
X459Y812D01*
X1193Y812D02*
X1200Y812D01*
X1694Y812D02*
X1745Y812D01*
X452Y811D02*
X459Y811D01*
X1193Y811D02*
X1200Y811D01*
X1694Y811D02*
X1746Y811D01*
X452Y810D02*
X459Y810D01*
X1193Y810D02*
X1200Y810D01*
X1694Y810D02*
X1747Y810D01*
X452Y809D02*
X459Y809D01*
X1193Y809D02*
X1200Y809D01*
X1694Y809D02*
X1747Y809D01*
X452Y808D02*
X459Y808D01*
X1193Y808D02*
X1200Y808D01*
X1694Y808D02*
X1747Y808D01*
X452Y807D02*
X459Y807D01*
X1193Y807D02*
X1200Y807D01*
X1694Y807D02*
X1746Y807D01*
X452Y806D02*
X459Y806D01*
X1193Y806D02*
X1200Y806D01*
X1694Y806D02*
X1745Y806D01*
X452Y805D02*
X459Y805D01*
X1193Y805D02*
X1200Y805D01*
X452Y804D02*
X459Y804D01*
X1193Y804D02*
X1200Y804D01*
X452Y803D02*
X459Y803D01*
X1193Y803D02*
X1200Y803D01*
X452Y802D02*
X459Y802D01*
X1193Y802D02*
X1200Y802D01*
X452Y801D02*
X459Y801D01*
X1193Y801D02*
X1200Y801D01*
X452Y800D02*
X459Y800D01*
X1193Y800D02*
X1200Y800D01*
X452Y799D02*
X459Y799D01*
X1193Y799D02*
X1200Y799D01*
X452Y798D02*
X459Y798D01*
X1193Y798D02*
X1200Y798D01*
X452Y797D02*
X459Y797D01*
X1193Y797D02*
X1200Y797D01*
X452Y796D02*
X459Y796D01*
X1193Y796D02*
X1200Y796D01*
X452Y795D02*
X459Y795D01*
X1193Y795D02*
X1200Y795D01*
X452Y794D02*
X459Y794D01*
X1193Y794D02*
X1200Y794D01*
X452Y793D02*
X459Y793D01*
X1193Y793D02*
X1200Y793D01*
X452Y792D02*
X459Y792D01*
X1193Y792D02*
X1200Y792D01*
X452Y791D02*
X459Y791D01*
X1193Y791D02*
X1200Y791D01*
X452Y790D02*
X459Y790D01*
X1193Y790D02*
X1200Y790D01*
X452Y789D02*
X459Y789D01*
X1193Y789D02*
X1200Y789D01*
X452Y788D02*
X459Y788D01*
X1193Y788D02*
X1200Y788D01*
X452Y787D02*
X459Y787D01*
X1193Y787D02*
X1200Y787D01*
X452Y786D02*
X459Y786D01*
X1193Y786D02*
X1200Y786D01*
X1695Y786D02*
X1740Y786D01*
X452Y785D02*
X459Y785D01*
X1193Y785D02*
X1200Y785D01*
X1694Y785D02*
X1742Y785D01*
X452Y784D02*
X459Y784D01*
X1193Y784D02*
X1200Y784D01*
X1694Y784D02*
X1743Y784D01*
X452Y783D02*
X459Y783D01*
X1193Y783D02*
X1200Y783D01*
X1694Y783D02*
X1744Y783D01*
X452Y782D02*
X459Y782D01*
X1193Y782D02*
X1200Y782D01*
X1694Y782D02*
X1745Y782D01*
X452Y781D02*
X459Y781D01*
X1193Y781D02*
X1200Y781D01*
X1695Y781D02*
X1746Y781D01*
X452Y780D02*
X459Y780D01*
X1193Y780D02*
X1200Y780D01*
X1696Y780D02*
X1746Y780D01*
X452Y779D02*
X459Y779D01*
X1193Y779D02*
X1200Y779D01*
X1739Y779D02*
X1746Y779D01*
X452Y778D02*
X459Y778D01*
X1193Y778D02*
X1200Y778D01*
X1740Y778D02*
X1747Y778D01*
X452Y777D02*
X459Y777D01*
X1193Y777D02*
X1200Y777D01*
X1741Y777D02*
X1747Y777D01*
X452Y776D02*
X459Y776D01*
X1193Y776D02*
X1200Y776D01*
X1741Y776D02*
X1747Y776D01*
X452Y775D02*
X459Y775D01*
X1193Y775D02*
X1200Y775D01*
X1741Y775D02*
X1747Y775D01*
X452Y774D02*
X459Y774D01*
X1193Y774D02*
X1200Y774D01*
X1741Y774D02*
X1747Y774D01*
X452Y773D02*
X459Y773D01*
X1193Y773D02*
X1200Y773D01*
X1741Y773D02*
X1747Y773D01*
X452Y772D02*
X459Y772D01*
X1193Y772D02*
X1200Y772D01*
X1741Y772D02*
X1747Y772D01*
X452Y771D02*
X459Y771D01*
X1193Y771D02*
X1200Y771D01*
X1741Y771D02*
X1747Y771D01*
X452Y770D02*
X459Y770D01*
X1193Y770D02*
X1200Y770D01*
X1741Y770D02*
X1747Y770D01*
X452Y769D02*
X459Y769D01*
X1193Y769D02*
X1200Y769D01*
X1741Y769D02*
X1747Y769D01*
X452Y768D02*
X459Y768D01*
X1193Y768D02*
X1200Y768D01*
X1740Y768D02*
X1747Y768D01*
X452Y767D02*
X459Y767D01*
X1193Y767D02*
X1200Y767D01*
X1740Y767D02*
X1747Y767D01*
X452Y766D02*
X459Y766D01*
X1193Y766D02*
X1200Y766D01*
X1726Y766D02*
X1746Y766D01*
X452Y765D02*
X459Y765D01*
X1193Y765D02*
X1200Y765D01*
X1724Y765D02*
X1746Y765D01*
X452Y764D02*
X459Y764D01*
X1193Y764D02*
X1200Y764D01*
X1723Y764D02*
X1745Y764D01*
X452Y763D02*
X459Y763D01*
X1193Y763D02*
X1200Y763D01*
X1723Y763D02*
X1744Y763D01*
X452Y762D02*
X459Y762D01*
X1193Y762D02*
X1200Y762D01*
X1723Y762D02*
X1744Y762D01*
X452Y761D02*
X459Y761D01*
X1193Y761D02*
X1200Y761D01*
X1724Y761D02*
X1742Y761D01*
X452Y760D02*
X459Y760D01*
X1193Y760D02*
X1200Y760D01*
X1724Y760D02*
X1741Y760D01*
X452Y759D02*
X459Y759D01*
X1193Y759D02*
X1200Y759D01*
X452Y758D02*
X459Y758D01*
X1193Y758D02*
X1200Y758D01*
X452Y757D02*
X459Y757D01*
X1193Y757D02*
X1200Y757D01*
X452Y756D02*
X459Y756D01*
X1193Y756D02*
X1200Y756D01*
X452Y755D02*
X459Y755D01*
X1193Y755D02*
X1200Y755D01*
X452Y754D02*
X459Y754D01*
X1193Y754D02*
X1200Y754D01*
X452Y753D02*
X459Y753D01*
X1193Y753D02*
X1200Y753D01*
X452Y752D02*
X459Y752D01*
X1193Y752D02*
X1200Y752D01*
X452Y751D02*
X459Y751D01*
X1193Y751D02*
X1200Y751D01*
X452Y750D02*
X459Y750D01*
X1193Y750D02*
X1200Y750D01*
X452Y749D02*
X459Y749D01*
X1193Y749D02*
X1200Y749D01*
X452Y748D02*
X459Y748D01*
X1193Y748D02*
X1200Y748D01*
X452Y747D02*
X459Y747D01*
X1193Y747D02*
X1200Y747D01*
X452Y746D02*
X459Y746D01*
X1193Y746D02*
X1200Y746D01*
X452Y745D02*
X459Y745D01*
X1193Y745D02*
X1200Y745D01*
X452Y744D02*
X459Y744D01*
X1193Y744D02*
X1200Y744D01*
X452Y743D02*
X459Y743D01*
X1193Y743D02*
X1200Y743D01*
X452Y742D02*
X459Y742D01*
X1193Y742D02*
X1200Y742D01*
X452Y741D02*
X459Y741D01*
X1193Y741D02*
X1200Y741D01*
X452Y740D02*
X459Y740D01*
X1193Y740D02*
X1200Y740D01*
X452Y739D02*
X459Y739D01*
X1193Y739D02*
X1200Y739D01*
X452Y738D02*
X459Y738D01*
X1193Y738D02*
X1200Y738D01*
X452Y737D02*
X459Y737D01*
X1193Y737D02*
X1200Y737D01*
X452Y736D02*
X459Y736D01*
X1193Y736D02*
X1200Y736D01*
X452Y735D02*
X459Y735D01*
X1193Y735D02*
X1200Y735D01*
X452Y734D02*
X459Y734D01*
X1193Y734D02*
X1200Y734D01*
X452Y733D02*
X459Y733D01*
X1193Y733D02*
X1200Y733D01*
X452Y732D02*
X459Y732D01*
X1193Y732D02*
X1200Y732D01*
X452Y731D02*
X459Y731D01*
X1193Y731D02*
X1200Y731D01*
X452Y730D02*
X459Y730D01*
X1193Y730D02*
X1200Y730D01*
X452Y729D02*
X459Y729D01*
X1193Y729D02*
X1200Y729D01*
X452Y728D02*
X459Y728D01*
X1193Y728D02*
X1200Y728D01*
X452Y727D02*
X459Y727D01*
X1193Y727D02*
X1200Y727D01*
X452Y726D02*
X459Y726D01*
X1193Y726D02*
X1200Y726D01*
X452Y725D02*
X459Y725D01*
X1193Y725D02*
X1200Y725D01*
X452Y724D02*
X459Y724D01*
X1193Y724D02*
X1200Y724D01*
X452Y723D02*
X459Y723D01*
X1193Y723D02*
X1200Y723D01*
X452Y722D02*
X459Y722D01*
X1193Y722D02*
X1200Y722D01*
X452Y721D02*
X459Y721D01*
X1193Y721D02*
X1200Y721D01*
X452Y720D02*
X459Y720D01*
X1193Y720D02*
X1200Y720D01*
X452Y719D02*
X459Y719D01*
X1193Y719D02*
X1200Y719D01*
X452Y718D02*
X459Y718D01*
X1193Y718D02*
X1200Y718D01*
X452Y717D02*
X459Y717D01*
X1193Y717D02*
X1200Y717D01*
X452Y716D02*
X459Y716D01*
X1193Y716D02*
X1200Y716D01*
X452Y715D02*
X459Y715D01*
X1193Y715D02*
X1200Y715D01*
X452Y714D02*
X459Y714D01*
X1193Y714D02*
X1200Y714D01*
X452Y713D02*
X459Y713D01*
X1193Y713D02*
X1200Y713D01*
X452Y712D02*
X459Y712D01*
X1193Y712D02*
X1200Y712D01*
X452Y711D02*
X459Y711D01*
X1193Y711D02*
X1200Y711D01*
X452Y710D02*
X459Y710D01*
X1193Y710D02*
X1200Y710D01*
X452Y709D02*
X459Y709D01*
X1193Y709D02*
X1200Y709D01*
X452Y708D02*
X459Y708D01*
X1193Y708D02*
X1200Y708D01*
X452Y707D02*
X459Y707D01*
X1193Y707D02*
X1200Y707D01*
X452Y706D02*
X459Y706D01*
X1193Y706D02*
X1200Y706D01*
X452Y705D02*
X459Y705D01*
X1193Y705D02*
X1200Y705D01*
X452Y704D02*
X459Y704D01*
X1193Y704D02*
X1200Y704D01*
X452Y703D02*
X459Y703D01*
X1193Y703D02*
X1200Y703D01*
X452Y702D02*
X459Y702D01*
X1193Y702D02*
X1200Y702D01*
X452Y701D02*
X459Y701D01*
X1193Y701D02*
X1200Y701D01*
X452Y700D02*
X459Y700D01*
X1193Y700D02*
X1200Y700D01*
X452Y699D02*
X459Y699D01*
X1193Y699D02*
X1200Y699D01*
X452Y698D02*
X459Y698D01*
X1193Y698D02*
X1200Y698D01*
X452Y697D02*
X459Y697D01*
X1193Y697D02*
X1200Y697D01*
X452Y696D02*
X459Y696D01*
X1193Y696D02*
X1200Y696D01*
X452Y695D02*
X459Y695D01*
X1193Y695D02*
X1200Y695D01*
X452Y694D02*
X459Y694D01*
X1193Y694D02*
X1200Y694D01*
X452Y693D02*
X459Y693D01*
X1193Y693D02*
X1200Y693D01*
X452Y692D02*
X459Y692D01*
X1193Y692D02*
X1200Y692D01*
X452Y691D02*
X459Y691D01*
X1193Y691D02*
X1200Y691D01*
X452Y690D02*
X459Y690D01*
X1193Y690D02*
X1200Y690D01*
X452Y689D02*
X459Y689D01*
X1193Y689D02*
X1200Y689D01*
X452Y688D02*
X459Y688D01*
X1193Y688D02*
X1200Y688D01*
X452Y687D02*
X459Y687D01*
X1193Y687D02*
X1200Y687D01*
X452Y686D02*
X459Y686D01*
X1193Y686D02*
X1200Y686D01*
X452Y685D02*
X459Y685D01*
X1193Y685D02*
X1200Y685D01*
X452Y684D02*
X459Y684D01*
X1193Y684D02*
X1200Y684D01*
X452Y683D02*
X459Y683D01*
X1193Y683D02*
X1200Y683D01*
X452Y682D02*
X459Y682D01*
X1193Y682D02*
X1200Y682D01*
X452Y681D02*
X459Y681D01*
X1193Y681D02*
X1200Y681D01*
X452Y680D02*
X459Y680D01*
X1193Y680D02*
X1200Y680D01*
X452Y679D02*
X459Y679D01*
X1193Y679D02*
X1200Y679D01*
X452Y678D02*
X459Y678D01*
X1193Y678D02*
X1200Y678D01*
X452Y677D02*
X459Y677D01*
X1193Y677D02*
X1200Y677D01*
X452Y676D02*
X459Y676D01*
X1193Y676D02*
X1200Y676D01*
X452Y675D02*
X459Y675D01*
X1193Y675D02*
X1200Y675D01*
X452Y674D02*
X459Y674D01*
X1193Y674D02*
X1200Y674D01*
X452Y673D02*
X459Y673D01*
X1193Y673D02*
X1200Y673D01*
X452Y672D02*
X459Y672D01*
X1193Y672D02*
X1200Y672D01*
X452Y671D02*
X459Y671D01*
X1193Y671D02*
X1200Y671D01*
X452Y670D02*
X459Y670D01*
X1193Y670D02*
X1200Y670D01*
X452Y669D02*
X459Y669D01*
X1193Y669D02*
X1200Y669D01*
X452Y668D02*
X459Y668D01*
X1193Y668D02*
X1200Y668D01*
X452Y667D02*
X459Y667D01*
X1193Y667D02*
X1200Y667D01*
X452Y666D02*
X459Y666D01*
X1193Y666D02*
X1200Y666D01*
X452Y665D02*
X459Y665D01*
X1193Y665D02*
X1200Y665D01*
X452Y664D02*
X459Y664D01*
X1193Y664D02*
X1200Y664D01*
X452Y663D02*
X459Y663D01*
X1193Y663D02*
X1200Y663D01*
X452Y662D02*
X459Y662D01*
X1193Y662D02*
X1200Y662D01*
X452Y661D02*
X459Y661D01*
X1193Y661D02*
X1200Y661D01*
X452Y660D02*
X459Y660D01*
X1193Y660D02*
X1200Y660D01*
X452Y659D02*
X459Y659D01*
X1193Y659D02*
X1200Y659D01*
X452Y658D02*
X459Y658D01*
X1193Y658D02*
X1200Y658D01*
X452Y657D02*
X459Y657D01*
X1193Y657D02*
X1200Y657D01*
X452Y656D02*
X459Y656D01*
X1193Y656D02*
X1200Y656D01*
X452Y655D02*
X459Y655D01*
X1193Y655D02*
X1200Y655D01*
X452Y654D02*
X459Y654D01*
X1193Y654D02*
X1200Y654D01*
X452Y653D02*
X459Y653D01*
X1193Y653D02*
X1200Y653D01*
X452Y652D02*
X459Y652D01*
X1193Y652D02*
X1200Y652D01*
X452Y651D02*
X459Y651D01*
X1193Y651D02*
X1200Y651D01*
X452Y650D02*
X459Y650D01*
X1193Y650D02*
X1200Y650D01*
X452Y649D02*
X459Y649D01*
X1193Y649D02*
X1200Y649D01*
X452Y648D02*
X459Y648D01*
X1193Y648D02*
X1200Y648D01*
X452Y647D02*
X459Y647D01*
X1193Y647D02*
X1200Y647D01*
X452Y646D02*
X459Y646D01*
X1193Y646D02*
X1200Y646D01*
X452Y645D02*
X459Y645D01*
X1193Y645D02*
X1200Y645D01*
X452Y644D02*
X459Y644D01*
X1193Y644D02*
X1200Y644D01*
X452Y643D02*
X459Y643D01*
X1193Y643D02*
X1200Y643D01*
X452Y642D02*
X459Y642D01*
X1193Y642D02*
X1200Y642D01*
X452Y641D02*
X459Y641D01*
X1193Y641D02*
X1200Y641D01*
X452Y640D02*
X459Y640D01*
X1193Y640D02*
X1200Y640D01*
X452Y639D02*
X459Y639D01*
X1193Y639D02*
X1200Y639D01*
X452Y638D02*
X459Y638D01*
X1193Y638D02*
X1200Y638D01*
X452Y637D02*
X459Y637D01*
X1193Y637D02*
X1200Y637D01*
X452Y636D02*
X459Y636D01*
X1193Y636D02*
X1200Y636D01*
X452Y635D02*
X459Y635D01*
X1193Y635D02*
X1200Y635D01*
X452Y634D02*
X459Y634D01*
X1193Y634D02*
X1200Y634D01*
X452Y633D02*
X459Y633D01*
X1193Y633D02*
X1200Y633D01*
X452Y632D02*
X459Y632D01*
X1193Y632D02*
X1200Y632D01*
X452Y631D02*
X459Y631D01*
X1193Y631D02*
X1200Y631D01*
X452Y630D02*
X459Y630D01*
X1193Y630D02*
X1200Y630D01*
X452Y629D02*
X459Y629D01*
X1193Y629D02*
X1200Y629D01*
X452Y628D02*
X459Y628D01*
X1193Y628D02*
X1200Y628D01*
X452Y627D02*
X459Y627D01*
X1193Y627D02*
X1200Y627D01*
X452Y626D02*
X459Y626D01*
X1193Y626D02*
X1200Y626D01*
X452Y625D02*
X459Y625D01*
X1193Y625D02*
X1200Y625D01*
X452Y624D02*
X459Y624D01*
X1193Y624D02*
X1200Y624D01*
X452Y623D02*
X459Y623D01*
X1193Y623D02*
X1200Y623D01*
X452Y622D02*
X459Y622D01*
X1193Y622D02*
X1200Y622D01*
X452Y621D02*
X459Y621D01*
X1193Y621D02*
X1200Y621D01*
X452Y620D02*
X459Y620D01*
X1193Y620D02*
X1200Y620D01*
X452Y619D02*
X459Y619D01*
X1193Y619D02*
X1200Y619D01*
X452Y618D02*
X459Y618D01*
X1193Y618D02*
X1200Y618D01*
X452Y617D02*
X459Y617D01*
X1193Y617D02*
X1200Y617D01*
X452Y616D02*
X459Y616D01*
X1193Y616D02*
X1200Y616D01*
X452Y615D02*
X459Y615D01*
X1193Y615D02*
X1200Y615D01*
X452Y614D02*
X459Y614D01*
X1193Y614D02*
X1200Y614D01*
X452Y613D02*
X459Y613D01*
X1193Y613D02*
X1200Y613D01*
X452Y612D02*
X459Y612D01*
X1193Y612D02*
X1200Y612D01*
X452Y611D02*
X459Y611D01*
X1193Y611D02*
X1200Y611D01*
X452Y610D02*
X459Y610D01*
X1193Y610D02*
X1200Y610D01*
X452Y609D02*
X459Y609D01*
X1193Y609D02*
X1200Y609D01*
X452Y608D02*
X459Y608D01*
X1193Y608D02*
X1200Y608D01*
X452Y607D02*
X459Y607D01*
X1193Y607D02*
X1200Y607D01*
X452Y606D02*
X459Y606D01*
X1193Y606D02*
X1200Y606D01*
X452Y605D02*
X459Y605D01*
X1193Y605D02*
X1200Y605D01*
X452Y604D02*
X459Y604D01*
X1193Y604D02*
X1200Y604D01*
X452Y603D02*
X459Y603D01*
X1193Y603D02*
X1200Y603D01*
X452Y602D02*
X459Y602D01*
X1193Y602D02*
X1200Y602D01*
X452Y601D02*
X459Y601D01*
X1193Y601D02*
X1200Y601D01*
X452Y600D02*
X459Y600D01*
X1193Y600D02*
X1200Y600D01*
X452Y599D02*
X459Y599D01*
X1193Y599D02*
X1200Y599D01*
X452Y598D02*
X459Y598D01*
X1193Y598D02*
X1200Y598D01*
X452Y597D02*
X459Y597D01*
X1193Y597D02*
X1200Y597D01*
X452Y596D02*
X459Y596D01*
X1193Y596D02*
X1200Y596D01*
X452Y595D02*
X459Y595D01*
X1193Y595D02*
X1200Y595D01*
X452Y594D02*
X459Y594D01*
X1193Y594D02*
X1200Y594D01*
X452Y593D02*
X459Y593D01*
X1193Y593D02*
X1200Y593D01*
X452Y592D02*
X459Y592D01*
X1193Y592D02*
X1200Y592D01*
X452Y591D02*
X459Y591D01*
X1193Y591D02*
X1200Y591D01*
X452Y590D02*
X459Y590D01*
X1193Y590D02*
X1200Y590D01*
X452Y589D02*
X459Y589D01*
X1193Y589D02*
X1200Y589D01*
X452Y588D02*
X459Y588D01*
X1193Y588D02*
X1200Y588D01*
X452Y587D02*
X459Y587D01*
X1193Y587D02*
X1200Y587D01*
X452Y586D02*
X459Y586D01*
X1193Y586D02*
X1200Y586D01*
X452Y585D02*
X459Y585D01*
X1193Y585D02*
X1200Y585D01*
X452Y584D02*
X459Y584D01*
X1193Y584D02*
X1200Y584D01*
X452Y583D02*
X459Y583D01*
X1193Y583D02*
X1200Y583D01*
X452Y582D02*
X459Y582D01*
X1193Y582D02*
X1200Y582D01*
X452Y581D02*
X459Y581D01*
X1193Y581D02*
X1200Y581D01*
X452Y580D02*
X459Y580D01*
X1193Y580D02*
X1200Y580D01*
X452Y579D02*
X459Y579D01*
X1193Y579D02*
X1200Y579D01*
X452Y578D02*
X459Y578D01*
X1193Y578D02*
X1200Y578D01*
X452Y577D02*
X459Y577D01*
X1193Y577D02*
X1200Y577D01*
X452Y576D02*
X459Y576D01*
X1193Y576D02*
X1200Y576D01*
X452Y575D02*
X459Y575D01*
X1193Y575D02*
X1200Y575D01*
X452Y574D02*
X459Y574D01*
X1193Y574D02*
X1200Y574D01*
X452Y573D02*
X459Y573D01*
X1193Y573D02*
X1200Y573D01*
X452Y572D02*
X459Y572D01*
X1193Y572D02*
X1200Y572D01*
X452Y571D02*
X459Y571D01*
X1193Y571D02*
X1200Y571D01*
X452Y570D02*
X459Y570D01*
X1193Y570D02*
X1200Y570D01*
X452Y569D02*
X459Y569D01*
X1193Y569D02*
X1200Y569D01*
X452Y568D02*
X459Y568D01*
X1193Y568D02*
X1200Y568D01*
X452Y567D02*
X459Y567D01*
X1193Y567D02*
X1200Y567D01*
X452Y566D02*
X459Y566D01*
X1193Y566D02*
X1200Y566D01*
X452Y565D02*
X459Y565D01*
X1193Y565D02*
X1200Y565D01*
X452Y564D02*
X459Y564D01*
X1193Y564D02*
X1200Y564D01*
X452Y563D02*
X459Y563D01*
X1193Y563D02*
X1200Y563D01*
X452Y562D02*
X459Y562D01*
X1193Y562D02*
X1200Y562D01*
X452Y561D02*
X459Y561D01*
X1193Y561D02*
X1200Y561D01*
X452Y560D02*
X459Y560D01*
X1193Y560D02*
X1200Y560D01*
X452Y559D02*
X459Y559D01*
X1193Y559D02*
X1200Y559D01*
X452Y558D02*
X459Y558D01*
X1193Y558D02*
X1200Y558D01*
X452Y557D02*
X459Y557D01*
X1193Y557D02*
X1200Y557D01*
X452Y556D02*
X459Y556D01*
X1193Y556D02*
X1200Y556D01*
X452Y555D02*
X459Y555D01*
X1193Y555D02*
X1200Y555D01*
X452Y554D02*
X459Y554D01*
X1193Y554D02*
X1200Y554D01*
X452Y553D02*
X459Y553D01*
X1193Y553D02*
X1200Y553D01*
X452Y552D02*
X459Y552D01*
X1193Y552D02*
X1200Y552D01*
X452Y551D02*
X459Y551D01*
X1193Y551D02*
X1200Y551D01*
X452Y550D02*
X459Y550D01*
X1193Y550D02*
X1200Y550D01*
X452Y549D02*
X459Y549D01*
X1193Y549D02*
X1200Y549D01*
X452Y548D02*
X459Y548D01*
X1193Y548D02*
X1200Y548D01*
X452Y547D02*
X459Y547D01*
X1193Y547D02*
X1200Y547D01*
X452Y546D02*
X459Y546D01*
X1193Y546D02*
X1200Y546D01*
X452Y545D02*
X459Y545D01*
X1193Y545D02*
X1200Y545D01*
X452Y544D02*
X459Y544D01*
X1193Y544D02*
X1200Y544D01*
X452Y543D02*
X459Y543D01*
X1193Y543D02*
X1200Y543D01*
X452Y542D02*
X459Y542D01*
X1193Y542D02*
X1200Y542D01*
X452Y541D02*
X459Y541D01*
X1193Y541D02*
X1200Y541D01*
X452Y540D02*
X459Y540D01*
X1193Y540D02*
X1200Y540D01*
X452Y539D02*
X459Y539D01*
X1193Y539D02*
X1200Y539D01*
X452Y538D02*
X459Y538D01*
X1193Y538D02*
X1200Y538D01*
X452Y537D02*
X459Y537D01*
X1193Y537D02*
X1200Y537D01*
X452Y536D02*
X459Y536D01*
X1193Y536D02*
X1200Y536D01*
X452Y535D02*
X459Y535D01*
X1193Y535D02*
X1200Y535D01*
X452Y534D02*
X459Y534D01*
X1193Y534D02*
X1200Y534D01*
X452Y533D02*
X459Y533D01*
X1193Y533D02*
X1200Y533D01*
X452Y532D02*
X459Y532D01*
X1193Y532D02*
X1200Y532D01*
X452Y531D02*
X459Y531D01*
X1193Y531D02*
X1200Y531D01*
X452Y530D02*
X459Y530D01*
X1193Y530D02*
X1200Y530D01*
X452Y529D02*
X459Y529D01*
X1193Y529D02*
X1200Y529D01*
X452Y528D02*
X459Y528D01*
X1193Y528D02*
X1200Y528D01*
X452Y527D02*
X459Y527D01*
X1193Y527D02*
X1200Y527D01*
X452Y526D02*
X459Y526D01*
X1193Y526D02*
X1200Y526D01*
X452Y525D02*
X459Y525D01*
X1193Y525D02*
X1200Y525D01*
X452Y524D02*
X459Y524D01*
X1193Y524D02*
X1200Y524D01*
X452Y523D02*
X459Y523D01*
X1193Y523D02*
X1200Y523D01*
X452Y522D02*
X459Y522D01*
X1193Y522D02*
X1200Y522D01*
X452Y521D02*
X459Y521D01*
X1193Y521D02*
X1200Y521D01*
X452Y520D02*
X459Y520D01*
X1193Y520D02*
X1200Y520D01*
X452Y519D02*
X459Y519D01*
X1193Y519D02*
X1200Y519D01*
X452Y518D02*
X459Y518D01*
X1193Y518D02*
X1200Y518D01*
X452Y517D02*
X459Y517D01*
X1193Y517D02*
X1200Y517D01*
X452Y516D02*
X459Y516D01*
X1193Y516D02*
X1200Y516D01*
X452Y515D02*
X459Y515D01*
X1193Y515D02*
X1200Y515D01*
X452Y514D02*
X459Y514D01*
X1193Y514D02*
X1200Y514D01*
X452Y513D02*
X459Y513D01*
X1193Y513D02*
X1200Y513D01*
X452Y512D02*
X459Y512D01*
X1193Y512D02*
X1200Y512D01*
X452Y511D02*
X459Y511D01*
X1193Y511D02*
X1200Y511D01*
X452Y510D02*
X459Y510D01*
X1193Y510D02*
X1200Y510D01*
X452Y509D02*
X459Y509D01*
X1193Y509D02*
X1200Y509D01*
X452Y508D02*
X459Y508D01*
X1193Y508D02*
X1200Y508D01*
X452Y507D02*
X459Y507D01*
X1193Y507D02*
X1200Y507D01*
X452Y506D02*
X459Y506D01*
X1193Y506D02*
X1200Y506D01*
X452Y505D02*
X459Y505D01*
X1193Y505D02*
X1200Y505D01*
X452Y504D02*
X459Y504D01*
X1193Y504D02*
X1200Y504D01*
X452Y503D02*
X459Y503D01*
X1193Y503D02*
X1200Y503D01*
X452Y502D02*
X459Y502D01*
X1193Y502D02*
X1200Y502D01*
X452Y501D02*
X459Y501D01*
X1193Y501D02*
X1200Y501D01*
X452Y500D02*
X459Y500D01*
X1193Y500D02*
X1200Y500D01*
X452Y499D02*
X459Y499D01*
X1193Y499D02*
X1200Y499D01*
X452Y498D02*
X459Y498D01*
X1193Y498D02*
X1200Y498D01*
X452Y497D02*
X459Y497D01*
X1193Y497D02*
X1200Y497D01*
X452Y496D02*
X459Y496D01*
X1193Y496D02*
X1200Y496D01*
X452Y495D02*
X459Y495D01*
X1193Y495D02*
X1200Y495D01*
X452Y494D02*
X459Y494D01*
X1193Y494D02*
X1200Y494D01*
X452Y493D02*
X459Y493D01*
X1193Y493D02*
X1200Y493D01*
X452Y492D02*
X459Y492D01*
X1193Y492D02*
X1200Y492D01*
X452Y491D02*
X459Y491D01*
X1193Y491D02*
X1200Y491D01*
X452Y490D02*
X459Y490D01*
X1193Y490D02*
X1200Y490D01*
X452Y489D02*
X459Y489D01*
X1193Y489D02*
X1200Y489D01*
X452Y488D02*
X459Y488D01*
X1193Y488D02*
X1200Y488D01*
X452Y487D02*
X459Y487D01*
X1193Y487D02*
X1200Y487D01*
X452Y486D02*
X459Y486D01*
X1193Y486D02*
X1200Y486D01*
X452Y485D02*
X459Y485D01*
X1193Y485D02*
X1200Y485D01*
X452Y484D02*
X459Y484D01*
X1193Y484D02*
X1200Y484D01*
X452Y483D02*
X459Y483D01*
X1193Y483D02*
X1200Y483D01*
X452Y482D02*
X459Y482D01*
X1193Y482D02*
X1200Y482D01*
X452Y481D02*
X459Y481D01*
X1193Y481D02*
X1200Y481D01*
X452Y480D02*
X459Y480D01*
X1193Y480D02*
X1200Y480D01*
X452Y479D02*
X459Y479D01*
X1193Y479D02*
X1200Y479D01*
X452Y478D02*
X459Y478D01*
X1193Y478D02*
X1200Y478D01*
X452Y477D02*
X459Y477D01*
X1193Y477D02*
X1200Y477D01*
X452Y476D02*
X459Y476D01*
X1193Y476D02*
X1200Y476D01*
X452Y475D02*
X459Y475D01*
X1193Y475D02*
X1200Y475D01*
X452Y474D02*
X459Y474D01*
X1193Y474D02*
X1200Y474D01*
X452Y473D02*
X459Y473D01*
X1193Y473D02*
X1200Y473D01*
X452Y472D02*
X459Y472D01*
X1193Y472D02*
X1200Y472D01*
X452Y471D02*
X459Y471D01*
X1193Y471D02*
X1200Y471D01*
X452Y470D02*
X459Y470D01*
X1193Y470D02*
X1200Y470D01*
X452Y469D02*
X459Y469D01*
X1193Y469D02*
X1200Y469D01*
X452Y468D02*
X459Y468D01*
X1193Y468D02*
X1200Y468D01*
X452Y467D02*
X459Y467D01*
X1193Y467D02*
X1200Y467D01*
X452Y466D02*
X459Y466D01*
X1193Y466D02*
X1200Y466D01*
X452Y465D02*
X459Y465D01*
X1193Y465D02*
X1200Y465D01*
X452Y464D02*
X459Y464D01*
X1193Y464D02*
X1200Y464D01*
X452Y463D02*
X459Y463D01*
X1193Y463D02*
X1200Y463D01*
X452Y462D02*
X459Y462D01*
X1193Y462D02*
X1200Y462D01*
X452Y461D02*
X459Y461D01*
X1193Y461D02*
X1200Y461D01*
X452Y460D02*
X459Y460D01*
X1193Y460D02*
X1200Y460D01*
X452Y459D02*
X459Y459D01*
X1193Y459D02*
X1200Y459D01*
X452Y458D02*
X459Y458D01*
X1193Y458D02*
X1200Y458D01*
X452Y457D02*
X459Y457D01*
X1193Y457D02*
X1200Y457D01*
X452Y456D02*
X459Y456D01*
X1193Y456D02*
X1200Y456D01*
X452Y455D02*
X459Y455D01*
X1193Y455D02*
X1200Y455D01*
X452Y454D02*
X459Y454D01*
X1193Y454D02*
X1200Y454D01*
X452Y453D02*
X459Y453D01*
X1193Y453D02*
X1200Y453D01*
X452Y452D02*
X459Y452D01*
X1193Y452D02*
X1200Y452D01*
X452Y451D02*
X459Y451D01*
X1193Y451D02*
X1200Y451D01*
X452Y450D02*
X459Y450D01*
X1193Y450D02*
X1200Y450D01*
X452Y449D02*
X459Y449D01*
X1193Y449D02*
X1200Y449D01*
X452Y448D02*
X459Y448D01*
X1193Y448D02*
X1200Y448D01*
X452Y447D02*
X459Y447D01*
X1193Y447D02*
X1200Y447D01*
X452Y446D02*
X459Y446D01*
X1193Y446D02*
X1200Y446D01*
X452Y445D02*
X459Y445D01*
X1193Y445D02*
X1200Y445D01*
X452Y444D02*
X459Y444D01*
X1193Y444D02*
X1200Y444D01*
X452Y443D02*
X459Y443D01*
X1193Y443D02*
X1200Y443D01*
X452Y442D02*
X459Y442D01*
X1193Y442D02*
X1200Y442D01*
X452Y441D02*
X459Y441D01*
X1193Y441D02*
X1200Y441D01*
X452Y440D02*
X459Y440D01*
X1193Y440D02*
X1200Y440D01*
X452Y439D02*
X459Y439D01*
X1193Y439D02*
X1200Y439D01*
X452Y438D02*
X459Y438D01*
X1193Y438D02*
X1200Y438D01*
X452Y437D02*
X459Y437D01*
X1193Y437D02*
X1200Y437D01*
X452Y436D02*
X459Y436D01*
X1193Y436D02*
X1200Y436D01*
X452Y435D02*
X459Y435D01*
X1193Y435D02*
X1200Y435D01*
X452Y434D02*
X459Y434D01*
X1193Y434D02*
X1200Y434D01*
X452Y433D02*
X459Y433D01*
X1193Y433D02*
X1200Y433D01*
X452Y432D02*
X459Y432D01*
X1193Y432D02*
X1200Y432D01*
X452Y431D02*
X459Y431D01*
X1193Y431D02*
X1200Y431D01*
X452Y430D02*
X459Y430D01*
X1193Y430D02*
X1200Y430D01*
X452Y429D02*
X459Y429D01*
X1193Y429D02*
X1200Y429D01*
X452Y428D02*
X459Y428D01*
X1193Y428D02*
X1200Y428D01*
X452Y427D02*
X459Y427D01*
X1193Y427D02*
X1200Y427D01*
X452Y426D02*
X459Y426D01*
X1193Y426D02*
X1200Y426D01*
X452Y425D02*
X459Y425D01*
X1193Y425D02*
X1200Y425D01*
X452Y424D02*
X459Y424D01*
X1193Y424D02*
X1200Y424D01*
X452Y423D02*
X459Y423D01*
X1193Y423D02*
X1200Y423D01*
X452Y422D02*
X459Y422D01*
X1193Y422D02*
X1200Y422D01*
X452Y421D02*
X459Y421D01*
X1193Y421D02*
X1200Y421D01*
X452Y420D02*
X459Y420D01*
X1193Y420D02*
X1200Y420D01*
X452Y419D02*
X459Y419D01*
X1193Y419D02*
X1200Y419D01*
X452Y418D02*
X459Y418D01*
X1193Y418D02*
X1200Y418D01*
X452Y417D02*
X459Y417D01*
X1193Y417D02*
X1200Y417D01*
X452Y416D02*
X459Y416D01*
X1193Y416D02*
X1200Y416D01*
X452Y415D02*
X459Y415D01*
X1193Y415D02*
X1200Y415D01*
X452Y414D02*
X459Y414D01*
X1193Y414D02*
X1200Y414D01*
X452Y413D02*
X459Y413D01*
X1193Y413D02*
X1200Y413D01*
X452Y412D02*
X459Y412D01*
X1193Y412D02*
X1200Y412D01*
X452Y411D02*
X459Y411D01*
X1193Y411D02*
X1200Y411D01*
X452Y410D02*
X459Y410D01*
X1193Y410D02*
X1200Y410D01*
X452Y409D02*
X459Y409D01*
X1193Y409D02*
X1200Y409D01*
X452Y408D02*
X459Y408D01*
X1193Y408D02*
X1200Y408D01*
X452Y407D02*
X459Y407D01*
X1193Y407D02*
X1200Y407D01*
X452Y406D02*
X459Y406D01*
X1193Y406D02*
X1200Y406D01*
X452Y405D02*
X459Y405D01*
X1193Y405D02*
X1200Y405D01*
X452Y404D02*
X459Y404D01*
X1193Y404D02*
X1200Y404D01*
X452Y403D02*
X459Y403D01*
X1193Y403D02*
X1200Y403D01*
X452Y402D02*
X459Y402D01*
X1193Y402D02*
X1200Y402D01*
X452Y401D02*
X459Y401D01*
X1193Y401D02*
X1200Y401D01*
X452Y400D02*
X459Y400D01*
X1193Y400D02*
X1200Y400D01*
X452Y399D02*
X459Y399D01*
X1193Y399D02*
X1200Y399D01*
X452Y398D02*
X459Y398D01*
X1193Y398D02*
X1200Y398D01*
X452Y397D02*
X459Y397D01*
X1193Y397D02*
X1200Y397D01*
X452Y396D02*
X459Y396D01*
X1193Y396D02*
X1200Y396D01*
X452Y395D02*
X459Y395D01*
X1193Y395D02*
X1200Y395D01*
X452Y394D02*
X459Y394D01*
X1193Y394D02*
X1200Y394D01*
X452Y393D02*
X459Y393D01*
X1193Y393D02*
X1200Y393D01*
X452Y392D02*
X459Y392D01*
X1193Y392D02*
X1200Y392D01*
X452Y391D02*
X459Y391D01*
X1193Y391D02*
X1200Y391D01*
X452Y390D02*
X459Y390D01*
X1193Y390D02*
X1200Y390D01*
X452Y389D02*
X459Y389D01*
X1193Y389D02*
X1200Y389D01*
X452Y388D02*
X459Y388D01*
X1193Y388D02*
X1200Y388D01*
X452Y387D02*
X459Y387D01*
X1193Y387D02*
X1200Y387D01*
X452Y386D02*
X459Y386D01*
X1193Y386D02*
X1200Y386D01*
X452Y385D02*
X459Y385D01*
X1193Y385D02*
X1200Y385D01*
X452Y384D02*
X459Y384D01*
X1193Y384D02*
X1200Y384D01*
X452Y383D02*
X459Y383D01*
X1193Y383D02*
X1200Y383D01*
X452Y382D02*
X459Y382D01*
X1193Y382D02*
X1200Y382D01*
X452Y381D02*
X459Y381D01*
X1193Y381D02*
X1200Y381D01*
X452Y380D02*
X459Y380D01*
X1193Y380D02*
X1200Y380D01*
X452Y379D02*
X459Y379D01*
X1193Y379D02*
X1200Y379D01*
X452Y378D02*
X459Y378D01*
X1193Y378D02*
X1200Y378D01*
X452Y377D02*
X459Y377D01*
X1193Y377D02*
X1200Y377D01*
X452Y376D02*
X459Y376D01*
X1193Y376D02*
X1200Y376D01*
X452Y375D02*
X459Y375D01*
X1193Y375D02*
X1200Y375D01*
X452Y374D02*
X459Y374D01*
X1193Y374D02*
X1200Y374D01*
X452Y373D02*
X459Y373D01*
X1193Y373D02*
X1200Y373D01*
X452Y372D02*
X459Y372D01*
X1193Y372D02*
X1200Y372D01*
X452Y371D02*
X459Y371D01*
X1193Y371D02*
X1200Y371D01*
X452Y370D02*
X459Y370D01*
X1193Y370D02*
X1200Y370D01*
X452Y369D02*
X459Y369D01*
X1193Y369D02*
X1200Y369D01*
X452Y368D02*
X459Y368D01*
X1193Y368D02*
X1200Y368D01*
X452Y367D02*
X459Y367D01*
X1193Y367D02*
X1200Y367D01*
X452Y366D02*
X459Y366D01*
X1193Y366D02*
X1200Y366D01*
X452Y365D02*
X459Y365D01*
X1193Y365D02*
X1200Y365D01*
X452Y364D02*
X459Y364D01*
X1193Y364D02*
X1200Y364D01*
X452Y363D02*
X459Y363D01*
X1193Y363D02*
X1200Y363D01*
X452Y362D02*
X459Y362D01*
X1193Y362D02*
X1200Y362D01*
X452Y361D02*
X459Y361D01*
X1193Y361D02*
X1200Y361D01*
X452Y360D02*
X459Y360D01*
X1193Y360D02*
X1200Y360D01*
X452Y359D02*
X459Y359D01*
X1193Y359D02*
X1200Y359D01*
X452Y358D02*
X459Y358D01*
X1193Y358D02*
X1200Y358D01*
X452Y357D02*
X459Y357D01*
X1193Y357D02*
X1200Y357D01*
X452Y356D02*
X459Y356D01*
X1193Y356D02*
X1200Y356D01*
X452Y355D02*
X459Y355D01*
X1193Y355D02*
X1200Y355D01*
X452Y354D02*
X459Y354D01*
X1193Y354D02*
X1200Y354D01*
X452Y353D02*
X459Y353D01*
X1193Y353D02*
X1200Y353D01*
X452Y352D02*
X459Y352D01*
X1193Y352D02*
X1200Y352D01*
X452Y351D02*
X459Y351D01*
X1193Y351D02*
X1200Y351D01*
X452Y350D02*
X459Y350D01*
X1193Y350D02*
X1200Y350D01*
X452Y349D02*
X459Y349D01*
X1193Y349D02*
X1200Y349D01*
X452Y348D02*
X459Y348D01*
X1193Y348D02*
X1200Y348D01*
X452Y347D02*
X459Y347D01*
X1193Y347D02*
X1200Y347D01*
X452Y346D02*
X459Y346D01*
X1193Y346D02*
X1200Y346D01*
X452Y345D02*
X459Y345D01*
X1193Y345D02*
X1200Y345D01*
X452Y344D02*
X459Y344D01*
X1193Y344D02*
X1200Y344D01*
X452Y343D02*
X459Y343D01*
X1193Y343D02*
X1200Y343D01*
X452Y342D02*
X459Y342D01*
X1193Y342D02*
X1200Y342D01*
X452Y341D02*
X459Y341D01*
X1193Y341D02*
X1200Y341D01*
X452Y340D02*
X459Y340D01*
X1193Y340D02*
X1200Y340D01*
X452Y339D02*
X459Y339D01*
X1193Y339D02*
X1200Y339D01*
X452Y338D02*
X459Y338D01*
X1193Y338D02*
X1200Y338D01*
X452Y337D02*
X459Y337D01*
X1193Y337D02*
X1200Y337D01*
X452Y336D02*
X459Y336D01*
X1193Y336D02*
X1200Y336D01*
X452Y335D02*
X459Y335D01*
X1193Y335D02*
X1200Y335D01*
X452Y334D02*
X459Y334D01*
X1193Y334D02*
X1200Y334D01*
X452Y333D02*
X459Y333D01*
X1193Y333D02*
X1200Y333D01*
X453Y332D02*
X460Y332D01*
X1192Y332D02*
X1199Y332D01*
X453Y331D02*
X460Y331D01*
X1192Y331D02*
X1199Y331D01*
X453Y330D02*
X460Y330D01*
X1192Y330D02*
X1199Y330D01*
X453Y329D02*
X460Y329D01*
X1192Y329D02*
X1199Y329D01*
X453Y328D02*
X460Y328D01*
X1192Y328D02*
X1199Y328D01*
X453Y327D02*
X460Y327D01*
X1192Y327D02*
X1199Y327D01*
X454Y326D02*
X461Y326D01*
X1191Y326D02*
X1198Y326D01*
X454Y325D02*
X461Y325D01*
X1191Y325D02*
X1198Y325D01*
X454Y324D02*
X461Y324D01*
X1191Y324D02*
X1198Y324D01*
X454Y323D02*
X461Y323D01*
X1191Y323D02*
X1198Y323D01*
X454Y322D02*
X462Y322D01*
X1190Y322D02*
X1197Y322D01*
X455Y321D02*
X462Y321D01*
X1190Y321D02*
X1197Y321D01*
X455Y320D02*
X462Y320D01*
X1190Y320D02*
X1197Y320D01*
X455Y319D02*
X462Y319D01*
X1190Y319D02*
X1197Y319D01*
X455Y318D02*
X463Y318D01*
X1189Y318D02*
X1196Y318D01*
X456Y317D02*
X463Y317D01*
X1189Y317D02*
X1196Y317D01*
X456Y316D02*
X463Y316D01*
X1189Y316D02*
X1196Y316D01*
X456Y315D02*
X464Y315D01*
X1188Y315D02*
X1195Y315D01*
X457Y314D02*
X464Y314D01*
X1188Y314D02*
X1195Y314D01*
X457Y313D02*
X464Y313D01*
X1187Y313D02*
X1195Y313D01*
X457Y312D02*
X465Y312D01*
X1187Y312D02*
X1194Y312D01*
X458Y311D02*
X465Y311D01*
X1187Y311D02*
X1194Y311D01*
X458Y310D02*
X466Y310D01*
X1186Y310D02*
X1194Y310D01*
X459Y309D02*
X466Y309D01*
X1186Y309D02*
X1193Y309D01*
X459Y308D02*
X467Y308D01*
X1185Y308D02*
X1193Y308D01*
X459Y307D02*
X467Y307D01*
X1185Y307D02*
X1193Y307D01*
X460Y306D02*
X467Y306D01*
X1184Y306D02*
X1192Y306D01*
X460Y305D02*
X468Y305D01*
X1184Y305D02*
X1192Y305D01*
X461Y304D02*
X468Y304D01*
X1184Y304D02*
X1191Y304D01*
X461Y303D02*
X469Y303D01*
X1183Y303D02*
X1191Y303D01*
X462Y302D02*
X469Y302D01*
X1182Y302D02*
X1190Y302D01*
X462Y301D02*
X470Y301D01*
X1182Y301D02*
X1190Y301D01*
X463Y300D02*
X471Y300D01*
X1181Y300D02*
X1189Y300D01*
X463Y299D02*
X471Y299D01*
X1181Y299D02*
X1189Y299D01*
X464Y298D02*
X472Y298D01*
X1180Y298D02*
X1188Y298D01*
X464Y297D02*
X472Y297D01*
X1180Y297D02*
X1188Y297D01*
X465Y296D02*
X473Y296D01*
X1179Y296D02*
X1187Y296D01*
X465Y295D02*
X474Y295D01*
X1178Y295D02*
X1187Y295D01*
X466Y294D02*
X474Y294D01*
X1178Y294D02*
X1186Y294D01*
X467Y293D02*
X475Y293D01*
X1177Y293D02*
X1185Y293D01*
X467Y292D02*
X476Y292D01*
X1176Y292D02*
X1185Y292D01*
X468Y291D02*
X477Y291D01*
X1175Y291D02*
X1184Y291D01*
X468Y290D02*
X477Y290D01*
X1175Y290D02*
X1184Y290D01*
X469Y289D02*
X478Y289D01*
X1174Y289D02*
X1183Y289D01*
X470Y288D02*
X479Y288D01*
X1173Y288D02*
X1182Y288D01*
X471Y287D02*
X480Y287D01*
X1172Y287D02*
X1181Y287D01*
X471Y286D02*
X480Y286D01*
X1171Y286D02*
X1181Y286D01*
X472Y285D02*
X481Y285D01*
X1171Y285D02*
X1180Y285D01*
X473Y284D02*
X482Y284D01*
X1170Y284D02*
X1179Y284D01*
X474Y283D02*
X483Y283D01*
X1169Y283D02*
X1178Y283D01*
X474Y282D02*
X484Y282D01*
X1168Y282D02*
X1178Y282D01*
X475Y281D02*
X485Y281D01*
X1167Y281D02*
X1177Y281D01*
X476Y280D02*
X486Y280D01*
X1166Y280D02*
X1176Y280D01*
X477Y279D02*
X487Y279D01*
X1165Y279D02*
X1175Y279D01*
X478Y278D02*
X488Y278D01*
X1164Y278D02*
X1174Y278D01*
X479Y277D02*
X489Y277D01*
X1163Y277D02*
X1173Y277D01*
X480Y276D02*
X490Y276D01*
X1162Y276D02*
X1172Y276D01*
X481Y275D02*
X491Y275D01*
X1160Y275D02*
X1171Y275D01*
X482Y274D02*
X493Y274D01*
X1159Y274D02*
X1170Y274D01*
X483Y273D02*
X494Y273D01*
X1158Y273D02*
X1169Y273D01*
X484Y272D02*
X495Y272D01*
X1157Y272D02*
X1168Y272D01*
X485Y271D02*
X497Y271D01*
X1155Y271D02*
X1167Y271D01*
X486Y270D02*
X498Y270D01*
X1154Y270D02*
X1166Y270D01*
X487Y269D02*
X499Y269D01*
X1153Y269D02*
X1165Y269D01*
X488Y268D02*
X501Y268D01*
X1151Y268D02*
X1164Y268D01*
X490Y267D02*
X503Y267D01*
X1149Y267D02*
X1162Y267D01*
X491Y266D02*
X504Y266D01*
X1148Y266D02*
X1161Y266D01*
X492Y265D02*
X506Y265D01*
X1146Y265D02*
X1160Y265D01*
X494Y264D02*
X508Y264D01*
X1144Y264D02*
X1158Y264D01*
X495Y263D02*
X510Y263D01*
X1142Y263D02*
X1157Y263D01*
X497Y262D02*
X512Y262D01*
X1140Y262D02*
X1155Y262D01*
X498Y261D02*
X514Y261D01*
X1138Y261D02*
X1154Y261D01*
X500Y260D02*
X516Y260D01*
X1136Y260D02*
X1152Y260D01*
X501Y259D02*
X519Y259D01*
X1133Y259D02*
X1151Y259D01*
X503Y258D02*
X522Y258D01*
X1130Y258D02*
X1149Y258D01*
X505Y257D02*
X525Y257D01*
X1127Y257D02*
X1147Y257D01*
X507Y256D02*
X529Y256D01*
X1123Y256D02*
X1145Y256D01*
X509Y255D02*
X534Y255D01*
X1118Y255D02*
X1143Y255D01*
X511Y254D02*
X541Y254D01*
X1111Y254D02*
X1141Y254D01*
X514Y253D02*
X1138Y253D01*
X516Y252D02*
X1136Y252D01*
X519Y251D02*
X1133Y251D01*
X522Y250D02*
X1130Y250D01*
X525Y249D02*
X1126Y249D01*
X529Y248D02*
X1123Y248D01*
X534Y247D02*
X1118Y247D01*
X542Y246D02*
X1110Y246D01*
D02*
G04 End of Silk1*
M02*