G04 MADE WITH FRITZING*
G04 WWW.FRITZING.ORG*
G04 DOUBLE SIDED*
G04 HOLES PLATED*
G04 CONTOUR ON CENTER OF CONTOUR VECTOR*
%ASAXBY*%
%FSLAX23Y23*%
%MOIN*%
%OFA0B0*%
%SFA1.0B1.0*%
%ADD10C,0.104488*%
%ADD11C,0.084000*%
%ADD12C,0.080000*%
%ADD13R,0.001000X0.001000*%
%LNMASK0*%
G90*
G70*
G54D10*
X1602Y695D03*
G54D11*
X1892Y395D03*
X1902Y495D03*
X1892Y595D03*
X1902Y695D03*
G54D10*
X1302Y495D03*
G54D12*
X1102Y295D03*
X1102Y395D03*
X1102Y495D03*
X1102Y595D03*
X1102Y695D03*
X1102Y795D03*
X1102Y895D03*
G54D13*
X1849Y437D02*
X1932Y437D01*
X1849Y436D02*
X1932Y436D01*
X1849Y435D02*
X1932Y435D01*
X1849Y434D02*
X1932Y434D01*
X1849Y433D02*
X1932Y433D01*
X1849Y432D02*
X1932Y432D01*
X1849Y431D02*
X1932Y431D01*
X1849Y430D02*
X1932Y430D01*
X1849Y429D02*
X1932Y429D01*
X1849Y428D02*
X1932Y428D01*
X1849Y427D02*
X1932Y427D01*
X1849Y426D02*
X1932Y426D01*
X1849Y425D02*
X1932Y425D01*
X1849Y424D02*
X1932Y424D01*
X1849Y423D02*
X1932Y423D01*
X1849Y422D02*
X1932Y422D01*
X1849Y421D02*
X1932Y421D01*
X1849Y420D02*
X1932Y420D01*
X1849Y419D02*
X1932Y419D01*
X1849Y418D02*
X1932Y418D01*
X1849Y417D02*
X1932Y417D01*
X1849Y416D02*
X1932Y416D01*
X1849Y415D02*
X1932Y415D01*
X1849Y414D02*
X1932Y414D01*
X1849Y413D02*
X1932Y413D01*
X1849Y412D02*
X1932Y412D01*
X1849Y411D02*
X1932Y411D01*
X1849Y410D02*
X1886Y410D01*
X1895Y410D02*
X1932Y410D01*
X1849Y409D02*
X1884Y409D01*
X1897Y409D02*
X1932Y409D01*
X1849Y408D02*
X1882Y408D01*
X1899Y408D02*
X1932Y408D01*
X1849Y407D02*
X1881Y407D01*
X1900Y407D02*
X1932Y407D01*
X1849Y406D02*
X1879Y406D01*
X1902Y406D02*
X1932Y406D01*
X1849Y405D02*
X1879Y405D01*
X1902Y405D02*
X1932Y405D01*
X1849Y404D02*
X1878Y404D01*
X1903Y404D02*
X1932Y404D01*
X1849Y403D02*
X1877Y403D01*
X1904Y403D02*
X1932Y403D01*
X1849Y402D02*
X1876Y402D01*
X1905Y402D02*
X1932Y402D01*
X1849Y401D02*
X1876Y401D01*
X1905Y401D02*
X1932Y401D01*
X1849Y400D02*
X1876Y400D01*
X1905Y400D02*
X1932Y400D01*
X1849Y399D02*
X1875Y399D01*
X1906Y399D02*
X1932Y399D01*
X1849Y398D02*
X1875Y398D01*
X1906Y398D02*
X1932Y398D01*
X1849Y397D02*
X1875Y397D01*
X1906Y397D02*
X1932Y397D01*
X1849Y396D02*
X1875Y396D01*
X1906Y396D02*
X1932Y396D01*
X1849Y395D02*
X1875Y395D01*
X1906Y395D02*
X1932Y395D01*
X1849Y394D02*
X1875Y394D01*
X1906Y394D02*
X1932Y394D01*
X1849Y393D02*
X1875Y393D01*
X1906Y393D02*
X1932Y393D01*
X1849Y392D02*
X1875Y392D01*
X1906Y392D02*
X1932Y392D01*
X1849Y391D02*
X1876Y391D01*
X1905Y391D02*
X1932Y391D01*
X1849Y390D02*
X1876Y390D01*
X1905Y390D02*
X1932Y390D01*
X1849Y389D02*
X1876Y389D01*
X1905Y389D02*
X1932Y389D01*
X1849Y388D02*
X1877Y388D01*
X1904Y388D02*
X1932Y388D01*
X1849Y387D02*
X1878Y387D01*
X1903Y387D02*
X1932Y387D01*
X1849Y386D02*
X1878Y386D01*
X1903Y386D02*
X1932Y386D01*
X1849Y385D02*
X1879Y385D01*
X1902Y385D02*
X1932Y385D01*
X1849Y384D02*
X1880Y384D01*
X1901Y384D02*
X1932Y384D01*
X1849Y383D02*
X1882Y383D01*
X1899Y383D02*
X1932Y383D01*
X1849Y382D02*
X1883Y382D01*
X1898Y382D02*
X1932Y382D01*
X1849Y381D02*
X1886Y381D01*
X1895Y381D02*
X1932Y381D01*
X1849Y380D02*
X1932Y380D01*
X1849Y379D02*
X1932Y379D01*
X1849Y378D02*
X1932Y378D01*
X1849Y377D02*
X1932Y377D01*
X1849Y376D02*
X1932Y376D01*
X1849Y375D02*
X1932Y375D01*
X1849Y374D02*
X1932Y374D01*
X1849Y373D02*
X1932Y373D01*
X1849Y372D02*
X1932Y372D01*
X1849Y371D02*
X1932Y371D01*
X1849Y370D02*
X1932Y370D01*
X1849Y369D02*
X1932Y369D01*
X1849Y368D02*
X1932Y368D01*
X1849Y367D02*
X1932Y367D01*
X1849Y366D02*
X1932Y366D01*
X1849Y365D02*
X1932Y365D01*
X1849Y364D02*
X1932Y364D01*
X1849Y363D02*
X1932Y363D01*
X1849Y362D02*
X1932Y362D01*
X1849Y361D02*
X1932Y361D01*
X1849Y360D02*
X1932Y360D01*
X1849Y359D02*
X1932Y359D01*
X1849Y358D02*
X1932Y358D01*
X1849Y357D02*
X1932Y357D01*
X1849Y356D02*
X1932Y356D01*
X1849Y355D02*
X1932Y355D01*
X1849Y354D02*
X1932Y354D01*
D02*
G04 End of Mask0*
M02*