; NON-PLATED HOLES START AT T1
; THROUGH (PLATED) HOLES START AT T100
M48
INCH
T100C0.044139
T101C0.044111
T102C0.040000
T103C0.031496
%
T100
X011476Y016156
X013476Y017156
X006476Y016156
X018476Y017156
X006476Y017156
X013476Y016156
X018476Y016156
X011476Y017156
T101
X016476Y017156
X002476Y017156
X014476Y016156
X004476Y016156
X010475Y016156
X009476Y016156
X015475Y016156
X008475Y016156
X009476Y017156
X017476Y016156
X012476Y016156
X007476Y017156
X005475Y017156
X008475Y017156
X014476Y017156
X003475Y017156
X012476Y017156
X007476Y016156
X019476Y017156
X003475Y016156
X020475Y017156
X016476Y016156
X002476Y016156
X021476Y016156
X017476Y017156
X004476Y017156
X010475Y017156
X005475Y016156
X015475Y017156
X021476Y017156
X020475Y016156
X019476Y016156
T102
X001476Y007156
X001576Y010156
X001476Y005156
X001476Y011156
X001576Y012156
X001476Y001156
X001576Y002156
X001576Y004156
X001476Y009156
X001576Y006156
X001476Y003156
X001576Y008156
T103
X002476Y012156
X003476Y007156
X003476Y003156
X010476Y004156
X006476Y001156
X006476Y005156
X006476Y009156
X004476Y006156
X003476Y011156
X002476Y008156
X004476Y002156
X004476Y010156
T00
M30
