G04 MADE WITH FRITZING*
G04 WWW.FRITZING.ORG*
G04 DOUBLE SIDED*
G04 HOLES PLATED*
G04 CONTOUR ON CENTER OF CONTOUR VECTOR*
%ASAXBY*%
%FSLAX23Y23*%
%MOIN*%
%OFA0B0*%
%SFA1.0B1.0*%
%ADD10C,0.005000*%
%ADD11R,0.001000X0.001000*%
%LNSILK1*%
G90*
G70*
G54D10*
X1302Y342D02*
X1522Y342D01*
D02*
X1302Y742D02*
X1522Y742D01*
D02*
X1302Y742D02*
X1302Y342D01*
D02*
X1522Y742D02*
X1522Y692D01*
D02*
X1522Y392D02*
X1522Y342D01*
D02*
X1522Y392D02*
X1472Y392D01*
D02*
X1472Y692D02*
X1522Y692D01*
D02*
X1792Y342D02*
X2012Y342D01*
D02*
X2012Y742D02*
X2012Y692D01*
D02*
X2012Y692D02*
X2012Y392D01*
D02*
X2012Y392D02*
X2012Y342D01*
D02*
X2012Y392D02*
X1962Y392D01*
D02*
X1962Y392D02*
X1962Y692D01*
D02*
X1962Y692D02*
X2012Y692D01*
G54D11*
X0Y1100D02*
X2111Y1100D01*
X0Y1099D02*
X2111Y1099D01*
X0Y1098D02*
X2111Y1098D01*
X0Y1097D02*
X2111Y1097D01*
X0Y1096D02*
X2111Y1096D01*
X0Y1095D02*
X2111Y1095D01*
X0Y1094D02*
X2111Y1094D01*
X0Y1093D02*
X2111Y1093D01*
X0Y1092D02*
X7Y1092D01*
X2104Y1092D02*
X2111Y1092D01*
X0Y1091D02*
X7Y1091D01*
X2104Y1091D02*
X2111Y1091D01*
X0Y1090D02*
X7Y1090D01*
X2104Y1090D02*
X2111Y1090D01*
X0Y1089D02*
X7Y1089D01*
X2104Y1089D02*
X2111Y1089D01*
X0Y1088D02*
X7Y1088D01*
X2104Y1088D02*
X2111Y1088D01*
X0Y1087D02*
X7Y1087D01*
X2104Y1087D02*
X2111Y1087D01*
X0Y1086D02*
X7Y1086D01*
X2104Y1086D02*
X2111Y1086D01*
X0Y1085D02*
X7Y1085D01*
X2104Y1085D02*
X2111Y1085D01*
X0Y1084D02*
X7Y1084D01*
X2104Y1084D02*
X2111Y1084D01*
X0Y1083D02*
X7Y1083D01*
X2104Y1083D02*
X2111Y1083D01*
X0Y1082D02*
X7Y1082D01*
X2104Y1082D02*
X2111Y1082D01*
X0Y1081D02*
X7Y1081D01*
X2104Y1081D02*
X2111Y1081D01*
X0Y1080D02*
X7Y1080D01*
X2104Y1080D02*
X2111Y1080D01*
X0Y1079D02*
X7Y1079D01*
X2104Y1079D02*
X2111Y1079D01*
X0Y1078D02*
X7Y1078D01*
X2104Y1078D02*
X2111Y1078D01*
X0Y1077D02*
X7Y1077D01*
X2104Y1077D02*
X2111Y1077D01*
X0Y1076D02*
X7Y1076D01*
X2104Y1076D02*
X2111Y1076D01*
X0Y1075D02*
X7Y1075D01*
X2104Y1075D02*
X2111Y1075D01*
X0Y1074D02*
X7Y1074D01*
X2104Y1074D02*
X2111Y1074D01*
X0Y1073D02*
X7Y1073D01*
X2104Y1073D02*
X2111Y1073D01*
X0Y1072D02*
X7Y1072D01*
X2104Y1072D02*
X2111Y1072D01*
X0Y1071D02*
X7Y1071D01*
X2104Y1071D02*
X2111Y1071D01*
X0Y1070D02*
X7Y1070D01*
X2104Y1070D02*
X2111Y1070D01*
X0Y1069D02*
X7Y1069D01*
X2104Y1069D02*
X2111Y1069D01*
X0Y1068D02*
X7Y1068D01*
X2104Y1068D02*
X2111Y1068D01*
X0Y1067D02*
X7Y1067D01*
X2104Y1067D02*
X2111Y1067D01*
X0Y1066D02*
X7Y1066D01*
X2104Y1066D02*
X2111Y1066D01*
X0Y1065D02*
X7Y1065D01*
X2104Y1065D02*
X2111Y1065D01*
X0Y1064D02*
X7Y1064D01*
X2104Y1064D02*
X2111Y1064D01*
X0Y1063D02*
X7Y1063D01*
X2104Y1063D02*
X2111Y1063D01*
X0Y1062D02*
X7Y1062D01*
X2104Y1062D02*
X2111Y1062D01*
X0Y1061D02*
X7Y1061D01*
X2104Y1061D02*
X2111Y1061D01*
X0Y1060D02*
X7Y1060D01*
X2104Y1060D02*
X2111Y1060D01*
X0Y1059D02*
X7Y1059D01*
X2104Y1059D02*
X2111Y1059D01*
X0Y1058D02*
X7Y1058D01*
X2104Y1058D02*
X2111Y1058D01*
X0Y1057D02*
X7Y1057D01*
X2104Y1057D02*
X2111Y1057D01*
X0Y1056D02*
X7Y1056D01*
X2104Y1056D02*
X2111Y1056D01*
X0Y1055D02*
X7Y1055D01*
X2104Y1055D02*
X2111Y1055D01*
X0Y1054D02*
X7Y1054D01*
X2104Y1054D02*
X2111Y1054D01*
X0Y1053D02*
X7Y1053D01*
X2104Y1053D02*
X2111Y1053D01*
X0Y1052D02*
X7Y1052D01*
X2104Y1052D02*
X2111Y1052D01*
X0Y1051D02*
X7Y1051D01*
X2104Y1051D02*
X2111Y1051D01*
X0Y1050D02*
X7Y1050D01*
X2104Y1050D02*
X2111Y1050D01*
X0Y1049D02*
X7Y1049D01*
X2104Y1049D02*
X2111Y1049D01*
X0Y1048D02*
X7Y1048D01*
X2104Y1048D02*
X2111Y1048D01*
X0Y1047D02*
X7Y1047D01*
X2104Y1047D02*
X2111Y1047D01*
X0Y1046D02*
X7Y1046D01*
X2104Y1046D02*
X2111Y1046D01*
X0Y1045D02*
X7Y1045D01*
X2104Y1045D02*
X2111Y1045D01*
X0Y1044D02*
X7Y1044D01*
X2104Y1044D02*
X2111Y1044D01*
X0Y1043D02*
X7Y1043D01*
X2104Y1043D02*
X2111Y1043D01*
X0Y1042D02*
X7Y1042D01*
X2104Y1042D02*
X2111Y1042D01*
X0Y1041D02*
X7Y1041D01*
X2104Y1041D02*
X2111Y1041D01*
X0Y1040D02*
X7Y1040D01*
X2104Y1040D02*
X2111Y1040D01*
X0Y1039D02*
X7Y1039D01*
X2104Y1039D02*
X2111Y1039D01*
X0Y1038D02*
X7Y1038D01*
X2104Y1038D02*
X2111Y1038D01*
X0Y1037D02*
X7Y1037D01*
X2104Y1037D02*
X2111Y1037D01*
X0Y1036D02*
X7Y1036D01*
X2104Y1036D02*
X2111Y1036D01*
X0Y1035D02*
X7Y1035D01*
X2104Y1035D02*
X2111Y1035D01*
X0Y1034D02*
X7Y1034D01*
X2104Y1034D02*
X2111Y1034D01*
X0Y1033D02*
X7Y1033D01*
X2104Y1033D02*
X2111Y1033D01*
X0Y1032D02*
X7Y1032D01*
X2104Y1032D02*
X2111Y1032D01*
X0Y1031D02*
X7Y1031D01*
X2104Y1031D02*
X2111Y1031D01*
X0Y1030D02*
X7Y1030D01*
X2104Y1030D02*
X2111Y1030D01*
X0Y1029D02*
X7Y1029D01*
X2104Y1029D02*
X2111Y1029D01*
X0Y1028D02*
X7Y1028D01*
X2104Y1028D02*
X2111Y1028D01*
X0Y1027D02*
X7Y1027D01*
X2104Y1027D02*
X2111Y1027D01*
X0Y1026D02*
X7Y1026D01*
X2104Y1026D02*
X2111Y1026D01*
X0Y1025D02*
X7Y1025D01*
X2104Y1025D02*
X2111Y1025D01*
X0Y1024D02*
X7Y1024D01*
X2104Y1024D02*
X2111Y1024D01*
X0Y1023D02*
X7Y1023D01*
X2104Y1023D02*
X2111Y1023D01*
X0Y1022D02*
X7Y1022D01*
X2104Y1022D02*
X2111Y1022D01*
X0Y1021D02*
X7Y1021D01*
X2104Y1021D02*
X2111Y1021D01*
X0Y1020D02*
X7Y1020D01*
X2104Y1020D02*
X2111Y1020D01*
X0Y1019D02*
X7Y1019D01*
X2104Y1019D02*
X2111Y1019D01*
X0Y1018D02*
X7Y1018D01*
X2104Y1018D02*
X2111Y1018D01*
X0Y1017D02*
X7Y1017D01*
X2104Y1017D02*
X2111Y1017D01*
X0Y1016D02*
X7Y1016D01*
X2104Y1016D02*
X2111Y1016D01*
X0Y1015D02*
X7Y1015D01*
X2104Y1015D02*
X2111Y1015D01*
X0Y1014D02*
X7Y1014D01*
X2104Y1014D02*
X2111Y1014D01*
X0Y1013D02*
X7Y1013D01*
X2104Y1013D02*
X2111Y1013D01*
X0Y1012D02*
X7Y1012D01*
X2104Y1012D02*
X2111Y1012D01*
X0Y1011D02*
X7Y1011D01*
X2104Y1011D02*
X2111Y1011D01*
X0Y1010D02*
X7Y1010D01*
X2104Y1010D02*
X2111Y1010D01*
X0Y1009D02*
X7Y1009D01*
X2104Y1009D02*
X2111Y1009D01*
X0Y1008D02*
X7Y1008D01*
X2104Y1008D02*
X2111Y1008D01*
X0Y1007D02*
X7Y1007D01*
X2104Y1007D02*
X2111Y1007D01*
X0Y1006D02*
X7Y1006D01*
X2104Y1006D02*
X2111Y1006D01*
X0Y1005D02*
X7Y1005D01*
X2104Y1005D02*
X2111Y1005D01*
X0Y1004D02*
X7Y1004D01*
X2104Y1004D02*
X2111Y1004D01*
X0Y1003D02*
X7Y1003D01*
X2104Y1003D02*
X2111Y1003D01*
X0Y1002D02*
X7Y1002D01*
X2104Y1002D02*
X2111Y1002D01*
X0Y1001D02*
X7Y1001D01*
X2104Y1001D02*
X2111Y1001D01*
X0Y1000D02*
X7Y1000D01*
X2104Y1000D02*
X2111Y1000D01*
X0Y999D02*
X7Y999D01*
X2104Y999D02*
X2111Y999D01*
X0Y998D02*
X7Y998D01*
X2104Y998D02*
X2111Y998D01*
X0Y997D02*
X7Y997D01*
X2104Y997D02*
X2111Y997D01*
X0Y996D02*
X7Y996D01*
X2104Y996D02*
X2111Y996D01*
X0Y995D02*
X7Y995D01*
X2104Y995D02*
X2111Y995D01*
X0Y994D02*
X7Y994D01*
X2104Y994D02*
X2111Y994D01*
X0Y993D02*
X7Y993D01*
X2104Y993D02*
X2111Y993D01*
X0Y992D02*
X7Y992D01*
X2104Y992D02*
X2111Y992D01*
X0Y991D02*
X7Y991D01*
X2104Y991D02*
X2111Y991D01*
X0Y990D02*
X7Y990D01*
X2104Y990D02*
X2111Y990D01*
X0Y989D02*
X7Y989D01*
X2104Y989D02*
X2111Y989D01*
X0Y988D02*
X7Y988D01*
X2104Y988D02*
X2111Y988D01*
X0Y987D02*
X7Y987D01*
X2104Y987D02*
X2111Y987D01*
X0Y986D02*
X7Y986D01*
X2104Y986D02*
X2111Y986D01*
X0Y985D02*
X7Y985D01*
X2104Y985D02*
X2111Y985D01*
X0Y984D02*
X7Y984D01*
X2104Y984D02*
X2111Y984D01*
X0Y983D02*
X7Y983D01*
X2104Y983D02*
X2111Y983D01*
X0Y982D02*
X7Y982D01*
X2104Y982D02*
X2111Y982D01*
X0Y981D02*
X7Y981D01*
X2104Y981D02*
X2111Y981D01*
X0Y980D02*
X7Y980D01*
X2104Y980D02*
X2111Y980D01*
X0Y979D02*
X7Y979D01*
X2104Y979D02*
X2111Y979D01*
X0Y978D02*
X7Y978D01*
X2104Y978D02*
X2111Y978D01*
X0Y977D02*
X7Y977D01*
X2104Y977D02*
X2111Y977D01*
X0Y976D02*
X7Y976D01*
X2104Y976D02*
X2111Y976D01*
X0Y975D02*
X7Y975D01*
X2104Y975D02*
X2111Y975D01*
X0Y974D02*
X7Y974D01*
X2104Y974D02*
X2111Y974D01*
X0Y973D02*
X7Y973D01*
X2104Y973D02*
X2111Y973D01*
X0Y972D02*
X7Y972D01*
X2104Y972D02*
X2111Y972D01*
X0Y971D02*
X7Y971D01*
X2104Y971D02*
X2111Y971D01*
X0Y970D02*
X7Y970D01*
X2104Y970D02*
X2111Y970D01*
X0Y969D02*
X7Y969D01*
X2104Y969D02*
X2111Y969D01*
X0Y968D02*
X7Y968D01*
X2104Y968D02*
X2111Y968D01*
X0Y967D02*
X7Y967D01*
X2104Y967D02*
X2111Y967D01*
X0Y966D02*
X7Y966D01*
X2104Y966D02*
X2111Y966D01*
X0Y965D02*
X7Y965D01*
X2104Y965D02*
X2111Y965D01*
X0Y964D02*
X7Y964D01*
X2104Y964D02*
X2111Y964D01*
X0Y963D02*
X7Y963D01*
X2104Y963D02*
X2111Y963D01*
X0Y962D02*
X7Y962D01*
X2104Y962D02*
X2111Y962D01*
X0Y961D02*
X7Y961D01*
X2104Y961D02*
X2111Y961D01*
X0Y960D02*
X7Y960D01*
X2104Y960D02*
X2111Y960D01*
X0Y959D02*
X7Y959D01*
X2104Y959D02*
X2111Y959D01*
X0Y958D02*
X7Y958D01*
X2104Y958D02*
X2111Y958D01*
X0Y957D02*
X7Y957D01*
X2104Y957D02*
X2111Y957D01*
X0Y956D02*
X7Y956D01*
X2104Y956D02*
X2111Y956D01*
X0Y955D02*
X7Y955D01*
X2104Y955D02*
X2111Y955D01*
X0Y954D02*
X7Y954D01*
X2104Y954D02*
X2111Y954D01*
X0Y953D02*
X7Y953D01*
X2104Y953D02*
X2111Y953D01*
X0Y952D02*
X7Y952D01*
X2104Y952D02*
X2111Y952D01*
X0Y951D02*
X7Y951D01*
X2104Y951D02*
X2111Y951D01*
X0Y950D02*
X7Y950D01*
X2104Y950D02*
X2111Y950D01*
X0Y949D02*
X7Y949D01*
X2104Y949D02*
X2111Y949D01*
X0Y948D02*
X7Y948D01*
X2104Y948D02*
X2111Y948D01*
X0Y947D02*
X7Y947D01*
X2104Y947D02*
X2111Y947D01*
X0Y946D02*
X7Y946D01*
X2104Y946D02*
X2111Y946D01*
X0Y945D02*
X7Y945D01*
X2104Y945D02*
X2111Y945D01*
X0Y944D02*
X7Y944D01*
X2104Y944D02*
X2111Y944D01*
X0Y943D02*
X7Y943D01*
X2104Y943D02*
X2111Y943D01*
X0Y942D02*
X7Y942D01*
X2104Y942D02*
X2111Y942D01*
X0Y941D02*
X7Y941D01*
X2104Y941D02*
X2111Y941D01*
X0Y940D02*
X7Y940D01*
X2104Y940D02*
X2111Y940D01*
X0Y939D02*
X7Y939D01*
X2104Y939D02*
X2111Y939D01*
X0Y938D02*
X7Y938D01*
X2104Y938D02*
X2111Y938D01*
X0Y937D02*
X7Y937D01*
X2104Y937D02*
X2111Y937D01*
X0Y936D02*
X7Y936D01*
X2104Y936D02*
X2111Y936D01*
X0Y935D02*
X7Y935D01*
X2104Y935D02*
X2111Y935D01*
X0Y934D02*
X7Y934D01*
X2104Y934D02*
X2111Y934D01*
X0Y933D02*
X7Y933D01*
X2104Y933D02*
X2111Y933D01*
X0Y932D02*
X7Y932D01*
X2104Y932D02*
X2111Y932D01*
X0Y931D02*
X7Y931D01*
X2104Y931D02*
X2111Y931D01*
X0Y930D02*
X7Y930D01*
X2104Y930D02*
X2111Y930D01*
X0Y929D02*
X7Y929D01*
X2104Y929D02*
X2111Y929D01*
X0Y928D02*
X7Y928D01*
X2104Y928D02*
X2111Y928D01*
X0Y927D02*
X7Y927D01*
X2104Y927D02*
X2111Y927D01*
X0Y926D02*
X7Y926D01*
X2104Y926D02*
X2111Y926D01*
X0Y925D02*
X7Y925D01*
X2104Y925D02*
X2111Y925D01*
X0Y924D02*
X7Y924D01*
X2104Y924D02*
X2111Y924D01*
X0Y923D02*
X7Y923D01*
X2104Y923D02*
X2111Y923D01*
X0Y922D02*
X7Y922D01*
X2104Y922D02*
X2111Y922D01*
X0Y921D02*
X7Y921D01*
X2104Y921D02*
X2111Y921D01*
X0Y920D02*
X7Y920D01*
X2104Y920D02*
X2111Y920D01*
X0Y919D02*
X7Y919D01*
X2104Y919D02*
X2111Y919D01*
X0Y918D02*
X7Y918D01*
X2104Y918D02*
X2111Y918D01*
X0Y917D02*
X7Y917D01*
X2104Y917D02*
X2111Y917D01*
X0Y916D02*
X7Y916D01*
X2104Y916D02*
X2111Y916D01*
X0Y915D02*
X7Y915D01*
X2104Y915D02*
X2111Y915D01*
X0Y914D02*
X7Y914D01*
X2104Y914D02*
X2111Y914D01*
X0Y913D02*
X7Y913D01*
X2104Y913D02*
X2111Y913D01*
X0Y912D02*
X7Y912D01*
X2104Y912D02*
X2111Y912D01*
X0Y911D02*
X7Y911D01*
X2104Y911D02*
X2111Y911D01*
X0Y910D02*
X7Y910D01*
X2104Y910D02*
X2111Y910D01*
X0Y909D02*
X7Y909D01*
X2104Y909D02*
X2111Y909D01*
X0Y908D02*
X7Y908D01*
X2104Y908D02*
X2111Y908D01*
X0Y907D02*
X7Y907D01*
X2104Y907D02*
X2111Y907D01*
X0Y906D02*
X7Y906D01*
X2104Y906D02*
X2111Y906D01*
X0Y905D02*
X7Y905D01*
X2104Y905D02*
X2111Y905D01*
X0Y904D02*
X7Y904D01*
X2104Y904D02*
X2111Y904D01*
X0Y903D02*
X7Y903D01*
X2104Y903D02*
X2111Y903D01*
X0Y902D02*
X7Y902D01*
X2104Y902D02*
X2111Y902D01*
X0Y901D02*
X7Y901D01*
X2104Y901D02*
X2111Y901D01*
X0Y900D02*
X7Y900D01*
X2104Y900D02*
X2111Y900D01*
X0Y899D02*
X7Y899D01*
X2104Y899D02*
X2111Y899D01*
X0Y898D02*
X7Y898D01*
X2104Y898D02*
X2111Y898D01*
X0Y897D02*
X7Y897D01*
X2104Y897D02*
X2111Y897D01*
X0Y896D02*
X7Y896D01*
X2104Y896D02*
X2111Y896D01*
X0Y895D02*
X7Y895D01*
X2104Y895D02*
X2111Y895D01*
X0Y894D02*
X7Y894D01*
X2104Y894D02*
X2111Y894D01*
X0Y893D02*
X7Y893D01*
X2104Y893D02*
X2111Y893D01*
X0Y892D02*
X7Y892D01*
X2104Y892D02*
X2111Y892D01*
X0Y891D02*
X7Y891D01*
X1223Y891D02*
X1235Y891D01*
X1251Y891D02*
X1262Y891D01*
X1713Y891D02*
X1728Y891D01*
X2104Y891D02*
X2111Y891D01*
X0Y890D02*
X7Y890D01*
X1220Y890D02*
X1240Y890D01*
X1246Y890D02*
X1266Y890D01*
X1710Y890D02*
X1732Y890D01*
X1754Y890D02*
X1758Y890D01*
X2104Y890D02*
X2111Y890D01*
X0Y889D02*
X7Y889D01*
X1218Y889D02*
X1241Y889D01*
X1244Y889D02*
X1267Y889D01*
X1708Y889D02*
X1733Y889D01*
X1754Y889D02*
X1759Y889D01*
X2104Y889D02*
X2111Y889D01*
X0Y888D02*
X7Y888D01*
X1218Y888D02*
X1268Y888D01*
X1707Y888D02*
X1734Y888D01*
X1753Y888D02*
X1759Y888D01*
X2104Y888D02*
X2111Y888D01*
X0Y887D02*
X7Y887D01*
X1217Y887D02*
X1269Y887D01*
X1707Y887D02*
X1735Y887D01*
X1753Y887D02*
X1759Y887D01*
X2104Y887D02*
X2111Y887D01*
X0Y886D02*
X7Y886D01*
X1217Y886D02*
X1269Y886D01*
X1706Y886D02*
X1735Y886D01*
X1753Y886D02*
X1759Y886D01*
X2104Y886D02*
X2111Y886D01*
X0Y885D02*
X7Y885D01*
X1216Y885D02*
X1269Y885D01*
X1706Y885D02*
X1735Y885D01*
X1753Y885D02*
X1759Y885D01*
X2104Y885D02*
X2111Y885D01*
X0Y884D02*
X7Y884D01*
X1216Y884D02*
X1269Y884D01*
X1706Y884D02*
X1736Y884D01*
X1753Y884D02*
X1759Y884D01*
X2104Y884D02*
X2111Y884D01*
X0Y883D02*
X7Y883D01*
X1216Y883D02*
X1222Y883D01*
X1239Y883D02*
X1247Y883D01*
X1263Y883D02*
X1269Y883D01*
X1706Y883D02*
X1712Y883D01*
X1730Y883D02*
X1736Y883D01*
X1753Y883D02*
X1759Y883D01*
X2104Y883D02*
X2111Y883D01*
X0Y882D02*
X7Y882D01*
X1216Y882D02*
X1222Y882D01*
X1239Y882D02*
X1246Y882D01*
X1263Y882D02*
X1269Y882D01*
X1706Y882D02*
X1712Y882D01*
X1730Y882D02*
X1736Y882D01*
X1753Y882D02*
X1759Y882D01*
X2104Y882D02*
X2111Y882D01*
X0Y881D02*
X7Y881D01*
X1216Y881D02*
X1222Y881D01*
X1240Y881D02*
X1246Y881D01*
X1263Y881D02*
X1269Y881D01*
X1706Y881D02*
X1712Y881D01*
X1730Y881D02*
X1736Y881D01*
X1753Y881D02*
X1759Y881D01*
X2104Y881D02*
X2111Y881D01*
X0Y880D02*
X7Y880D01*
X1216Y880D02*
X1222Y880D01*
X1240Y880D02*
X1246Y880D01*
X1263Y880D02*
X1269Y880D01*
X1706Y880D02*
X1712Y880D01*
X1730Y880D02*
X1736Y880D01*
X1753Y880D02*
X1759Y880D01*
X2104Y880D02*
X2111Y880D01*
X0Y879D02*
X7Y879D01*
X1216Y879D02*
X1222Y879D01*
X1240Y879D02*
X1246Y879D01*
X1263Y879D02*
X1269Y879D01*
X1706Y879D02*
X1712Y879D01*
X1730Y879D02*
X1736Y879D01*
X1753Y879D02*
X1759Y879D01*
X2104Y879D02*
X2111Y879D01*
X0Y878D02*
X7Y878D01*
X1216Y878D02*
X1222Y878D01*
X1240Y878D02*
X1246Y878D01*
X1263Y878D02*
X1269Y878D01*
X1706Y878D02*
X1712Y878D01*
X1730Y878D02*
X1736Y878D01*
X1753Y878D02*
X1759Y878D01*
X2104Y878D02*
X2111Y878D01*
X0Y877D02*
X7Y877D01*
X1216Y877D02*
X1222Y877D01*
X1240Y877D02*
X1246Y877D01*
X1263Y877D02*
X1269Y877D01*
X1706Y877D02*
X1712Y877D01*
X1730Y877D02*
X1736Y877D01*
X1753Y877D02*
X1759Y877D01*
X2104Y877D02*
X2111Y877D01*
X0Y876D02*
X7Y876D01*
X1216Y876D02*
X1222Y876D01*
X1240Y876D02*
X1246Y876D01*
X1263Y876D02*
X1269Y876D01*
X1706Y876D02*
X1712Y876D01*
X1730Y876D02*
X1736Y876D01*
X1753Y876D02*
X1759Y876D01*
X2104Y876D02*
X2111Y876D01*
X0Y875D02*
X7Y875D01*
X1216Y875D02*
X1222Y875D01*
X1240Y875D02*
X1246Y875D01*
X1263Y875D02*
X1269Y875D01*
X1706Y875D02*
X1712Y875D01*
X1730Y875D02*
X1736Y875D01*
X1753Y875D02*
X1759Y875D01*
X2104Y875D02*
X2111Y875D01*
X0Y874D02*
X7Y874D01*
X1216Y874D02*
X1222Y874D01*
X1240Y874D02*
X1246Y874D01*
X1263Y874D02*
X1269Y874D01*
X1706Y874D02*
X1712Y874D01*
X1730Y874D02*
X1736Y874D01*
X1753Y874D02*
X1759Y874D01*
X2104Y874D02*
X2111Y874D01*
X0Y873D02*
X7Y873D01*
X1216Y873D02*
X1222Y873D01*
X1240Y873D02*
X1246Y873D01*
X1263Y873D02*
X1269Y873D01*
X1706Y873D02*
X1712Y873D01*
X1730Y873D02*
X1736Y873D01*
X1753Y873D02*
X1759Y873D01*
X2104Y873D02*
X2111Y873D01*
X0Y872D02*
X7Y872D01*
X1216Y872D02*
X1222Y872D01*
X1240Y872D02*
X1246Y872D01*
X1263Y872D02*
X1269Y872D01*
X1706Y872D02*
X1712Y872D01*
X1730Y872D02*
X1736Y872D01*
X1753Y872D02*
X1759Y872D01*
X2104Y872D02*
X2111Y872D01*
X0Y871D02*
X7Y871D01*
X1216Y871D02*
X1222Y871D01*
X1240Y871D02*
X1246Y871D01*
X1263Y871D02*
X1269Y871D01*
X1706Y871D02*
X1712Y871D01*
X1730Y871D02*
X1736Y871D01*
X1753Y871D02*
X1759Y871D01*
X2104Y871D02*
X2111Y871D01*
X0Y870D02*
X7Y870D01*
X1216Y870D02*
X1222Y870D01*
X1240Y870D02*
X1246Y870D01*
X1263Y870D02*
X1269Y870D01*
X1706Y870D02*
X1712Y870D01*
X1730Y870D02*
X1736Y870D01*
X1753Y870D02*
X1759Y870D01*
X2104Y870D02*
X2111Y870D01*
X0Y869D02*
X7Y869D01*
X1216Y869D02*
X1222Y869D01*
X1240Y869D02*
X1246Y869D01*
X1263Y869D02*
X1269Y869D01*
X1706Y869D02*
X1712Y869D01*
X1730Y869D02*
X1736Y869D01*
X1753Y869D02*
X1759Y869D01*
X2104Y869D02*
X2111Y869D01*
X0Y868D02*
X7Y868D01*
X1216Y868D02*
X1222Y868D01*
X1240Y868D02*
X1246Y868D01*
X1263Y868D02*
X1269Y868D01*
X1706Y868D02*
X1712Y868D01*
X1730Y868D02*
X1736Y868D01*
X1753Y868D02*
X1759Y868D01*
X2104Y868D02*
X2111Y868D01*
X0Y867D02*
X7Y867D01*
X1216Y867D02*
X1222Y867D01*
X1240Y867D02*
X1246Y867D01*
X1263Y867D02*
X1269Y867D01*
X1706Y867D02*
X1712Y867D01*
X1730Y867D02*
X1736Y867D01*
X1753Y867D02*
X1759Y867D01*
X2104Y867D02*
X2111Y867D01*
X0Y866D02*
X7Y866D01*
X1216Y866D02*
X1222Y866D01*
X1240Y866D02*
X1246Y866D01*
X1263Y866D02*
X1269Y866D01*
X1706Y866D02*
X1712Y866D01*
X1730Y866D02*
X1736Y866D01*
X1753Y866D02*
X1759Y866D01*
X2104Y866D02*
X2111Y866D01*
X0Y865D02*
X7Y865D01*
X1216Y865D02*
X1222Y865D01*
X1240Y865D02*
X1245Y865D01*
X1263Y865D02*
X1269Y865D01*
X1706Y865D02*
X1712Y865D01*
X1730Y865D02*
X1736Y865D01*
X1753Y865D02*
X1759Y865D01*
X2104Y865D02*
X2111Y865D01*
X0Y864D02*
X7Y864D01*
X1216Y864D02*
X1222Y864D01*
X1241Y864D02*
X1244Y864D01*
X1263Y864D02*
X1269Y864D01*
X1706Y864D02*
X1712Y864D01*
X1730Y864D02*
X1736Y864D01*
X1753Y864D02*
X1759Y864D01*
X2104Y864D02*
X2111Y864D01*
X0Y863D02*
X7Y863D01*
X1216Y863D02*
X1222Y863D01*
X1263Y863D02*
X1269Y863D01*
X1706Y863D02*
X1712Y863D01*
X1730Y863D02*
X1759Y863D01*
X2104Y863D02*
X2111Y863D01*
X0Y862D02*
X7Y862D01*
X1216Y862D02*
X1222Y862D01*
X1263Y862D02*
X1269Y862D01*
X1706Y862D02*
X1712Y862D01*
X1730Y862D02*
X1759Y862D01*
X2104Y862D02*
X2111Y862D01*
X0Y861D02*
X7Y861D01*
X1216Y861D02*
X1222Y861D01*
X1263Y861D02*
X1269Y861D01*
X1706Y861D02*
X1712Y861D01*
X1730Y861D02*
X1759Y861D01*
X2104Y861D02*
X2111Y861D01*
X0Y860D02*
X7Y860D01*
X1216Y860D02*
X1222Y860D01*
X1263Y860D02*
X1269Y860D01*
X1706Y860D02*
X1712Y860D01*
X1731Y860D02*
X1759Y860D01*
X2104Y860D02*
X2111Y860D01*
X0Y859D02*
X7Y859D01*
X1216Y859D02*
X1222Y859D01*
X1264Y859D02*
X1269Y859D01*
X1706Y859D02*
X1712Y859D01*
X1731Y859D02*
X1759Y859D01*
X2104Y859D02*
X2111Y859D01*
X0Y858D02*
X7Y858D01*
X1217Y858D02*
X1222Y858D01*
X1264Y858D02*
X1269Y858D01*
X1707Y858D02*
X1711Y858D01*
X1732Y858D02*
X1759Y858D01*
X2104Y858D02*
X2111Y858D01*
X0Y857D02*
X7Y857D01*
X1218Y857D02*
X1221Y857D01*
X1265Y857D02*
X1268Y857D01*
X1708Y857D02*
X1710Y857D01*
X1734Y857D02*
X1759Y857D01*
X2104Y857D02*
X2111Y857D01*
X0Y856D02*
X7Y856D01*
X2104Y856D02*
X2111Y856D01*
X0Y855D02*
X7Y855D01*
X2104Y855D02*
X2111Y855D01*
X0Y854D02*
X7Y854D01*
X2104Y854D02*
X2111Y854D01*
X0Y853D02*
X7Y853D01*
X2104Y853D02*
X2111Y853D01*
X0Y852D02*
X7Y852D01*
X2104Y852D02*
X2111Y852D01*
X0Y851D02*
X7Y851D01*
X2104Y851D02*
X2111Y851D01*
X0Y850D02*
X7Y850D01*
X2104Y850D02*
X2111Y850D01*
X0Y849D02*
X7Y849D01*
X2104Y849D02*
X2111Y849D01*
X0Y848D02*
X7Y848D01*
X2104Y848D02*
X2111Y848D01*
X0Y847D02*
X7Y847D01*
X2104Y847D02*
X2111Y847D01*
X0Y846D02*
X7Y846D01*
X2104Y846D02*
X2111Y846D01*
X0Y845D02*
X7Y845D01*
X2104Y845D02*
X2111Y845D01*
X0Y844D02*
X7Y844D01*
X2104Y844D02*
X2111Y844D01*
X0Y843D02*
X7Y843D01*
X2104Y843D02*
X2111Y843D01*
X0Y842D02*
X7Y842D01*
X2104Y842D02*
X2111Y842D01*
X0Y841D02*
X7Y841D01*
X1226Y841D02*
X1239Y841D01*
X1716Y841D02*
X1728Y841D01*
X2104Y841D02*
X2111Y841D01*
X0Y840D02*
X7Y840D01*
X1222Y840D02*
X1243Y840D01*
X1712Y840D02*
X1732Y840D01*
X2104Y840D02*
X2111Y840D01*
X0Y839D02*
X7Y839D01*
X1221Y839D02*
X1244Y839D01*
X1710Y839D02*
X1734Y839D01*
X2104Y839D02*
X2111Y839D01*
X0Y838D02*
X7Y838D01*
X1219Y838D02*
X1246Y838D01*
X1709Y838D02*
X1735Y838D01*
X2104Y838D02*
X2111Y838D01*
X0Y837D02*
X7Y837D01*
X1219Y837D02*
X1246Y837D01*
X1708Y837D02*
X1736Y837D01*
X2104Y837D02*
X2111Y837D01*
X0Y836D02*
X7Y836D01*
X1218Y836D02*
X1247Y836D01*
X1708Y836D02*
X1737Y836D01*
X2104Y836D02*
X2111Y836D01*
X0Y835D02*
X7Y835D01*
X1217Y835D02*
X1248Y835D01*
X1707Y835D02*
X1737Y835D01*
X2104Y835D02*
X2111Y835D01*
X0Y834D02*
X7Y834D01*
X1217Y834D02*
X1226Y834D01*
X1239Y834D02*
X1248Y834D01*
X1707Y834D02*
X1716Y834D01*
X1729Y834D02*
X1738Y834D01*
X2104Y834D02*
X2111Y834D01*
X0Y833D02*
X7Y833D01*
X1217Y833D02*
X1223Y833D01*
X1242Y833D02*
X1248Y833D01*
X1706Y833D02*
X1713Y833D01*
X1731Y833D02*
X1738Y833D01*
X2104Y833D02*
X2111Y833D01*
X0Y832D02*
X7Y832D01*
X1216Y832D02*
X1223Y832D01*
X1242Y832D02*
X1249Y832D01*
X1706Y832D02*
X1712Y832D01*
X1732Y832D02*
X1738Y832D01*
X2104Y832D02*
X2111Y832D01*
X0Y831D02*
X7Y831D01*
X1216Y831D02*
X1222Y831D01*
X1243Y831D02*
X1249Y831D01*
X1706Y831D02*
X1712Y831D01*
X1732Y831D02*
X1739Y831D01*
X2104Y831D02*
X2111Y831D01*
X0Y830D02*
X7Y830D01*
X1216Y830D02*
X1222Y830D01*
X1243Y830D02*
X1249Y830D01*
X1706Y830D02*
X1712Y830D01*
X1733Y830D02*
X1739Y830D01*
X2104Y830D02*
X2111Y830D01*
X0Y829D02*
X7Y829D01*
X1216Y829D02*
X1222Y829D01*
X1243Y829D02*
X1249Y829D01*
X1706Y829D02*
X1712Y829D01*
X1733Y829D02*
X1739Y829D01*
X2104Y829D02*
X2111Y829D01*
X0Y828D02*
X7Y828D01*
X1216Y828D02*
X1222Y828D01*
X1243Y828D02*
X1249Y828D01*
X1706Y828D02*
X1712Y828D01*
X1733Y828D02*
X1739Y828D01*
X2104Y828D02*
X2111Y828D01*
X0Y827D02*
X7Y827D01*
X1216Y827D02*
X1222Y827D01*
X1243Y827D02*
X1249Y827D01*
X1706Y827D02*
X1712Y827D01*
X1733Y827D02*
X1739Y827D01*
X2104Y827D02*
X2111Y827D01*
X0Y826D02*
X7Y826D01*
X1216Y826D02*
X1222Y826D01*
X1243Y826D02*
X1249Y826D01*
X1706Y826D02*
X1712Y826D01*
X1733Y826D02*
X1739Y826D01*
X2104Y826D02*
X2111Y826D01*
X0Y825D02*
X7Y825D01*
X1216Y825D02*
X1222Y825D01*
X1243Y825D02*
X1249Y825D01*
X1706Y825D02*
X1712Y825D01*
X1733Y825D02*
X1739Y825D01*
X2104Y825D02*
X2111Y825D01*
X0Y824D02*
X7Y824D01*
X1216Y824D02*
X1222Y824D01*
X1243Y824D02*
X1249Y824D01*
X1706Y824D02*
X1712Y824D01*
X1733Y824D02*
X1739Y824D01*
X2104Y824D02*
X2111Y824D01*
X0Y823D02*
X7Y823D01*
X1216Y823D02*
X1222Y823D01*
X1243Y823D02*
X1249Y823D01*
X1706Y823D02*
X1712Y823D01*
X1733Y823D02*
X1739Y823D01*
X2104Y823D02*
X2111Y823D01*
X0Y822D02*
X7Y822D01*
X1216Y822D02*
X1222Y822D01*
X1243Y822D02*
X1249Y822D01*
X1706Y822D02*
X1712Y822D01*
X1733Y822D02*
X1739Y822D01*
X2104Y822D02*
X2111Y822D01*
X0Y821D02*
X7Y821D01*
X1216Y821D02*
X1222Y821D01*
X1243Y821D02*
X1249Y821D01*
X1706Y821D02*
X1712Y821D01*
X1733Y821D02*
X1739Y821D01*
X2104Y821D02*
X2111Y821D01*
X0Y820D02*
X7Y820D01*
X1216Y820D02*
X1222Y820D01*
X1243Y820D02*
X1249Y820D01*
X1706Y820D02*
X1712Y820D01*
X1733Y820D02*
X1739Y820D01*
X2104Y820D02*
X2111Y820D01*
X0Y819D02*
X7Y819D01*
X1216Y819D02*
X1222Y819D01*
X1243Y819D02*
X1249Y819D01*
X1706Y819D02*
X1712Y819D01*
X1733Y819D02*
X1739Y819D01*
X2104Y819D02*
X2111Y819D01*
X0Y818D02*
X7Y818D01*
X1216Y818D02*
X1222Y818D01*
X1243Y818D02*
X1249Y818D01*
X1706Y818D02*
X1712Y818D01*
X1733Y818D02*
X1739Y818D01*
X2104Y818D02*
X2111Y818D01*
X0Y817D02*
X7Y817D01*
X1216Y817D02*
X1222Y817D01*
X1243Y817D02*
X1249Y817D01*
X1706Y817D02*
X1712Y817D01*
X1733Y817D02*
X1739Y817D01*
X2104Y817D02*
X2111Y817D01*
X0Y816D02*
X7Y816D01*
X1216Y816D02*
X1222Y816D01*
X1243Y816D02*
X1249Y816D01*
X1706Y816D02*
X1712Y816D01*
X1733Y816D02*
X1739Y816D01*
X2104Y816D02*
X2111Y816D01*
X0Y815D02*
X7Y815D01*
X1216Y815D02*
X1222Y815D01*
X1243Y815D02*
X1249Y815D01*
X1706Y815D02*
X1712Y815D01*
X1733Y815D02*
X1739Y815D01*
X2104Y815D02*
X2111Y815D01*
X0Y814D02*
X7Y814D01*
X1216Y814D02*
X1222Y814D01*
X1243Y814D02*
X1249Y814D01*
X1706Y814D02*
X1712Y814D01*
X1733Y814D02*
X1739Y814D01*
X2104Y814D02*
X2111Y814D01*
X0Y813D02*
X7Y813D01*
X1216Y813D02*
X1268Y813D01*
X1706Y813D02*
X1757Y813D01*
X2104Y813D02*
X2111Y813D01*
X0Y812D02*
X7Y812D01*
X1216Y812D02*
X1269Y812D01*
X1706Y812D02*
X1758Y812D01*
X2104Y812D02*
X2111Y812D01*
X0Y811D02*
X7Y811D01*
X1216Y811D02*
X1269Y811D01*
X1706Y811D02*
X1759Y811D01*
X2104Y811D02*
X2111Y811D01*
X0Y810D02*
X7Y810D01*
X1216Y810D02*
X1269Y810D01*
X1706Y810D02*
X1759Y810D01*
X2104Y810D02*
X2111Y810D01*
X0Y809D02*
X7Y809D01*
X1216Y809D02*
X1269Y809D01*
X1706Y809D02*
X1759Y809D01*
X2104Y809D02*
X2111Y809D01*
X0Y808D02*
X7Y808D01*
X1216Y808D02*
X1269Y808D01*
X1706Y808D02*
X1758Y808D01*
X2104Y808D02*
X2111Y808D01*
X0Y807D02*
X7Y807D01*
X1216Y807D02*
X1268Y807D01*
X1706Y807D02*
X1757Y807D01*
X2104Y807D02*
X2111Y807D01*
X0Y806D02*
X7Y806D01*
X2104Y806D02*
X2111Y806D01*
X0Y805D02*
X7Y805D01*
X2104Y805D02*
X2111Y805D01*
X0Y804D02*
X7Y804D01*
X2104Y804D02*
X2111Y804D01*
X0Y803D02*
X7Y803D01*
X2104Y803D02*
X2111Y803D01*
X0Y802D02*
X7Y802D01*
X2104Y802D02*
X2111Y802D01*
X0Y801D02*
X7Y801D01*
X2104Y801D02*
X2111Y801D01*
X0Y800D02*
X7Y800D01*
X2104Y800D02*
X2111Y800D01*
X0Y799D02*
X7Y799D01*
X2104Y799D02*
X2111Y799D01*
X0Y798D02*
X7Y798D01*
X2104Y798D02*
X2111Y798D01*
X0Y797D02*
X7Y797D01*
X2104Y797D02*
X2111Y797D01*
X0Y796D02*
X7Y796D01*
X2104Y796D02*
X2111Y796D01*
X0Y795D02*
X7Y795D01*
X2104Y795D02*
X2111Y795D01*
X0Y794D02*
X7Y794D01*
X2104Y794D02*
X2111Y794D01*
X0Y793D02*
X7Y793D01*
X2104Y793D02*
X2111Y793D01*
X0Y792D02*
X7Y792D01*
X2104Y792D02*
X2111Y792D01*
X0Y791D02*
X7Y791D01*
X2104Y791D02*
X2111Y791D01*
X0Y790D02*
X7Y790D01*
X2104Y790D02*
X2111Y790D01*
X0Y789D02*
X7Y789D01*
X2104Y789D02*
X2111Y789D01*
X0Y788D02*
X7Y788D01*
X2104Y788D02*
X2111Y788D01*
X0Y787D02*
X7Y787D01*
X1218Y787D02*
X1262Y787D01*
X1708Y787D02*
X1752Y787D01*
X2104Y787D02*
X2111Y787D01*
X0Y786D02*
X7Y786D01*
X1217Y786D02*
X1264Y786D01*
X1707Y786D02*
X1754Y786D01*
X2104Y786D02*
X2111Y786D01*
X0Y785D02*
X7Y785D01*
X1216Y785D02*
X1266Y785D01*
X1706Y785D02*
X1755Y785D01*
X2104Y785D02*
X2111Y785D01*
X0Y784D02*
X7Y784D01*
X1216Y784D02*
X1267Y784D01*
X1706Y784D02*
X1756Y784D01*
X2104Y784D02*
X2111Y784D01*
X0Y783D02*
X7Y783D01*
X1216Y783D02*
X1268Y783D01*
X1706Y783D02*
X1757Y783D01*
X2104Y783D02*
X2111Y783D01*
X0Y782D02*
X7Y782D01*
X1217Y782D02*
X1268Y782D01*
X1707Y782D02*
X1758Y782D01*
X2104Y782D02*
X2111Y782D01*
X0Y781D02*
X7Y781D01*
X1218Y781D02*
X1269Y781D01*
X1708Y781D02*
X1758Y781D01*
X2104Y781D02*
X2111Y781D01*
X0Y780D02*
X7Y780D01*
X1262Y780D02*
X1269Y780D01*
X1751Y780D02*
X1759Y780D01*
X2104Y780D02*
X2111Y780D01*
X0Y779D02*
X7Y779D01*
X1263Y779D02*
X1269Y779D01*
X1752Y779D02*
X1759Y779D01*
X2104Y779D02*
X2111Y779D01*
X0Y778D02*
X7Y778D01*
X1263Y778D02*
X1269Y778D01*
X1753Y778D02*
X1759Y778D01*
X2104Y778D02*
X2111Y778D01*
X0Y777D02*
X7Y777D01*
X1263Y777D02*
X1269Y777D01*
X1753Y777D02*
X1759Y777D01*
X2104Y777D02*
X2111Y777D01*
X0Y776D02*
X7Y776D01*
X1263Y776D02*
X1269Y776D01*
X1753Y776D02*
X1759Y776D01*
X2104Y776D02*
X2111Y776D01*
X0Y775D02*
X7Y775D01*
X1263Y775D02*
X1269Y775D01*
X1753Y775D02*
X1759Y775D01*
X2104Y775D02*
X2111Y775D01*
X0Y774D02*
X7Y774D01*
X1263Y774D02*
X1269Y774D01*
X1753Y774D02*
X1759Y774D01*
X2104Y774D02*
X2111Y774D01*
X0Y773D02*
X7Y773D01*
X1263Y773D02*
X1269Y773D01*
X1753Y773D02*
X1759Y773D01*
X2104Y773D02*
X2111Y773D01*
X0Y772D02*
X7Y772D01*
X1263Y772D02*
X1269Y772D01*
X1753Y772D02*
X1759Y772D01*
X2104Y772D02*
X2111Y772D01*
X0Y771D02*
X7Y771D01*
X1263Y771D02*
X1269Y771D01*
X1753Y771D02*
X1759Y771D01*
X2104Y771D02*
X2111Y771D01*
X0Y770D02*
X7Y770D01*
X1263Y770D02*
X1269Y770D01*
X1753Y770D02*
X1759Y770D01*
X2104Y770D02*
X2111Y770D01*
X0Y769D02*
X7Y769D01*
X1263Y769D02*
X1269Y769D01*
X1753Y769D02*
X1759Y769D01*
X2104Y769D02*
X2111Y769D01*
X0Y768D02*
X7Y768D01*
X1262Y768D02*
X1269Y768D01*
X1752Y768D02*
X1759Y768D01*
X2104Y768D02*
X2111Y768D01*
X0Y767D02*
X7Y767D01*
X1260Y767D02*
X1269Y767D01*
X1750Y767D02*
X1759Y767D01*
X2104Y767D02*
X2111Y767D01*
X0Y766D02*
X7Y766D01*
X1247Y766D02*
X1268Y766D01*
X1737Y766D02*
X1758Y766D01*
X2104Y766D02*
X2111Y766D01*
X0Y765D02*
X7Y765D01*
X1246Y765D02*
X1268Y765D01*
X1736Y765D02*
X1758Y765D01*
X2104Y765D02*
X2111Y765D01*
X0Y764D02*
X7Y764D01*
X1246Y764D02*
X1267Y764D01*
X1736Y764D02*
X1757Y764D01*
X2104Y764D02*
X2111Y764D01*
X0Y763D02*
X7Y763D01*
X1246Y763D02*
X1266Y763D01*
X1736Y763D02*
X1756Y763D01*
X2104Y763D02*
X2111Y763D01*
X0Y762D02*
X7Y762D01*
X1246Y762D02*
X1265Y762D01*
X1736Y762D02*
X1755Y762D01*
X2104Y762D02*
X2111Y762D01*
X0Y761D02*
X7Y761D01*
X1247Y761D02*
X1264Y761D01*
X1737Y761D02*
X1753Y761D01*
X2104Y761D02*
X2111Y761D01*
X0Y760D02*
X7Y760D01*
X1249Y760D02*
X1260Y760D01*
X1738Y760D02*
X1750Y760D01*
X2104Y760D02*
X2111Y760D01*
X0Y759D02*
X7Y759D01*
X2104Y759D02*
X2111Y759D01*
X0Y758D02*
X7Y758D01*
X2104Y758D02*
X2111Y758D01*
X0Y757D02*
X7Y757D01*
X2104Y757D02*
X2111Y757D01*
X0Y756D02*
X7Y756D01*
X2104Y756D02*
X2111Y756D01*
X0Y755D02*
X7Y755D01*
X2104Y755D02*
X2111Y755D01*
X0Y754D02*
X7Y754D01*
X2104Y754D02*
X2111Y754D01*
X0Y753D02*
X7Y753D01*
X2104Y753D02*
X2111Y753D01*
X0Y752D02*
X7Y752D01*
X2104Y752D02*
X2111Y752D01*
X0Y751D02*
X7Y751D01*
X2104Y751D02*
X2111Y751D01*
X0Y750D02*
X7Y750D01*
X2104Y750D02*
X2111Y750D01*
X0Y749D02*
X7Y749D01*
X2104Y749D02*
X2111Y749D01*
X0Y748D02*
X7Y748D01*
X2104Y748D02*
X2111Y748D01*
X0Y747D02*
X7Y747D01*
X2104Y747D02*
X2111Y747D01*
X0Y746D02*
X7Y746D01*
X2104Y746D02*
X2111Y746D01*
X0Y745D02*
X7Y745D01*
X1789Y745D02*
X1810Y745D01*
X1821Y745D02*
X2011Y745D01*
X2104Y745D02*
X2111Y745D01*
X0Y744D02*
X7Y744D01*
X1789Y744D02*
X1804Y744D01*
X1827Y744D02*
X2012Y744D01*
X2104Y744D02*
X2111Y744D01*
X0Y743D02*
X7Y743D01*
X1788Y743D02*
X1800Y743D01*
X1831Y743D02*
X2012Y743D01*
X2104Y743D02*
X2111Y743D01*
X0Y742D02*
X7Y742D01*
X1788Y742D02*
X1797Y742D01*
X1834Y742D02*
X2012Y742D01*
X2104Y742D02*
X2111Y742D01*
X0Y741D02*
X7Y741D01*
X1788Y741D02*
X1794Y741D01*
X1837Y741D02*
X2011Y741D01*
X2104Y741D02*
X2111Y741D01*
X0Y740D02*
X7Y740D01*
X1788Y740D02*
X1792Y740D01*
X2104Y740D02*
X2111Y740D01*
X0Y739D02*
X7Y739D01*
X1788Y739D02*
X1790Y739D01*
X2104Y739D02*
X2111Y739D01*
X0Y738D02*
X7Y738D01*
X1788Y738D02*
X1788Y738D01*
X2104Y738D02*
X2111Y738D01*
X0Y737D02*
X7Y737D01*
X2104Y737D02*
X2111Y737D01*
X0Y736D02*
X7Y736D01*
X2104Y736D02*
X2111Y736D01*
X0Y735D02*
X7Y735D01*
X2104Y735D02*
X2111Y735D01*
X0Y734D02*
X7Y734D01*
X2104Y734D02*
X2111Y734D01*
X0Y733D02*
X7Y733D01*
X2104Y733D02*
X2111Y733D01*
X0Y732D02*
X7Y732D01*
X2104Y732D02*
X2111Y732D01*
X0Y731D02*
X7Y731D01*
X2104Y731D02*
X2111Y731D01*
X0Y730D02*
X7Y730D01*
X2104Y730D02*
X2111Y730D01*
X0Y729D02*
X7Y729D01*
X2104Y729D02*
X2111Y729D01*
X0Y728D02*
X7Y728D01*
X2104Y728D02*
X2111Y728D01*
X0Y727D02*
X7Y727D01*
X2104Y727D02*
X2111Y727D01*
X0Y726D02*
X7Y726D01*
X2104Y726D02*
X2111Y726D01*
X0Y725D02*
X7Y725D01*
X2104Y725D02*
X2111Y725D01*
X0Y724D02*
X7Y724D01*
X2104Y724D02*
X2111Y724D01*
X0Y723D02*
X7Y723D01*
X2104Y723D02*
X2111Y723D01*
X0Y722D02*
X7Y722D01*
X2104Y722D02*
X2111Y722D01*
X0Y721D02*
X7Y721D01*
X2104Y721D02*
X2111Y721D01*
X0Y720D02*
X7Y720D01*
X2104Y720D02*
X2111Y720D01*
X0Y719D02*
X7Y719D01*
X2104Y719D02*
X2111Y719D01*
X0Y718D02*
X7Y718D01*
X2104Y718D02*
X2111Y718D01*
X0Y717D02*
X7Y717D01*
X2104Y717D02*
X2111Y717D01*
X0Y716D02*
X7Y716D01*
X2104Y716D02*
X2111Y716D01*
X0Y715D02*
X7Y715D01*
X2104Y715D02*
X2111Y715D01*
X0Y714D02*
X7Y714D01*
X2104Y714D02*
X2111Y714D01*
X0Y713D02*
X7Y713D01*
X2104Y713D02*
X2111Y713D01*
X0Y712D02*
X7Y712D01*
X2104Y712D02*
X2111Y712D01*
X0Y711D02*
X7Y711D01*
X2104Y711D02*
X2111Y711D01*
X0Y710D02*
X7Y710D01*
X2104Y710D02*
X2111Y710D01*
X0Y709D02*
X7Y709D01*
X2104Y709D02*
X2111Y709D01*
X0Y708D02*
X7Y708D01*
X2104Y708D02*
X2111Y708D01*
X0Y707D02*
X7Y707D01*
X2104Y707D02*
X2111Y707D01*
X0Y706D02*
X7Y706D01*
X2104Y706D02*
X2111Y706D01*
X0Y705D02*
X7Y705D01*
X2104Y705D02*
X2111Y705D01*
X0Y704D02*
X7Y704D01*
X2104Y704D02*
X2111Y704D01*
X0Y703D02*
X7Y703D01*
X2104Y703D02*
X2111Y703D01*
X0Y702D02*
X7Y702D01*
X2104Y702D02*
X2111Y702D01*
X0Y701D02*
X7Y701D01*
X2104Y701D02*
X2111Y701D01*
X0Y700D02*
X7Y700D01*
X2104Y700D02*
X2111Y700D01*
X0Y699D02*
X7Y699D01*
X2104Y699D02*
X2111Y699D01*
X0Y698D02*
X7Y698D01*
X2104Y698D02*
X2111Y698D01*
X0Y697D02*
X7Y697D01*
X2104Y697D02*
X2111Y697D01*
X0Y696D02*
X7Y696D01*
X2104Y696D02*
X2111Y696D01*
X0Y695D02*
X7Y695D01*
X1469Y695D02*
X1472Y695D01*
X1519Y695D02*
X1522Y695D01*
X2104Y695D02*
X2111Y695D01*
X0Y694D02*
X7Y694D01*
X1469Y694D02*
X1472Y694D01*
X1519Y694D02*
X1522Y694D01*
X2104Y694D02*
X2111Y694D01*
X0Y693D02*
X7Y693D01*
X1469Y693D02*
X1472Y693D01*
X1518Y693D02*
X1522Y693D01*
X2104Y693D02*
X2111Y693D01*
X0Y692D02*
X7Y692D01*
X1468Y692D02*
X1473Y692D01*
X1518Y692D02*
X1522Y692D01*
X2104Y692D02*
X2111Y692D01*
X0Y691D02*
X7Y691D01*
X1468Y691D02*
X1473Y691D01*
X1518Y691D02*
X1522Y691D01*
X2104Y691D02*
X2111Y691D01*
X0Y690D02*
X7Y690D01*
X1468Y690D02*
X1473Y690D01*
X1518Y690D02*
X1522Y690D01*
X2104Y690D02*
X2111Y690D01*
X0Y689D02*
X7Y689D01*
X1468Y689D02*
X1473Y689D01*
X1518Y689D02*
X1522Y689D01*
X2104Y689D02*
X2111Y689D01*
X0Y688D02*
X7Y688D01*
X1468Y688D02*
X1473Y688D01*
X1518Y688D02*
X1522Y688D01*
X2104Y688D02*
X2111Y688D01*
X0Y687D02*
X7Y687D01*
X1468Y687D02*
X1473Y687D01*
X1518Y687D02*
X1522Y687D01*
X2104Y687D02*
X2111Y687D01*
X0Y686D02*
X7Y686D01*
X1468Y686D02*
X1473Y686D01*
X1518Y686D02*
X1522Y686D01*
X2104Y686D02*
X2111Y686D01*
X0Y685D02*
X7Y685D01*
X1468Y685D02*
X1473Y685D01*
X1518Y685D02*
X1522Y685D01*
X2104Y685D02*
X2111Y685D01*
X0Y684D02*
X7Y684D01*
X1468Y684D02*
X1473Y684D01*
X1518Y684D02*
X1522Y684D01*
X2104Y684D02*
X2111Y684D01*
X0Y683D02*
X7Y683D01*
X1468Y683D02*
X1473Y683D01*
X1518Y683D02*
X1522Y683D01*
X2104Y683D02*
X2111Y683D01*
X0Y682D02*
X7Y682D01*
X1468Y682D02*
X1473Y682D01*
X1518Y682D02*
X1522Y682D01*
X2104Y682D02*
X2111Y682D01*
X0Y681D02*
X7Y681D01*
X1468Y681D02*
X1473Y681D01*
X1518Y681D02*
X1522Y681D01*
X2104Y681D02*
X2111Y681D01*
X0Y680D02*
X7Y680D01*
X1468Y680D02*
X1473Y680D01*
X1518Y680D02*
X1522Y680D01*
X2104Y680D02*
X2111Y680D01*
X0Y679D02*
X7Y679D01*
X1468Y679D02*
X1473Y679D01*
X1518Y679D02*
X1522Y679D01*
X2104Y679D02*
X2111Y679D01*
X0Y678D02*
X7Y678D01*
X1468Y678D02*
X1473Y678D01*
X1518Y678D02*
X1522Y678D01*
X2104Y678D02*
X2111Y678D01*
X0Y677D02*
X7Y677D01*
X1468Y677D02*
X1473Y677D01*
X1518Y677D02*
X1522Y677D01*
X2104Y677D02*
X2111Y677D01*
X0Y676D02*
X7Y676D01*
X1468Y676D02*
X1473Y676D01*
X1518Y676D02*
X1522Y676D01*
X2104Y676D02*
X2111Y676D01*
X0Y675D02*
X7Y675D01*
X1468Y675D02*
X1473Y675D01*
X1518Y675D02*
X1522Y675D01*
X2104Y675D02*
X2111Y675D01*
X0Y674D02*
X7Y674D01*
X1468Y674D02*
X1473Y674D01*
X1518Y674D02*
X1522Y674D01*
X2104Y674D02*
X2111Y674D01*
X0Y673D02*
X7Y673D01*
X1468Y673D02*
X1473Y673D01*
X1518Y673D02*
X1522Y673D01*
X2104Y673D02*
X2111Y673D01*
X0Y672D02*
X7Y672D01*
X1468Y672D02*
X1473Y672D01*
X1518Y672D02*
X1522Y672D01*
X2104Y672D02*
X2111Y672D01*
X0Y671D02*
X7Y671D01*
X1468Y671D02*
X1473Y671D01*
X1518Y671D02*
X1522Y671D01*
X2104Y671D02*
X2111Y671D01*
X0Y670D02*
X7Y670D01*
X1468Y670D02*
X1473Y670D01*
X1518Y670D02*
X1522Y670D01*
X2104Y670D02*
X2111Y670D01*
X0Y669D02*
X7Y669D01*
X1468Y669D02*
X1473Y669D01*
X1518Y669D02*
X1522Y669D01*
X2104Y669D02*
X2111Y669D01*
X0Y668D02*
X7Y668D01*
X1468Y668D02*
X1473Y668D01*
X1518Y668D02*
X1522Y668D01*
X2104Y668D02*
X2111Y668D01*
X0Y667D02*
X7Y667D01*
X1468Y667D02*
X1473Y667D01*
X1518Y667D02*
X1522Y667D01*
X2104Y667D02*
X2111Y667D01*
X0Y666D02*
X7Y666D01*
X1468Y666D02*
X1473Y666D01*
X1518Y666D02*
X1522Y666D01*
X2104Y666D02*
X2111Y666D01*
X0Y665D02*
X7Y665D01*
X1468Y665D02*
X1473Y665D01*
X1518Y665D02*
X1522Y665D01*
X2104Y665D02*
X2111Y665D01*
X0Y664D02*
X7Y664D01*
X1468Y664D02*
X1473Y664D01*
X1518Y664D02*
X1522Y664D01*
X2104Y664D02*
X2111Y664D01*
X0Y663D02*
X7Y663D01*
X1468Y663D02*
X1473Y663D01*
X1518Y663D02*
X1522Y663D01*
X2104Y663D02*
X2111Y663D01*
X0Y662D02*
X7Y662D01*
X1468Y662D02*
X1473Y662D01*
X1518Y662D02*
X1522Y662D01*
X2104Y662D02*
X2111Y662D01*
X0Y661D02*
X7Y661D01*
X1468Y661D02*
X1473Y661D01*
X1518Y661D02*
X1522Y661D01*
X2104Y661D02*
X2111Y661D01*
X0Y660D02*
X7Y660D01*
X1468Y660D02*
X1473Y660D01*
X1518Y660D02*
X1522Y660D01*
X2104Y660D02*
X2111Y660D01*
X0Y659D02*
X7Y659D01*
X1468Y659D02*
X1473Y659D01*
X1518Y659D02*
X1522Y659D01*
X2104Y659D02*
X2111Y659D01*
X0Y658D02*
X7Y658D01*
X1468Y658D02*
X1473Y658D01*
X1518Y658D02*
X1522Y658D01*
X2104Y658D02*
X2111Y658D01*
X0Y657D02*
X7Y657D01*
X1468Y657D02*
X1473Y657D01*
X1518Y657D02*
X1522Y657D01*
X2104Y657D02*
X2111Y657D01*
X0Y656D02*
X7Y656D01*
X1468Y656D02*
X1473Y656D01*
X1518Y656D02*
X1522Y656D01*
X2104Y656D02*
X2111Y656D01*
X0Y655D02*
X7Y655D01*
X1468Y655D02*
X1473Y655D01*
X1518Y655D02*
X1522Y655D01*
X2104Y655D02*
X2111Y655D01*
X0Y654D02*
X7Y654D01*
X1468Y654D02*
X1473Y654D01*
X1518Y654D02*
X1522Y654D01*
X2104Y654D02*
X2111Y654D01*
X0Y653D02*
X7Y653D01*
X1468Y653D02*
X1473Y653D01*
X1518Y653D02*
X1522Y653D01*
X2104Y653D02*
X2111Y653D01*
X0Y652D02*
X7Y652D01*
X1468Y652D02*
X1473Y652D01*
X1518Y652D02*
X1522Y652D01*
X2104Y652D02*
X2111Y652D01*
X0Y651D02*
X7Y651D01*
X1468Y651D02*
X1473Y651D01*
X1518Y651D02*
X1522Y651D01*
X2104Y651D02*
X2111Y651D01*
X0Y650D02*
X7Y650D01*
X1468Y650D02*
X1473Y650D01*
X1518Y650D02*
X1522Y650D01*
X2104Y650D02*
X2111Y650D01*
X0Y649D02*
X7Y649D01*
X1468Y649D02*
X1473Y649D01*
X1518Y649D02*
X1522Y649D01*
X2104Y649D02*
X2111Y649D01*
X0Y648D02*
X7Y648D01*
X1468Y648D02*
X1473Y648D01*
X1518Y648D02*
X1522Y648D01*
X1788Y648D02*
X1789Y648D01*
X2104Y648D02*
X2111Y648D01*
X0Y647D02*
X7Y647D01*
X1468Y647D02*
X1473Y647D01*
X1518Y647D02*
X1522Y647D01*
X1788Y647D02*
X1791Y647D01*
X2104Y647D02*
X2111Y647D01*
X0Y646D02*
X7Y646D01*
X1468Y646D02*
X1473Y646D01*
X1518Y646D02*
X1522Y646D01*
X1788Y646D02*
X1792Y646D01*
X2104Y646D02*
X2111Y646D01*
X0Y645D02*
X7Y645D01*
X1468Y645D02*
X1473Y645D01*
X1518Y645D02*
X1522Y645D01*
X1788Y645D02*
X1792Y645D01*
X2104Y645D02*
X2111Y645D01*
X0Y644D02*
X7Y644D01*
X1468Y644D02*
X1473Y644D01*
X1518Y644D02*
X1522Y644D01*
X1788Y644D02*
X1792Y644D01*
X2104Y644D02*
X2111Y644D01*
X0Y643D02*
X7Y643D01*
X1468Y643D02*
X1473Y643D01*
X1518Y643D02*
X1522Y643D01*
X1788Y643D02*
X1792Y643D01*
X2104Y643D02*
X2111Y643D01*
X0Y642D02*
X7Y642D01*
X1468Y642D02*
X1473Y642D01*
X1518Y642D02*
X1522Y642D01*
X1788Y642D02*
X1792Y642D01*
X2104Y642D02*
X2111Y642D01*
X0Y641D02*
X7Y641D01*
X1468Y641D02*
X1473Y641D01*
X1518Y641D02*
X1522Y641D01*
X1788Y641D02*
X1792Y641D01*
X2104Y641D02*
X2111Y641D01*
X0Y640D02*
X7Y640D01*
X1468Y640D02*
X1473Y640D01*
X1518Y640D02*
X1522Y640D01*
X1788Y640D02*
X1792Y640D01*
X2104Y640D02*
X2111Y640D01*
X0Y639D02*
X7Y639D01*
X1468Y639D02*
X1473Y639D01*
X1518Y639D02*
X1522Y639D01*
X1788Y639D02*
X1792Y639D01*
X2104Y639D02*
X2111Y639D01*
X0Y638D02*
X7Y638D01*
X1468Y638D02*
X1473Y638D01*
X1518Y638D02*
X1522Y638D01*
X1788Y638D02*
X1792Y638D01*
X2104Y638D02*
X2111Y638D01*
X0Y637D02*
X7Y637D01*
X1468Y637D02*
X1473Y637D01*
X1518Y637D02*
X1522Y637D01*
X1788Y637D02*
X1792Y637D01*
X2104Y637D02*
X2111Y637D01*
X0Y636D02*
X7Y636D01*
X1468Y636D02*
X1473Y636D01*
X1518Y636D02*
X1522Y636D01*
X1788Y636D02*
X1792Y636D01*
X2104Y636D02*
X2111Y636D01*
X0Y635D02*
X7Y635D01*
X1468Y635D02*
X1473Y635D01*
X1518Y635D02*
X1522Y635D01*
X1788Y635D02*
X1792Y635D01*
X2104Y635D02*
X2111Y635D01*
X0Y634D02*
X7Y634D01*
X1468Y634D02*
X1473Y634D01*
X1518Y634D02*
X1522Y634D01*
X1788Y634D02*
X1792Y634D01*
X2104Y634D02*
X2111Y634D01*
X0Y633D02*
X7Y633D01*
X1468Y633D02*
X1473Y633D01*
X1518Y633D02*
X1522Y633D01*
X1788Y633D02*
X1792Y633D01*
X2104Y633D02*
X2111Y633D01*
X0Y632D02*
X7Y632D01*
X1468Y632D02*
X1473Y632D01*
X1518Y632D02*
X1522Y632D01*
X1788Y632D02*
X1792Y632D01*
X2104Y632D02*
X2111Y632D01*
X0Y631D02*
X7Y631D01*
X1468Y631D02*
X1473Y631D01*
X1518Y631D02*
X1522Y631D01*
X1788Y631D02*
X1792Y631D01*
X2104Y631D02*
X2111Y631D01*
X0Y630D02*
X7Y630D01*
X1468Y630D02*
X1473Y630D01*
X1518Y630D02*
X1522Y630D01*
X1788Y630D02*
X1792Y630D01*
X2104Y630D02*
X2111Y630D01*
X0Y629D02*
X7Y629D01*
X1468Y629D02*
X1473Y629D01*
X1518Y629D02*
X1522Y629D01*
X1788Y629D02*
X1792Y629D01*
X2104Y629D02*
X2111Y629D01*
X0Y628D02*
X7Y628D01*
X1468Y628D02*
X1473Y628D01*
X1518Y628D02*
X1522Y628D01*
X1788Y628D02*
X1792Y628D01*
X2104Y628D02*
X2111Y628D01*
X0Y627D02*
X7Y627D01*
X1468Y627D02*
X1473Y627D01*
X1518Y627D02*
X1522Y627D01*
X1788Y627D02*
X1792Y627D01*
X2104Y627D02*
X2111Y627D01*
X0Y626D02*
X7Y626D01*
X1468Y626D02*
X1473Y626D01*
X1518Y626D02*
X1522Y626D01*
X1788Y626D02*
X1792Y626D01*
X2104Y626D02*
X2111Y626D01*
X0Y625D02*
X7Y625D01*
X1468Y625D02*
X1473Y625D01*
X1518Y625D02*
X1522Y625D01*
X1788Y625D02*
X1792Y625D01*
X2104Y625D02*
X2111Y625D01*
X0Y624D02*
X7Y624D01*
X1468Y624D02*
X1473Y624D01*
X1518Y624D02*
X1522Y624D01*
X1788Y624D02*
X1792Y624D01*
X2104Y624D02*
X2111Y624D01*
X0Y623D02*
X7Y623D01*
X1468Y623D02*
X1473Y623D01*
X1518Y623D02*
X1522Y623D01*
X1788Y623D02*
X1792Y623D01*
X2104Y623D02*
X2111Y623D01*
X0Y622D02*
X7Y622D01*
X1468Y622D02*
X1473Y622D01*
X1518Y622D02*
X1522Y622D01*
X1788Y622D02*
X1792Y622D01*
X2104Y622D02*
X2111Y622D01*
X0Y621D02*
X7Y621D01*
X1468Y621D02*
X1473Y621D01*
X1518Y621D02*
X1522Y621D01*
X1788Y621D02*
X1792Y621D01*
X2104Y621D02*
X2111Y621D01*
X0Y620D02*
X7Y620D01*
X1468Y620D02*
X1473Y620D01*
X1518Y620D02*
X1522Y620D01*
X1788Y620D02*
X1792Y620D01*
X2104Y620D02*
X2111Y620D01*
X0Y619D02*
X7Y619D01*
X1468Y619D02*
X1473Y619D01*
X1518Y619D02*
X1522Y619D01*
X1788Y619D02*
X1792Y619D01*
X2104Y619D02*
X2111Y619D01*
X0Y618D02*
X7Y618D01*
X1468Y618D02*
X1473Y618D01*
X1518Y618D02*
X1522Y618D01*
X1788Y618D02*
X1792Y618D01*
X2104Y618D02*
X2111Y618D01*
X0Y617D02*
X7Y617D01*
X1468Y617D02*
X1473Y617D01*
X1518Y617D02*
X1522Y617D01*
X1788Y617D02*
X1792Y617D01*
X2104Y617D02*
X2111Y617D01*
X0Y616D02*
X7Y616D01*
X1468Y616D02*
X1473Y616D01*
X1518Y616D02*
X1522Y616D01*
X1788Y616D02*
X1792Y616D01*
X2104Y616D02*
X2111Y616D01*
X0Y615D02*
X7Y615D01*
X1468Y615D02*
X1473Y615D01*
X1518Y615D02*
X1522Y615D01*
X1788Y615D02*
X1792Y615D01*
X2104Y615D02*
X2111Y615D01*
X0Y614D02*
X7Y614D01*
X1468Y614D02*
X1473Y614D01*
X1518Y614D02*
X1522Y614D01*
X1788Y614D02*
X1792Y614D01*
X2104Y614D02*
X2111Y614D01*
X0Y613D02*
X7Y613D01*
X1468Y613D02*
X1473Y613D01*
X1518Y613D02*
X1522Y613D01*
X1788Y613D02*
X1792Y613D01*
X2104Y613D02*
X2111Y613D01*
X0Y612D02*
X7Y612D01*
X1468Y612D02*
X1473Y612D01*
X1518Y612D02*
X1522Y612D01*
X1788Y612D02*
X1792Y612D01*
X2104Y612D02*
X2111Y612D01*
X0Y611D02*
X7Y611D01*
X1468Y611D02*
X1473Y611D01*
X1518Y611D02*
X1522Y611D01*
X1788Y611D02*
X1792Y611D01*
X2104Y611D02*
X2111Y611D01*
X0Y610D02*
X7Y610D01*
X1468Y610D02*
X1473Y610D01*
X1518Y610D02*
X1522Y610D01*
X1788Y610D02*
X1792Y610D01*
X2104Y610D02*
X2111Y610D01*
X0Y609D02*
X7Y609D01*
X1468Y609D02*
X1473Y609D01*
X1518Y609D02*
X1522Y609D01*
X1788Y609D02*
X1792Y609D01*
X2104Y609D02*
X2111Y609D01*
X0Y608D02*
X7Y608D01*
X1468Y608D02*
X1473Y608D01*
X1518Y608D02*
X1522Y608D01*
X1788Y608D02*
X1792Y608D01*
X2104Y608D02*
X2111Y608D01*
X0Y607D02*
X7Y607D01*
X1468Y607D02*
X1473Y607D01*
X1518Y607D02*
X1522Y607D01*
X1788Y607D02*
X1792Y607D01*
X2104Y607D02*
X2111Y607D01*
X0Y606D02*
X7Y606D01*
X1468Y606D02*
X1473Y606D01*
X1518Y606D02*
X1522Y606D01*
X1788Y606D02*
X1792Y606D01*
X2104Y606D02*
X2111Y606D01*
X0Y605D02*
X7Y605D01*
X1468Y605D02*
X1473Y605D01*
X1518Y605D02*
X1522Y605D01*
X1788Y605D02*
X1792Y605D01*
X2104Y605D02*
X2111Y605D01*
X0Y604D02*
X7Y604D01*
X1468Y604D02*
X1473Y604D01*
X1518Y604D02*
X1522Y604D01*
X1788Y604D02*
X1792Y604D01*
X2104Y604D02*
X2111Y604D01*
X0Y603D02*
X7Y603D01*
X1468Y603D02*
X1473Y603D01*
X1518Y603D02*
X1522Y603D01*
X1788Y603D02*
X1792Y603D01*
X2104Y603D02*
X2111Y603D01*
X0Y602D02*
X7Y602D01*
X1468Y602D02*
X1473Y602D01*
X1518Y602D02*
X1522Y602D01*
X1788Y602D02*
X1792Y602D01*
X2104Y602D02*
X2111Y602D01*
X0Y601D02*
X7Y601D01*
X1468Y601D02*
X1473Y601D01*
X1518Y601D02*
X1522Y601D01*
X1788Y601D02*
X1792Y601D01*
X2104Y601D02*
X2111Y601D01*
X0Y600D02*
X7Y600D01*
X1468Y600D02*
X1473Y600D01*
X1518Y600D02*
X1522Y600D01*
X1788Y600D02*
X1792Y600D01*
X2104Y600D02*
X2111Y600D01*
X0Y599D02*
X7Y599D01*
X1468Y599D02*
X1473Y599D01*
X1518Y599D02*
X1522Y599D01*
X1788Y599D02*
X1792Y599D01*
X2104Y599D02*
X2111Y599D01*
X0Y598D02*
X7Y598D01*
X1468Y598D02*
X1473Y598D01*
X1518Y598D02*
X1522Y598D01*
X1788Y598D02*
X1792Y598D01*
X2104Y598D02*
X2111Y598D01*
X0Y597D02*
X7Y597D01*
X1468Y597D02*
X1473Y597D01*
X1518Y597D02*
X1522Y597D01*
X1788Y597D02*
X1792Y597D01*
X2104Y597D02*
X2111Y597D01*
X0Y596D02*
X7Y596D01*
X1468Y596D02*
X1473Y596D01*
X1518Y596D02*
X1522Y596D01*
X1788Y596D02*
X1792Y596D01*
X2104Y596D02*
X2111Y596D01*
X0Y595D02*
X7Y595D01*
X1468Y595D02*
X1473Y595D01*
X1518Y595D02*
X1522Y595D01*
X1788Y595D02*
X1792Y595D01*
X2104Y595D02*
X2111Y595D01*
X0Y594D02*
X7Y594D01*
X1468Y594D02*
X1473Y594D01*
X1518Y594D02*
X1522Y594D01*
X1788Y594D02*
X1792Y594D01*
X2104Y594D02*
X2111Y594D01*
X0Y593D02*
X7Y593D01*
X1468Y593D02*
X1473Y593D01*
X1518Y593D02*
X1522Y593D01*
X1788Y593D02*
X1792Y593D01*
X2104Y593D02*
X2111Y593D01*
X0Y592D02*
X7Y592D01*
X1468Y592D02*
X1473Y592D01*
X1518Y592D02*
X1522Y592D01*
X1788Y592D02*
X1792Y592D01*
X2104Y592D02*
X2111Y592D01*
X0Y591D02*
X7Y591D01*
X1468Y591D02*
X1473Y591D01*
X1518Y591D02*
X1522Y591D01*
X1788Y591D02*
X1792Y591D01*
X2104Y591D02*
X2111Y591D01*
X0Y590D02*
X7Y590D01*
X1468Y590D02*
X1473Y590D01*
X1518Y590D02*
X1522Y590D01*
X1788Y590D02*
X1792Y590D01*
X2104Y590D02*
X2111Y590D01*
X0Y589D02*
X7Y589D01*
X1468Y589D02*
X1473Y589D01*
X1518Y589D02*
X1522Y589D01*
X1788Y589D02*
X1792Y589D01*
X2104Y589D02*
X2111Y589D01*
X0Y588D02*
X7Y588D01*
X1468Y588D02*
X1473Y588D01*
X1518Y588D02*
X1522Y588D01*
X1788Y588D02*
X1792Y588D01*
X2104Y588D02*
X2111Y588D01*
X0Y587D02*
X7Y587D01*
X1468Y587D02*
X1473Y587D01*
X1518Y587D02*
X1522Y587D01*
X1788Y587D02*
X1792Y587D01*
X2104Y587D02*
X2111Y587D01*
X0Y586D02*
X7Y586D01*
X1468Y586D02*
X1473Y586D01*
X1518Y586D02*
X1522Y586D01*
X1788Y586D02*
X1792Y586D01*
X2104Y586D02*
X2111Y586D01*
X0Y585D02*
X7Y585D01*
X1468Y585D02*
X1473Y585D01*
X1518Y585D02*
X1522Y585D01*
X1788Y585D02*
X1792Y585D01*
X2104Y585D02*
X2111Y585D01*
X0Y584D02*
X7Y584D01*
X1468Y584D02*
X1473Y584D01*
X1518Y584D02*
X1522Y584D01*
X1788Y584D02*
X1792Y584D01*
X2104Y584D02*
X2111Y584D01*
X0Y583D02*
X7Y583D01*
X1468Y583D02*
X1473Y583D01*
X1518Y583D02*
X1522Y583D01*
X1788Y583D02*
X1792Y583D01*
X2104Y583D02*
X2111Y583D01*
X0Y582D02*
X7Y582D01*
X1468Y582D02*
X1473Y582D01*
X1518Y582D02*
X1522Y582D01*
X1788Y582D02*
X1792Y582D01*
X2104Y582D02*
X2111Y582D01*
X0Y581D02*
X7Y581D01*
X1468Y581D02*
X1473Y581D01*
X1518Y581D02*
X1522Y581D01*
X1788Y581D02*
X1792Y581D01*
X2104Y581D02*
X2111Y581D01*
X0Y580D02*
X7Y580D01*
X1468Y580D02*
X1473Y580D01*
X1518Y580D02*
X1522Y580D01*
X1788Y580D02*
X1792Y580D01*
X2104Y580D02*
X2111Y580D01*
X0Y579D02*
X7Y579D01*
X1468Y579D02*
X1473Y579D01*
X1518Y579D02*
X1522Y579D01*
X1788Y579D02*
X1792Y579D01*
X2104Y579D02*
X2111Y579D01*
X0Y578D02*
X7Y578D01*
X1468Y578D02*
X1473Y578D01*
X1518Y578D02*
X1522Y578D01*
X1788Y578D02*
X1792Y578D01*
X2104Y578D02*
X2111Y578D01*
X0Y577D02*
X7Y577D01*
X1468Y577D02*
X1473Y577D01*
X1518Y577D02*
X1522Y577D01*
X1788Y577D02*
X1792Y577D01*
X2104Y577D02*
X2111Y577D01*
X0Y576D02*
X7Y576D01*
X1468Y576D02*
X1473Y576D01*
X1518Y576D02*
X1522Y576D01*
X1788Y576D02*
X1792Y576D01*
X2104Y576D02*
X2111Y576D01*
X0Y575D02*
X7Y575D01*
X1468Y575D02*
X1473Y575D01*
X1518Y575D02*
X1522Y575D01*
X1788Y575D02*
X1792Y575D01*
X2104Y575D02*
X2111Y575D01*
X0Y574D02*
X7Y574D01*
X1468Y574D02*
X1473Y574D01*
X1518Y574D02*
X1522Y574D01*
X1788Y574D02*
X1792Y574D01*
X2104Y574D02*
X2111Y574D01*
X0Y573D02*
X7Y573D01*
X1468Y573D02*
X1473Y573D01*
X1518Y573D02*
X1522Y573D01*
X1788Y573D02*
X1792Y573D01*
X2104Y573D02*
X2111Y573D01*
X0Y572D02*
X7Y572D01*
X1468Y572D02*
X1473Y572D01*
X1518Y572D02*
X1522Y572D01*
X1788Y572D02*
X1792Y572D01*
X2104Y572D02*
X2111Y572D01*
X0Y571D02*
X7Y571D01*
X1468Y571D02*
X1473Y571D01*
X1518Y571D02*
X1522Y571D01*
X1788Y571D02*
X1792Y571D01*
X2104Y571D02*
X2111Y571D01*
X0Y570D02*
X7Y570D01*
X1468Y570D02*
X1473Y570D01*
X1518Y570D02*
X1522Y570D01*
X1788Y570D02*
X1792Y570D01*
X2104Y570D02*
X2111Y570D01*
X0Y569D02*
X7Y569D01*
X1468Y569D02*
X1473Y569D01*
X1518Y569D02*
X1522Y569D01*
X1788Y569D02*
X1792Y569D01*
X2104Y569D02*
X2111Y569D01*
X0Y568D02*
X7Y568D01*
X1468Y568D02*
X1473Y568D01*
X1518Y568D02*
X1522Y568D01*
X1788Y568D02*
X1792Y568D01*
X2104Y568D02*
X2111Y568D01*
X0Y567D02*
X7Y567D01*
X1468Y567D02*
X1473Y567D01*
X1518Y567D02*
X1522Y567D01*
X1788Y567D02*
X1792Y567D01*
X2104Y567D02*
X2111Y567D01*
X0Y566D02*
X7Y566D01*
X1468Y566D02*
X1473Y566D01*
X1518Y566D02*
X1522Y566D01*
X1788Y566D02*
X1792Y566D01*
X2104Y566D02*
X2111Y566D01*
X0Y565D02*
X7Y565D01*
X1468Y565D02*
X1473Y565D01*
X1518Y565D02*
X1522Y565D01*
X1788Y565D02*
X1792Y565D01*
X2104Y565D02*
X2111Y565D01*
X0Y564D02*
X7Y564D01*
X1468Y564D02*
X1473Y564D01*
X1518Y564D02*
X1522Y564D01*
X1788Y564D02*
X1792Y564D01*
X2104Y564D02*
X2111Y564D01*
X0Y563D02*
X7Y563D01*
X1468Y563D02*
X1473Y563D01*
X1518Y563D02*
X1522Y563D01*
X1788Y563D02*
X1792Y563D01*
X2104Y563D02*
X2111Y563D01*
X0Y562D02*
X7Y562D01*
X1468Y562D02*
X1473Y562D01*
X1518Y562D02*
X1522Y562D01*
X1788Y562D02*
X1792Y562D01*
X2104Y562D02*
X2111Y562D01*
X0Y561D02*
X7Y561D01*
X1468Y561D02*
X1473Y561D01*
X1518Y561D02*
X1522Y561D01*
X1788Y561D02*
X1792Y561D01*
X2104Y561D02*
X2111Y561D01*
X0Y560D02*
X7Y560D01*
X1468Y560D02*
X1473Y560D01*
X1518Y560D02*
X1522Y560D01*
X1788Y560D02*
X1792Y560D01*
X2104Y560D02*
X2111Y560D01*
X0Y559D02*
X7Y559D01*
X1468Y559D02*
X1473Y559D01*
X1518Y559D02*
X1522Y559D01*
X1788Y559D02*
X1792Y559D01*
X2104Y559D02*
X2111Y559D01*
X0Y558D02*
X7Y558D01*
X1468Y558D02*
X1473Y558D01*
X1518Y558D02*
X1522Y558D01*
X1788Y558D02*
X1792Y558D01*
X2104Y558D02*
X2111Y558D01*
X0Y557D02*
X7Y557D01*
X1468Y557D02*
X1473Y557D01*
X1518Y557D02*
X1522Y557D01*
X1788Y557D02*
X1792Y557D01*
X2104Y557D02*
X2111Y557D01*
X0Y556D02*
X7Y556D01*
X1468Y556D02*
X1473Y556D01*
X1518Y556D02*
X1522Y556D01*
X1788Y556D02*
X1792Y556D01*
X2104Y556D02*
X2111Y556D01*
X0Y555D02*
X7Y555D01*
X1468Y555D02*
X1473Y555D01*
X1518Y555D02*
X1522Y555D01*
X1788Y555D02*
X1792Y555D01*
X2104Y555D02*
X2111Y555D01*
X0Y554D02*
X7Y554D01*
X1468Y554D02*
X1473Y554D01*
X1518Y554D02*
X1522Y554D01*
X1788Y554D02*
X1792Y554D01*
X2104Y554D02*
X2111Y554D01*
X0Y553D02*
X7Y553D01*
X1468Y553D02*
X1473Y553D01*
X1518Y553D02*
X1522Y553D01*
X1788Y553D02*
X1792Y553D01*
X2104Y553D02*
X2111Y553D01*
X0Y552D02*
X7Y552D01*
X1468Y552D02*
X1473Y552D01*
X1518Y552D02*
X1522Y552D01*
X1788Y552D02*
X1792Y552D01*
X2104Y552D02*
X2111Y552D01*
X0Y551D02*
X7Y551D01*
X1468Y551D02*
X1473Y551D01*
X1518Y551D02*
X1522Y551D01*
X1788Y551D02*
X1792Y551D01*
X2104Y551D02*
X2111Y551D01*
X0Y550D02*
X7Y550D01*
X1468Y550D02*
X1473Y550D01*
X1518Y550D02*
X1522Y550D01*
X1788Y550D02*
X1792Y550D01*
X2104Y550D02*
X2111Y550D01*
X0Y549D02*
X7Y549D01*
X1468Y549D02*
X1473Y549D01*
X1518Y549D02*
X1522Y549D01*
X1788Y549D02*
X1792Y549D01*
X2104Y549D02*
X2111Y549D01*
X0Y548D02*
X7Y548D01*
X1468Y548D02*
X1473Y548D01*
X1518Y548D02*
X1522Y548D01*
X1788Y548D02*
X1792Y548D01*
X2104Y548D02*
X2111Y548D01*
X0Y547D02*
X7Y547D01*
X1468Y547D02*
X1473Y547D01*
X1518Y547D02*
X1522Y547D01*
X1788Y547D02*
X1792Y547D01*
X2104Y547D02*
X2111Y547D01*
X0Y546D02*
X7Y546D01*
X1468Y546D02*
X1473Y546D01*
X1518Y546D02*
X1522Y546D01*
X1788Y546D02*
X1792Y546D01*
X2104Y546D02*
X2111Y546D01*
X0Y545D02*
X7Y545D01*
X1468Y545D02*
X1473Y545D01*
X1522Y545D02*
X1522Y545D01*
X1788Y545D02*
X1792Y545D01*
X2104Y545D02*
X2111Y545D01*
X0Y544D02*
X7Y544D01*
X1468Y544D02*
X1473Y544D01*
X1788Y544D02*
X1792Y544D01*
X2104Y544D02*
X2111Y544D01*
X0Y543D02*
X7Y543D01*
X1468Y543D02*
X1473Y543D01*
X1788Y543D02*
X1792Y543D01*
X2104Y543D02*
X2111Y543D01*
X0Y542D02*
X7Y542D01*
X1468Y542D02*
X1473Y542D01*
X1788Y542D02*
X1792Y542D01*
X2104Y542D02*
X2111Y542D01*
X0Y541D02*
X7Y541D01*
X1468Y541D02*
X1473Y541D01*
X1788Y541D02*
X1792Y541D01*
X2104Y541D02*
X2111Y541D01*
X0Y540D02*
X7Y540D01*
X1468Y540D02*
X1473Y540D01*
X1788Y540D02*
X1792Y540D01*
X2104Y540D02*
X2111Y540D01*
X0Y539D02*
X7Y539D01*
X1468Y539D02*
X1473Y539D01*
X1788Y539D02*
X1792Y539D01*
X2104Y539D02*
X2111Y539D01*
X0Y538D02*
X7Y538D01*
X1468Y538D02*
X1473Y538D01*
X1788Y538D02*
X1792Y538D01*
X2104Y538D02*
X2111Y538D01*
X0Y537D02*
X7Y537D01*
X1468Y537D02*
X1473Y537D01*
X1788Y537D02*
X1792Y537D01*
X2104Y537D02*
X2111Y537D01*
X0Y536D02*
X7Y536D01*
X1468Y536D02*
X1473Y536D01*
X1788Y536D02*
X1792Y536D01*
X2104Y536D02*
X2111Y536D01*
X0Y535D02*
X7Y535D01*
X1468Y535D02*
X1473Y535D01*
X1788Y535D02*
X1792Y535D01*
X2104Y535D02*
X2111Y535D01*
X0Y534D02*
X7Y534D01*
X1468Y534D02*
X1473Y534D01*
X1788Y534D02*
X1792Y534D01*
X2104Y534D02*
X2111Y534D01*
X0Y533D02*
X7Y533D01*
X1468Y533D02*
X1473Y533D01*
X1788Y533D02*
X1792Y533D01*
X2104Y533D02*
X2111Y533D01*
X0Y532D02*
X7Y532D01*
X1468Y532D02*
X1473Y532D01*
X1788Y532D02*
X1792Y532D01*
X2104Y532D02*
X2111Y532D01*
X0Y531D02*
X7Y531D01*
X1468Y531D02*
X1473Y531D01*
X1788Y531D02*
X1792Y531D01*
X2104Y531D02*
X2111Y531D01*
X0Y530D02*
X7Y530D01*
X1468Y530D02*
X1473Y530D01*
X1788Y530D02*
X1792Y530D01*
X2104Y530D02*
X2111Y530D01*
X0Y529D02*
X7Y529D01*
X1468Y529D02*
X1473Y529D01*
X1788Y529D02*
X1792Y529D01*
X2104Y529D02*
X2111Y529D01*
X0Y528D02*
X7Y528D01*
X1468Y528D02*
X1473Y528D01*
X1788Y528D02*
X1792Y528D01*
X2104Y528D02*
X2111Y528D01*
X0Y527D02*
X7Y527D01*
X1468Y527D02*
X1473Y527D01*
X1788Y527D02*
X1792Y527D01*
X2104Y527D02*
X2111Y527D01*
X0Y526D02*
X7Y526D01*
X1468Y526D02*
X1473Y526D01*
X1788Y526D02*
X1792Y526D01*
X2104Y526D02*
X2111Y526D01*
X0Y525D02*
X7Y525D01*
X1468Y525D02*
X1473Y525D01*
X1788Y525D02*
X1792Y525D01*
X2104Y525D02*
X2111Y525D01*
X0Y524D02*
X7Y524D01*
X1468Y524D02*
X1473Y524D01*
X1788Y524D02*
X1792Y524D01*
X2104Y524D02*
X2111Y524D01*
X0Y523D02*
X7Y523D01*
X1468Y523D02*
X1472Y523D01*
X1788Y523D02*
X1792Y523D01*
X2104Y523D02*
X2111Y523D01*
X0Y522D02*
X7Y522D01*
X1468Y522D02*
X1472Y522D01*
X1788Y522D02*
X1792Y522D01*
X2104Y522D02*
X2111Y522D01*
X0Y521D02*
X7Y521D01*
X1468Y521D02*
X1471Y521D01*
X1788Y521D02*
X1792Y521D01*
X2104Y521D02*
X2111Y521D01*
X0Y520D02*
X7Y520D01*
X1468Y520D02*
X1470Y520D01*
X1788Y520D02*
X1792Y520D01*
X2104Y520D02*
X2111Y520D01*
X0Y519D02*
X7Y519D01*
X1468Y519D02*
X1470Y519D01*
X1788Y519D02*
X1792Y519D01*
X2104Y519D02*
X2111Y519D01*
X0Y518D02*
X7Y518D01*
X1468Y518D02*
X1469Y518D01*
X1788Y518D02*
X1792Y518D01*
X2104Y518D02*
X2111Y518D01*
X0Y517D02*
X7Y517D01*
X1468Y517D02*
X1469Y517D01*
X1788Y517D02*
X1792Y517D01*
X2104Y517D02*
X2111Y517D01*
X0Y516D02*
X7Y516D01*
X1468Y516D02*
X1468Y516D01*
X1788Y516D02*
X1792Y516D01*
X2104Y516D02*
X2111Y516D01*
X0Y515D02*
X7Y515D01*
X1468Y515D02*
X1468Y515D01*
X1788Y515D02*
X1792Y515D01*
X2104Y515D02*
X2111Y515D01*
X0Y514D02*
X7Y514D01*
X1788Y514D02*
X1792Y514D01*
X2104Y514D02*
X2111Y514D01*
X0Y513D02*
X7Y513D01*
X1788Y513D02*
X1792Y513D01*
X2104Y513D02*
X2111Y513D01*
X0Y512D02*
X7Y512D01*
X1788Y512D02*
X1792Y512D01*
X2104Y512D02*
X2111Y512D01*
X0Y511D02*
X7Y511D01*
X1788Y511D02*
X1792Y511D01*
X2104Y511D02*
X2111Y511D01*
X0Y510D02*
X7Y510D01*
X1788Y510D02*
X1792Y510D01*
X2104Y510D02*
X2111Y510D01*
X0Y509D02*
X7Y509D01*
X1788Y509D02*
X1792Y509D01*
X2104Y509D02*
X2111Y509D01*
X0Y508D02*
X7Y508D01*
X1788Y508D02*
X1792Y508D01*
X2104Y508D02*
X2111Y508D01*
X0Y507D02*
X7Y507D01*
X1788Y507D02*
X1792Y507D01*
X2104Y507D02*
X2111Y507D01*
X0Y506D02*
X7Y506D01*
X1788Y506D02*
X1792Y506D01*
X2104Y506D02*
X2111Y506D01*
X0Y505D02*
X7Y505D01*
X1788Y505D02*
X1792Y505D01*
X2104Y505D02*
X2111Y505D01*
X0Y504D02*
X7Y504D01*
X1788Y504D02*
X1792Y504D01*
X2104Y504D02*
X2111Y504D01*
X0Y503D02*
X7Y503D01*
X1788Y503D02*
X1792Y503D01*
X2104Y503D02*
X2111Y503D01*
X0Y502D02*
X7Y502D01*
X1788Y502D02*
X1792Y502D01*
X2104Y502D02*
X2111Y502D01*
X0Y501D02*
X7Y501D01*
X1788Y501D02*
X1792Y501D01*
X2104Y501D02*
X2111Y501D01*
X0Y500D02*
X7Y500D01*
X1788Y500D02*
X1792Y500D01*
X2104Y500D02*
X2111Y500D01*
X0Y499D02*
X7Y499D01*
X1788Y499D02*
X1792Y499D01*
X2104Y499D02*
X2111Y499D01*
X0Y498D02*
X7Y498D01*
X1788Y498D02*
X1792Y498D01*
X2104Y498D02*
X2111Y498D01*
X0Y497D02*
X7Y497D01*
X1788Y497D02*
X1792Y497D01*
X2104Y497D02*
X2111Y497D01*
X0Y496D02*
X7Y496D01*
X1788Y496D02*
X1792Y496D01*
X2104Y496D02*
X2111Y496D01*
X0Y495D02*
X7Y495D01*
X1788Y495D02*
X1792Y495D01*
X2104Y495D02*
X2111Y495D01*
X0Y494D02*
X7Y494D01*
X1788Y494D02*
X1792Y494D01*
X2104Y494D02*
X2111Y494D01*
X0Y493D02*
X7Y493D01*
X1788Y493D02*
X1792Y493D01*
X2104Y493D02*
X2111Y493D01*
X0Y492D02*
X7Y492D01*
X1788Y492D02*
X1792Y492D01*
X2104Y492D02*
X2111Y492D01*
X0Y491D02*
X7Y491D01*
X1788Y491D02*
X1792Y491D01*
X2104Y491D02*
X2111Y491D01*
X0Y490D02*
X7Y490D01*
X1788Y490D02*
X1792Y490D01*
X2104Y490D02*
X2111Y490D01*
X0Y489D02*
X7Y489D01*
X1788Y489D02*
X1792Y489D01*
X2104Y489D02*
X2111Y489D01*
X0Y488D02*
X7Y488D01*
X1788Y488D02*
X1792Y488D01*
X2104Y488D02*
X2111Y488D01*
X0Y487D02*
X7Y487D01*
X1788Y487D02*
X1792Y487D01*
X2104Y487D02*
X2111Y487D01*
X0Y486D02*
X7Y486D01*
X1788Y486D02*
X1792Y486D01*
X2104Y486D02*
X2111Y486D01*
X0Y485D02*
X7Y485D01*
X1788Y485D02*
X1792Y485D01*
X2104Y485D02*
X2111Y485D01*
X0Y484D02*
X7Y484D01*
X1788Y484D02*
X1792Y484D01*
X2104Y484D02*
X2111Y484D01*
X0Y483D02*
X7Y483D01*
X1788Y483D02*
X1792Y483D01*
X2104Y483D02*
X2111Y483D01*
X0Y482D02*
X7Y482D01*
X1788Y482D02*
X1792Y482D01*
X2104Y482D02*
X2111Y482D01*
X0Y481D02*
X7Y481D01*
X1788Y481D02*
X1792Y481D01*
X2104Y481D02*
X2111Y481D01*
X0Y480D02*
X7Y480D01*
X1788Y480D02*
X1792Y480D01*
X2104Y480D02*
X2111Y480D01*
X0Y479D02*
X7Y479D01*
X1788Y479D02*
X1792Y479D01*
X2104Y479D02*
X2111Y479D01*
X0Y478D02*
X7Y478D01*
X1788Y478D02*
X1792Y478D01*
X2104Y478D02*
X2111Y478D01*
X0Y477D02*
X7Y477D01*
X1788Y477D02*
X1792Y477D01*
X2104Y477D02*
X2111Y477D01*
X0Y476D02*
X7Y476D01*
X1788Y476D02*
X1792Y476D01*
X2104Y476D02*
X2111Y476D01*
X0Y475D02*
X7Y475D01*
X1788Y475D02*
X1792Y475D01*
X2104Y475D02*
X2111Y475D01*
X0Y474D02*
X7Y474D01*
X1788Y474D02*
X1792Y474D01*
X2104Y474D02*
X2111Y474D01*
X0Y473D02*
X7Y473D01*
X1788Y473D02*
X1792Y473D01*
X2104Y473D02*
X2111Y473D01*
X0Y472D02*
X7Y472D01*
X1788Y472D02*
X1792Y472D01*
X2104Y472D02*
X2111Y472D01*
X0Y471D02*
X7Y471D01*
X1468Y471D02*
X1468Y471D01*
X1788Y471D02*
X1792Y471D01*
X2104Y471D02*
X2111Y471D01*
X0Y470D02*
X7Y470D01*
X1468Y470D02*
X1468Y470D01*
X1788Y470D02*
X1792Y470D01*
X2104Y470D02*
X2111Y470D01*
X0Y469D02*
X7Y469D01*
X1468Y469D02*
X1469Y469D01*
X1788Y469D02*
X1792Y469D01*
X2104Y469D02*
X2111Y469D01*
X0Y468D02*
X7Y468D01*
X1468Y468D02*
X1469Y468D01*
X1788Y468D02*
X1792Y468D01*
X2104Y468D02*
X2111Y468D01*
X0Y467D02*
X7Y467D01*
X1468Y467D02*
X1470Y467D01*
X1788Y467D02*
X1792Y467D01*
X2104Y467D02*
X2111Y467D01*
X0Y466D02*
X7Y466D01*
X1468Y466D02*
X1471Y466D01*
X1788Y466D02*
X1792Y466D01*
X2104Y466D02*
X2111Y466D01*
X0Y465D02*
X7Y465D01*
X1468Y465D02*
X1471Y465D01*
X1788Y465D02*
X1792Y465D01*
X2104Y465D02*
X2111Y465D01*
X0Y464D02*
X7Y464D01*
X1468Y464D02*
X1472Y464D01*
X1788Y464D02*
X1792Y464D01*
X2104Y464D02*
X2111Y464D01*
X0Y463D02*
X7Y463D01*
X1468Y463D02*
X1473Y463D01*
X1788Y463D02*
X1792Y463D01*
X2104Y463D02*
X2111Y463D01*
X0Y462D02*
X7Y462D01*
X1468Y462D02*
X1473Y462D01*
X1788Y462D02*
X1792Y462D01*
X2104Y462D02*
X2111Y462D01*
X0Y461D02*
X7Y461D01*
X1468Y461D02*
X1473Y461D01*
X1788Y461D02*
X1792Y461D01*
X2104Y461D02*
X2111Y461D01*
X0Y460D02*
X7Y460D01*
X1468Y460D02*
X1473Y460D01*
X1788Y460D02*
X1792Y460D01*
X2104Y460D02*
X2111Y460D01*
X0Y459D02*
X7Y459D01*
X1468Y459D02*
X1473Y459D01*
X1788Y459D02*
X1792Y459D01*
X2104Y459D02*
X2111Y459D01*
X0Y458D02*
X7Y458D01*
X1468Y458D02*
X1473Y458D01*
X1788Y458D02*
X1792Y458D01*
X2104Y458D02*
X2111Y458D01*
X0Y457D02*
X7Y457D01*
X1468Y457D02*
X1473Y457D01*
X1788Y457D02*
X1792Y457D01*
X2104Y457D02*
X2111Y457D01*
X0Y456D02*
X7Y456D01*
X1468Y456D02*
X1473Y456D01*
X1788Y456D02*
X1792Y456D01*
X2104Y456D02*
X2111Y456D01*
X0Y455D02*
X7Y455D01*
X1468Y455D02*
X1473Y455D01*
X1788Y455D02*
X1792Y455D01*
X2104Y455D02*
X2111Y455D01*
X0Y454D02*
X7Y454D01*
X1468Y454D02*
X1473Y454D01*
X1788Y454D02*
X1792Y454D01*
X2104Y454D02*
X2111Y454D01*
X0Y453D02*
X7Y453D01*
X1468Y453D02*
X1473Y453D01*
X1788Y453D02*
X1792Y453D01*
X2104Y453D02*
X2111Y453D01*
X0Y452D02*
X7Y452D01*
X1468Y452D02*
X1473Y452D01*
X1788Y452D02*
X1792Y452D01*
X2104Y452D02*
X2111Y452D01*
X0Y451D02*
X7Y451D01*
X1468Y451D02*
X1473Y451D01*
X1788Y451D02*
X1792Y451D01*
X2104Y451D02*
X2111Y451D01*
X0Y450D02*
X7Y450D01*
X1468Y450D02*
X1473Y450D01*
X1788Y450D02*
X1792Y450D01*
X2104Y450D02*
X2111Y450D01*
X0Y449D02*
X7Y449D01*
X1468Y449D02*
X1473Y449D01*
X1788Y449D02*
X1792Y449D01*
X2104Y449D02*
X2111Y449D01*
X0Y448D02*
X7Y448D01*
X1468Y448D02*
X1473Y448D01*
X1788Y448D02*
X1792Y448D01*
X2104Y448D02*
X2111Y448D01*
X0Y447D02*
X7Y447D01*
X1468Y447D02*
X1473Y447D01*
X1788Y447D02*
X1792Y447D01*
X2104Y447D02*
X2111Y447D01*
X0Y446D02*
X7Y446D01*
X1468Y446D02*
X1473Y446D01*
X1788Y446D02*
X1792Y446D01*
X2104Y446D02*
X2111Y446D01*
X0Y445D02*
X7Y445D01*
X1468Y445D02*
X1473Y445D01*
X1788Y445D02*
X1792Y445D01*
X2104Y445D02*
X2111Y445D01*
X0Y444D02*
X7Y444D01*
X1468Y444D02*
X1473Y444D01*
X1788Y444D02*
X1792Y444D01*
X2104Y444D02*
X2111Y444D01*
X0Y443D02*
X7Y443D01*
X1468Y443D02*
X1473Y443D01*
X1788Y443D02*
X1792Y443D01*
X2104Y443D02*
X2111Y443D01*
X0Y442D02*
X7Y442D01*
X1468Y442D02*
X1473Y442D01*
X1788Y442D02*
X1792Y442D01*
X2104Y442D02*
X2111Y442D01*
X0Y441D02*
X7Y441D01*
X1468Y441D02*
X1473Y441D01*
X1518Y441D02*
X1522Y441D01*
X1788Y441D02*
X1792Y441D01*
X2104Y441D02*
X2111Y441D01*
X0Y440D02*
X7Y440D01*
X1468Y440D02*
X1473Y440D01*
X1518Y440D02*
X1522Y440D01*
X1788Y440D02*
X1792Y440D01*
X2104Y440D02*
X2111Y440D01*
X0Y439D02*
X7Y439D01*
X1468Y439D02*
X1473Y439D01*
X1518Y439D02*
X1522Y439D01*
X1788Y439D02*
X1792Y439D01*
X2104Y439D02*
X2111Y439D01*
X0Y438D02*
X7Y438D01*
X1468Y438D02*
X1473Y438D01*
X1518Y438D02*
X1522Y438D01*
X1788Y438D02*
X1792Y438D01*
X2104Y438D02*
X2111Y438D01*
X0Y437D02*
X7Y437D01*
X1468Y437D02*
X1473Y437D01*
X1518Y437D02*
X1522Y437D01*
X1788Y437D02*
X1792Y437D01*
X2104Y437D02*
X2111Y437D01*
X0Y436D02*
X7Y436D01*
X1468Y436D02*
X1473Y436D01*
X1518Y436D02*
X1522Y436D01*
X1788Y436D02*
X1792Y436D01*
X2104Y436D02*
X2111Y436D01*
X0Y435D02*
X7Y435D01*
X1468Y435D02*
X1473Y435D01*
X1518Y435D02*
X1522Y435D01*
X1788Y435D02*
X1792Y435D01*
X2104Y435D02*
X2111Y435D01*
X0Y434D02*
X7Y434D01*
X1468Y434D02*
X1473Y434D01*
X1518Y434D02*
X1522Y434D01*
X1788Y434D02*
X1792Y434D01*
X2104Y434D02*
X2111Y434D01*
X0Y433D02*
X7Y433D01*
X1468Y433D02*
X1473Y433D01*
X1518Y433D02*
X1522Y433D01*
X1788Y433D02*
X1792Y433D01*
X2104Y433D02*
X2111Y433D01*
X0Y432D02*
X7Y432D01*
X1468Y432D02*
X1473Y432D01*
X1518Y432D02*
X1522Y432D01*
X1788Y432D02*
X1792Y432D01*
X2104Y432D02*
X2111Y432D01*
X0Y431D02*
X7Y431D01*
X1468Y431D02*
X1473Y431D01*
X1518Y431D02*
X1522Y431D01*
X1788Y431D02*
X1792Y431D01*
X2104Y431D02*
X2111Y431D01*
X0Y430D02*
X7Y430D01*
X1468Y430D02*
X1473Y430D01*
X1518Y430D02*
X1522Y430D01*
X1788Y430D02*
X1792Y430D01*
X2104Y430D02*
X2111Y430D01*
X0Y429D02*
X7Y429D01*
X1468Y429D02*
X1473Y429D01*
X1518Y429D02*
X1522Y429D01*
X1788Y429D02*
X1792Y429D01*
X2104Y429D02*
X2111Y429D01*
X0Y428D02*
X7Y428D01*
X1468Y428D02*
X1473Y428D01*
X1518Y428D02*
X1522Y428D01*
X1788Y428D02*
X1792Y428D01*
X2104Y428D02*
X2111Y428D01*
X0Y427D02*
X7Y427D01*
X1468Y427D02*
X1473Y427D01*
X1518Y427D02*
X1522Y427D01*
X1788Y427D02*
X1792Y427D01*
X2104Y427D02*
X2111Y427D01*
X0Y426D02*
X7Y426D01*
X1468Y426D02*
X1473Y426D01*
X1518Y426D02*
X1522Y426D01*
X1788Y426D02*
X1792Y426D01*
X2104Y426D02*
X2111Y426D01*
X0Y425D02*
X7Y425D01*
X1468Y425D02*
X1473Y425D01*
X1518Y425D02*
X1522Y425D01*
X1788Y425D02*
X1792Y425D01*
X2104Y425D02*
X2111Y425D01*
X0Y424D02*
X7Y424D01*
X1468Y424D02*
X1473Y424D01*
X1518Y424D02*
X1522Y424D01*
X1788Y424D02*
X1792Y424D01*
X2104Y424D02*
X2111Y424D01*
X0Y423D02*
X7Y423D01*
X1468Y423D02*
X1473Y423D01*
X1518Y423D02*
X1522Y423D01*
X1788Y423D02*
X1792Y423D01*
X2104Y423D02*
X2111Y423D01*
X0Y422D02*
X7Y422D01*
X1468Y422D02*
X1473Y422D01*
X1518Y422D02*
X1522Y422D01*
X1788Y422D02*
X1792Y422D01*
X2104Y422D02*
X2111Y422D01*
X0Y421D02*
X7Y421D01*
X1468Y421D02*
X1473Y421D01*
X1518Y421D02*
X1522Y421D01*
X1788Y421D02*
X1792Y421D01*
X2104Y421D02*
X2111Y421D01*
X0Y420D02*
X7Y420D01*
X1468Y420D02*
X1473Y420D01*
X1518Y420D02*
X1522Y420D01*
X1788Y420D02*
X1792Y420D01*
X2104Y420D02*
X2111Y420D01*
X0Y419D02*
X7Y419D01*
X1468Y419D02*
X1473Y419D01*
X1518Y419D02*
X1522Y419D01*
X1788Y419D02*
X1792Y419D01*
X2104Y419D02*
X2111Y419D01*
X0Y418D02*
X7Y418D01*
X1468Y418D02*
X1473Y418D01*
X1518Y418D02*
X1522Y418D01*
X1788Y418D02*
X1792Y418D01*
X2104Y418D02*
X2111Y418D01*
X0Y417D02*
X7Y417D01*
X1468Y417D02*
X1473Y417D01*
X1518Y417D02*
X1522Y417D01*
X1788Y417D02*
X1792Y417D01*
X2104Y417D02*
X2111Y417D01*
X0Y416D02*
X7Y416D01*
X1468Y416D02*
X1473Y416D01*
X1518Y416D02*
X1522Y416D01*
X1788Y416D02*
X1792Y416D01*
X2104Y416D02*
X2111Y416D01*
X0Y415D02*
X7Y415D01*
X1468Y415D02*
X1473Y415D01*
X1518Y415D02*
X1522Y415D01*
X1788Y415D02*
X1792Y415D01*
X2104Y415D02*
X2111Y415D01*
X0Y414D02*
X7Y414D01*
X1468Y414D02*
X1473Y414D01*
X1518Y414D02*
X1522Y414D01*
X1788Y414D02*
X1792Y414D01*
X2104Y414D02*
X2111Y414D01*
X0Y413D02*
X7Y413D01*
X1468Y413D02*
X1473Y413D01*
X1518Y413D02*
X1522Y413D01*
X1788Y413D02*
X1792Y413D01*
X2104Y413D02*
X2111Y413D01*
X0Y412D02*
X7Y412D01*
X1468Y412D02*
X1473Y412D01*
X1518Y412D02*
X1522Y412D01*
X1788Y412D02*
X1792Y412D01*
X2104Y412D02*
X2111Y412D01*
X0Y411D02*
X7Y411D01*
X1468Y411D02*
X1473Y411D01*
X1518Y411D02*
X1522Y411D01*
X1788Y411D02*
X1792Y411D01*
X2104Y411D02*
X2111Y411D01*
X0Y410D02*
X7Y410D01*
X1468Y410D02*
X1473Y410D01*
X1518Y410D02*
X1522Y410D01*
X1788Y410D02*
X1792Y410D01*
X2104Y410D02*
X2111Y410D01*
X0Y409D02*
X7Y409D01*
X1468Y409D02*
X1473Y409D01*
X1518Y409D02*
X1522Y409D01*
X1788Y409D02*
X1792Y409D01*
X2104Y409D02*
X2111Y409D01*
X0Y408D02*
X7Y408D01*
X1468Y408D02*
X1473Y408D01*
X1518Y408D02*
X1522Y408D01*
X1788Y408D02*
X1792Y408D01*
X2104Y408D02*
X2111Y408D01*
X0Y407D02*
X7Y407D01*
X1468Y407D02*
X1473Y407D01*
X1518Y407D02*
X1522Y407D01*
X1788Y407D02*
X1792Y407D01*
X2104Y407D02*
X2111Y407D01*
X0Y406D02*
X7Y406D01*
X1468Y406D02*
X1473Y406D01*
X1518Y406D02*
X1522Y406D01*
X1788Y406D02*
X1792Y406D01*
X2104Y406D02*
X2111Y406D01*
X0Y405D02*
X7Y405D01*
X1468Y405D02*
X1473Y405D01*
X1518Y405D02*
X1522Y405D01*
X1788Y405D02*
X1792Y405D01*
X2104Y405D02*
X2111Y405D01*
X0Y404D02*
X7Y404D01*
X1468Y404D02*
X1473Y404D01*
X1518Y404D02*
X1522Y404D01*
X1788Y404D02*
X1792Y404D01*
X2104Y404D02*
X2111Y404D01*
X0Y403D02*
X7Y403D01*
X1468Y403D02*
X1473Y403D01*
X1518Y403D02*
X1522Y403D01*
X1788Y403D02*
X1792Y403D01*
X2104Y403D02*
X2111Y403D01*
X0Y402D02*
X7Y402D01*
X1468Y402D02*
X1473Y402D01*
X1518Y402D02*
X1522Y402D01*
X1788Y402D02*
X1792Y402D01*
X2104Y402D02*
X2111Y402D01*
X0Y401D02*
X7Y401D01*
X1468Y401D02*
X1473Y401D01*
X1518Y401D02*
X1522Y401D01*
X1788Y401D02*
X1792Y401D01*
X2104Y401D02*
X2111Y401D01*
X0Y400D02*
X7Y400D01*
X1468Y400D02*
X1473Y400D01*
X1518Y400D02*
X1522Y400D01*
X1788Y400D02*
X1792Y400D01*
X2104Y400D02*
X2111Y400D01*
X0Y399D02*
X7Y399D01*
X1468Y399D02*
X1473Y399D01*
X1518Y399D02*
X1522Y399D01*
X1788Y399D02*
X1792Y399D01*
X2104Y399D02*
X2111Y399D01*
X0Y398D02*
X7Y398D01*
X1468Y398D02*
X1473Y398D01*
X1518Y398D02*
X1522Y398D01*
X1788Y398D02*
X1792Y398D01*
X2104Y398D02*
X2111Y398D01*
X0Y397D02*
X7Y397D01*
X1468Y397D02*
X1473Y397D01*
X1518Y397D02*
X1522Y397D01*
X1788Y397D02*
X1792Y397D01*
X2104Y397D02*
X2111Y397D01*
X0Y396D02*
X7Y396D01*
X1468Y396D02*
X1473Y396D01*
X1518Y396D02*
X1522Y396D01*
X1788Y396D02*
X1792Y396D01*
X2104Y396D02*
X2111Y396D01*
X0Y395D02*
X7Y395D01*
X1468Y395D02*
X1473Y395D01*
X1518Y395D02*
X1522Y395D01*
X1788Y395D02*
X1792Y395D01*
X2104Y395D02*
X2111Y395D01*
X0Y394D02*
X7Y394D01*
X1468Y394D02*
X1473Y394D01*
X1518Y394D02*
X1522Y394D01*
X1788Y394D02*
X1792Y394D01*
X2104Y394D02*
X2111Y394D01*
X0Y393D02*
X7Y393D01*
X1469Y393D02*
X1472Y393D01*
X1519Y393D02*
X1522Y393D01*
X1788Y393D02*
X1792Y393D01*
X2104Y393D02*
X2111Y393D01*
X0Y392D02*
X7Y392D01*
X1469Y392D02*
X1472Y392D01*
X1519Y392D02*
X1522Y392D01*
X1788Y392D02*
X1792Y392D01*
X2104Y392D02*
X2111Y392D01*
X0Y391D02*
X7Y391D01*
X1470Y391D02*
X1471Y391D01*
X1520Y391D02*
X1521Y391D01*
X1788Y391D02*
X1792Y391D01*
X2104Y391D02*
X2111Y391D01*
X0Y390D02*
X7Y390D01*
X1788Y390D02*
X1792Y390D01*
X2104Y390D02*
X2111Y390D01*
X0Y389D02*
X7Y389D01*
X1788Y389D02*
X1792Y389D01*
X2104Y389D02*
X2111Y389D01*
X0Y388D02*
X7Y388D01*
X1788Y388D02*
X1792Y388D01*
X2104Y388D02*
X2111Y388D01*
X0Y387D02*
X7Y387D01*
X1788Y387D02*
X1792Y387D01*
X2104Y387D02*
X2111Y387D01*
X0Y386D02*
X7Y386D01*
X1788Y386D02*
X1792Y386D01*
X2104Y386D02*
X2111Y386D01*
X0Y385D02*
X7Y385D01*
X1788Y385D02*
X1792Y385D01*
X2104Y385D02*
X2111Y385D01*
X0Y384D02*
X7Y384D01*
X1788Y384D02*
X1792Y384D01*
X2104Y384D02*
X2111Y384D01*
X0Y383D02*
X7Y383D01*
X1788Y383D02*
X1792Y383D01*
X2104Y383D02*
X2111Y383D01*
X0Y382D02*
X7Y382D01*
X1788Y382D02*
X1792Y382D01*
X2104Y382D02*
X2111Y382D01*
X0Y381D02*
X7Y381D01*
X1788Y381D02*
X1792Y381D01*
X2104Y381D02*
X2111Y381D01*
X0Y380D02*
X7Y380D01*
X1788Y380D02*
X1792Y380D01*
X2104Y380D02*
X2111Y380D01*
X0Y379D02*
X7Y379D01*
X1788Y379D02*
X1792Y379D01*
X2104Y379D02*
X2111Y379D01*
X0Y378D02*
X7Y378D01*
X1788Y378D02*
X1792Y378D01*
X2104Y378D02*
X2111Y378D01*
X0Y377D02*
X7Y377D01*
X1788Y377D02*
X1792Y377D01*
X2104Y377D02*
X2111Y377D01*
X0Y376D02*
X7Y376D01*
X1788Y376D02*
X1792Y376D01*
X2104Y376D02*
X2111Y376D01*
X0Y375D02*
X7Y375D01*
X1788Y375D02*
X1792Y375D01*
X2104Y375D02*
X2111Y375D01*
X0Y374D02*
X7Y374D01*
X1788Y374D02*
X1792Y374D01*
X2104Y374D02*
X2111Y374D01*
X0Y373D02*
X7Y373D01*
X1788Y373D02*
X1792Y373D01*
X2104Y373D02*
X2111Y373D01*
X0Y372D02*
X7Y372D01*
X1788Y372D02*
X1792Y372D01*
X2104Y372D02*
X2111Y372D01*
X0Y371D02*
X7Y371D01*
X1788Y371D02*
X1792Y371D01*
X2104Y371D02*
X2111Y371D01*
X0Y370D02*
X7Y370D01*
X1788Y370D02*
X1792Y370D01*
X2104Y370D02*
X2111Y370D01*
X0Y369D02*
X7Y369D01*
X1788Y369D02*
X1792Y369D01*
X2104Y369D02*
X2111Y369D01*
X0Y368D02*
X7Y368D01*
X1788Y368D02*
X1792Y368D01*
X2104Y368D02*
X2111Y368D01*
X0Y367D02*
X7Y367D01*
X1788Y367D02*
X1792Y367D01*
X2104Y367D02*
X2111Y367D01*
X0Y366D02*
X7Y366D01*
X1788Y366D02*
X1792Y366D01*
X2104Y366D02*
X2111Y366D01*
X0Y365D02*
X7Y365D01*
X1788Y365D02*
X1792Y365D01*
X2104Y365D02*
X2111Y365D01*
X0Y364D02*
X7Y364D01*
X1788Y364D02*
X1792Y364D01*
X2104Y364D02*
X2111Y364D01*
X0Y363D02*
X7Y363D01*
X1788Y363D02*
X1792Y363D01*
X2104Y363D02*
X2111Y363D01*
X0Y362D02*
X7Y362D01*
X1788Y362D02*
X1792Y362D01*
X2104Y362D02*
X2111Y362D01*
X0Y361D02*
X7Y361D01*
X1788Y361D02*
X1792Y361D01*
X2104Y361D02*
X2111Y361D01*
X0Y360D02*
X7Y360D01*
X1788Y360D02*
X1792Y360D01*
X2104Y360D02*
X2111Y360D01*
X0Y359D02*
X7Y359D01*
X1788Y359D02*
X1792Y359D01*
X2104Y359D02*
X2111Y359D01*
X0Y358D02*
X7Y358D01*
X1788Y358D02*
X1792Y358D01*
X2104Y358D02*
X2111Y358D01*
X0Y357D02*
X7Y357D01*
X1788Y357D02*
X1792Y357D01*
X2104Y357D02*
X2111Y357D01*
X0Y356D02*
X7Y356D01*
X1788Y356D02*
X1792Y356D01*
X2104Y356D02*
X2111Y356D01*
X0Y355D02*
X7Y355D01*
X1788Y355D02*
X1792Y355D01*
X2104Y355D02*
X2111Y355D01*
X0Y354D02*
X7Y354D01*
X1788Y354D02*
X1792Y354D01*
X2104Y354D02*
X2111Y354D01*
X0Y353D02*
X7Y353D01*
X1788Y353D02*
X1792Y353D01*
X2104Y353D02*
X2111Y353D01*
X0Y352D02*
X7Y352D01*
X1788Y352D02*
X1792Y352D01*
X2104Y352D02*
X2111Y352D01*
X0Y351D02*
X7Y351D01*
X1788Y351D02*
X1792Y351D01*
X2104Y351D02*
X2111Y351D01*
X0Y350D02*
X7Y350D01*
X1788Y350D02*
X1792Y350D01*
X2104Y350D02*
X2111Y350D01*
X0Y349D02*
X7Y349D01*
X1788Y349D02*
X1792Y349D01*
X2104Y349D02*
X2111Y349D01*
X0Y348D02*
X7Y348D01*
X1788Y348D02*
X1792Y348D01*
X2104Y348D02*
X2111Y348D01*
X0Y347D02*
X7Y347D01*
X1788Y347D02*
X1792Y347D01*
X2104Y347D02*
X2111Y347D01*
X0Y346D02*
X7Y346D01*
X1788Y346D02*
X1792Y346D01*
X2104Y346D02*
X2111Y346D01*
X0Y345D02*
X7Y345D01*
X1788Y345D02*
X1792Y345D01*
X2104Y345D02*
X2111Y345D01*
X0Y344D02*
X7Y344D01*
X1788Y344D02*
X1792Y344D01*
X2104Y344D02*
X2111Y344D01*
X0Y343D02*
X7Y343D01*
X1788Y343D02*
X1792Y343D01*
X2104Y343D02*
X2111Y343D01*
X0Y342D02*
X7Y342D01*
X1789Y342D02*
X1792Y342D01*
X2104Y342D02*
X2111Y342D01*
X0Y341D02*
X7Y341D01*
X1790Y341D02*
X1791Y341D01*
X2104Y341D02*
X2111Y341D01*
X0Y340D02*
X7Y340D01*
X2104Y340D02*
X2111Y340D01*
X0Y339D02*
X7Y339D01*
X2104Y339D02*
X2111Y339D01*
X0Y338D02*
X7Y338D01*
X2104Y338D02*
X2111Y338D01*
X0Y337D02*
X7Y337D01*
X2104Y337D02*
X2111Y337D01*
X0Y336D02*
X7Y336D01*
X2104Y336D02*
X2111Y336D01*
X0Y335D02*
X7Y335D01*
X2104Y335D02*
X2111Y335D01*
X0Y334D02*
X7Y334D01*
X2104Y334D02*
X2111Y334D01*
X0Y333D02*
X7Y333D01*
X2104Y333D02*
X2111Y333D01*
X0Y332D02*
X7Y332D01*
X2104Y332D02*
X2111Y332D01*
X0Y331D02*
X7Y331D01*
X2104Y331D02*
X2111Y331D01*
X0Y330D02*
X7Y330D01*
X2104Y330D02*
X2111Y330D01*
X0Y329D02*
X7Y329D01*
X2104Y329D02*
X2111Y329D01*
X0Y328D02*
X7Y328D01*
X2104Y328D02*
X2111Y328D01*
X0Y327D02*
X7Y327D01*
X2104Y327D02*
X2111Y327D01*
X0Y326D02*
X7Y326D01*
X2104Y326D02*
X2111Y326D01*
X0Y325D02*
X7Y325D01*
X2104Y325D02*
X2111Y325D01*
X0Y324D02*
X7Y324D01*
X2104Y324D02*
X2111Y324D01*
X0Y323D02*
X7Y323D01*
X2104Y323D02*
X2111Y323D01*
X0Y322D02*
X7Y322D01*
X2104Y322D02*
X2111Y322D01*
X0Y321D02*
X7Y321D01*
X2104Y321D02*
X2111Y321D01*
X0Y320D02*
X7Y320D01*
X2104Y320D02*
X2111Y320D01*
X0Y319D02*
X7Y319D01*
X2104Y319D02*
X2111Y319D01*
X0Y318D02*
X7Y318D01*
X2104Y318D02*
X2111Y318D01*
X0Y317D02*
X7Y317D01*
X2104Y317D02*
X2111Y317D01*
X0Y316D02*
X7Y316D01*
X2104Y316D02*
X2111Y316D01*
X0Y315D02*
X7Y315D01*
X2104Y315D02*
X2111Y315D01*
X0Y314D02*
X7Y314D01*
X2104Y314D02*
X2111Y314D01*
X0Y313D02*
X7Y313D01*
X2104Y313D02*
X2111Y313D01*
X0Y312D02*
X7Y312D01*
X2104Y312D02*
X2111Y312D01*
X0Y311D02*
X7Y311D01*
X2104Y311D02*
X2111Y311D01*
X0Y310D02*
X7Y310D01*
X2104Y310D02*
X2111Y310D01*
X0Y309D02*
X7Y309D01*
X2104Y309D02*
X2111Y309D01*
X0Y308D02*
X7Y308D01*
X2104Y308D02*
X2111Y308D01*
X0Y307D02*
X7Y307D01*
X2104Y307D02*
X2111Y307D01*
X0Y306D02*
X7Y306D01*
X2104Y306D02*
X2111Y306D01*
X0Y305D02*
X7Y305D01*
X2104Y305D02*
X2111Y305D01*
X0Y304D02*
X7Y304D01*
X2104Y304D02*
X2111Y304D01*
X0Y303D02*
X7Y303D01*
X2104Y303D02*
X2111Y303D01*
X0Y302D02*
X7Y302D01*
X2104Y302D02*
X2111Y302D01*
X0Y301D02*
X7Y301D01*
X2104Y301D02*
X2111Y301D01*
X0Y300D02*
X7Y300D01*
X2104Y300D02*
X2111Y300D01*
X0Y299D02*
X7Y299D01*
X2104Y299D02*
X2111Y299D01*
X0Y298D02*
X7Y298D01*
X2104Y298D02*
X2111Y298D01*
X0Y297D02*
X7Y297D01*
X2104Y297D02*
X2111Y297D01*
X0Y296D02*
X7Y296D01*
X2104Y296D02*
X2111Y296D01*
X0Y295D02*
X7Y295D01*
X2104Y295D02*
X2111Y295D01*
X0Y294D02*
X7Y294D01*
X2104Y294D02*
X2111Y294D01*
X0Y293D02*
X7Y293D01*
X2104Y293D02*
X2111Y293D01*
X0Y292D02*
X7Y292D01*
X2104Y292D02*
X2111Y292D01*
X0Y291D02*
X7Y291D01*
X2104Y291D02*
X2111Y291D01*
X0Y290D02*
X7Y290D01*
X2104Y290D02*
X2111Y290D01*
X0Y289D02*
X7Y289D01*
X2104Y289D02*
X2111Y289D01*
X0Y288D02*
X7Y288D01*
X2104Y288D02*
X2111Y288D01*
X0Y287D02*
X7Y287D01*
X2104Y287D02*
X2111Y287D01*
X0Y286D02*
X7Y286D01*
X2104Y286D02*
X2111Y286D01*
X0Y285D02*
X7Y285D01*
X2104Y285D02*
X2111Y285D01*
X0Y284D02*
X7Y284D01*
X2104Y284D02*
X2111Y284D01*
X0Y283D02*
X7Y283D01*
X2104Y283D02*
X2111Y283D01*
X0Y282D02*
X7Y282D01*
X2104Y282D02*
X2111Y282D01*
X0Y281D02*
X7Y281D01*
X2104Y281D02*
X2111Y281D01*
X0Y280D02*
X7Y280D01*
X2104Y280D02*
X2111Y280D01*
X0Y279D02*
X7Y279D01*
X2104Y279D02*
X2111Y279D01*
X0Y278D02*
X7Y278D01*
X2104Y278D02*
X2111Y278D01*
X0Y277D02*
X7Y277D01*
X2104Y277D02*
X2111Y277D01*
X0Y276D02*
X7Y276D01*
X2104Y276D02*
X2111Y276D01*
X0Y275D02*
X7Y275D01*
X2104Y275D02*
X2111Y275D01*
X0Y274D02*
X7Y274D01*
X2104Y274D02*
X2111Y274D01*
X0Y273D02*
X7Y273D01*
X2104Y273D02*
X2111Y273D01*
X0Y272D02*
X7Y272D01*
X2104Y272D02*
X2111Y272D01*
X0Y271D02*
X7Y271D01*
X2104Y271D02*
X2111Y271D01*
X0Y270D02*
X7Y270D01*
X2104Y270D02*
X2111Y270D01*
X0Y269D02*
X7Y269D01*
X2104Y269D02*
X2111Y269D01*
X0Y268D02*
X7Y268D01*
X2104Y268D02*
X2111Y268D01*
X0Y267D02*
X7Y267D01*
X2104Y267D02*
X2111Y267D01*
X0Y266D02*
X7Y266D01*
X2104Y266D02*
X2111Y266D01*
X0Y265D02*
X7Y265D01*
X2104Y265D02*
X2111Y265D01*
X0Y264D02*
X7Y264D01*
X2104Y264D02*
X2111Y264D01*
X0Y263D02*
X7Y263D01*
X2104Y263D02*
X2111Y263D01*
X0Y262D02*
X7Y262D01*
X2104Y262D02*
X2111Y262D01*
X0Y261D02*
X7Y261D01*
X2104Y261D02*
X2111Y261D01*
X0Y260D02*
X7Y260D01*
X2104Y260D02*
X2111Y260D01*
X0Y259D02*
X7Y259D01*
X2104Y259D02*
X2111Y259D01*
X0Y258D02*
X7Y258D01*
X2104Y258D02*
X2111Y258D01*
X0Y257D02*
X7Y257D01*
X2104Y257D02*
X2111Y257D01*
X0Y256D02*
X7Y256D01*
X2104Y256D02*
X2111Y256D01*
X0Y255D02*
X7Y255D01*
X2104Y255D02*
X2111Y255D01*
X0Y254D02*
X7Y254D01*
X2104Y254D02*
X2111Y254D01*
X0Y253D02*
X7Y253D01*
X2104Y253D02*
X2111Y253D01*
X0Y252D02*
X7Y252D01*
X2104Y252D02*
X2111Y252D01*
X0Y251D02*
X7Y251D01*
X2104Y251D02*
X2111Y251D01*
X0Y250D02*
X7Y250D01*
X2104Y250D02*
X2111Y250D01*
X0Y249D02*
X7Y249D01*
X2104Y249D02*
X2111Y249D01*
X0Y248D02*
X7Y248D01*
X2104Y248D02*
X2111Y248D01*
X0Y247D02*
X7Y247D01*
X2104Y247D02*
X2111Y247D01*
X0Y246D02*
X7Y246D01*
X2104Y246D02*
X2111Y246D01*
X0Y245D02*
X7Y245D01*
X2104Y245D02*
X2111Y245D01*
X0Y244D02*
X7Y244D01*
X2104Y244D02*
X2111Y244D01*
X0Y243D02*
X7Y243D01*
X2104Y243D02*
X2111Y243D01*
X0Y242D02*
X7Y242D01*
X2104Y242D02*
X2111Y242D01*
X0Y241D02*
X7Y241D01*
X2104Y241D02*
X2111Y241D01*
X0Y240D02*
X7Y240D01*
X2104Y240D02*
X2111Y240D01*
X0Y239D02*
X7Y239D01*
X2104Y239D02*
X2111Y239D01*
X0Y238D02*
X7Y238D01*
X2104Y238D02*
X2111Y238D01*
X0Y237D02*
X7Y237D01*
X2104Y237D02*
X2111Y237D01*
X0Y236D02*
X7Y236D01*
X2104Y236D02*
X2111Y236D01*
X0Y235D02*
X7Y235D01*
X2104Y235D02*
X2111Y235D01*
X0Y234D02*
X7Y234D01*
X2104Y234D02*
X2111Y234D01*
X0Y233D02*
X7Y233D01*
X2104Y233D02*
X2111Y233D01*
X0Y232D02*
X7Y232D01*
X2104Y232D02*
X2111Y232D01*
X0Y231D02*
X7Y231D01*
X2104Y231D02*
X2111Y231D01*
X0Y230D02*
X7Y230D01*
X2104Y230D02*
X2111Y230D01*
X0Y229D02*
X7Y229D01*
X2104Y229D02*
X2111Y229D01*
X0Y228D02*
X7Y228D01*
X2104Y228D02*
X2111Y228D01*
X0Y227D02*
X7Y227D01*
X2104Y227D02*
X2111Y227D01*
X0Y226D02*
X7Y226D01*
X2104Y226D02*
X2111Y226D01*
X0Y225D02*
X7Y225D01*
X2104Y225D02*
X2111Y225D01*
X0Y224D02*
X7Y224D01*
X2104Y224D02*
X2111Y224D01*
X0Y223D02*
X7Y223D01*
X2104Y223D02*
X2111Y223D01*
X0Y222D02*
X7Y222D01*
X2104Y222D02*
X2111Y222D01*
X0Y221D02*
X7Y221D01*
X2104Y221D02*
X2111Y221D01*
X0Y220D02*
X7Y220D01*
X2104Y220D02*
X2111Y220D01*
X0Y219D02*
X7Y219D01*
X2104Y219D02*
X2111Y219D01*
X0Y218D02*
X7Y218D01*
X2104Y218D02*
X2111Y218D01*
X0Y217D02*
X7Y217D01*
X2104Y217D02*
X2111Y217D01*
X0Y216D02*
X7Y216D01*
X2104Y216D02*
X2111Y216D01*
X0Y215D02*
X7Y215D01*
X2104Y215D02*
X2111Y215D01*
X0Y214D02*
X7Y214D01*
X2104Y214D02*
X2111Y214D01*
X0Y213D02*
X7Y213D01*
X2104Y213D02*
X2111Y213D01*
X0Y212D02*
X7Y212D01*
X2104Y212D02*
X2111Y212D01*
X0Y211D02*
X7Y211D01*
X2104Y211D02*
X2111Y211D01*
X0Y210D02*
X7Y210D01*
X2104Y210D02*
X2111Y210D01*
X0Y209D02*
X7Y209D01*
X2104Y209D02*
X2111Y209D01*
X0Y208D02*
X7Y208D01*
X2104Y208D02*
X2111Y208D01*
X0Y207D02*
X7Y207D01*
X2104Y207D02*
X2111Y207D01*
X0Y206D02*
X7Y206D01*
X2104Y206D02*
X2111Y206D01*
X0Y205D02*
X7Y205D01*
X2104Y205D02*
X2111Y205D01*
X0Y204D02*
X7Y204D01*
X2104Y204D02*
X2111Y204D01*
X0Y203D02*
X7Y203D01*
X2104Y203D02*
X2111Y203D01*
X0Y202D02*
X7Y202D01*
X2104Y202D02*
X2111Y202D01*
X0Y201D02*
X7Y201D01*
X2104Y201D02*
X2111Y201D01*
X0Y200D02*
X7Y200D01*
X2104Y200D02*
X2111Y200D01*
X0Y199D02*
X7Y199D01*
X2104Y199D02*
X2111Y199D01*
X0Y198D02*
X7Y198D01*
X2104Y198D02*
X2111Y198D01*
X0Y197D02*
X7Y197D01*
X2104Y197D02*
X2111Y197D01*
X0Y196D02*
X7Y196D01*
X2104Y196D02*
X2111Y196D01*
X0Y195D02*
X7Y195D01*
X2104Y195D02*
X2111Y195D01*
X0Y194D02*
X7Y194D01*
X2104Y194D02*
X2111Y194D01*
X0Y193D02*
X7Y193D01*
X2104Y193D02*
X2111Y193D01*
X0Y192D02*
X7Y192D01*
X2104Y192D02*
X2111Y192D01*
X0Y191D02*
X7Y191D01*
X2104Y191D02*
X2111Y191D01*
X0Y190D02*
X7Y190D01*
X2104Y190D02*
X2111Y190D01*
X0Y189D02*
X7Y189D01*
X2104Y189D02*
X2111Y189D01*
X0Y188D02*
X7Y188D01*
X2104Y188D02*
X2111Y188D01*
X0Y187D02*
X7Y187D01*
X2104Y187D02*
X2111Y187D01*
X0Y186D02*
X7Y186D01*
X2104Y186D02*
X2111Y186D01*
X0Y185D02*
X7Y185D01*
X2104Y185D02*
X2111Y185D01*
X0Y184D02*
X7Y184D01*
X2104Y184D02*
X2111Y184D01*
X0Y183D02*
X7Y183D01*
X2104Y183D02*
X2111Y183D01*
X0Y182D02*
X7Y182D01*
X2104Y182D02*
X2111Y182D01*
X0Y181D02*
X7Y181D01*
X2104Y181D02*
X2111Y181D01*
X0Y180D02*
X7Y180D01*
X2104Y180D02*
X2111Y180D01*
X0Y179D02*
X7Y179D01*
X2104Y179D02*
X2111Y179D01*
X0Y178D02*
X7Y178D01*
X2104Y178D02*
X2111Y178D01*
X0Y177D02*
X7Y177D01*
X2104Y177D02*
X2111Y177D01*
X0Y176D02*
X7Y176D01*
X2104Y176D02*
X2111Y176D01*
X0Y175D02*
X7Y175D01*
X2104Y175D02*
X2111Y175D01*
X0Y174D02*
X7Y174D01*
X2104Y174D02*
X2111Y174D01*
X0Y173D02*
X7Y173D01*
X2104Y173D02*
X2111Y173D01*
X0Y172D02*
X7Y172D01*
X2104Y172D02*
X2111Y172D01*
X0Y171D02*
X7Y171D01*
X2104Y171D02*
X2111Y171D01*
X0Y170D02*
X7Y170D01*
X2104Y170D02*
X2111Y170D01*
X0Y169D02*
X7Y169D01*
X2104Y169D02*
X2111Y169D01*
X0Y168D02*
X7Y168D01*
X2104Y168D02*
X2111Y168D01*
X0Y167D02*
X7Y167D01*
X2104Y167D02*
X2111Y167D01*
X0Y166D02*
X7Y166D01*
X2104Y166D02*
X2111Y166D01*
X0Y165D02*
X7Y165D01*
X2104Y165D02*
X2111Y165D01*
X0Y164D02*
X7Y164D01*
X2104Y164D02*
X2111Y164D01*
X0Y163D02*
X7Y163D01*
X2104Y163D02*
X2111Y163D01*
X0Y162D02*
X7Y162D01*
X2104Y162D02*
X2111Y162D01*
X0Y161D02*
X7Y161D01*
X2104Y161D02*
X2111Y161D01*
X0Y160D02*
X7Y160D01*
X2104Y160D02*
X2111Y160D01*
X0Y159D02*
X7Y159D01*
X2104Y159D02*
X2111Y159D01*
X0Y158D02*
X7Y158D01*
X2104Y158D02*
X2111Y158D01*
X0Y157D02*
X7Y157D01*
X2104Y157D02*
X2111Y157D01*
X0Y156D02*
X7Y156D01*
X2104Y156D02*
X2111Y156D01*
X0Y155D02*
X7Y155D01*
X2104Y155D02*
X2111Y155D01*
X0Y154D02*
X7Y154D01*
X2104Y154D02*
X2111Y154D01*
X0Y153D02*
X7Y153D01*
X2104Y153D02*
X2111Y153D01*
X0Y152D02*
X7Y152D01*
X2104Y152D02*
X2111Y152D01*
X0Y151D02*
X7Y151D01*
X2104Y151D02*
X2111Y151D01*
X0Y150D02*
X7Y150D01*
X2104Y150D02*
X2111Y150D01*
X0Y149D02*
X7Y149D01*
X2104Y149D02*
X2111Y149D01*
X0Y148D02*
X7Y148D01*
X2104Y148D02*
X2111Y148D01*
X0Y147D02*
X7Y147D01*
X2104Y147D02*
X2111Y147D01*
X0Y146D02*
X7Y146D01*
X2104Y146D02*
X2111Y146D01*
X0Y145D02*
X7Y145D01*
X2104Y145D02*
X2111Y145D01*
X0Y144D02*
X7Y144D01*
X2104Y144D02*
X2111Y144D01*
X0Y143D02*
X7Y143D01*
X2104Y143D02*
X2111Y143D01*
X0Y142D02*
X7Y142D01*
X2104Y142D02*
X2111Y142D01*
X0Y141D02*
X7Y141D01*
X2104Y141D02*
X2111Y141D01*
X0Y140D02*
X7Y140D01*
X2104Y140D02*
X2111Y140D01*
X0Y139D02*
X7Y139D01*
X2104Y139D02*
X2111Y139D01*
X0Y138D02*
X7Y138D01*
X2104Y138D02*
X2111Y138D01*
X0Y137D02*
X7Y137D01*
X2104Y137D02*
X2111Y137D01*
X0Y136D02*
X7Y136D01*
X2104Y136D02*
X2111Y136D01*
X0Y135D02*
X7Y135D01*
X2104Y135D02*
X2111Y135D01*
X0Y134D02*
X7Y134D01*
X2104Y134D02*
X2111Y134D01*
X0Y133D02*
X7Y133D01*
X2104Y133D02*
X2111Y133D01*
X0Y132D02*
X7Y132D01*
X2104Y132D02*
X2111Y132D01*
X0Y131D02*
X7Y131D01*
X2104Y131D02*
X2111Y131D01*
X0Y130D02*
X7Y130D01*
X2104Y130D02*
X2111Y130D01*
X0Y129D02*
X7Y129D01*
X2104Y129D02*
X2111Y129D01*
X0Y128D02*
X7Y128D01*
X2104Y128D02*
X2111Y128D01*
X0Y127D02*
X7Y127D01*
X2104Y127D02*
X2111Y127D01*
X0Y126D02*
X7Y126D01*
X2104Y126D02*
X2111Y126D01*
X0Y125D02*
X7Y125D01*
X2104Y125D02*
X2111Y125D01*
X0Y124D02*
X7Y124D01*
X2104Y124D02*
X2111Y124D01*
X0Y123D02*
X7Y123D01*
X2104Y123D02*
X2111Y123D01*
X0Y122D02*
X7Y122D01*
X2104Y122D02*
X2111Y122D01*
X0Y121D02*
X7Y121D01*
X2104Y121D02*
X2111Y121D01*
X0Y120D02*
X7Y120D01*
X2104Y120D02*
X2111Y120D01*
X0Y119D02*
X7Y119D01*
X2104Y119D02*
X2111Y119D01*
X0Y118D02*
X7Y118D01*
X2104Y118D02*
X2111Y118D01*
X0Y117D02*
X7Y117D01*
X2104Y117D02*
X2111Y117D01*
X0Y116D02*
X7Y116D01*
X2104Y116D02*
X2111Y116D01*
X0Y115D02*
X7Y115D01*
X2104Y115D02*
X2111Y115D01*
X0Y114D02*
X7Y114D01*
X2104Y114D02*
X2111Y114D01*
X0Y113D02*
X7Y113D01*
X2104Y113D02*
X2111Y113D01*
X0Y112D02*
X7Y112D01*
X2104Y112D02*
X2111Y112D01*
X0Y111D02*
X7Y111D01*
X2104Y111D02*
X2111Y111D01*
X0Y110D02*
X7Y110D01*
X2104Y110D02*
X2111Y110D01*
X0Y109D02*
X7Y109D01*
X2104Y109D02*
X2111Y109D01*
X0Y108D02*
X7Y108D01*
X2104Y108D02*
X2111Y108D01*
X0Y107D02*
X7Y107D01*
X2104Y107D02*
X2111Y107D01*
X0Y106D02*
X7Y106D01*
X2104Y106D02*
X2111Y106D01*
X0Y105D02*
X7Y105D01*
X2104Y105D02*
X2111Y105D01*
X0Y104D02*
X7Y104D01*
X2104Y104D02*
X2111Y104D01*
X0Y103D02*
X7Y103D01*
X2104Y103D02*
X2111Y103D01*
X0Y102D02*
X7Y102D01*
X2104Y102D02*
X2111Y102D01*
X0Y101D02*
X7Y101D01*
X2104Y101D02*
X2111Y101D01*
X0Y100D02*
X7Y100D01*
X2104Y100D02*
X2111Y100D01*
X0Y99D02*
X7Y99D01*
X2104Y99D02*
X2111Y99D01*
X0Y98D02*
X7Y98D01*
X2104Y98D02*
X2111Y98D01*
X0Y97D02*
X7Y97D01*
X2104Y97D02*
X2111Y97D01*
X0Y96D02*
X7Y96D01*
X2104Y96D02*
X2111Y96D01*
X0Y95D02*
X7Y95D01*
X2104Y95D02*
X2111Y95D01*
X0Y94D02*
X7Y94D01*
X2104Y94D02*
X2111Y94D01*
X0Y93D02*
X7Y93D01*
X2104Y93D02*
X2111Y93D01*
X0Y92D02*
X7Y92D01*
X2104Y92D02*
X2111Y92D01*
X0Y91D02*
X7Y91D01*
X2104Y91D02*
X2111Y91D01*
X0Y90D02*
X7Y90D01*
X2104Y90D02*
X2111Y90D01*
X0Y89D02*
X7Y89D01*
X2104Y89D02*
X2111Y89D01*
X0Y88D02*
X7Y88D01*
X2104Y88D02*
X2111Y88D01*
X0Y87D02*
X7Y87D01*
X2104Y87D02*
X2111Y87D01*
X0Y86D02*
X7Y86D01*
X2104Y86D02*
X2111Y86D01*
X0Y85D02*
X7Y85D01*
X2104Y85D02*
X2111Y85D01*
X0Y84D02*
X7Y84D01*
X2104Y84D02*
X2111Y84D01*
X0Y83D02*
X7Y83D01*
X2104Y83D02*
X2111Y83D01*
X0Y82D02*
X7Y82D01*
X2104Y82D02*
X2111Y82D01*
X0Y81D02*
X7Y81D01*
X2104Y81D02*
X2111Y81D01*
X0Y80D02*
X7Y80D01*
X2104Y80D02*
X2111Y80D01*
X0Y79D02*
X7Y79D01*
X2104Y79D02*
X2111Y79D01*
X0Y78D02*
X7Y78D01*
X2104Y78D02*
X2111Y78D01*
X0Y77D02*
X7Y77D01*
X2104Y77D02*
X2111Y77D01*
X0Y76D02*
X7Y76D01*
X2104Y76D02*
X2111Y76D01*
X0Y75D02*
X7Y75D01*
X2104Y75D02*
X2111Y75D01*
X0Y74D02*
X7Y74D01*
X2104Y74D02*
X2111Y74D01*
X0Y73D02*
X7Y73D01*
X2104Y73D02*
X2111Y73D01*
X0Y72D02*
X7Y72D01*
X2104Y72D02*
X2111Y72D01*
X0Y71D02*
X7Y71D01*
X2104Y71D02*
X2111Y71D01*
X0Y70D02*
X7Y70D01*
X2104Y70D02*
X2111Y70D01*
X0Y69D02*
X7Y69D01*
X2104Y69D02*
X2111Y69D01*
X0Y68D02*
X7Y68D01*
X2104Y68D02*
X2111Y68D01*
X0Y67D02*
X7Y67D01*
X2104Y67D02*
X2111Y67D01*
X0Y66D02*
X7Y66D01*
X2104Y66D02*
X2111Y66D01*
X0Y65D02*
X7Y65D01*
X2104Y65D02*
X2111Y65D01*
X0Y64D02*
X7Y64D01*
X2104Y64D02*
X2111Y64D01*
X0Y63D02*
X7Y63D01*
X2104Y63D02*
X2111Y63D01*
X0Y62D02*
X7Y62D01*
X2104Y62D02*
X2111Y62D01*
X0Y61D02*
X7Y61D01*
X2104Y61D02*
X2111Y61D01*
X0Y60D02*
X7Y60D01*
X2104Y60D02*
X2111Y60D01*
X0Y59D02*
X7Y59D01*
X2104Y59D02*
X2111Y59D01*
X0Y58D02*
X7Y58D01*
X2104Y58D02*
X2111Y58D01*
X0Y57D02*
X7Y57D01*
X2104Y57D02*
X2111Y57D01*
X0Y56D02*
X7Y56D01*
X2104Y56D02*
X2111Y56D01*
X0Y55D02*
X7Y55D01*
X2104Y55D02*
X2111Y55D01*
X0Y54D02*
X7Y54D01*
X2104Y54D02*
X2111Y54D01*
X0Y53D02*
X7Y53D01*
X2104Y53D02*
X2111Y53D01*
X0Y52D02*
X7Y52D01*
X2104Y52D02*
X2111Y52D01*
X0Y51D02*
X7Y51D01*
X2104Y51D02*
X2111Y51D01*
X0Y50D02*
X7Y50D01*
X2104Y50D02*
X2111Y50D01*
X0Y49D02*
X7Y49D01*
X2104Y49D02*
X2111Y49D01*
X0Y48D02*
X7Y48D01*
X2104Y48D02*
X2111Y48D01*
X0Y47D02*
X7Y47D01*
X2104Y47D02*
X2111Y47D01*
X0Y46D02*
X7Y46D01*
X2104Y46D02*
X2111Y46D01*
X0Y45D02*
X7Y45D01*
X2104Y45D02*
X2111Y45D01*
X0Y44D02*
X7Y44D01*
X2104Y44D02*
X2111Y44D01*
X0Y43D02*
X7Y43D01*
X2104Y43D02*
X2111Y43D01*
X0Y42D02*
X7Y42D01*
X2104Y42D02*
X2111Y42D01*
X0Y41D02*
X7Y41D01*
X2104Y41D02*
X2111Y41D01*
X0Y40D02*
X7Y40D01*
X2104Y40D02*
X2111Y40D01*
X0Y39D02*
X7Y39D01*
X2104Y39D02*
X2111Y39D01*
X0Y38D02*
X7Y38D01*
X2104Y38D02*
X2111Y38D01*
X0Y37D02*
X7Y37D01*
X2104Y37D02*
X2111Y37D01*
X0Y36D02*
X7Y36D01*
X2104Y36D02*
X2111Y36D01*
X0Y35D02*
X7Y35D01*
X2104Y35D02*
X2111Y35D01*
X0Y34D02*
X7Y34D01*
X2104Y34D02*
X2111Y34D01*
X0Y33D02*
X7Y33D01*
X2104Y33D02*
X2111Y33D01*
X0Y32D02*
X7Y32D01*
X2104Y32D02*
X2111Y32D01*
X0Y31D02*
X7Y31D01*
X2104Y31D02*
X2111Y31D01*
X0Y30D02*
X7Y30D01*
X2104Y30D02*
X2111Y30D01*
X0Y29D02*
X7Y29D01*
X2104Y29D02*
X2111Y29D01*
X0Y28D02*
X7Y28D01*
X2104Y28D02*
X2111Y28D01*
X0Y27D02*
X7Y27D01*
X2104Y27D02*
X2111Y27D01*
X0Y26D02*
X7Y26D01*
X2104Y26D02*
X2111Y26D01*
X0Y25D02*
X7Y25D01*
X2104Y25D02*
X2111Y25D01*
X0Y24D02*
X7Y24D01*
X2104Y24D02*
X2111Y24D01*
X0Y23D02*
X7Y23D01*
X2104Y23D02*
X2111Y23D01*
X0Y22D02*
X7Y22D01*
X2104Y22D02*
X2111Y22D01*
X0Y21D02*
X7Y21D01*
X2104Y21D02*
X2111Y21D01*
X0Y20D02*
X7Y20D01*
X2104Y20D02*
X2111Y20D01*
X0Y19D02*
X7Y19D01*
X2104Y19D02*
X2111Y19D01*
X0Y18D02*
X7Y18D01*
X2104Y18D02*
X2111Y18D01*
X0Y17D02*
X7Y17D01*
X2104Y17D02*
X2111Y17D01*
X0Y16D02*
X7Y16D01*
X2104Y16D02*
X2111Y16D01*
X0Y15D02*
X7Y15D01*
X2104Y15D02*
X2111Y15D01*
X0Y14D02*
X7Y14D01*
X2104Y14D02*
X2111Y14D01*
X0Y13D02*
X7Y13D01*
X2104Y13D02*
X2111Y13D01*
X0Y12D02*
X7Y12D01*
X2104Y12D02*
X2111Y12D01*
X0Y11D02*
X7Y11D01*
X2104Y11D02*
X2111Y11D01*
X0Y10D02*
X7Y10D01*
X2104Y10D02*
X2111Y10D01*
X0Y9D02*
X2111Y9D01*
X0Y8D02*
X2111Y8D01*
X0Y7D02*
X2111Y7D01*
X0Y6D02*
X2111Y6D01*
X0Y5D02*
X2111Y5D01*
X0Y4D02*
X2111Y4D01*
X0Y3D02*
X2111Y3D01*
X0Y2D02*
X2111Y2D01*
D02*
G04 End of Silk1*
M02*