G04 MADE WITH FRITZING*
G04 WWW.FRITZING.ORG*
G04 DOUBLE SIDED*
G04 HOLES PLATED*
G04 CONTOUR ON CENTER OF CONTOUR VECTOR*
%ASAXBY*%
%FSLAX23Y23*%
%MOIN*%
%OFA0B0*%
%SFA1.0B1.0*%
%ADD10C,0.074000*%
%ADD11C,0.094488*%
%ADD12C,0.024000*%
%ADD13R,0.001000X0.001000*%
%LNCOPPER1*%
G90*
G70*
G54D10*
X1400Y401D03*
X1410Y501D03*
X1400Y601D03*
X1410Y701D03*
X1400Y401D03*
X1410Y501D03*
X1400Y601D03*
X1410Y701D03*
X1890Y401D03*
X1900Y501D03*
X1890Y601D03*
X1900Y701D03*
X1890Y401D03*
X1900Y501D03*
X1890Y601D03*
X1900Y701D03*
G54D11*
X1800Y801D03*
X1700Y701D03*
X1800Y501D03*
X1600Y401D03*
G54D12*
X1599Y701D02*
X1673Y701D01*
D02*
X1600Y428D02*
X1599Y701D01*
D02*
X1800Y774D02*
X1800Y528D01*
G54D13*
X1363Y438D02*
X1436Y438D01*
X1853Y438D02*
X1926Y438D01*
X1363Y437D02*
X1436Y437D01*
X1853Y437D02*
X1926Y437D01*
X1363Y436D02*
X1436Y436D01*
X1853Y436D02*
X1926Y436D01*
X1363Y435D02*
X1436Y435D01*
X1853Y435D02*
X1926Y435D01*
X1363Y434D02*
X1436Y434D01*
X1853Y434D02*
X1926Y434D01*
X1363Y433D02*
X1436Y433D01*
X1853Y433D02*
X1926Y433D01*
X1363Y432D02*
X1436Y432D01*
X1853Y432D02*
X1926Y432D01*
X1363Y431D02*
X1436Y431D01*
X1853Y431D02*
X1926Y431D01*
X1363Y430D02*
X1436Y430D01*
X1853Y430D02*
X1926Y430D01*
X1363Y429D02*
X1436Y429D01*
X1853Y429D02*
X1926Y429D01*
X1363Y428D02*
X1436Y428D01*
X1853Y428D02*
X1926Y428D01*
X1363Y427D02*
X1436Y427D01*
X1853Y427D02*
X1926Y427D01*
X1363Y426D02*
X1436Y426D01*
X1853Y426D02*
X1926Y426D01*
X1363Y425D02*
X1436Y425D01*
X1853Y425D02*
X1926Y425D01*
X1363Y424D02*
X1436Y424D01*
X1853Y424D02*
X1926Y424D01*
X1363Y423D02*
X1436Y423D01*
X1853Y423D02*
X1926Y423D01*
X1363Y422D02*
X1436Y422D01*
X1853Y422D02*
X1926Y422D01*
X1363Y421D02*
X1394Y421D01*
X1404Y421D02*
X1436Y421D01*
X1853Y421D02*
X1884Y421D01*
X1894Y421D02*
X1926Y421D01*
X1363Y420D02*
X1391Y420D01*
X1408Y420D02*
X1436Y420D01*
X1853Y420D02*
X1881Y420D01*
X1897Y420D02*
X1926Y420D01*
X1363Y419D02*
X1389Y419D01*
X1409Y419D02*
X1436Y419D01*
X1853Y419D02*
X1879Y419D01*
X1899Y419D02*
X1926Y419D01*
X1363Y418D02*
X1387Y418D01*
X1411Y418D02*
X1436Y418D01*
X1853Y418D02*
X1877Y418D01*
X1901Y418D02*
X1926Y418D01*
X1363Y417D02*
X1386Y417D01*
X1412Y417D02*
X1436Y417D01*
X1853Y417D02*
X1876Y417D01*
X1902Y417D02*
X1926Y417D01*
X1363Y416D02*
X1385Y416D01*
X1414Y416D02*
X1436Y416D01*
X1853Y416D02*
X1875Y416D01*
X1904Y416D02*
X1926Y416D01*
X1363Y415D02*
X1384Y415D01*
X1414Y415D02*
X1436Y415D01*
X1853Y415D02*
X1874Y415D01*
X1904Y415D02*
X1926Y415D01*
X1363Y414D02*
X1383Y414D01*
X1415Y414D02*
X1436Y414D01*
X1853Y414D02*
X1873Y414D01*
X1905Y414D02*
X1926Y414D01*
X1363Y413D02*
X1382Y413D01*
X1416Y413D02*
X1436Y413D01*
X1853Y413D02*
X1872Y413D01*
X1906Y413D02*
X1926Y413D01*
X1363Y412D02*
X1382Y412D01*
X1417Y412D02*
X1436Y412D01*
X1853Y412D02*
X1872Y412D01*
X1907Y412D02*
X1926Y412D01*
X1363Y411D02*
X1381Y411D01*
X1417Y411D02*
X1436Y411D01*
X1853Y411D02*
X1871Y411D01*
X1907Y411D02*
X1926Y411D01*
X1363Y410D02*
X1381Y410D01*
X1418Y410D02*
X1436Y410D01*
X1853Y410D02*
X1871Y410D01*
X1908Y410D02*
X1926Y410D01*
X1363Y409D02*
X1380Y409D01*
X1418Y409D02*
X1436Y409D01*
X1853Y409D02*
X1870Y409D01*
X1908Y409D02*
X1926Y409D01*
X1363Y408D02*
X1380Y408D01*
X1419Y408D02*
X1436Y408D01*
X1853Y408D02*
X1870Y408D01*
X1909Y408D02*
X1926Y408D01*
X1363Y407D02*
X1380Y407D01*
X1419Y407D02*
X1436Y407D01*
X1853Y407D02*
X1870Y407D01*
X1909Y407D02*
X1926Y407D01*
X1363Y406D02*
X1379Y406D01*
X1419Y406D02*
X1436Y406D01*
X1853Y406D02*
X1869Y406D01*
X1909Y406D02*
X1926Y406D01*
X1363Y405D02*
X1379Y405D01*
X1419Y405D02*
X1436Y405D01*
X1853Y405D02*
X1869Y405D01*
X1909Y405D02*
X1926Y405D01*
X1363Y404D02*
X1379Y404D01*
X1419Y404D02*
X1436Y404D01*
X1853Y404D02*
X1869Y404D01*
X1909Y404D02*
X1926Y404D01*
X1363Y403D02*
X1379Y403D01*
X1420Y403D02*
X1436Y403D01*
X1853Y403D02*
X1869Y403D01*
X1910Y403D02*
X1926Y403D01*
X1363Y402D02*
X1379Y402D01*
X1420Y402D02*
X1436Y402D01*
X1853Y402D02*
X1869Y402D01*
X1910Y402D02*
X1926Y402D01*
X1363Y401D02*
X1379Y401D01*
X1420Y401D02*
X1436Y401D01*
X1853Y401D02*
X1869Y401D01*
X1910Y401D02*
X1926Y401D01*
X1363Y400D02*
X1379Y400D01*
X1420Y400D02*
X1436Y400D01*
X1853Y400D02*
X1869Y400D01*
X1910Y400D02*
X1926Y400D01*
X1363Y399D02*
X1379Y399D01*
X1419Y399D02*
X1436Y399D01*
X1853Y399D02*
X1869Y399D01*
X1909Y399D02*
X1926Y399D01*
X1363Y398D02*
X1379Y398D01*
X1419Y398D02*
X1436Y398D01*
X1853Y398D02*
X1869Y398D01*
X1909Y398D02*
X1926Y398D01*
X1363Y397D02*
X1379Y397D01*
X1419Y397D02*
X1436Y397D01*
X1853Y397D02*
X1869Y397D01*
X1909Y397D02*
X1926Y397D01*
X1363Y396D02*
X1380Y396D01*
X1419Y396D02*
X1436Y396D01*
X1853Y396D02*
X1870Y396D01*
X1909Y396D02*
X1926Y396D01*
X1363Y395D02*
X1380Y395D01*
X1419Y395D02*
X1436Y395D01*
X1853Y395D02*
X1870Y395D01*
X1908Y395D02*
X1926Y395D01*
X1363Y394D02*
X1380Y394D01*
X1418Y394D02*
X1436Y394D01*
X1853Y394D02*
X1870Y394D01*
X1908Y394D02*
X1926Y394D01*
X1363Y393D02*
X1381Y393D01*
X1418Y393D02*
X1436Y393D01*
X1853Y393D02*
X1871Y393D01*
X1908Y393D02*
X1926Y393D01*
X1363Y392D02*
X1381Y392D01*
X1417Y392D02*
X1436Y392D01*
X1853Y392D02*
X1871Y392D01*
X1907Y392D02*
X1926Y392D01*
X1363Y391D02*
X1382Y391D01*
X1417Y391D02*
X1436Y391D01*
X1853Y391D02*
X1872Y391D01*
X1907Y391D02*
X1926Y391D01*
X1363Y390D02*
X1383Y390D01*
X1416Y390D02*
X1436Y390D01*
X1853Y390D02*
X1872Y390D01*
X1906Y390D02*
X1926Y390D01*
X1363Y389D02*
X1383Y389D01*
X1415Y389D02*
X1436Y389D01*
X1853Y389D02*
X1873Y389D01*
X1905Y389D02*
X1926Y389D01*
X1363Y388D02*
X1384Y388D01*
X1414Y388D02*
X1436Y388D01*
X1853Y388D02*
X1874Y388D01*
X1904Y388D02*
X1926Y388D01*
X1363Y387D02*
X1385Y387D01*
X1413Y387D02*
X1436Y387D01*
X1853Y387D02*
X1875Y387D01*
X1903Y387D02*
X1926Y387D01*
X1363Y386D02*
X1386Y386D01*
X1412Y386D02*
X1436Y386D01*
X1853Y386D02*
X1876Y386D01*
X1902Y386D02*
X1926Y386D01*
X1363Y385D02*
X1388Y385D01*
X1411Y385D02*
X1436Y385D01*
X1853Y385D02*
X1878Y385D01*
X1901Y385D02*
X1926Y385D01*
X1363Y384D02*
X1389Y384D01*
X1409Y384D02*
X1436Y384D01*
X1853Y384D02*
X1879Y384D01*
X1899Y384D02*
X1926Y384D01*
X1363Y383D02*
X1392Y383D01*
X1407Y383D02*
X1436Y383D01*
X1853Y383D02*
X1882Y383D01*
X1897Y383D02*
X1926Y383D01*
X1363Y382D02*
X1395Y382D01*
X1404Y382D02*
X1436Y382D01*
X1853Y382D02*
X1885Y382D01*
X1893Y382D02*
X1926Y382D01*
X1363Y381D02*
X1436Y381D01*
X1853Y381D02*
X1926Y381D01*
X1363Y380D02*
X1436Y380D01*
X1853Y380D02*
X1926Y380D01*
X1363Y379D02*
X1436Y379D01*
X1853Y379D02*
X1926Y379D01*
X1363Y378D02*
X1436Y378D01*
X1853Y378D02*
X1926Y378D01*
X1363Y377D02*
X1436Y377D01*
X1853Y377D02*
X1926Y377D01*
X1363Y376D02*
X1436Y376D01*
X1853Y376D02*
X1926Y376D01*
X1363Y375D02*
X1436Y375D01*
X1853Y375D02*
X1926Y375D01*
X1363Y374D02*
X1436Y374D01*
X1853Y374D02*
X1926Y374D01*
X1363Y373D02*
X1436Y373D01*
X1853Y373D02*
X1926Y373D01*
X1363Y372D02*
X1436Y372D01*
X1853Y372D02*
X1926Y372D01*
X1363Y371D02*
X1436Y371D01*
X1853Y371D02*
X1926Y371D01*
X1363Y370D02*
X1436Y370D01*
X1853Y370D02*
X1926Y370D01*
X1363Y369D02*
X1436Y369D01*
X1853Y369D02*
X1926Y369D01*
X1363Y368D02*
X1436Y368D01*
X1853Y368D02*
X1926Y368D01*
X1363Y367D02*
X1436Y367D01*
X1853Y367D02*
X1926Y367D01*
X1363Y366D02*
X1436Y366D01*
X1853Y366D02*
X1926Y366D01*
X1363Y365D02*
X1436Y365D01*
X1853Y365D02*
X1926Y365D01*
D02*
G04 End of Copper1*
M02*