; NON-PLATED HOLES START AT T1
; THROUGH (PLATED) HOLES START AT T100
M48
INCH
T100C0.039370
T101C0.040000
T102C0.098425
T103C0.031496
%
T100
X012980Y004975
X012980Y002975
X004980Y006975
X004980Y007975
X004980Y002975
X012980Y006975
X004980Y005975
X012980Y003975
X012980Y007975
X004980Y003975
X004980Y004975
X012980Y005975
T101
X018880Y003975
X018980Y006975
X018880Y005975
X018980Y004975
T102
X004980Y009475
X012980Y009475
X004980Y001475
X012980Y001475
T103
X016980Y006975
X013980Y004975
T00
M30
