; NON-PLATED HOLES START AT T1
; THROUGH (PLATED) HOLES START AT T100
M48
INCH
T1C0.086614
T100C0.031496
T101C0.098425
T102C0.040000
T103C0.039370
%
T1
X001004Y001011
X020004Y010011
X020004Y001011
X001004Y010011
T100
X015004Y007011
X015004Y005011
X015004Y003011
X017004Y007011
T101
X005004Y001511
X013004Y001511
X013004Y009511
X005004Y009511
T102
X019004Y007011
X018904Y004011
X018904Y006011
X019004Y005011
T103
X013004Y005011
X005004Y008011
X005004Y007011
X005004Y004011
X013004Y003011
X013004Y008011
X013004Y006011
X005004Y005011
X013004Y004011
X005004Y006011
X005004Y003011
X013004Y007011
T00
M30
