G04 MADE WITH FRITZING*
G04 WWW.FRITZING.ORG*
G04 DOUBLE SIDED*
G04 HOLES PLATED*
G04 CONTOUR ON CENTER OF CONTOUR VECTOR*
%ASAXBY*%
%FSLAX23Y23*%
%MOIN*%
%OFA0B0*%
%SFA1.0B1.0*%
%ADD10C,0.047622X-0.000378*%
%ADD11R,2.100320X1.100870X2.084320X1.084870*%
%ADD12C,0.008000*%
%ADD13C,0.005000*%
%ADD14R,0.001000X0.001000*%
%LNSILK1*%
G90*
G70*
G54D10*
X1042Y203D03*
G54D12*
X4Y1097D02*
X2096Y1097D01*
X2096Y4D01*
X4Y4D01*
X4Y1097D01*
D02*
G54D13*
X1062Y282D02*
X1062Y345D01*
D02*
X739Y282D02*
X739Y345D01*
D02*
X920Y239D02*
X841Y239D01*
D02*
X841Y703D02*
X960Y703D01*
D02*
X739Y597D02*
X739Y660D01*
D02*
X1062Y597D02*
X1062Y660D01*
D02*
X1775Y351D02*
X1995Y351D01*
D02*
X1775Y751D02*
X1995Y751D01*
D02*
X1775Y751D02*
X1775Y351D01*
D02*
X1995Y751D02*
X1995Y701D01*
D02*
X1995Y701D02*
X1995Y401D01*
D02*
X1995Y401D02*
X1995Y351D01*
D02*
X1995Y401D02*
X1945Y401D01*
D02*
X1945Y401D02*
X1945Y701D01*
D02*
X1945Y701D02*
X1995Y701D01*
G54D14*
X329Y1094D02*
X345Y1094D01*
X326Y1093D02*
X347Y1093D01*
X325Y1092D02*
X349Y1092D01*
X324Y1091D02*
X350Y1091D01*
X323Y1090D02*
X351Y1090D01*
X322Y1089D02*
X352Y1089D01*
X321Y1088D02*
X352Y1088D01*
X321Y1087D02*
X329Y1087D01*
X345Y1087D02*
X353Y1087D01*
X321Y1086D02*
X328Y1086D01*
X346Y1086D02*
X353Y1086D01*
X321Y1085D02*
X327Y1085D01*
X347Y1085D02*
X353Y1085D01*
X321Y1084D02*
X327Y1084D01*
X347Y1084D02*
X353Y1084D01*
X321Y1083D02*
X327Y1083D01*
X347Y1083D02*
X353Y1083D01*
X321Y1082D02*
X327Y1082D01*
X347Y1082D02*
X353Y1082D01*
X321Y1081D02*
X327Y1081D01*
X347Y1081D02*
X353Y1081D01*
X321Y1080D02*
X327Y1080D01*
X347Y1080D02*
X353Y1080D01*
X321Y1079D02*
X327Y1079D01*
X347Y1079D02*
X353Y1079D01*
X321Y1078D02*
X327Y1078D01*
X347Y1078D02*
X353Y1078D01*
X321Y1077D02*
X327Y1077D01*
X347Y1077D02*
X353Y1077D01*
X321Y1076D02*
X327Y1076D01*
X347Y1076D02*
X353Y1076D01*
X321Y1075D02*
X327Y1075D01*
X347Y1075D02*
X353Y1075D01*
X321Y1074D02*
X327Y1074D01*
X347Y1074D02*
X353Y1074D01*
X321Y1073D02*
X327Y1073D01*
X347Y1073D02*
X353Y1073D01*
X321Y1072D02*
X327Y1072D01*
X347Y1072D02*
X353Y1072D01*
X321Y1071D02*
X327Y1071D01*
X347Y1071D02*
X353Y1071D01*
X321Y1070D02*
X327Y1070D01*
X347Y1070D02*
X353Y1070D01*
X321Y1069D02*
X327Y1069D01*
X347Y1069D02*
X353Y1069D01*
X321Y1068D02*
X327Y1068D01*
X347Y1068D02*
X353Y1068D01*
X321Y1067D02*
X327Y1067D01*
X347Y1067D02*
X353Y1067D01*
X321Y1066D02*
X372Y1066D01*
X321Y1065D02*
X373Y1065D01*
X321Y1064D02*
X374Y1064D01*
X321Y1063D02*
X374Y1063D01*
X321Y1062D02*
X373Y1062D01*
X321Y1061D02*
X373Y1061D01*
X321Y1060D02*
X372Y1060D01*
X487Y1051D02*
X1312Y1051D01*
X481Y1050D02*
X1318Y1050D01*
X477Y1049D02*
X1323Y1049D01*
X473Y1048D02*
X1327Y1048D01*
X470Y1047D02*
X1330Y1047D01*
X467Y1046D02*
X1333Y1046D01*
X464Y1045D02*
X1336Y1045D01*
X462Y1044D02*
X1338Y1044D01*
X459Y1043D02*
X486Y1043D01*
X1313Y1043D02*
X1340Y1043D01*
X457Y1042D02*
X480Y1042D01*
X1319Y1042D02*
X1343Y1042D01*
X455Y1041D02*
X476Y1041D01*
X1323Y1041D02*
X1345Y1041D01*
X453Y1040D02*
X473Y1040D01*
X1327Y1040D02*
X1346Y1040D01*
X451Y1039D02*
X469Y1039D01*
X1330Y1039D02*
X1348Y1039D01*
X450Y1038D02*
X467Y1038D01*
X1333Y1038D02*
X1350Y1038D01*
X448Y1037D02*
X464Y1037D01*
X1335Y1037D02*
X1352Y1037D01*
X446Y1036D02*
X462Y1036D01*
X1338Y1036D02*
X1353Y1036D01*
X445Y1035D02*
X460Y1035D01*
X1340Y1035D02*
X1355Y1035D01*
X443Y1034D02*
X458Y1034D01*
X1342Y1034D02*
X1356Y1034D01*
X442Y1033D02*
X456Y1033D01*
X1344Y1033D02*
X1358Y1033D01*
X441Y1032D02*
X454Y1032D01*
X1346Y1032D02*
X1359Y1032D01*
X439Y1031D02*
X452Y1031D01*
X1347Y1031D02*
X1360Y1031D01*
X438Y1030D02*
X451Y1030D01*
X1349Y1030D02*
X1362Y1030D01*
X437Y1029D02*
X449Y1029D01*
X1351Y1029D02*
X1363Y1029D01*
X435Y1028D02*
X448Y1028D01*
X1352Y1028D02*
X1364Y1028D01*
X434Y1027D02*
X446Y1027D01*
X1353Y1027D02*
X1365Y1027D01*
X433Y1026D02*
X445Y1026D01*
X1355Y1026D02*
X1366Y1026D01*
X432Y1025D02*
X444Y1025D01*
X1356Y1025D02*
X1368Y1025D01*
X431Y1024D02*
X442Y1024D01*
X1357Y1024D02*
X1369Y1024D01*
X430Y1023D02*
X441Y1023D01*
X1359Y1023D02*
X1370Y1023D01*
X429Y1022D02*
X440Y1022D01*
X1360Y1022D02*
X1371Y1022D01*
X428Y1021D02*
X439Y1021D01*
X1361Y1021D02*
X1372Y1021D01*
X427Y1020D02*
X438Y1020D01*
X1362Y1020D02*
X1373Y1020D01*
X426Y1019D02*
X437Y1019D01*
X1363Y1019D02*
X1373Y1019D01*
X425Y1018D02*
X435Y1018D01*
X1364Y1018D02*
X1374Y1018D01*
X424Y1017D02*
X434Y1017D01*
X1365Y1017D02*
X1375Y1017D01*
X424Y1016D02*
X433Y1016D01*
X1366Y1016D02*
X1376Y1016D01*
X423Y1015D02*
X432Y1015D01*
X1367Y1015D02*
X1377Y1015D01*
X422Y1014D02*
X432Y1014D01*
X1368Y1014D02*
X1378Y1014D01*
X421Y1013D02*
X431Y1013D01*
X1369Y1013D02*
X1378Y1013D01*
X420Y1012D02*
X430Y1012D01*
X1370Y1012D02*
X1379Y1012D01*
X420Y1011D02*
X429Y1011D01*
X1371Y1011D02*
X1380Y1011D01*
X419Y1010D02*
X428Y1010D01*
X1372Y1010D02*
X1381Y1010D01*
X418Y1009D02*
X427Y1009D01*
X1372Y1009D02*
X1381Y1009D01*
X418Y1008D02*
X426Y1008D01*
X1373Y1008D02*
X1382Y1008D01*
X417Y1007D02*
X426Y1007D01*
X1374Y1007D02*
X1383Y1007D01*
X416Y1006D02*
X425Y1006D01*
X1375Y1006D02*
X1383Y1006D01*
X416Y1005D02*
X424Y1005D01*
X1375Y1005D02*
X1384Y1005D01*
X415Y1004D02*
X424Y1004D01*
X1376Y1004D02*
X1385Y1004D01*
X414Y1003D02*
X423Y1003D01*
X1377Y1003D02*
X1385Y1003D01*
X414Y1002D02*
X422Y1002D01*
X1378Y1002D02*
X1386Y1002D01*
X413Y1001D02*
X422Y1001D01*
X1378Y1001D02*
X1386Y1001D01*
X413Y1000D02*
X421Y1000D01*
X1379Y1000D02*
X1387Y1000D01*
X412Y999D02*
X420Y999D01*
X1379Y999D02*
X1387Y999D01*
X412Y998D02*
X420Y998D01*
X1380Y998D02*
X1388Y998D01*
X411Y997D02*
X419Y997D01*
X1380Y997D02*
X1388Y997D01*
X411Y996D02*
X419Y996D01*
X1381Y996D02*
X1389Y996D01*
X410Y995D02*
X418Y995D01*
X1382Y995D02*
X1389Y995D01*
X410Y994D02*
X417Y994D01*
X1382Y994D02*
X1390Y994D01*
X409Y993D02*
X417Y993D01*
X1383Y993D02*
X1390Y993D01*
X409Y992D02*
X417Y992D01*
X1383Y992D02*
X1391Y992D01*
X408Y991D02*
X416Y991D01*
X1384Y991D02*
X1391Y991D01*
X408Y990D02*
X416Y990D01*
X1384Y990D02*
X1392Y990D01*
X408Y989D02*
X415Y989D01*
X1384Y989D02*
X1392Y989D01*
X407Y988D02*
X415Y988D01*
X1385Y988D02*
X1392Y988D01*
X407Y987D02*
X414Y987D01*
X1385Y987D02*
X1393Y987D01*
X406Y986D02*
X414Y986D01*
X1386Y986D02*
X1393Y986D01*
X406Y985D02*
X413Y985D01*
X1386Y985D02*
X1394Y985D01*
X406Y984D02*
X413Y984D01*
X1387Y984D02*
X1394Y984D01*
X405Y983D02*
X413Y983D01*
X1387Y983D02*
X1394Y983D01*
X405Y982D02*
X412Y982D01*
X1387Y982D02*
X1395Y982D01*
X405Y981D02*
X412Y981D01*
X1388Y981D02*
X1395Y981D01*
X404Y980D02*
X412Y980D01*
X1388Y980D02*
X1395Y980D01*
X404Y979D02*
X411Y979D01*
X1388Y979D02*
X1396Y979D01*
X404Y978D02*
X411Y978D01*
X1389Y978D02*
X1396Y978D01*
X404Y977D02*
X411Y977D01*
X1389Y977D02*
X1396Y977D01*
X403Y976D02*
X410Y976D01*
X1389Y976D02*
X1396Y976D01*
X403Y975D02*
X410Y975D01*
X1389Y975D02*
X1397Y975D01*
X403Y974D02*
X410Y974D01*
X1390Y974D02*
X1397Y974D01*
X403Y973D02*
X410Y973D01*
X1390Y973D02*
X1397Y973D01*
X402Y972D02*
X410Y972D01*
X1390Y972D02*
X1397Y972D01*
X402Y971D02*
X409Y971D01*
X1390Y971D02*
X1397Y971D01*
X402Y970D02*
X409Y970D01*
X1391Y970D02*
X1398Y970D01*
X402Y969D02*
X409Y969D01*
X1391Y969D02*
X1398Y969D01*
X402Y968D02*
X409Y968D01*
X1391Y968D02*
X1398Y968D01*
X402Y967D02*
X409Y967D01*
X1391Y967D02*
X1398Y967D01*
X401Y966D02*
X408Y966D01*
X1391Y966D02*
X1398Y966D01*
X401Y965D02*
X408Y965D01*
X1391Y965D02*
X1398Y965D01*
X401Y964D02*
X408Y964D01*
X1392Y964D02*
X1399Y964D01*
X401Y963D02*
X408Y963D01*
X1392Y963D02*
X1399Y963D01*
X401Y962D02*
X408Y962D01*
X1392Y962D02*
X1399Y962D01*
X401Y961D02*
X408Y961D01*
X1392Y961D02*
X1399Y961D01*
X401Y960D02*
X408Y960D01*
X1392Y960D02*
X1399Y960D01*
X401Y959D02*
X408Y959D01*
X1392Y959D02*
X1399Y959D01*
X401Y958D02*
X408Y958D01*
X1392Y958D02*
X1399Y958D01*
X401Y957D02*
X408Y957D01*
X1392Y957D02*
X1399Y957D01*
X400Y956D02*
X407Y956D01*
X1392Y956D02*
X1399Y956D01*
X400Y955D02*
X407Y955D01*
X1392Y955D02*
X1399Y955D01*
X400Y954D02*
X407Y954D01*
X1392Y954D02*
X1399Y954D01*
X400Y953D02*
X407Y953D01*
X1392Y953D02*
X1399Y953D01*
X400Y952D02*
X407Y952D01*
X1392Y952D02*
X1399Y952D01*
X400Y951D02*
X407Y951D01*
X1392Y951D02*
X1399Y951D01*
X400Y950D02*
X407Y950D01*
X1392Y950D02*
X1399Y950D01*
X400Y949D02*
X407Y949D01*
X1392Y949D02*
X1399Y949D01*
X400Y948D02*
X407Y948D01*
X1392Y948D02*
X1399Y948D01*
X400Y947D02*
X407Y947D01*
X1392Y947D02*
X1399Y947D01*
X400Y946D02*
X407Y946D01*
X1392Y946D02*
X1399Y946D01*
X400Y945D02*
X407Y945D01*
X1392Y945D02*
X1399Y945D01*
X400Y944D02*
X407Y944D01*
X1392Y944D02*
X1399Y944D01*
X400Y943D02*
X407Y943D01*
X1392Y943D02*
X1399Y943D01*
X400Y942D02*
X407Y942D01*
X1392Y942D02*
X1399Y942D01*
X400Y941D02*
X407Y941D01*
X1392Y941D02*
X1399Y941D01*
X400Y940D02*
X407Y940D01*
X1392Y940D02*
X1399Y940D01*
X400Y939D02*
X407Y939D01*
X1392Y939D02*
X1399Y939D01*
X400Y938D02*
X407Y938D01*
X1392Y938D02*
X1399Y938D01*
X400Y937D02*
X407Y937D01*
X1392Y937D02*
X1399Y937D01*
X400Y936D02*
X407Y936D01*
X1392Y936D02*
X1399Y936D01*
X400Y935D02*
X407Y935D01*
X1392Y935D02*
X1399Y935D01*
X400Y934D02*
X407Y934D01*
X1392Y934D02*
X1399Y934D01*
X400Y933D02*
X407Y933D01*
X1392Y933D02*
X1399Y933D01*
X400Y932D02*
X407Y932D01*
X1392Y932D02*
X1399Y932D01*
X400Y931D02*
X407Y931D01*
X1392Y931D02*
X1399Y931D01*
X400Y930D02*
X407Y930D01*
X1392Y930D02*
X1399Y930D01*
X400Y929D02*
X407Y929D01*
X1392Y929D02*
X1399Y929D01*
X400Y928D02*
X407Y928D01*
X1392Y928D02*
X1399Y928D01*
X400Y927D02*
X407Y927D01*
X1392Y927D02*
X1399Y927D01*
X400Y926D02*
X407Y926D01*
X1392Y926D02*
X1399Y926D01*
X400Y925D02*
X407Y925D01*
X1392Y925D02*
X1399Y925D01*
X400Y924D02*
X407Y924D01*
X1392Y924D02*
X1399Y924D01*
X400Y923D02*
X407Y923D01*
X1392Y923D02*
X1399Y923D01*
X400Y922D02*
X407Y922D01*
X1392Y922D02*
X1399Y922D01*
X400Y921D02*
X407Y921D01*
X1392Y921D02*
X1399Y921D01*
X400Y920D02*
X407Y920D01*
X1392Y920D02*
X1399Y920D01*
X400Y919D02*
X407Y919D01*
X1392Y919D02*
X1399Y919D01*
X400Y918D02*
X407Y918D01*
X1392Y918D02*
X1399Y918D01*
X400Y917D02*
X407Y917D01*
X1392Y917D02*
X1399Y917D01*
X400Y916D02*
X407Y916D01*
X1392Y916D02*
X1399Y916D01*
X400Y915D02*
X407Y915D01*
X1392Y915D02*
X1399Y915D01*
X400Y914D02*
X407Y914D01*
X1392Y914D02*
X1399Y914D01*
X400Y913D02*
X407Y913D01*
X1392Y913D02*
X1399Y913D01*
X400Y912D02*
X407Y912D01*
X1392Y912D02*
X1399Y912D01*
X400Y911D02*
X407Y911D01*
X1392Y911D02*
X1399Y911D01*
X400Y910D02*
X407Y910D01*
X1392Y910D02*
X1399Y910D01*
X400Y909D02*
X407Y909D01*
X1392Y909D02*
X1399Y909D01*
X400Y908D02*
X407Y908D01*
X1392Y908D02*
X1399Y908D01*
X400Y907D02*
X407Y907D01*
X1392Y907D02*
X1399Y907D01*
X400Y906D02*
X407Y906D01*
X1392Y906D02*
X1399Y906D01*
X400Y905D02*
X407Y905D01*
X1392Y905D02*
X1399Y905D01*
X400Y904D02*
X407Y904D01*
X1392Y904D02*
X1399Y904D01*
X400Y903D02*
X407Y903D01*
X1392Y903D02*
X1399Y903D01*
X400Y902D02*
X407Y902D01*
X1392Y902D02*
X1399Y902D01*
X400Y901D02*
X407Y901D01*
X1392Y901D02*
X1399Y901D01*
X400Y900D02*
X407Y900D01*
X1392Y900D02*
X1399Y900D01*
X400Y899D02*
X407Y899D01*
X1392Y899D02*
X1399Y899D01*
X400Y898D02*
X407Y898D01*
X1392Y898D02*
X1399Y898D01*
X400Y897D02*
X407Y897D01*
X1392Y897D02*
X1399Y897D01*
X400Y896D02*
X407Y896D01*
X1392Y896D02*
X1399Y896D01*
X1697Y896D02*
X1719Y896D01*
X1741Y896D02*
X1745Y896D01*
X400Y895D02*
X407Y895D01*
X1392Y895D02*
X1399Y895D01*
X1695Y895D02*
X1720Y895D01*
X1740Y895D02*
X1746Y895D01*
X400Y894D02*
X407Y894D01*
X1392Y894D02*
X1399Y894D01*
X1694Y894D02*
X1721Y894D01*
X1740Y894D02*
X1746Y894D01*
X400Y893D02*
X407Y893D01*
X1392Y893D02*
X1399Y893D01*
X1694Y893D02*
X1722Y893D01*
X1740Y893D02*
X1746Y893D01*
X400Y892D02*
X407Y892D01*
X1392Y892D02*
X1399Y892D01*
X1693Y892D02*
X1722Y892D01*
X1740Y892D02*
X1746Y892D01*
X400Y891D02*
X407Y891D01*
X1392Y891D02*
X1399Y891D01*
X1693Y891D02*
X1722Y891D01*
X1740Y891D02*
X1746Y891D01*
X400Y890D02*
X407Y890D01*
X1392Y890D02*
X1399Y890D01*
X1693Y890D02*
X1722Y890D01*
X1740Y890D02*
X1746Y890D01*
X400Y889D02*
X407Y889D01*
X1392Y889D02*
X1399Y889D01*
X1693Y889D02*
X1699Y889D01*
X1716Y889D02*
X1722Y889D01*
X1740Y889D02*
X1746Y889D01*
X400Y888D02*
X407Y888D01*
X1392Y888D02*
X1399Y888D01*
X1693Y888D02*
X1699Y888D01*
X1716Y888D02*
X1722Y888D01*
X1740Y888D02*
X1746Y888D01*
X400Y887D02*
X407Y887D01*
X1392Y887D02*
X1399Y887D01*
X1693Y887D02*
X1699Y887D01*
X1716Y887D02*
X1722Y887D01*
X1740Y887D02*
X1746Y887D01*
X400Y886D02*
X407Y886D01*
X1392Y886D02*
X1399Y886D01*
X1693Y886D02*
X1699Y886D01*
X1716Y886D02*
X1722Y886D01*
X1740Y886D02*
X1746Y886D01*
X400Y885D02*
X407Y885D01*
X1392Y885D02*
X1399Y885D01*
X1693Y885D02*
X1699Y885D01*
X1716Y885D02*
X1722Y885D01*
X1740Y885D02*
X1746Y885D01*
X400Y884D02*
X407Y884D01*
X1392Y884D02*
X1399Y884D01*
X1693Y884D02*
X1699Y884D01*
X1716Y884D02*
X1722Y884D01*
X1740Y884D02*
X1746Y884D01*
X400Y883D02*
X407Y883D01*
X1392Y883D02*
X1399Y883D01*
X1693Y883D02*
X1699Y883D01*
X1716Y883D02*
X1722Y883D01*
X1740Y883D02*
X1746Y883D01*
X400Y882D02*
X407Y882D01*
X1392Y882D02*
X1399Y882D01*
X1693Y882D02*
X1699Y882D01*
X1716Y882D02*
X1722Y882D01*
X1740Y882D02*
X1746Y882D01*
X400Y881D02*
X407Y881D01*
X1392Y881D02*
X1399Y881D01*
X1693Y881D02*
X1699Y881D01*
X1716Y881D02*
X1722Y881D01*
X1740Y881D02*
X1746Y881D01*
X400Y880D02*
X407Y880D01*
X1392Y880D02*
X1399Y880D01*
X1693Y880D02*
X1699Y880D01*
X1716Y880D02*
X1722Y880D01*
X1740Y880D02*
X1746Y880D01*
X400Y879D02*
X407Y879D01*
X1392Y879D02*
X1399Y879D01*
X1693Y879D02*
X1699Y879D01*
X1716Y879D02*
X1722Y879D01*
X1740Y879D02*
X1746Y879D01*
X400Y878D02*
X407Y878D01*
X1392Y878D02*
X1399Y878D01*
X1693Y878D02*
X1699Y878D01*
X1716Y878D02*
X1722Y878D01*
X1740Y878D02*
X1746Y878D01*
X400Y877D02*
X407Y877D01*
X1392Y877D02*
X1399Y877D01*
X1693Y877D02*
X1699Y877D01*
X1716Y877D02*
X1722Y877D01*
X1740Y877D02*
X1746Y877D01*
X400Y876D02*
X407Y876D01*
X1392Y876D02*
X1399Y876D01*
X1693Y876D02*
X1699Y876D01*
X1716Y876D02*
X1722Y876D01*
X1740Y876D02*
X1746Y876D01*
X400Y875D02*
X407Y875D01*
X1392Y875D02*
X1399Y875D01*
X1693Y875D02*
X1699Y875D01*
X1716Y875D02*
X1722Y875D01*
X1740Y875D02*
X1746Y875D01*
X400Y874D02*
X407Y874D01*
X1392Y874D02*
X1399Y874D01*
X1693Y874D02*
X1699Y874D01*
X1716Y874D02*
X1722Y874D01*
X1740Y874D02*
X1746Y874D01*
X400Y873D02*
X407Y873D01*
X1392Y873D02*
X1399Y873D01*
X1693Y873D02*
X1699Y873D01*
X1716Y873D02*
X1722Y873D01*
X1740Y873D02*
X1746Y873D01*
X400Y872D02*
X407Y872D01*
X1392Y872D02*
X1399Y872D01*
X1693Y872D02*
X1699Y872D01*
X1716Y872D02*
X1722Y872D01*
X1740Y872D02*
X1746Y872D01*
X400Y871D02*
X407Y871D01*
X1392Y871D02*
X1399Y871D01*
X1693Y871D02*
X1699Y871D01*
X1716Y871D02*
X1722Y871D01*
X1740Y871D02*
X1746Y871D01*
X400Y870D02*
X407Y870D01*
X1392Y870D02*
X1399Y870D01*
X1693Y870D02*
X1699Y870D01*
X1716Y870D02*
X1722Y870D01*
X1740Y870D02*
X1746Y870D01*
X400Y869D02*
X407Y869D01*
X1392Y869D02*
X1399Y869D01*
X1693Y869D02*
X1699Y869D01*
X1716Y869D02*
X1746Y869D01*
X400Y868D02*
X407Y868D01*
X1392Y868D02*
X1399Y868D01*
X1693Y868D02*
X1699Y868D01*
X1717Y868D02*
X1746Y868D01*
X400Y867D02*
X407Y867D01*
X1392Y867D02*
X1399Y867D01*
X1693Y867D02*
X1699Y867D01*
X1717Y867D02*
X1746Y867D01*
X400Y866D02*
X407Y866D01*
X1392Y866D02*
X1399Y866D01*
X1693Y866D02*
X1699Y866D01*
X1717Y866D02*
X1746Y866D01*
X400Y865D02*
X407Y865D01*
X1392Y865D02*
X1399Y865D01*
X1693Y865D02*
X1699Y865D01*
X1718Y865D02*
X1746Y865D01*
X400Y864D02*
X407Y864D01*
X1392Y864D02*
X1399Y864D01*
X1693Y864D02*
X1698Y864D01*
X1719Y864D02*
X1746Y864D01*
X400Y863D02*
X407Y863D01*
X1392Y863D02*
X1399Y863D01*
X1694Y863D02*
X1697Y863D01*
X1721Y863D02*
X1746Y863D01*
X400Y862D02*
X407Y862D01*
X1392Y862D02*
X1399Y862D01*
X400Y861D02*
X407Y861D01*
X1392Y861D02*
X1399Y861D01*
X400Y860D02*
X407Y860D01*
X1392Y860D02*
X1399Y860D01*
X400Y859D02*
X407Y859D01*
X1392Y859D02*
X1399Y859D01*
X400Y858D02*
X407Y858D01*
X1392Y858D02*
X1399Y858D01*
X400Y857D02*
X407Y857D01*
X1392Y857D02*
X1399Y857D01*
X400Y856D02*
X407Y856D01*
X1392Y856D02*
X1399Y856D01*
X400Y855D02*
X407Y855D01*
X1392Y855D02*
X1399Y855D01*
X400Y854D02*
X407Y854D01*
X1392Y854D02*
X1399Y854D01*
X400Y853D02*
X407Y853D01*
X1392Y853D02*
X1399Y853D01*
X400Y852D02*
X407Y852D01*
X1392Y852D02*
X1399Y852D01*
X400Y851D02*
X407Y851D01*
X1392Y851D02*
X1399Y851D01*
X400Y850D02*
X407Y850D01*
X1392Y850D02*
X1399Y850D01*
X400Y849D02*
X407Y849D01*
X1392Y849D02*
X1399Y849D01*
X400Y848D02*
X407Y848D01*
X1392Y848D02*
X1399Y848D01*
X400Y847D02*
X407Y847D01*
X1392Y847D02*
X1399Y847D01*
X400Y846D02*
X407Y846D01*
X1392Y846D02*
X1399Y846D01*
X1699Y846D02*
X1719Y846D01*
X400Y845D02*
X407Y845D01*
X1392Y845D02*
X1399Y845D01*
X1697Y845D02*
X1721Y845D01*
X400Y844D02*
X407Y844D01*
X1392Y844D02*
X1399Y844D01*
X1696Y844D02*
X1722Y844D01*
X400Y843D02*
X407Y843D01*
X1392Y843D02*
X1399Y843D01*
X1695Y843D02*
X1723Y843D01*
X400Y842D02*
X407Y842D01*
X1392Y842D02*
X1399Y842D01*
X1695Y842D02*
X1724Y842D01*
X400Y841D02*
X407Y841D01*
X1392Y841D02*
X1399Y841D01*
X1694Y841D02*
X1724Y841D01*
X400Y840D02*
X407Y840D01*
X1392Y840D02*
X1399Y840D01*
X1693Y840D02*
X1725Y840D01*
X400Y839D02*
X407Y839D01*
X1392Y839D02*
X1399Y839D01*
X1693Y839D02*
X1700Y839D01*
X1718Y839D02*
X1725Y839D01*
X400Y838D02*
X407Y838D01*
X1392Y838D02*
X1399Y838D01*
X1693Y838D02*
X1699Y838D01*
X1719Y838D02*
X1725Y838D01*
X400Y837D02*
X407Y837D01*
X1392Y837D02*
X1399Y837D01*
X1693Y837D02*
X1699Y837D01*
X1719Y837D02*
X1725Y837D01*
X400Y836D02*
X407Y836D01*
X1392Y836D02*
X1399Y836D01*
X1693Y836D02*
X1699Y836D01*
X1719Y836D02*
X1725Y836D01*
X400Y835D02*
X407Y835D01*
X1392Y835D02*
X1399Y835D01*
X1693Y835D02*
X1699Y835D01*
X1719Y835D02*
X1725Y835D01*
X400Y834D02*
X407Y834D01*
X1392Y834D02*
X1399Y834D01*
X1693Y834D02*
X1699Y834D01*
X1719Y834D02*
X1725Y834D01*
X400Y833D02*
X407Y833D01*
X1392Y833D02*
X1399Y833D01*
X1693Y833D02*
X1699Y833D01*
X1719Y833D02*
X1725Y833D01*
X400Y832D02*
X407Y832D01*
X1392Y832D02*
X1399Y832D01*
X1693Y832D02*
X1699Y832D01*
X1719Y832D02*
X1725Y832D01*
X400Y831D02*
X407Y831D01*
X1392Y831D02*
X1399Y831D01*
X1693Y831D02*
X1699Y831D01*
X1719Y831D02*
X1725Y831D01*
X400Y830D02*
X407Y830D01*
X1392Y830D02*
X1399Y830D01*
X1693Y830D02*
X1699Y830D01*
X1719Y830D02*
X1725Y830D01*
X400Y829D02*
X407Y829D01*
X1392Y829D02*
X1399Y829D01*
X1693Y829D02*
X1699Y829D01*
X1719Y829D02*
X1725Y829D01*
X400Y828D02*
X407Y828D01*
X1392Y828D02*
X1399Y828D01*
X1693Y828D02*
X1699Y828D01*
X1719Y828D02*
X1725Y828D01*
X400Y827D02*
X407Y827D01*
X1392Y827D02*
X1399Y827D01*
X1693Y827D02*
X1699Y827D01*
X1719Y827D02*
X1725Y827D01*
X400Y826D02*
X407Y826D01*
X1392Y826D02*
X1399Y826D01*
X1693Y826D02*
X1699Y826D01*
X1719Y826D02*
X1725Y826D01*
X400Y825D02*
X407Y825D01*
X1392Y825D02*
X1399Y825D01*
X1693Y825D02*
X1699Y825D01*
X1719Y825D02*
X1725Y825D01*
X400Y824D02*
X407Y824D01*
X1392Y824D02*
X1399Y824D01*
X1693Y824D02*
X1699Y824D01*
X1719Y824D02*
X1725Y824D01*
X400Y823D02*
X407Y823D01*
X1392Y823D02*
X1399Y823D01*
X1693Y823D02*
X1699Y823D01*
X1719Y823D02*
X1725Y823D01*
X400Y822D02*
X407Y822D01*
X1392Y822D02*
X1399Y822D01*
X1693Y822D02*
X1699Y822D01*
X1719Y822D02*
X1725Y822D01*
X400Y821D02*
X407Y821D01*
X1392Y821D02*
X1399Y821D01*
X1693Y821D02*
X1699Y821D01*
X1719Y821D02*
X1725Y821D01*
X400Y820D02*
X407Y820D01*
X1392Y820D02*
X1399Y820D01*
X1693Y820D02*
X1699Y820D01*
X1719Y820D02*
X1725Y820D01*
X400Y819D02*
X407Y819D01*
X1392Y819D02*
X1399Y819D01*
X1693Y819D02*
X1744Y819D01*
X400Y818D02*
X407Y818D01*
X1392Y818D02*
X1399Y818D01*
X1693Y818D02*
X1745Y818D01*
X400Y817D02*
X407Y817D01*
X1392Y817D02*
X1399Y817D01*
X1693Y817D02*
X1746Y817D01*
X400Y816D02*
X407Y816D01*
X1392Y816D02*
X1399Y816D01*
X1693Y816D02*
X1746Y816D01*
X400Y815D02*
X407Y815D01*
X1392Y815D02*
X1399Y815D01*
X1693Y815D02*
X1746Y815D01*
X400Y814D02*
X407Y814D01*
X1392Y814D02*
X1399Y814D01*
X1693Y814D02*
X1745Y814D01*
X400Y813D02*
X407Y813D01*
X1392Y813D02*
X1399Y813D01*
X1693Y813D02*
X1744Y813D01*
X400Y812D02*
X407Y812D01*
X1392Y812D02*
X1399Y812D01*
X400Y811D02*
X407Y811D01*
X1392Y811D02*
X1399Y811D01*
X400Y810D02*
X407Y810D01*
X1392Y810D02*
X1399Y810D01*
X400Y809D02*
X407Y809D01*
X1392Y809D02*
X1399Y809D01*
X400Y808D02*
X407Y808D01*
X1392Y808D02*
X1399Y808D01*
X400Y807D02*
X407Y807D01*
X1392Y807D02*
X1399Y807D01*
X400Y806D02*
X407Y806D01*
X1392Y806D02*
X1399Y806D01*
X400Y805D02*
X407Y805D01*
X1392Y805D02*
X1399Y805D01*
X400Y804D02*
X407Y804D01*
X1392Y804D02*
X1399Y804D01*
X400Y803D02*
X407Y803D01*
X1392Y803D02*
X1399Y803D01*
X400Y802D02*
X407Y802D01*
X1392Y802D02*
X1399Y802D01*
X400Y801D02*
X407Y801D01*
X1392Y801D02*
X1399Y801D01*
X400Y800D02*
X407Y800D01*
X1392Y800D02*
X1399Y800D01*
X400Y799D02*
X407Y799D01*
X1392Y799D02*
X1399Y799D01*
X400Y798D02*
X407Y798D01*
X1392Y798D02*
X1399Y798D01*
X400Y797D02*
X407Y797D01*
X1392Y797D02*
X1399Y797D01*
X400Y796D02*
X407Y796D01*
X1392Y796D02*
X1399Y796D01*
X400Y795D02*
X407Y795D01*
X1392Y795D02*
X1399Y795D01*
X400Y794D02*
X407Y794D01*
X1392Y794D02*
X1399Y794D01*
X400Y793D02*
X407Y793D01*
X1392Y793D02*
X1399Y793D01*
X1695Y793D02*
X1739Y793D01*
X400Y792D02*
X407Y792D01*
X1392Y792D02*
X1399Y792D01*
X1694Y792D02*
X1741Y792D01*
X400Y791D02*
X407Y791D01*
X1392Y791D02*
X1399Y791D01*
X1693Y791D02*
X1742Y791D01*
X400Y790D02*
X407Y790D01*
X1392Y790D02*
X1399Y790D01*
X1693Y790D02*
X1743Y790D01*
X400Y789D02*
X407Y789D01*
X1392Y789D02*
X1399Y789D01*
X1693Y789D02*
X1744Y789D01*
X400Y788D02*
X407Y788D01*
X1392Y788D02*
X1399Y788D01*
X1694Y788D02*
X1745Y788D01*
X400Y787D02*
X407Y787D01*
X1392Y787D02*
X1399Y787D01*
X1695Y787D02*
X1745Y787D01*
X400Y786D02*
X407Y786D01*
X1392Y786D02*
X1399Y786D01*
X1738Y786D02*
X1746Y786D01*
X400Y785D02*
X407Y785D01*
X1392Y785D02*
X1399Y785D01*
X1739Y785D02*
X1746Y785D01*
X400Y784D02*
X407Y784D01*
X1392Y784D02*
X1399Y784D01*
X1740Y784D02*
X1746Y784D01*
X400Y783D02*
X407Y783D01*
X1392Y783D02*
X1399Y783D01*
X1740Y783D02*
X1746Y783D01*
X400Y782D02*
X407Y782D01*
X1392Y782D02*
X1399Y782D01*
X1740Y782D02*
X1746Y782D01*
X400Y781D02*
X407Y781D01*
X1392Y781D02*
X1399Y781D01*
X1740Y781D02*
X1746Y781D01*
X400Y780D02*
X407Y780D01*
X1392Y780D02*
X1399Y780D01*
X1740Y780D02*
X1746Y780D01*
X400Y779D02*
X407Y779D01*
X1392Y779D02*
X1399Y779D01*
X1740Y779D02*
X1746Y779D01*
X400Y778D02*
X407Y778D01*
X1392Y778D02*
X1399Y778D01*
X1740Y778D02*
X1746Y778D01*
X400Y777D02*
X407Y777D01*
X1392Y777D02*
X1399Y777D01*
X1740Y777D02*
X1746Y777D01*
X400Y776D02*
X407Y776D01*
X1392Y776D02*
X1399Y776D01*
X1740Y776D02*
X1746Y776D01*
X400Y775D02*
X407Y775D01*
X1392Y775D02*
X1399Y775D01*
X1740Y775D02*
X1746Y775D01*
X400Y774D02*
X407Y774D01*
X1392Y774D02*
X1399Y774D01*
X1739Y774D02*
X1746Y774D01*
X400Y773D02*
X407Y773D01*
X1392Y773D02*
X1399Y773D01*
X1737Y773D02*
X1745Y773D01*
X400Y772D02*
X407Y772D01*
X1392Y772D02*
X1399Y772D01*
X1724Y772D02*
X1745Y772D01*
X400Y771D02*
X407Y771D01*
X1392Y771D02*
X1399Y771D01*
X1723Y771D02*
X1744Y771D01*
X400Y770D02*
X407Y770D01*
X1392Y770D02*
X1399Y770D01*
X1722Y770D02*
X1744Y770D01*
X400Y769D02*
X407Y769D01*
X1392Y769D02*
X1399Y769D01*
X1722Y769D02*
X1743Y769D01*
X400Y768D02*
X407Y768D01*
X1392Y768D02*
X1399Y768D01*
X1723Y768D02*
X1742Y768D01*
X400Y767D02*
X407Y767D01*
X1392Y767D02*
X1399Y767D01*
X1723Y767D02*
X1740Y767D01*
X400Y766D02*
X407Y766D01*
X1392Y766D02*
X1399Y766D01*
X1725Y766D02*
X1737Y766D01*
X400Y765D02*
X407Y765D01*
X1392Y765D02*
X1399Y765D01*
X400Y764D02*
X407Y764D01*
X1392Y764D02*
X1399Y764D01*
X400Y763D02*
X407Y763D01*
X1392Y763D02*
X1399Y763D01*
X400Y762D02*
X407Y762D01*
X1392Y762D02*
X1399Y762D01*
X400Y761D02*
X407Y761D01*
X1392Y761D02*
X1399Y761D01*
X400Y760D02*
X407Y760D01*
X1392Y760D02*
X1399Y760D01*
X400Y759D02*
X407Y759D01*
X1392Y759D02*
X1399Y759D01*
X400Y758D02*
X407Y758D01*
X1392Y758D02*
X1399Y758D01*
X400Y757D02*
X407Y757D01*
X1392Y757D02*
X1399Y757D01*
X400Y756D02*
X407Y756D01*
X1392Y756D02*
X1399Y756D01*
X400Y755D02*
X407Y755D01*
X1392Y755D02*
X1399Y755D01*
X400Y754D02*
X407Y754D01*
X1392Y754D02*
X1399Y754D01*
X400Y753D02*
X407Y753D01*
X1392Y753D02*
X1399Y753D01*
X400Y752D02*
X407Y752D01*
X1392Y752D02*
X1399Y752D01*
X400Y751D02*
X407Y751D01*
X1392Y751D02*
X1399Y751D01*
X400Y750D02*
X407Y750D01*
X1392Y750D02*
X1399Y750D01*
X400Y749D02*
X407Y749D01*
X1392Y749D02*
X1399Y749D01*
X400Y748D02*
X407Y748D01*
X1392Y748D02*
X1399Y748D01*
X400Y747D02*
X407Y747D01*
X1392Y747D02*
X1399Y747D01*
X400Y746D02*
X407Y746D01*
X1392Y746D02*
X1399Y746D01*
X400Y745D02*
X407Y745D01*
X1392Y745D02*
X1399Y745D01*
X400Y744D02*
X407Y744D01*
X1392Y744D02*
X1399Y744D01*
X400Y743D02*
X407Y743D01*
X1392Y743D02*
X1399Y743D01*
X400Y742D02*
X407Y742D01*
X1392Y742D02*
X1399Y742D01*
X400Y741D02*
X407Y741D01*
X1392Y741D02*
X1399Y741D01*
X400Y740D02*
X407Y740D01*
X1392Y740D02*
X1399Y740D01*
X400Y739D02*
X407Y739D01*
X1392Y739D02*
X1399Y739D01*
X400Y738D02*
X407Y738D01*
X1392Y738D02*
X1399Y738D01*
X400Y737D02*
X407Y737D01*
X1392Y737D02*
X1399Y737D01*
X400Y736D02*
X407Y736D01*
X1392Y736D02*
X1399Y736D01*
X400Y735D02*
X407Y735D01*
X1392Y735D02*
X1399Y735D01*
X400Y734D02*
X407Y734D01*
X1392Y734D02*
X1399Y734D01*
X400Y733D02*
X407Y733D01*
X1392Y733D02*
X1399Y733D01*
X400Y732D02*
X407Y732D01*
X1392Y732D02*
X1399Y732D01*
X400Y731D02*
X407Y731D01*
X1392Y731D02*
X1399Y731D01*
X400Y730D02*
X407Y730D01*
X1392Y730D02*
X1399Y730D01*
X400Y729D02*
X407Y729D01*
X1392Y729D02*
X1399Y729D01*
X400Y728D02*
X407Y728D01*
X1392Y728D02*
X1399Y728D01*
X400Y727D02*
X407Y727D01*
X1392Y727D02*
X1399Y727D01*
X400Y726D02*
X407Y726D01*
X1392Y726D02*
X1399Y726D01*
X400Y725D02*
X407Y725D01*
X1392Y725D02*
X1399Y725D01*
X400Y724D02*
X407Y724D01*
X1392Y724D02*
X1399Y724D01*
X400Y723D02*
X407Y723D01*
X1392Y723D02*
X1399Y723D01*
X400Y722D02*
X407Y722D01*
X1392Y722D02*
X1399Y722D01*
X400Y721D02*
X407Y721D01*
X1392Y721D02*
X1399Y721D01*
X400Y720D02*
X407Y720D01*
X1392Y720D02*
X1399Y720D01*
X400Y719D02*
X407Y719D01*
X1392Y719D02*
X1399Y719D01*
X400Y718D02*
X407Y718D01*
X1392Y718D02*
X1399Y718D01*
X400Y717D02*
X407Y717D01*
X1392Y717D02*
X1399Y717D01*
X400Y716D02*
X407Y716D01*
X1392Y716D02*
X1399Y716D01*
X400Y715D02*
X407Y715D01*
X1392Y715D02*
X1399Y715D01*
X400Y714D02*
X407Y714D01*
X1392Y714D02*
X1399Y714D01*
X400Y713D02*
X407Y713D01*
X1392Y713D02*
X1399Y713D01*
X400Y712D02*
X407Y712D01*
X1392Y712D02*
X1399Y712D01*
X400Y711D02*
X407Y711D01*
X1392Y711D02*
X1399Y711D01*
X400Y710D02*
X407Y710D01*
X1392Y710D02*
X1399Y710D01*
X400Y709D02*
X407Y709D01*
X1392Y709D02*
X1399Y709D01*
X400Y708D02*
X407Y708D01*
X1392Y708D02*
X1399Y708D01*
X400Y707D02*
X407Y707D01*
X1392Y707D02*
X1399Y707D01*
X400Y706D02*
X407Y706D01*
X1392Y706D02*
X1399Y706D01*
X400Y705D02*
X407Y705D01*
X1392Y705D02*
X1399Y705D01*
X400Y704D02*
X407Y704D01*
X1392Y704D02*
X1399Y704D01*
X400Y703D02*
X407Y703D01*
X1392Y703D02*
X1399Y703D01*
X400Y702D02*
X407Y702D01*
X1392Y702D02*
X1399Y702D01*
X400Y701D02*
X407Y701D01*
X1392Y701D02*
X1399Y701D01*
X400Y700D02*
X407Y700D01*
X1392Y700D02*
X1399Y700D01*
X400Y699D02*
X407Y699D01*
X1392Y699D02*
X1399Y699D01*
X400Y698D02*
X407Y698D01*
X1392Y698D02*
X1399Y698D01*
X400Y697D02*
X407Y697D01*
X1392Y697D02*
X1399Y697D01*
X400Y696D02*
X407Y696D01*
X1392Y696D02*
X1399Y696D01*
X400Y695D02*
X407Y695D01*
X1392Y695D02*
X1399Y695D01*
X400Y694D02*
X407Y694D01*
X1392Y694D02*
X1399Y694D01*
X400Y693D02*
X407Y693D01*
X1392Y693D02*
X1399Y693D01*
X400Y692D02*
X407Y692D01*
X1392Y692D02*
X1399Y692D01*
X400Y691D02*
X407Y691D01*
X1392Y691D02*
X1399Y691D01*
X400Y690D02*
X407Y690D01*
X1392Y690D02*
X1399Y690D01*
X400Y689D02*
X407Y689D01*
X1392Y689D02*
X1399Y689D01*
X400Y688D02*
X407Y688D01*
X1392Y688D02*
X1399Y688D01*
X400Y687D02*
X407Y687D01*
X1392Y687D02*
X1399Y687D01*
X400Y686D02*
X407Y686D01*
X1392Y686D02*
X1399Y686D01*
X400Y685D02*
X407Y685D01*
X1392Y685D02*
X1399Y685D01*
X400Y684D02*
X407Y684D01*
X1392Y684D02*
X1399Y684D01*
X400Y683D02*
X407Y683D01*
X1392Y683D02*
X1399Y683D01*
X400Y682D02*
X407Y682D01*
X1392Y682D02*
X1399Y682D01*
X400Y681D02*
X407Y681D01*
X1392Y681D02*
X1399Y681D01*
X400Y680D02*
X407Y680D01*
X1392Y680D02*
X1399Y680D01*
X400Y679D02*
X407Y679D01*
X1392Y679D02*
X1399Y679D01*
X400Y678D02*
X407Y678D01*
X1392Y678D02*
X1399Y678D01*
X400Y677D02*
X407Y677D01*
X1392Y677D02*
X1399Y677D01*
X400Y676D02*
X407Y676D01*
X1392Y676D02*
X1399Y676D01*
X400Y675D02*
X407Y675D01*
X1392Y675D02*
X1399Y675D01*
X400Y674D02*
X407Y674D01*
X1392Y674D02*
X1399Y674D01*
X400Y673D02*
X407Y673D01*
X1392Y673D02*
X1399Y673D01*
X400Y672D02*
X407Y672D01*
X1392Y672D02*
X1399Y672D01*
X400Y671D02*
X407Y671D01*
X1392Y671D02*
X1399Y671D01*
X400Y670D02*
X407Y670D01*
X1392Y670D02*
X1399Y670D01*
X400Y669D02*
X407Y669D01*
X1392Y669D02*
X1399Y669D01*
X400Y668D02*
X407Y668D01*
X1392Y668D02*
X1399Y668D01*
X400Y667D02*
X407Y667D01*
X1392Y667D02*
X1399Y667D01*
X400Y666D02*
X407Y666D01*
X1392Y666D02*
X1399Y666D01*
X400Y665D02*
X407Y665D01*
X1392Y665D02*
X1399Y665D01*
X400Y664D02*
X407Y664D01*
X1392Y664D02*
X1399Y664D01*
X400Y663D02*
X407Y663D01*
X1392Y663D02*
X1399Y663D01*
X400Y662D02*
X407Y662D01*
X1392Y662D02*
X1399Y662D01*
X400Y661D02*
X407Y661D01*
X1392Y661D02*
X1399Y661D01*
X400Y660D02*
X407Y660D01*
X1392Y660D02*
X1399Y660D01*
X400Y659D02*
X407Y659D01*
X1392Y659D02*
X1399Y659D01*
X400Y658D02*
X407Y658D01*
X1392Y658D02*
X1399Y658D01*
X400Y657D02*
X407Y657D01*
X1392Y657D02*
X1399Y657D01*
X400Y656D02*
X407Y656D01*
X1392Y656D02*
X1399Y656D01*
X400Y655D02*
X407Y655D01*
X1392Y655D02*
X1399Y655D01*
X400Y654D02*
X407Y654D01*
X1392Y654D02*
X1399Y654D01*
X400Y653D02*
X407Y653D01*
X1392Y653D02*
X1399Y653D01*
X400Y652D02*
X407Y652D01*
X1392Y652D02*
X1399Y652D01*
X400Y651D02*
X407Y651D01*
X1392Y651D02*
X1399Y651D01*
X400Y650D02*
X407Y650D01*
X1392Y650D02*
X1399Y650D01*
X400Y649D02*
X407Y649D01*
X1392Y649D02*
X1399Y649D01*
X400Y648D02*
X407Y648D01*
X1392Y648D02*
X1399Y648D01*
X400Y647D02*
X407Y647D01*
X1392Y647D02*
X1399Y647D01*
X400Y646D02*
X407Y646D01*
X1392Y646D02*
X1399Y646D01*
X400Y645D02*
X407Y645D01*
X1392Y645D02*
X1399Y645D01*
X400Y644D02*
X407Y644D01*
X1392Y644D02*
X1399Y644D01*
X400Y643D02*
X407Y643D01*
X1392Y643D02*
X1399Y643D01*
X400Y642D02*
X407Y642D01*
X1392Y642D02*
X1399Y642D01*
X400Y641D02*
X407Y641D01*
X1392Y641D02*
X1399Y641D01*
X400Y640D02*
X407Y640D01*
X1392Y640D02*
X1399Y640D01*
X400Y639D02*
X407Y639D01*
X1392Y639D02*
X1399Y639D01*
X400Y638D02*
X407Y638D01*
X1392Y638D02*
X1399Y638D01*
X400Y637D02*
X407Y637D01*
X1392Y637D02*
X1399Y637D01*
X400Y636D02*
X407Y636D01*
X1392Y636D02*
X1399Y636D01*
X400Y635D02*
X407Y635D01*
X1392Y635D02*
X1399Y635D01*
X400Y634D02*
X407Y634D01*
X1392Y634D02*
X1399Y634D01*
X400Y633D02*
X407Y633D01*
X1392Y633D02*
X1399Y633D01*
X400Y632D02*
X407Y632D01*
X1392Y632D02*
X1399Y632D01*
X400Y631D02*
X407Y631D01*
X1392Y631D02*
X1399Y631D01*
X400Y630D02*
X407Y630D01*
X1392Y630D02*
X1399Y630D01*
X400Y629D02*
X407Y629D01*
X1392Y629D02*
X1399Y629D01*
X400Y628D02*
X407Y628D01*
X1392Y628D02*
X1399Y628D01*
X400Y627D02*
X407Y627D01*
X1392Y627D02*
X1399Y627D01*
X400Y626D02*
X407Y626D01*
X1392Y626D02*
X1399Y626D01*
X400Y625D02*
X407Y625D01*
X1392Y625D02*
X1399Y625D01*
X400Y624D02*
X407Y624D01*
X1392Y624D02*
X1399Y624D01*
X400Y623D02*
X407Y623D01*
X1392Y623D02*
X1399Y623D01*
X400Y622D02*
X407Y622D01*
X1392Y622D02*
X1399Y622D01*
X400Y621D02*
X407Y621D01*
X1392Y621D02*
X1399Y621D01*
X400Y620D02*
X407Y620D01*
X1392Y620D02*
X1399Y620D01*
X400Y619D02*
X407Y619D01*
X1392Y619D02*
X1399Y619D01*
X400Y618D02*
X407Y618D01*
X1392Y618D02*
X1399Y618D01*
X400Y617D02*
X407Y617D01*
X1392Y617D02*
X1399Y617D01*
X400Y616D02*
X407Y616D01*
X1392Y616D02*
X1399Y616D01*
X400Y615D02*
X407Y615D01*
X1392Y615D02*
X1399Y615D01*
X400Y614D02*
X407Y614D01*
X1392Y614D02*
X1399Y614D01*
X400Y613D02*
X407Y613D01*
X1392Y613D02*
X1399Y613D01*
X400Y612D02*
X407Y612D01*
X1392Y612D02*
X1399Y612D01*
X400Y611D02*
X407Y611D01*
X1392Y611D02*
X1399Y611D01*
X400Y610D02*
X407Y610D01*
X1392Y610D02*
X1399Y610D01*
X400Y609D02*
X407Y609D01*
X1392Y609D02*
X1399Y609D01*
X400Y608D02*
X407Y608D01*
X1392Y608D02*
X1399Y608D01*
X400Y607D02*
X407Y607D01*
X1392Y607D02*
X1399Y607D01*
X400Y606D02*
X407Y606D01*
X1392Y606D02*
X1399Y606D01*
X400Y605D02*
X407Y605D01*
X1392Y605D02*
X1399Y605D01*
X400Y604D02*
X407Y604D01*
X1392Y604D02*
X1399Y604D01*
X400Y603D02*
X407Y603D01*
X1392Y603D02*
X1399Y603D01*
X400Y602D02*
X407Y602D01*
X1392Y602D02*
X1399Y602D01*
X400Y601D02*
X407Y601D01*
X1392Y601D02*
X1399Y601D01*
X400Y600D02*
X407Y600D01*
X1392Y600D02*
X1399Y600D01*
X400Y599D02*
X407Y599D01*
X1392Y599D02*
X1399Y599D01*
X400Y598D02*
X407Y598D01*
X1392Y598D02*
X1399Y598D01*
X400Y597D02*
X407Y597D01*
X1392Y597D02*
X1399Y597D01*
X400Y596D02*
X407Y596D01*
X1392Y596D02*
X1399Y596D01*
X400Y595D02*
X407Y595D01*
X1392Y595D02*
X1399Y595D01*
X400Y594D02*
X407Y594D01*
X1392Y594D02*
X1399Y594D01*
X400Y593D02*
X407Y593D01*
X1392Y593D02*
X1399Y593D01*
X400Y592D02*
X407Y592D01*
X1392Y592D02*
X1399Y592D01*
X400Y591D02*
X407Y591D01*
X1392Y591D02*
X1399Y591D01*
X400Y590D02*
X407Y590D01*
X1392Y590D02*
X1399Y590D01*
X400Y589D02*
X407Y589D01*
X1392Y589D02*
X1399Y589D01*
X400Y588D02*
X407Y588D01*
X1392Y588D02*
X1399Y588D01*
X400Y587D02*
X407Y587D01*
X1392Y587D02*
X1399Y587D01*
X400Y586D02*
X407Y586D01*
X1392Y586D02*
X1399Y586D01*
X400Y585D02*
X407Y585D01*
X1392Y585D02*
X1399Y585D01*
X400Y584D02*
X407Y584D01*
X1392Y584D02*
X1399Y584D01*
X400Y583D02*
X407Y583D01*
X1392Y583D02*
X1399Y583D01*
X400Y582D02*
X407Y582D01*
X1392Y582D02*
X1399Y582D01*
X400Y581D02*
X407Y581D01*
X1392Y581D02*
X1399Y581D01*
X400Y580D02*
X407Y580D01*
X1392Y580D02*
X1399Y580D01*
X400Y579D02*
X407Y579D01*
X1392Y579D02*
X1399Y579D01*
X400Y578D02*
X407Y578D01*
X1392Y578D02*
X1399Y578D01*
X400Y577D02*
X407Y577D01*
X1392Y577D02*
X1399Y577D01*
X400Y576D02*
X407Y576D01*
X1392Y576D02*
X1399Y576D01*
X400Y575D02*
X407Y575D01*
X1392Y575D02*
X1399Y575D01*
X400Y574D02*
X407Y574D01*
X1392Y574D02*
X1399Y574D01*
X400Y573D02*
X407Y573D01*
X1392Y573D02*
X1399Y573D01*
X400Y572D02*
X407Y572D01*
X1392Y572D02*
X1399Y572D01*
X400Y571D02*
X407Y571D01*
X1392Y571D02*
X1399Y571D01*
X400Y570D02*
X407Y570D01*
X1392Y570D02*
X1399Y570D01*
X400Y569D02*
X407Y569D01*
X1392Y569D02*
X1399Y569D01*
X400Y568D02*
X407Y568D01*
X1392Y568D02*
X1399Y568D01*
X400Y567D02*
X407Y567D01*
X1392Y567D02*
X1399Y567D01*
X400Y566D02*
X407Y566D01*
X1392Y566D02*
X1399Y566D01*
X400Y565D02*
X407Y565D01*
X1392Y565D02*
X1399Y565D01*
X400Y564D02*
X407Y564D01*
X1392Y564D02*
X1399Y564D01*
X400Y563D02*
X407Y563D01*
X1392Y563D02*
X1399Y563D01*
X400Y562D02*
X407Y562D01*
X1392Y562D02*
X1399Y562D01*
X400Y561D02*
X407Y561D01*
X1392Y561D02*
X1399Y561D01*
X400Y560D02*
X407Y560D01*
X1392Y560D02*
X1399Y560D01*
X400Y559D02*
X407Y559D01*
X1392Y559D02*
X1399Y559D01*
X400Y558D02*
X407Y558D01*
X1392Y558D02*
X1399Y558D01*
X400Y557D02*
X407Y557D01*
X1392Y557D02*
X1399Y557D01*
X400Y556D02*
X407Y556D01*
X1392Y556D02*
X1399Y556D01*
X400Y555D02*
X407Y555D01*
X1392Y555D02*
X1399Y555D01*
X400Y554D02*
X407Y554D01*
X1392Y554D02*
X1399Y554D01*
X400Y553D02*
X407Y553D01*
X1392Y553D02*
X1399Y553D01*
X400Y552D02*
X407Y552D01*
X1392Y552D02*
X1399Y552D01*
X400Y551D02*
X407Y551D01*
X1392Y551D02*
X1399Y551D01*
X400Y550D02*
X407Y550D01*
X1392Y550D02*
X1399Y550D01*
X400Y549D02*
X407Y549D01*
X1392Y549D02*
X1399Y549D01*
X400Y548D02*
X407Y548D01*
X1392Y548D02*
X1399Y548D01*
X400Y547D02*
X407Y547D01*
X1392Y547D02*
X1399Y547D01*
X400Y546D02*
X407Y546D01*
X1392Y546D02*
X1399Y546D01*
X400Y545D02*
X407Y545D01*
X1392Y545D02*
X1399Y545D01*
X400Y544D02*
X407Y544D01*
X1392Y544D02*
X1399Y544D01*
X400Y543D02*
X407Y543D01*
X1392Y543D02*
X1399Y543D01*
X400Y542D02*
X407Y542D01*
X1392Y542D02*
X1399Y542D01*
X400Y541D02*
X407Y541D01*
X1392Y541D02*
X1399Y541D01*
X400Y540D02*
X407Y540D01*
X1392Y540D02*
X1399Y540D01*
X400Y539D02*
X407Y539D01*
X1392Y539D02*
X1399Y539D01*
X400Y538D02*
X407Y538D01*
X1392Y538D02*
X1399Y538D01*
X400Y537D02*
X407Y537D01*
X1392Y537D02*
X1399Y537D01*
X400Y536D02*
X407Y536D01*
X1392Y536D02*
X1399Y536D01*
X400Y535D02*
X407Y535D01*
X1392Y535D02*
X1399Y535D01*
X400Y534D02*
X407Y534D01*
X1392Y534D02*
X1399Y534D01*
X400Y533D02*
X407Y533D01*
X1392Y533D02*
X1399Y533D01*
X400Y532D02*
X407Y532D01*
X1392Y532D02*
X1399Y532D01*
X400Y531D02*
X407Y531D01*
X1392Y531D02*
X1399Y531D01*
X400Y530D02*
X407Y530D01*
X1392Y530D02*
X1399Y530D01*
X400Y529D02*
X407Y529D01*
X1392Y529D02*
X1399Y529D01*
X400Y528D02*
X407Y528D01*
X1392Y528D02*
X1399Y528D01*
X400Y527D02*
X407Y527D01*
X1392Y527D02*
X1399Y527D01*
X400Y526D02*
X407Y526D01*
X1392Y526D02*
X1399Y526D01*
X400Y525D02*
X407Y525D01*
X1392Y525D02*
X1399Y525D01*
X400Y524D02*
X407Y524D01*
X1392Y524D02*
X1399Y524D01*
X400Y523D02*
X407Y523D01*
X1392Y523D02*
X1399Y523D01*
X400Y522D02*
X407Y522D01*
X1392Y522D02*
X1399Y522D01*
X400Y521D02*
X407Y521D01*
X1392Y521D02*
X1399Y521D01*
X400Y520D02*
X407Y520D01*
X1392Y520D02*
X1399Y520D01*
X400Y519D02*
X407Y519D01*
X1392Y519D02*
X1399Y519D01*
X400Y518D02*
X407Y518D01*
X1392Y518D02*
X1399Y518D01*
X400Y517D02*
X407Y517D01*
X1392Y517D02*
X1399Y517D01*
X400Y516D02*
X407Y516D01*
X1392Y516D02*
X1399Y516D01*
X400Y515D02*
X407Y515D01*
X1392Y515D02*
X1399Y515D01*
X400Y514D02*
X407Y514D01*
X1392Y514D02*
X1399Y514D01*
X400Y513D02*
X407Y513D01*
X1392Y513D02*
X1399Y513D01*
X400Y512D02*
X407Y512D01*
X1392Y512D02*
X1399Y512D01*
X400Y511D02*
X407Y511D01*
X1392Y511D02*
X1399Y511D01*
X400Y510D02*
X407Y510D01*
X1392Y510D02*
X1399Y510D01*
X400Y509D02*
X407Y509D01*
X1392Y509D02*
X1399Y509D01*
X400Y508D02*
X407Y508D01*
X1392Y508D02*
X1399Y508D01*
X400Y507D02*
X407Y507D01*
X1392Y507D02*
X1399Y507D01*
X400Y506D02*
X407Y506D01*
X1392Y506D02*
X1399Y506D01*
X400Y505D02*
X407Y505D01*
X1392Y505D02*
X1399Y505D01*
X400Y504D02*
X407Y504D01*
X1392Y504D02*
X1399Y504D01*
X400Y503D02*
X407Y503D01*
X1392Y503D02*
X1399Y503D01*
X400Y502D02*
X407Y502D01*
X1392Y502D02*
X1399Y502D01*
X400Y501D02*
X407Y501D01*
X1392Y501D02*
X1399Y501D01*
X400Y500D02*
X407Y500D01*
X1392Y500D02*
X1399Y500D01*
X400Y499D02*
X407Y499D01*
X1392Y499D02*
X1399Y499D01*
X400Y498D02*
X407Y498D01*
X1392Y498D02*
X1399Y498D01*
X400Y497D02*
X407Y497D01*
X1392Y497D02*
X1399Y497D01*
X400Y496D02*
X407Y496D01*
X1392Y496D02*
X1399Y496D01*
X400Y495D02*
X407Y495D01*
X1392Y495D02*
X1399Y495D01*
X400Y494D02*
X407Y494D01*
X1392Y494D02*
X1399Y494D01*
X400Y493D02*
X407Y493D01*
X1392Y493D02*
X1399Y493D01*
X400Y492D02*
X407Y492D01*
X1392Y492D02*
X1399Y492D01*
X400Y491D02*
X407Y491D01*
X1392Y491D02*
X1399Y491D01*
X400Y490D02*
X407Y490D01*
X1392Y490D02*
X1399Y490D01*
X400Y489D02*
X407Y489D01*
X1392Y489D02*
X1399Y489D01*
X400Y488D02*
X407Y488D01*
X1392Y488D02*
X1399Y488D01*
X400Y487D02*
X407Y487D01*
X1392Y487D02*
X1399Y487D01*
X400Y486D02*
X407Y486D01*
X1392Y486D02*
X1399Y486D01*
X400Y485D02*
X407Y485D01*
X1392Y485D02*
X1399Y485D01*
X400Y484D02*
X407Y484D01*
X1392Y484D02*
X1399Y484D01*
X400Y483D02*
X407Y483D01*
X1392Y483D02*
X1399Y483D01*
X400Y482D02*
X407Y482D01*
X1392Y482D02*
X1399Y482D01*
X400Y481D02*
X407Y481D01*
X1392Y481D02*
X1399Y481D01*
X400Y480D02*
X407Y480D01*
X1392Y480D02*
X1399Y480D01*
X400Y479D02*
X407Y479D01*
X1392Y479D02*
X1399Y479D01*
X400Y478D02*
X407Y478D01*
X1392Y478D02*
X1399Y478D01*
X400Y477D02*
X407Y477D01*
X1392Y477D02*
X1399Y477D01*
X400Y476D02*
X407Y476D01*
X1392Y476D02*
X1399Y476D01*
X400Y475D02*
X407Y475D01*
X1392Y475D02*
X1399Y475D01*
X400Y474D02*
X407Y474D01*
X1392Y474D02*
X1399Y474D01*
X400Y473D02*
X407Y473D01*
X1392Y473D02*
X1399Y473D01*
X400Y472D02*
X407Y472D01*
X1392Y472D02*
X1399Y472D01*
X400Y471D02*
X407Y471D01*
X1392Y471D02*
X1399Y471D01*
X400Y470D02*
X407Y470D01*
X1392Y470D02*
X1399Y470D01*
X400Y469D02*
X407Y469D01*
X1392Y469D02*
X1399Y469D01*
X400Y468D02*
X407Y468D01*
X1392Y468D02*
X1399Y468D01*
X400Y467D02*
X407Y467D01*
X1392Y467D02*
X1399Y467D01*
X400Y466D02*
X407Y466D01*
X1392Y466D02*
X1399Y466D01*
X400Y465D02*
X407Y465D01*
X1392Y465D02*
X1399Y465D01*
X400Y464D02*
X407Y464D01*
X1392Y464D02*
X1399Y464D01*
X400Y463D02*
X407Y463D01*
X1392Y463D02*
X1399Y463D01*
X400Y462D02*
X407Y462D01*
X1392Y462D02*
X1399Y462D01*
X400Y461D02*
X407Y461D01*
X1392Y461D02*
X1399Y461D01*
X400Y460D02*
X407Y460D01*
X1392Y460D02*
X1399Y460D01*
X400Y459D02*
X407Y459D01*
X1392Y459D02*
X1399Y459D01*
X400Y458D02*
X407Y458D01*
X1392Y458D02*
X1399Y458D01*
X400Y457D02*
X407Y457D01*
X1392Y457D02*
X1399Y457D01*
X400Y456D02*
X407Y456D01*
X1392Y456D02*
X1399Y456D01*
X400Y455D02*
X407Y455D01*
X1392Y455D02*
X1399Y455D01*
X400Y454D02*
X407Y454D01*
X1392Y454D02*
X1399Y454D01*
X400Y453D02*
X407Y453D01*
X1392Y453D02*
X1399Y453D01*
X400Y452D02*
X407Y452D01*
X1392Y452D02*
X1399Y452D01*
X400Y451D02*
X407Y451D01*
X1392Y451D02*
X1399Y451D01*
X400Y450D02*
X407Y450D01*
X1392Y450D02*
X1399Y450D01*
X400Y449D02*
X407Y449D01*
X1392Y449D02*
X1399Y449D01*
X400Y448D02*
X407Y448D01*
X1392Y448D02*
X1399Y448D01*
X400Y447D02*
X407Y447D01*
X1392Y447D02*
X1399Y447D01*
X400Y446D02*
X407Y446D01*
X1392Y446D02*
X1399Y446D01*
X400Y445D02*
X407Y445D01*
X1392Y445D02*
X1399Y445D01*
X400Y444D02*
X407Y444D01*
X1392Y444D02*
X1399Y444D01*
X400Y443D02*
X407Y443D01*
X1392Y443D02*
X1399Y443D01*
X400Y442D02*
X407Y442D01*
X1392Y442D02*
X1399Y442D01*
X400Y441D02*
X407Y441D01*
X1392Y441D02*
X1399Y441D01*
X400Y440D02*
X407Y440D01*
X1392Y440D02*
X1399Y440D01*
X400Y439D02*
X407Y439D01*
X1392Y439D02*
X1399Y439D01*
X400Y438D02*
X407Y438D01*
X1392Y438D02*
X1399Y438D01*
X400Y437D02*
X407Y437D01*
X1392Y437D02*
X1399Y437D01*
X400Y436D02*
X407Y436D01*
X1392Y436D02*
X1399Y436D01*
X400Y435D02*
X407Y435D01*
X1392Y435D02*
X1399Y435D01*
X400Y434D02*
X407Y434D01*
X1392Y434D02*
X1399Y434D01*
X400Y433D02*
X407Y433D01*
X1392Y433D02*
X1399Y433D01*
X400Y432D02*
X407Y432D01*
X1392Y432D02*
X1399Y432D01*
X400Y431D02*
X407Y431D01*
X1392Y431D02*
X1399Y431D01*
X400Y430D02*
X407Y430D01*
X1392Y430D02*
X1399Y430D01*
X400Y429D02*
X407Y429D01*
X1392Y429D02*
X1399Y429D01*
X400Y428D02*
X407Y428D01*
X1392Y428D02*
X1399Y428D01*
X400Y427D02*
X407Y427D01*
X1392Y427D02*
X1399Y427D01*
X400Y426D02*
X407Y426D01*
X1392Y426D02*
X1399Y426D01*
X400Y425D02*
X407Y425D01*
X1392Y425D02*
X1399Y425D01*
X400Y424D02*
X407Y424D01*
X1392Y424D02*
X1399Y424D01*
X400Y423D02*
X407Y423D01*
X1392Y423D02*
X1399Y423D01*
X400Y422D02*
X407Y422D01*
X1392Y422D02*
X1399Y422D01*
X400Y421D02*
X407Y421D01*
X1392Y421D02*
X1399Y421D01*
X400Y420D02*
X407Y420D01*
X1392Y420D02*
X1399Y420D01*
X400Y419D02*
X407Y419D01*
X1392Y419D02*
X1399Y419D01*
X400Y418D02*
X407Y418D01*
X1392Y418D02*
X1399Y418D01*
X400Y417D02*
X407Y417D01*
X1392Y417D02*
X1399Y417D01*
X400Y416D02*
X407Y416D01*
X1392Y416D02*
X1399Y416D01*
X400Y415D02*
X407Y415D01*
X1392Y415D02*
X1399Y415D01*
X400Y414D02*
X407Y414D01*
X1392Y414D02*
X1399Y414D01*
X400Y413D02*
X407Y413D01*
X1392Y413D02*
X1399Y413D01*
X400Y412D02*
X407Y412D01*
X1392Y412D02*
X1399Y412D01*
X400Y411D02*
X407Y411D01*
X1392Y411D02*
X1399Y411D01*
X400Y410D02*
X407Y410D01*
X1392Y410D02*
X1399Y410D01*
X400Y409D02*
X407Y409D01*
X1392Y409D02*
X1399Y409D01*
X400Y408D02*
X407Y408D01*
X1392Y408D02*
X1399Y408D01*
X400Y407D02*
X407Y407D01*
X1392Y407D02*
X1399Y407D01*
X400Y406D02*
X407Y406D01*
X1392Y406D02*
X1399Y406D01*
X400Y405D02*
X407Y405D01*
X1392Y405D02*
X1399Y405D01*
X400Y404D02*
X407Y404D01*
X1392Y404D02*
X1399Y404D01*
X400Y403D02*
X407Y403D01*
X1392Y403D02*
X1399Y403D01*
X400Y402D02*
X407Y402D01*
X1392Y402D02*
X1399Y402D01*
X400Y401D02*
X407Y401D01*
X1392Y401D02*
X1399Y401D01*
X400Y400D02*
X407Y400D01*
X1392Y400D02*
X1399Y400D01*
X400Y399D02*
X407Y399D01*
X1392Y399D02*
X1399Y399D01*
X400Y398D02*
X407Y398D01*
X1392Y398D02*
X1399Y398D01*
X400Y397D02*
X407Y397D01*
X1392Y397D02*
X1399Y397D01*
X400Y396D02*
X407Y396D01*
X1392Y396D02*
X1399Y396D01*
X400Y395D02*
X407Y395D01*
X1392Y395D02*
X1399Y395D01*
X400Y394D02*
X407Y394D01*
X1392Y394D02*
X1399Y394D01*
X400Y393D02*
X407Y393D01*
X1392Y393D02*
X1399Y393D01*
X400Y392D02*
X407Y392D01*
X1392Y392D02*
X1399Y392D01*
X400Y391D02*
X407Y391D01*
X1392Y391D02*
X1399Y391D01*
X400Y390D02*
X407Y390D01*
X1392Y390D02*
X1399Y390D01*
X400Y389D02*
X407Y389D01*
X1392Y389D02*
X1399Y389D01*
X400Y388D02*
X407Y388D01*
X1392Y388D02*
X1399Y388D01*
X400Y387D02*
X407Y387D01*
X1392Y387D02*
X1399Y387D01*
X400Y386D02*
X407Y386D01*
X1392Y386D02*
X1399Y386D01*
X400Y385D02*
X407Y385D01*
X1392Y385D02*
X1399Y385D01*
X400Y384D02*
X407Y384D01*
X1392Y384D02*
X1399Y384D01*
X400Y383D02*
X407Y383D01*
X1392Y383D02*
X1399Y383D01*
X400Y382D02*
X407Y382D01*
X1392Y382D02*
X1399Y382D01*
X400Y381D02*
X407Y381D01*
X1392Y381D02*
X1399Y381D01*
X400Y380D02*
X407Y380D01*
X1392Y380D02*
X1399Y380D01*
X400Y379D02*
X407Y379D01*
X1392Y379D02*
X1399Y379D01*
X400Y378D02*
X407Y378D01*
X1392Y378D02*
X1399Y378D01*
X400Y377D02*
X407Y377D01*
X1392Y377D02*
X1399Y377D01*
X400Y376D02*
X407Y376D01*
X1392Y376D02*
X1399Y376D01*
X400Y375D02*
X407Y375D01*
X1392Y375D02*
X1399Y375D01*
X400Y374D02*
X407Y374D01*
X1392Y374D02*
X1399Y374D01*
X400Y373D02*
X407Y373D01*
X1392Y373D02*
X1399Y373D01*
X400Y372D02*
X407Y372D01*
X1392Y372D02*
X1399Y372D01*
X400Y371D02*
X407Y371D01*
X1392Y371D02*
X1399Y371D01*
X400Y370D02*
X407Y370D01*
X1392Y370D02*
X1399Y370D01*
X400Y369D02*
X407Y369D01*
X1392Y369D02*
X1399Y369D01*
X400Y368D02*
X407Y368D01*
X1392Y368D02*
X1399Y368D01*
X400Y367D02*
X407Y367D01*
X1392Y367D02*
X1399Y367D01*
X400Y366D02*
X407Y366D01*
X1392Y366D02*
X1399Y366D01*
X400Y365D02*
X407Y365D01*
X1392Y365D02*
X1399Y365D01*
X400Y364D02*
X407Y364D01*
X1392Y364D02*
X1399Y364D01*
X400Y363D02*
X407Y363D01*
X1392Y363D02*
X1399Y363D01*
X400Y362D02*
X407Y362D01*
X1392Y362D02*
X1399Y362D01*
X400Y361D02*
X407Y361D01*
X1392Y361D02*
X1399Y361D01*
X400Y360D02*
X407Y360D01*
X1392Y360D02*
X1399Y360D01*
X400Y359D02*
X407Y359D01*
X1392Y359D02*
X1399Y359D01*
X400Y358D02*
X407Y358D01*
X1392Y358D02*
X1399Y358D01*
X400Y357D02*
X407Y357D01*
X1392Y357D02*
X1399Y357D01*
X400Y356D02*
X407Y356D01*
X1392Y356D02*
X1399Y356D01*
X400Y355D02*
X407Y355D01*
X1392Y355D02*
X1399Y355D01*
X400Y354D02*
X407Y354D01*
X1392Y354D02*
X1399Y354D01*
X400Y353D02*
X407Y353D01*
X1392Y353D02*
X1399Y353D01*
X400Y352D02*
X407Y352D01*
X1392Y352D02*
X1399Y352D01*
X400Y351D02*
X407Y351D01*
X1392Y351D02*
X1399Y351D01*
X400Y350D02*
X407Y350D01*
X1392Y350D02*
X1399Y350D01*
X400Y349D02*
X407Y349D01*
X1392Y349D02*
X1399Y349D01*
X400Y348D02*
X407Y348D01*
X1392Y348D02*
X1399Y348D01*
X400Y347D02*
X407Y347D01*
X1392Y347D02*
X1399Y347D01*
X400Y346D02*
X407Y346D01*
X1392Y346D02*
X1399Y346D01*
X400Y345D02*
X407Y345D01*
X1392Y345D02*
X1399Y345D01*
X400Y344D02*
X407Y344D01*
X1392Y344D02*
X1399Y344D01*
X400Y343D02*
X407Y343D01*
X1392Y343D02*
X1399Y343D01*
X400Y342D02*
X407Y342D01*
X1392Y342D02*
X1399Y342D01*
X400Y341D02*
X407Y341D01*
X1392Y341D02*
X1399Y341D01*
X400Y340D02*
X407Y340D01*
X1392Y340D02*
X1399Y340D01*
X400Y339D02*
X407Y339D01*
X1392Y339D02*
X1399Y339D01*
X400Y338D02*
X407Y338D01*
X1392Y338D02*
X1399Y338D01*
X400Y337D02*
X407Y337D01*
X1392Y337D02*
X1399Y337D01*
X400Y336D02*
X407Y336D01*
X1392Y336D02*
X1399Y336D01*
X400Y335D02*
X407Y335D01*
X1392Y335D02*
X1399Y335D01*
X400Y334D02*
X407Y334D01*
X1392Y334D02*
X1399Y334D01*
X400Y333D02*
X407Y333D01*
X1392Y333D02*
X1399Y333D01*
X400Y332D02*
X407Y332D01*
X1392Y332D02*
X1399Y332D01*
X400Y331D02*
X407Y331D01*
X1392Y331D02*
X1399Y331D01*
X400Y330D02*
X407Y330D01*
X1392Y330D02*
X1399Y330D01*
X400Y329D02*
X407Y329D01*
X1392Y329D02*
X1399Y329D01*
X400Y328D02*
X407Y328D01*
X1392Y328D02*
X1399Y328D01*
X400Y327D02*
X407Y327D01*
X1392Y327D02*
X1399Y327D01*
X400Y326D02*
X407Y326D01*
X1392Y326D02*
X1399Y326D01*
X400Y325D02*
X407Y325D01*
X1392Y325D02*
X1399Y325D01*
X400Y324D02*
X407Y324D01*
X1392Y324D02*
X1399Y324D01*
X400Y323D02*
X407Y323D01*
X1392Y323D02*
X1399Y323D01*
X400Y322D02*
X407Y322D01*
X1392Y322D02*
X1399Y322D01*
X400Y321D02*
X407Y321D01*
X1392Y321D02*
X1399Y321D01*
X400Y320D02*
X407Y320D01*
X1392Y320D02*
X1399Y320D01*
X400Y319D02*
X407Y319D01*
X1392Y319D02*
X1399Y319D01*
X400Y318D02*
X407Y318D01*
X1392Y318D02*
X1399Y318D01*
X400Y317D02*
X407Y317D01*
X1392Y317D02*
X1399Y317D01*
X400Y316D02*
X407Y316D01*
X1392Y316D02*
X1399Y316D01*
X400Y315D02*
X407Y315D01*
X1392Y315D02*
X1399Y315D01*
X400Y314D02*
X407Y314D01*
X1392Y314D02*
X1399Y314D01*
X400Y313D02*
X407Y313D01*
X1392Y313D02*
X1399Y313D01*
X400Y312D02*
X407Y312D01*
X1392Y312D02*
X1399Y312D01*
X400Y311D02*
X407Y311D01*
X1392Y311D02*
X1399Y311D01*
X400Y310D02*
X407Y310D01*
X1392Y310D02*
X1399Y310D01*
X400Y309D02*
X407Y309D01*
X1392Y309D02*
X1399Y309D01*
X400Y308D02*
X407Y308D01*
X1392Y308D02*
X1399Y308D01*
X400Y307D02*
X407Y307D01*
X1392Y307D02*
X1399Y307D01*
X400Y306D02*
X407Y306D01*
X1392Y306D02*
X1399Y306D01*
X400Y305D02*
X407Y305D01*
X1392Y305D02*
X1399Y305D01*
X400Y304D02*
X407Y304D01*
X1392Y304D02*
X1399Y304D01*
X400Y303D02*
X407Y303D01*
X1392Y303D02*
X1399Y303D01*
X400Y302D02*
X407Y302D01*
X1392Y302D02*
X1399Y302D01*
X400Y301D02*
X407Y301D01*
X1392Y301D02*
X1399Y301D01*
X400Y300D02*
X407Y300D01*
X1392Y300D02*
X1399Y300D01*
X400Y299D02*
X407Y299D01*
X1392Y299D02*
X1399Y299D01*
X400Y298D02*
X407Y298D01*
X1392Y298D02*
X1399Y298D01*
X400Y297D02*
X407Y297D01*
X1392Y297D02*
X1399Y297D01*
X400Y296D02*
X407Y296D01*
X1392Y296D02*
X1399Y296D01*
X400Y295D02*
X407Y295D01*
X1392Y295D02*
X1399Y295D01*
X400Y294D02*
X407Y294D01*
X1392Y294D02*
X1399Y294D01*
X400Y293D02*
X407Y293D01*
X1392Y293D02*
X1399Y293D01*
X400Y292D02*
X407Y292D01*
X1392Y292D02*
X1399Y292D01*
X400Y291D02*
X407Y291D01*
X1392Y291D02*
X1399Y291D01*
X400Y290D02*
X407Y290D01*
X1392Y290D02*
X1399Y290D01*
X400Y289D02*
X407Y289D01*
X1392Y289D02*
X1399Y289D01*
X400Y288D02*
X407Y288D01*
X1392Y288D02*
X1399Y288D01*
X400Y287D02*
X407Y287D01*
X1392Y287D02*
X1399Y287D01*
X400Y286D02*
X407Y286D01*
X1392Y286D02*
X1399Y286D01*
X400Y285D02*
X407Y285D01*
X1392Y285D02*
X1399Y285D01*
X400Y284D02*
X407Y284D01*
X1392Y284D02*
X1399Y284D01*
X400Y283D02*
X407Y283D01*
X1392Y283D02*
X1399Y283D01*
X400Y282D02*
X407Y282D01*
X1392Y282D02*
X1399Y282D01*
X400Y281D02*
X407Y281D01*
X1392Y281D02*
X1399Y281D01*
X400Y280D02*
X407Y280D01*
X1392Y280D02*
X1399Y280D01*
X400Y279D02*
X407Y279D01*
X1392Y279D02*
X1399Y279D01*
X400Y278D02*
X407Y278D01*
X1392Y278D02*
X1399Y278D01*
X400Y277D02*
X407Y277D01*
X1392Y277D02*
X1399Y277D01*
X400Y276D02*
X407Y276D01*
X1392Y276D02*
X1399Y276D01*
X400Y275D02*
X407Y275D01*
X1392Y275D02*
X1399Y275D01*
X400Y274D02*
X407Y274D01*
X1392Y274D02*
X1399Y274D01*
X400Y273D02*
X407Y273D01*
X1392Y273D02*
X1399Y273D01*
X400Y272D02*
X407Y272D01*
X1392Y272D02*
X1399Y272D01*
X400Y271D02*
X407Y271D01*
X1392Y271D02*
X1399Y271D01*
X400Y270D02*
X407Y270D01*
X1392Y270D02*
X1399Y270D01*
X400Y269D02*
X407Y269D01*
X1392Y269D02*
X1399Y269D01*
X400Y268D02*
X407Y268D01*
X1392Y268D02*
X1399Y268D01*
X400Y267D02*
X407Y267D01*
X1392Y267D02*
X1399Y267D01*
X400Y266D02*
X407Y266D01*
X1392Y266D02*
X1399Y266D01*
X400Y265D02*
X407Y265D01*
X1392Y265D02*
X1399Y265D01*
X400Y264D02*
X407Y264D01*
X1392Y264D02*
X1399Y264D01*
X400Y263D02*
X407Y263D01*
X1392Y263D02*
X1399Y263D01*
X400Y262D02*
X407Y262D01*
X1392Y262D02*
X1399Y262D01*
X400Y261D02*
X407Y261D01*
X1392Y261D02*
X1399Y261D01*
X400Y260D02*
X407Y260D01*
X1392Y260D02*
X1399Y260D01*
X400Y259D02*
X407Y259D01*
X1392Y259D02*
X1399Y259D01*
X400Y258D02*
X407Y258D01*
X1392Y258D02*
X1399Y258D01*
X400Y257D02*
X407Y257D01*
X1392Y257D02*
X1399Y257D01*
X400Y256D02*
X407Y256D01*
X1392Y256D02*
X1399Y256D01*
X400Y255D02*
X407Y255D01*
X1392Y255D02*
X1399Y255D01*
X400Y254D02*
X407Y254D01*
X1392Y254D02*
X1399Y254D01*
X400Y253D02*
X407Y253D01*
X1392Y253D02*
X1399Y253D01*
X400Y252D02*
X407Y252D01*
X1392Y252D02*
X1399Y252D01*
X400Y251D02*
X407Y251D01*
X1392Y251D02*
X1399Y251D01*
X400Y250D02*
X407Y250D01*
X1392Y250D02*
X1399Y250D01*
X400Y249D02*
X407Y249D01*
X1392Y249D02*
X1399Y249D01*
X400Y248D02*
X407Y248D01*
X1392Y248D02*
X1399Y248D01*
X400Y247D02*
X407Y247D01*
X1392Y247D02*
X1399Y247D01*
X400Y246D02*
X407Y246D01*
X1392Y246D02*
X1399Y246D01*
X400Y245D02*
X407Y245D01*
X1392Y245D02*
X1399Y245D01*
X400Y244D02*
X407Y244D01*
X1392Y244D02*
X1399Y244D01*
X400Y243D02*
X407Y243D01*
X1392Y243D02*
X1399Y243D01*
X400Y242D02*
X407Y242D01*
X1392Y242D02*
X1399Y242D01*
X400Y241D02*
X407Y241D01*
X1392Y241D02*
X1399Y241D01*
X400Y240D02*
X407Y240D01*
X1392Y240D02*
X1399Y240D01*
X400Y239D02*
X407Y239D01*
X1392Y239D02*
X1399Y239D01*
X400Y238D02*
X407Y238D01*
X1392Y238D02*
X1399Y238D01*
X400Y237D02*
X407Y237D01*
X1392Y237D02*
X1399Y237D01*
X400Y236D02*
X407Y236D01*
X1392Y236D02*
X1399Y236D01*
X400Y235D02*
X407Y235D01*
X1392Y235D02*
X1399Y235D01*
X400Y234D02*
X407Y234D01*
X1392Y234D02*
X1399Y234D01*
X400Y233D02*
X407Y233D01*
X1392Y233D02*
X1399Y233D01*
X400Y232D02*
X407Y232D01*
X1392Y232D02*
X1399Y232D01*
X400Y231D02*
X407Y231D01*
X1392Y231D02*
X1399Y231D01*
X400Y230D02*
X407Y230D01*
X1392Y230D02*
X1399Y230D01*
X400Y229D02*
X407Y229D01*
X1392Y229D02*
X1399Y229D01*
X400Y228D02*
X407Y228D01*
X1392Y228D02*
X1399Y228D01*
X400Y227D02*
X407Y227D01*
X1392Y227D02*
X1399Y227D01*
X400Y226D02*
X407Y226D01*
X1392Y226D02*
X1399Y226D01*
X400Y225D02*
X407Y225D01*
X1392Y225D02*
X1399Y225D01*
X400Y224D02*
X407Y224D01*
X1392Y224D02*
X1399Y224D01*
X400Y223D02*
X407Y223D01*
X1392Y223D02*
X1399Y223D01*
X400Y222D02*
X407Y222D01*
X1392Y222D02*
X1399Y222D01*
X400Y221D02*
X407Y221D01*
X1392Y221D02*
X1399Y221D01*
X400Y220D02*
X407Y220D01*
X1392Y220D02*
X1399Y220D01*
X400Y219D02*
X407Y219D01*
X1392Y219D02*
X1399Y219D01*
X400Y218D02*
X407Y218D01*
X1392Y218D02*
X1399Y218D01*
X400Y217D02*
X407Y217D01*
X1392Y217D02*
X1399Y217D01*
X400Y216D02*
X407Y216D01*
X1392Y216D02*
X1399Y216D01*
X400Y215D02*
X407Y215D01*
X1392Y215D02*
X1399Y215D01*
X400Y214D02*
X407Y214D01*
X1392Y214D02*
X1399Y214D01*
X400Y213D02*
X407Y213D01*
X1392Y213D02*
X1399Y213D01*
X400Y212D02*
X407Y212D01*
X1392Y212D02*
X1399Y212D01*
X400Y211D02*
X407Y211D01*
X1392Y211D02*
X1399Y211D01*
X400Y210D02*
X407Y210D01*
X1392Y210D02*
X1399Y210D01*
X400Y209D02*
X407Y209D01*
X1392Y209D02*
X1399Y209D01*
X400Y208D02*
X407Y208D01*
X1392Y208D02*
X1399Y208D01*
X400Y207D02*
X407Y207D01*
X1392Y207D02*
X1399Y207D01*
X400Y206D02*
X407Y206D01*
X1392Y206D02*
X1399Y206D01*
X400Y205D02*
X407Y205D01*
X1392Y205D02*
X1399Y205D01*
X400Y204D02*
X407Y204D01*
X1392Y204D02*
X1399Y204D01*
X400Y203D02*
X407Y203D01*
X1392Y203D02*
X1399Y203D01*
X400Y202D02*
X407Y202D01*
X1392Y202D02*
X1399Y202D01*
X400Y201D02*
X407Y201D01*
X1392Y201D02*
X1399Y201D01*
X400Y200D02*
X407Y200D01*
X1392Y200D02*
X1399Y200D01*
X400Y199D02*
X407Y199D01*
X1392Y199D02*
X1399Y199D01*
X400Y198D02*
X407Y198D01*
X1392Y198D02*
X1399Y198D01*
X400Y197D02*
X407Y197D01*
X1392Y197D02*
X1399Y197D01*
X400Y196D02*
X407Y196D01*
X1392Y196D02*
X1399Y196D01*
X400Y195D02*
X407Y195D01*
X1392Y195D02*
X1399Y195D01*
X400Y194D02*
X407Y194D01*
X1392Y194D02*
X1399Y194D01*
X400Y193D02*
X407Y193D01*
X1392Y193D02*
X1399Y193D01*
X400Y192D02*
X407Y192D01*
X1392Y192D02*
X1399Y192D01*
X400Y191D02*
X407Y191D01*
X1392Y191D02*
X1399Y191D01*
X400Y190D02*
X407Y190D01*
X1392Y190D02*
X1399Y190D01*
X400Y189D02*
X407Y189D01*
X1392Y189D02*
X1399Y189D01*
X400Y188D02*
X407Y188D01*
X1392Y188D02*
X1399Y188D01*
X400Y187D02*
X407Y187D01*
X1392Y187D02*
X1399Y187D01*
X400Y186D02*
X407Y186D01*
X1392Y186D02*
X1399Y186D01*
X400Y185D02*
X407Y185D01*
X1392Y185D02*
X1399Y185D01*
X400Y184D02*
X407Y184D01*
X1392Y184D02*
X1399Y184D01*
X400Y183D02*
X407Y183D01*
X1392Y183D02*
X1399Y183D01*
X400Y182D02*
X407Y182D01*
X1392Y182D02*
X1399Y182D01*
X400Y181D02*
X407Y181D01*
X1392Y181D02*
X1399Y181D01*
X400Y180D02*
X407Y180D01*
X1392Y180D02*
X1399Y180D01*
X400Y179D02*
X407Y179D01*
X1392Y179D02*
X1399Y179D01*
X400Y178D02*
X407Y178D01*
X1392Y178D02*
X1399Y178D01*
X400Y177D02*
X407Y177D01*
X1392Y177D02*
X1399Y177D01*
X400Y176D02*
X407Y176D01*
X1392Y176D02*
X1399Y176D01*
X400Y175D02*
X407Y175D01*
X1392Y175D02*
X1399Y175D01*
X400Y174D02*
X407Y174D01*
X1392Y174D02*
X1399Y174D01*
X400Y173D02*
X407Y173D01*
X1392Y173D02*
X1399Y173D01*
X400Y172D02*
X407Y172D01*
X1392Y172D02*
X1399Y172D01*
X400Y171D02*
X407Y171D01*
X1392Y171D02*
X1399Y171D01*
X400Y170D02*
X407Y170D01*
X1392Y170D02*
X1399Y170D01*
X400Y169D02*
X407Y169D01*
X1392Y169D02*
X1399Y169D01*
X400Y168D02*
X407Y168D01*
X1392Y168D02*
X1399Y168D01*
X400Y167D02*
X407Y167D01*
X1392Y167D02*
X1399Y167D01*
X400Y166D02*
X407Y166D01*
X1392Y166D02*
X1399Y166D01*
X400Y165D02*
X407Y165D01*
X1392Y165D02*
X1399Y165D01*
X400Y164D02*
X407Y164D01*
X1392Y164D02*
X1399Y164D01*
X400Y163D02*
X407Y163D01*
X1392Y163D02*
X1399Y163D01*
X400Y162D02*
X407Y162D01*
X1392Y162D02*
X1399Y162D01*
X400Y161D02*
X407Y161D01*
X1392Y161D02*
X1399Y161D01*
X400Y160D02*
X407Y160D01*
X1392Y160D02*
X1399Y160D01*
X400Y159D02*
X407Y159D01*
X1392Y159D02*
X1399Y159D01*
X400Y158D02*
X407Y158D01*
X1392Y158D02*
X1399Y158D01*
X400Y157D02*
X407Y157D01*
X1392Y157D02*
X1399Y157D01*
X400Y156D02*
X407Y156D01*
X1392Y156D02*
X1399Y156D01*
X400Y155D02*
X407Y155D01*
X1392Y155D02*
X1399Y155D01*
X400Y154D02*
X407Y154D01*
X1392Y154D02*
X1399Y154D01*
X400Y153D02*
X407Y153D01*
X1392Y153D02*
X1399Y153D01*
X400Y152D02*
X407Y152D01*
X1392Y152D02*
X1399Y152D01*
X400Y151D02*
X407Y151D01*
X1392Y151D02*
X1399Y151D01*
X400Y150D02*
X407Y150D01*
X1392Y150D02*
X1399Y150D01*
X400Y149D02*
X407Y149D01*
X1392Y149D02*
X1399Y149D01*
X400Y148D02*
X407Y148D01*
X1392Y148D02*
X1399Y148D01*
X401Y147D02*
X408Y147D01*
X1392Y147D02*
X1399Y147D01*
X401Y146D02*
X408Y146D01*
X1392Y146D02*
X1399Y146D01*
X401Y145D02*
X408Y145D01*
X1392Y145D02*
X1399Y145D01*
X401Y144D02*
X408Y144D01*
X1392Y144D02*
X1399Y144D01*
X401Y143D02*
X408Y143D01*
X1392Y143D02*
X1399Y143D01*
X401Y142D02*
X408Y142D01*
X1392Y142D02*
X1399Y142D01*
X401Y141D02*
X408Y141D01*
X1392Y141D02*
X1399Y141D01*
X401Y140D02*
X408Y140D01*
X1391Y140D02*
X1398Y140D01*
X401Y139D02*
X408Y139D01*
X1391Y139D02*
X1398Y139D01*
X401Y138D02*
X408Y138D01*
X1391Y138D02*
X1398Y138D01*
X402Y137D02*
X409Y137D01*
X1391Y137D02*
X1398Y137D01*
X402Y136D02*
X409Y136D01*
X1391Y136D02*
X1398Y136D01*
X402Y135D02*
X409Y135D01*
X1391Y135D02*
X1398Y135D01*
X402Y134D02*
X409Y134D01*
X1390Y134D02*
X1397Y134D01*
X402Y133D02*
X409Y133D01*
X1390Y133D02*
X1397Y133D01*
X403Y132D02*
X410Y132D01*
X1390Y132D02*
X1397Y132D01*
X403Y131D02*
X410Y131D01*
X1390Y131D02*
X1397Y131D01*
X403Y130D02*
X410Y130D01*
X1390Y130D02*
X1397Y130D01*
X403Y129D02*
X410Y129D01*
X1389Y129D02*
X1396Y129D01*
X404Y128D02*
X411Y128D01*
X1389Y128D02*
X1396Y128D01*
X404Y127D02*
X411Y127D01*
X1389Y127D02*
X1396Y127D01*
X404Y126D02*
X411Y126D01*
X1388Y126D02*
X1396Y126D01*
X404Y125D02*
X412Y125D01*
X1388Y125D02*
X1395Y125D01*
X405Y124D02*
X412Y124D01*
X1388Y124D02*
X1395Y124D01*
X405Y123D02*
X412Y123D01*
X1388Y123D02*
X1395Y123D01*
X405Y122D02*
X413Y122D01*
X1387Y122D02*
X1394Y122D01*
X406Y121D02*
X413Y121D01*
X1387Y121D02*
X1394Y121D01*
X406Y120D02*
X413Y120D01*
X1386Y120D02*
X1394Y120D01*
X406Y119D02*
X414Y119D01*
X1386Y119D02*
X1393Y119D01*
X407Y118D02*
X414Y118D01*
X1386Y118D02*
X1393Y118D01*
X407Y117D02*
X414Y117D01*
X1385Y117D02*
X1393Y117D01*
X407Y116D02*
X415Y116D01*
X1385Y116D02*
X1392Y116D01*
X408Y115D02*
X415Y115D01*
X1384Y115D02*
X1392Y115D01*
X408Y114D02*
X416Y114D01*
X1384Y114D02*
X1391Y114D01*
X409Y113D02*
X416Y113D01*
X1383Y113D02*
X1391Y113D01*
X409Y112D02*
X417Y112D01*
X1383Y112D02*
X1391Y112D01*
X409Y111D02*
X417Y111D01*
X1382Y111D02*
X1390Y111D01*
X410Y110D02*
X418Y110D01*
X1382Y110D02*
X1390Y110D01*
X410Y109D02*
X418Y109D01*
X1381Y109D02*
X1389Y109D01*
X411Y108D02*
X419Y108D01*
X1381Y108D02*
X1389Y108D01*
X411Y107D02*
X419Y107D01*
X1380Y107D02*
X1388Y107D01*
X412Y106D02*
X420Y106D01*
X1380Y106D02*
X1388Y106D01*
X412Y105D02*
X421Y105D01*
X1379Y105D02*
X1387Y105D01*
X413Y104D02*
X421Y104D01*
X1378Y104D02*
X1387Y104D01*
X414Y103D02*
X422Y103D01*
X1378Y103D02*
X1386Y103D01*
X414Y102D02*
X422Y102D01*
X1377Y102D02*
X1386Y102D01*
X415Y101D02*
X423Y101D01*
X1376Y101D02*
X1385Y101D01*
X415Y100D02*
X424Y100D01*
X1376Y100D02*
X1384Y100D01*
X416Y99D02*
X425Y99D01*
X1375Y99D02*
X1384Y99D01*
X417Y98D02*
X425Y98D01*
X1374Y98D02*
X1383Y98D01*
X417Y97D02*
X426Y97D01*
X1374Y97D02*
X1382Y97D01*
X418Y96D02*
X427Y96D01*
X1373Y96D02*
X1382Y96D01*
X419Y95D02*
X428Y95D01*
X1372Y95D02*
X1381Y95D01*
X419Y94D02*
X428Y94D01*
X1371Y94D02*
X1380Y94D01*
X420Y93D02*
X429Y93D01*
X1370Y93D02*
X1380Y93D01*
X421Y92D02*
X430Y92D01*
X1369Y92D02*
X1379Y92D01*
X422Y91D02*
X431Y91D01*
X1369Y91D02*
X1378Y91D01*
X422Y90D02*
X432Y90D01*
X1368Y90D02*
X1377Y90D01*
X423Y89D02*
X433Y89D01*
X1367Y89D02*
X1376Y89D01*
X424Y88D02*
X434Y88D01*
X1366Y88D02*
X1376Y88D01*
X425Y87D02*
X435Y87D01*
X1365Y87D02*
X1375Y87D01*
X426Y86D02*
X436Y86D01*
X1364Y86D02*
X1374Y86D01*
X427Y85D02*
X437Y85D01*
X1363Y85D02*
X1373Y85D01*
X428Y84D02*
X438Y84D01*
X1361Y84D02*
X1372Y84D01*
X429Y83D02*
X439Y83D01*
X1360Y83D02*
X1371Y83D01*
X430Y82D02*
X440Y82D01*
X1359Y82D02*
X1370Y82D01*
X431Y81D02*
X442Y81D01*
X1358Y81D02*
X1369Y81D01*
X432Y80D02*
X443Y80D01*
X1357Y80D02*
X1368Y80D01*
X433Y79D02*
X444Y79D01*
X1355Y79D02*
X1367Y79D01*
X434Y78D02*
X446Y78D01*
X1354Y78D02*
X1366Y78D01*
X435Y77D02*
X447Y77D01*
X1353Y77D02*
X1365Y77D01*
X436Y76D02*
X448Y76D01*
X1351Y76D02*
X1364Y76D01*
X437Y75D02*
X450Y75D01*
X1350Y75D02*
X1362Y75D01*
X439Y74D02*
X452Y74D01*
X1348Y74D02*
X1361Y74D01*
X440Y73D02*
X453Y73D01*
X1346Y73D02*
X1360Y73D01*
X441Y72D02*
X455Y72D01*
X1345Y72D02*
X1358Y72D01*
X443Y71D02*
X457Y71D01*
X1343Y71D02*
X1357Y71D01*
X444Y70D02*
X459Y70D01*
X1341Y70D02*
X1356Y70D01*
X446Y69D02*
X461Y69D01*
X1339Y69D02*
X1354Y69D01*
X447Y68D02*
X463Y68D01*
X1336Y68D02*
X1353Y68D01*
X449Y67D02*
X465Y67D01*
X1334Y67D02*
X1351Y67D01*
X450Y66D02*
X468Y66D01*
X1332Y66D02*
X1349Y66D01*
X452Y65D02*
X471Y65D01*
X1329Y65D02*
X1347Y65D01*
X454Y64D02*
X474Y64D01*
X1325Y64D02*
X1346Y64D01*
X456Y63D02*
X478Y63D01*
X1321Y63D02*
X1344Y63D01*
X458Y62D02*
X483Y62D01*
X1317Y62D02*
X1341Y62D01*
X460Y61D02*
X491Y61D01*
X1309Y61D02*
X1339Y61D01*
X463Y60D02*
X1337Y60D01*
X465Y59D02*
X1334Y59D01*
X468Y58D02*
X1331Y58D01*
X471Y57D02*
X1328Y57D01*
X475Y56D02*
X1325Y56D01*
X479Y55D02*
X1321Y55D01*
X484Y54D02*
X1316Y54D01*
X492Y53D02*
X1308Y53D01*
D02*
G04 End of Silk1*
M02*