G04 MADE WITH FRITZING*
G04 WWW.FRITZING.ORG*
G04 DOUBLE SIDED*
G04 HOLES PLATED*
G04 CONTOUR ON CENTER OF CONTOUR VECTOR*
%ASAXBY*%
%FSLAX23Y23*%
%MOIN*%
%OFA0B0*%
%SFA1.0B1.0*%
%ADD10C,0.047622X-0.000378*%
%ADD11R,2.100290X1.089860X2.084290X1.073860*%
%ADD12C,0.008000*%
%ADD13C,0.005000*%
%ADD14R,0.001000X0.001000*%
%LNSILK1*%
G90*
G70*
G54D10*
X1040Y200D03*
G54D12*
X4Y1086D02*
X2096Y1086D01*
X2096Y4D01*
X4Y4D01*
X4Y1086D01*
D02*
G54D13*
X1059Y279D02*
X1059Y342D01*
D02*
X737Y279D02*
X737Y342D01*
D02*
X918Y235D02*
X839Y235D01*
D02*
X839Y700D02*
X957Y700D01*
D02*
X737Y594D02*
X737Y657D01*
D02*
X1059Y594D02*
X1059Y657D01*
D02*
X1773Y348D02*
X1993Y348D01*
D02*
X1773Y748D02*
X1993Y748D01*
D02*
X1773Y748D02*
X1773Y348D01*
D02*
X1993Y748D02*
X1993Y698D01*
D02*
X1993Y698D02*
X1993Y398D01*
D02*
X1993Y398D02*
X1993Y348D01*
D02*
X1993Y398D02*
X1943Y398D01*
D02*
X1943Y398D02*
X1943Y698D01*
D02*
X1943Y698D02*
X1993Y698D01*
G54D14*
X325Y1090D02*
X344Y1090D01*
X323Y1089D02*
X346Y1089D01*
X322Y1088D02*
X347Y1088D01*
X321Y1087D02*
X348Y1087D01*
X320Y1086D02*
X349Y1086D01*
X319Y1085D02*
X349Y1085D01*
X319Y1084D02*
X350Y1084D01*
X319Y1083D02*
X326Y1083D01*
X343Y1083D02*
X350Y1083D01*
X318Y1082D02*
X325Y1082D01*
X344Y1082D02*
X350Y1082D01*
X318Y1081D02*
X324Y1081D01*
X344Y1081D02*
X351Y1081D01*
X318Y1080D02*
X324Y1080D01*
X345Y1080D02*
X351Y1080D01*
X318Y1079D02*
X324Y1079D01*
X345Y1079D02*
X351Y1079D01*
X318Y1078D02*
X324Y1078D01*
X345Y1078D02*
X351Y1078D01*
X318Y1077D02*
X324Y1077D01*
X345Y1077D02*
X351Y1077D01*
X318Y1076D02*
X324Y1076D01*
X345Y1076D02*
X351Y1076D01*
X318Y1075D02*
X324Y1075D01*
X345Y1075D02*
X351Y1075D01*
X318Y1074D02*
X324Y1074D01*
X345Y1074D02*
X351Y1074D01*
X318Y1073D02*
X324Y1073D01*
X345Y1073D02*
X351Y1073D01*
X318Y1072D02*
X324Y1072D01*
X345Y1072D02*
X351Y1072D01*
X318Y1071D02*
X324Y1071D01*
X345Y1071D02*
X351Y1071D01*
X318Y1070D02*
X324Y1070D01*
X345Y1070D02*
X351Y1070D01*
X318Y1069D02*
X324Y1069D01*
X345Y1069D02*
X351Y1069D01*
X318Y1068D02*
X324Y1068D01*
X345Y1068D02*
X351Y1068D01*
X318Y1067D02*
X324Y1067D01*
X345Y1067D02*
X351Y1067D01*
X318Y1066D02*
X324Y1066D01*
X345Y1066D02*
X351Y1066D01*
X318Y1065D02*
X324Y1065D01*
X345Y1065D02*
X351Y1065D01*
X318Y1064D02*
X324Y1064D01*
X345Y1064D02*
X351Y1064D01*
X318Y1063D02*
X368Y1063D01*
X318Y1062D02*
X370Y1062D01*
X318Y1061D02*
X371Y1061D01*
X318Y1060D02*
X371Y1060D01*
X318Y1059D02*
X371Y1059D01*
X318Y1058D02*
X371Y1058D01*
X318Y1057D02*
X370Y1057D01*
X491Y1048D02*
X1304Y1048D01*
X482Y1047D02*
X1312Y1047D01*
X477Y1046D02*
X1318Y1046D01*
X473Y1045D02*
X1322Y1045D01*
X469Y1044D02*
X1326Y1044D01*
X466Y1043D02*
X1329Y1043D01*
X463Y1042D02*
X1331Y1042D01*
X461Y1041D02*
X1334Y1041D01*
X458Y1040D02*
X490Y1040D01*
X1305Y1040D02*
X1336Y1040D01*
X456Y1039D02*
X481Y1039D01*
X1313Y1039D02*
X1339Y1039D01*
X454Y1038D02*
X476Y1038D01*
X1319Y1038D02*
X1341Y1038D01*
X452Y1037D02*
X472Y1037D01*
X1323Y1037D02*
X1343Y1037D01*
X450Y1036D02*
X469Y1036D01*
X1326Y1036D02*
X1345Y1036D01*
X448Y1035D02*
X466Y1035D01*
X1329Y1035D02*
X1347Y1035D01*
X447Y1034D02*
X463Y1034D01*
X1332Y1034D02*
X1348Y1034D01*
X445Y1033D02*
X461Y1033D01*
X1334Y1033D02*
X1350Y1033D01*
X443Y1032D02*
X459Y1032D01*
X1336Y1032D02*
X1352Y1032D01*
X442Y1031D02*
X457Y1031D01*
X1338Y1031D02*
X1353Y1031D01*
X440Y1030D02*
X454Y1030D01*
X1340Y1030D02*
X1354Y1030D01*
X439Y1029D02*
X453Y1029D01*
X1342Y1029D02*
X1356Y1029D01*
X438Y1028D02*
X451Y1028D01*
X1344Y1028D02*
X1357Y1028D01*
X436Y1027D02*
X449Y1027D01*
X1345Y1027D02*
X1358Y1027D01*
X435Y1026D02*
X448Y1026D01*
X1347Y1026D02*
X1360Y1026D01*
X434Y1025D02*
X446Y1025D01*
X1349Y1025D02*
X1361Y1025D01*
X433Y1024D02*
X445Y1024D01*
X1350Y1024D02*
X1362Y1024D01*
X431Y1023D02*
X443Y1023D01*
X1351Y1023D02*
X1363Y1023D01*
X430Y1022D02*
X442Y1022D01*
X1353Y1022D02*
X1364Y1022D01*
X429Y1021D02*
X441Y1021D01*
X1354Y1021D02*
X1365Y1021D01*
X428Y1020D02*
X439Y1020D01*
X1356Y1020D02*
X1367Y1020D01*
X427Y1019D02*
X438Y1019D01*
X1357Y1019D02*
X1368Y1019D01*
X426Y1018D02*
X437Y1018D01*
X1358Y1018D02*
X1369Y1018D01*
X425Y1017D02*
X436Y1017D01*
X1359Y1017D02*
X1370Y1017D01*
X424Y1016D02*
X435Y1016D01*
X1360Y1016D02*
X1370Y1016D01*
X423Y1015D02*
X434Y1015D01*
X1361Y1015D02*
X1371Y1015D01*
X423Y1014D02*
X433Y1014D01*
X1362Y1014D02*
X1372Y1014D01*
X422Y1013D02*
X432Y1013D01*
X1363Y1013D02*
X1373Y1013D01*
X421Y1012D02*
X431Y1012D01*
X1364Y1012D02*
X1374Y1012D01*
X420Y1011D02*
X430Y1011D01*
X1365Y1011D02*
X1375Y1011D01*
X419Y1010D02*
X429Y1010D01*
X1366Y1010D02*
X1376Y1010D01*
X418Y1009D02*
X428Y1009D01*
X1367Y1009D02*
X1376Y1009D01*
X418Y1008D02*
X427Y1008D01*
X1368Y1008D02*
X1377Y1008D01*
X417Y1007D02*
X426Y1007D01*
X1369Y1007D02*
X1378Y1007D01*
X416Y1006D02*
X425Y1006D01*
X1370Y1006D02*
X1378Y1006D01*
X416Y1005D02*
X424Y1005D01*
X1370Y1005D02*
X1379Y1005D01*
X415Y1004D02*
X424Y1004D01*
X1371Y1004D02*
X1380Y1004D01*
X414Y1003D02*
X423Y1003D01*
X1372Y1003D02*
X1381Y1003D01*
X414Y1002D02*
X422Y1002D01*
X1372Y1002D02*
X1381Y1002D01*
X413Y1001D02*
X422Y1001D01*
X1373Y1001D02*
X1382Y1001D01*
X412Y1000D02*
X421Y1000D01*
X1374Y1000D02*
X1382Y1000D01*
X412Y999D02*
X420Y999D01*
X1375Y999D02*
X1383Y999D01*
X411Y998D02*
X419Y998D01*
X1375Y998D02*
X1384Y998D01*
X411Y997D02*
X419Y997D01*
X1376Y997D02*
X1384Y997D01*
X410Y996D02*
X418Y996D01*
X1376Y996D02*
X1385Y996D01*
X410Y995D02*
X418Y995D01*
X1377Y995D02*
X1385Y995D01*
X409Y994D02*
X417Y994D01*
X1378Y994D02*
X1386Y994D01*
X409Y993D02*
X417Y993D01*
X1378Y993D02*
X1386Y993D01*
X408Y992D02*
X416Y992D01*
X1379Y992D02*
X1387Y992D01*
X408Y991D02*
X415Y991D01*
X1379Y991D02*
X1387Y991D01*
X407Y990D02*
X415Y990D01*
X1380Y990D02*
X1388Y990D01*
X407Y989D02*
X414Y989D01*
X1380Y989D02*
X1388Y989D01*
X406Y988D02*
X414Y988D01*
X1381Y988D02*
X1389Y988D01*
X406Y987D02*
X413Y987D01*
X1381Y987D02*
X1389Y987D01*
X405Y986D02*
X413Y986D01*
X1382Y986D02*
X1389Y986D01*
X405Y985D02*
X413Y985D01*
X1382Y985D02*
X1390Y985D01*
X405Y984D02*
X412Y984D01*
X1383Y984D02*
X1390Y984D01*
X404Y983D02*
X412Y983D01*
X1383Y983D02*
X1391Y983D01*
X404Y982D02*
X411Y982D01*
X1384Y982D02*
X1391Y982D01*
X403Y981D02*
X411Y981D01*
X1384Y981D02*
X1391Y981D01*
X403Y980D02*
X410Y980D01*
X1384Y980D02*
X1392Y980D01*
X403Y979D02*
X410Y979D01*
X1385Y979D02*
X1392Y979D01*
X403Y978D02*
X410Y978D01*
X1385Y978D02*
X1392Y978D01*
X402Y977D02*
X409Y977D01*
X1385Y977D02*
X1393Y977D01*
X402Y976D02*
X409Y976D01*
X1386Y976D02*
X1393Y976D01*
X402Y975D02*
X409Y975D01*
X1386Y975D02*
X1393Y975D01*
X401Y974D02*
X408Y974D01*
X1386Y974D02*
X1393Y974D01*
X401Y973D02*
X408Y973D01*
X1387Y973D02*
X1394Y973D01*
X401Y972D02*
X408Y972D01*
X1387Y972D02*
X1394Y972D01*
X401Y971D02*
X408Y971D01*
X1387Y971D02*
X1394Y971D01*
X400Y970D02*
X407Y970D01*
X1387Y970D02*
X1394Y970D01*
X400Y969D02*
X407Y969D01*
X1388Y969D02*
X1395Y969D01*
X400Y968D02*
X407Y968D01*
X1388Y968D02*
X1395Y968D01*
X400Y967D02*
X407Y967D01*
X1388Y967D02*
X1395Y967D01*
X400Y966D02*
X407Y966D01*
X1388Y966D02*
X1395Y966D01*
X399Y965D02*
X406Y965D01*
X1388Y965D02*
X1395Y965D01*
X399Y964D02*
X406Y964D01*
X1389Y964D02*
X1396Y964D01*
X399Y963D02*
X406Y963D01*
X1389Y963D02*
X1396Y963D01*
X399Y962D02*
X406Y962D01*
X1389Y962D02*
X1396Y962D01*
X399Y961D02*
X406Y961D01*
X1389Y961D02*
X1396Y961D01*
X399Y960D02*
X406Y960D01*
X1389Y960D02*
X1396Y960D01*
X399Y959D02*
X405Y959D01*
X1389Y959D02*
X1396Y959D01*
X398Y958D02*
X405Y958D01*
X1389Y958D02*
X1396Y958D01*
X398Y957D02*
X405Y957D01*
X1389Y957D02*
X1396Y957D01*
X398Y956D02*
X405Y956D01*
X1390Y956D02*
X1397Y956D01*
X398Y955D02*
X405Y955D01*
X1390Y955D02*
X1397Y955D01*
X398Y954D02*
X405Y954D01*
X1390Y954D02*
X1397Y954D01*
X398Y953D02*
X405Y953D01*
X1390Y953D02*
X1397Y953D01*
X398Y952D02*
X405Y952D01*
X1390Y952D02*
X1397Y952D01*
X398Y951D02*
X405Y951D01*
X1390Y951D02*
X1397Y951D01*
X398Y950D02*
X405Y950D01*
X1390Y950D02*
X1397Y950D01*
X398Y949D02*
X405Y949D01*
X1390Y949D02*
X1397Y949D01*
X398Y948D02*
X405Y948D01*
X1390Y948D02*
X1397Y948D01*
X398Y947D02*
X405Y947D01*
X1390Y947D02*
X1397Y947D01*
X398Y946D02*
X405Y946D01*
X1390Y946D02*
X1397Y946D01*
X398Y945D02*
X405Y945D01*
X1390Y945D02*
X1397Y945D01*
X398Y944D02*
X405Y944D01*
X1390Y944D02*
X1397Y944D01*
X398Y943D02*
X405Y943D01*
X1390Y943D02*
X1397Y943D01*
X398Y942D02*
X405Y942D01*
X1390Y942D02*
X1397Y942D01*
X398Y941D02*
X405Y941D01*
X1390Y941D02*
X1397Y941D01*
X398Y940D02*
X405Y940D01*
X1390Y940D02*
X1397Y940D01*
X398Y939D02*
X405Y939D01*
X1390Y939D02*
X1397Y939D01*
X398Y938D02*
X405Y938D01*
X1390Y938D02*
X1397Y938D01*
X398Y937D02*
X405Y937D01*
X1390Y937D02*
X1397Y937D01*
X398Y936D02*
X405Y936D01*
X1390Y936D02*
X1397Y936D01*
X398Y935D02*
X405Y935D01*
X1390Y935D02*
X1397Y935D01*
X398Y934D02*
X405Y934D01*
X1390Y934D02*
X1397Y934D01*
X398Y933D02*
X405Y933D01*
X1390Y933D02*
X1397Y933D01*
X398Y932D02*
X405Y932D01*
X1390Y932D02*
X1397Y932D01*
X398Y931D02*
X405Y931D01*
X1390Y931D02*
X1397Y931D01*
X398Y930D02*
X405Y930D01*
X1390Y930D02*
X1397Y930D01*
X398Y929D02*
X405Y929D01*
X1390Y929D02*
X1397Y929D01*
X398Y928D02*
X405Y928D01*
X1390Y928D02*
X1397Y928D01*
X398Y927D02*
X405Y927D01*
X1390Y927D02*
X1397Y927D01*
X398Y926D02*
X405Y926D01*
X1390Y926D02*
X1397Y926D01*
X398Y925D02*
X405Y925D01*
X1390Y925D02*
X1397Y925D01*
X398Y924D02*
X405Y924D01*
X1390Y924D02*
X1397Y924D01*
X398Y923D02*
X405Y923D01*
X1390Y923D02*
X1397Y923D01*
X398Y922D02*
X405Y922D01*
X1390Y922D02*
X1397Y922D01*
X398Y921D02*
X405Y921D01*
X1390Y921D02*
X1397Y921D01*
X398Y920D02*
X405Y920D01*
X1390Y920D02*
X1397Y920D01*
X398Y919D02*
X405Y919D01*
X1390Y919D02*
X1397Y919D01*
X398Y918D02*
X405Y918D01*
X1390Y918D02*
X1397Y918D01*
X398Y917D02*
X405Y917D01*
X1390Y917D02*
X1397Y917D01*
X398Y916D02*
X405Y916D01*
X1390Y916D02*
X1397Y916D01*
X398Y915D02*
X405Y915D01*
X1390Y915D02*
X1397Y915D01*
X398Y914D02*
X405Y914D01*
X1390Y914D02*
X1397Y914D01*
X398Y913D02*
X405Y913D01*
X1390Y913D02*
X1397Y913D01*
X398Y912D02*
X405Y912D01*
X1390Y912D02*
X1397Y912D01*
X398Y911D02*
X405Y911D01*
X1390Y911D02*
X1397Y911D01*
X398Y910D02*
X405Y910D01*
X1390Y910D02*
X1397Y910D01*
X398Y909D02*
X405Y909D01*
X1390Y909D02*
X1397Y909D01*
X398Y908D02*
X405Y908D01*
X1390Y908D02*
X1397Y908D01*
X398Y907D02*
X405Y907D01*
X1390Y907D02*
X1397Y907D01*
X398Y906D02*
X405Y906D01*
X1390Y906D02*
X1397Y906D01*
X398Y905D02*
X405Y905D01*
X1390Y905D02*
X1397Y905D01*
X398Y904D02*
X405Y904D01*
X1390Y904D02*
X1397Y904D01*
X398Y903D02*
X405Y903D01*
X1390Y903D02*
X1397Y903D01*
X398Y902D02*
X405Y902D01*
X1390Y902D02*
X1397Y902D01*
X398Y901D02*
X405Y901D01*
X1390Y901D02*
X1397Y901D01*
X398Y900D02*
X405Y900D01*
X1390Y900D02*
X1397Y900D01*
X398Y899D02*
X405Y899D01*
X1390Y899D02*
X1397Y899D01*
X398Y898D02*
X405Y898D01*
X1390Y898D02*
X1397Y898D01*
X398Y897D02*
X405Y897D01*
X1390Y897D02*
X1397Y897D01*
X398Y896D02*
X405Y896D01*
X1390Y896D02*
X1397Y896D01*
X398Y895D02*
X405Y895D01*
X1390Y895D02*
X1397Y895D01*
X398Y894D02*
X405Y894D01*
X1390Y894D02*
X1397Y894D01*
X398Y893D02*
X405Y893D01*
X1390Y893D02*
X1397Y893D01*
X1696Y893D02*
X1715Y893D01*
X1740Y893D02*
X1741Y893D01*
X398Y892D02*
X405Y892D01*
X1390Y892D02*
X1397Y892D01*
X1693Y892D02*
X1717Y892D01*
X1738Y892D02*
X1743Y892D01*
X398Y891D02*
X405Y891D01*
X1390Y891D02*
X1397Y891D01*
X1692Y891D02*
X1718Y891D01*
X1738Y891D02*
X1743Y891D01*
X398Y890D02*
X405Y890D01*
X1390Y890D02*
X1397Y890D01*
X1692Y890D02*
X1719Y890D01*
X1738Y890D02*
X1744Y890D01*
X398Y889D02*
X405Y889D01*
X1390Y889D02*
X1397Y889D01*
X1691Y889D02*
X1719Y889D01*
X1738Y889D02*
X1744Y889D01*
X398Y888D02*
X405Y888D01*
X1390Y888D02*
X1397Y888D01*
X1691Y888D02*
X1720Y888D01*
X1738Y888D02*
X1744Y888D01*
X398Y887D02*
X405Y887D01*
X1390Y887D02*
X1397Y887D01*
X1690Y887D02*
X1720Y887D01*
X1738Y887D02*
X1744Y887D01*
X398Y886D02*
X405Y886D01*
X1390Y886D02*
X1397Y886D01*
X1690Y886D02*
X1697Y886D01*
X1714Y886D02*
X1720Y886D01*
X1738Y886D02*
X1744Y886D01*
X398Y885D02*
X405Y885D01*
X1390Y885D02*
X1397Y885D01*
X1690Y885D02*
X1696Y885D01*
X1714Y885D02*
X1720Y885D01*
X1738Y885D02*
X1744Y885D01*
X398Y884D02*
X405Y884D01*
X1390Y884D02*
X1397Y884D01*
X1690Y884D02*
X1696Y884D01*
X1714Y884D02*
X1720Y884D01*
X1738Y884D02*
X1744Y884D01*
X398Y883D02*
X405Y883D01*
X1390Y883D02*
X1397Y883D01*
X1690Y883D02*
X1696Y883D01*
X1714Y883D02*
X1720Y883D01*
X1738Y883D02*
X1744Y883D01*
X398Y882D02*
X405Y882D01*
X1390Y882D02*
X1397Y882D01*
X1690Y882D02*
X1696Y882D01*
X1714Y882D02*
X1720Y882D01*
X1738Y882D02*
X1744Y882D01*
X398Y881D02*
X405Y881D01*
X1390Y881D02*
X1397Y881D01*
X1690Y881D02*
X1696Y881D01*
X1714Y881D02*
X1720Y881D01*
X1738Y881D02*
X1744Y881D01*
X398Y880D02*
X405Y880D01*
X1390Y880D02*
X1397Y880D01*
X1690Y880D02*
X1696Y880D01*
X1714Y880D02*
X1720Y880D01*
X1738Y880D02*
X1744Y880D01*
X398Y879D02*
X405Y879D01*
X1390Y879D02*
X1397Y879D01*
X1690Y879D02*
X1696Y879D01*
X1714Y879D02*
X1720Y879D01*
X1738Y879D02*
X1744Y879D01*
X398Y878D02*
X405Y878D01*
X1390Y878D02*
X1397Y878D01*
X1690Y878D02*
X1696Y878D01*
X1714Y878D02*
X1720Y878D01*
X1738Y878D02*
X1744Y878D01*
X398Y877D02*
X405Y877D01*
X1390Y877D02*
X1397Y877D01*
X1690Y877D02*
X1696Y877D01*
X1714Y877D02*
X1720Y877D01*
X1738Y877D02*
X1744Y877D01*
X398Y876D02*
X405Y876D01*
X1390Y876D02*
X1397Y876D01*
X1690Y876D02*
X1696Y876D01*
X1714Y876D02*
X1720Y876D01*
X1738Y876D02*
X1744Y876D01*
X398Y875D02*
X405Y875D01*
X1390Y875D02*
X1397Y875D01*
X1690Y875D02*
X1696Y875D01*
X1714Y875D02*
X1720Y875D01*
X1738Y875D02*
X1744Y875D01*
X398Y874D02*
X405Y874D01*
X1390Y874D02*
X1397Y874D01*
X1690Y874D02*
X1696Y874D01*
X1714Y874D02*
X1720Y874D01*
X1738Y874D02*
X1744Y874D01*
X398Y873D02*
X405Y873D01*
X1390Y873D02*
X1397Y873D01*
X1690Y873D02*
X1696Y873D01*
X1714Y873D02*
X1720Y873D01*
X1738Y873D02*
X1744Y873D01*
X398Y872D02*
X405Y872D01*
X1390Y872D02*
X1397Y872D01*
X1690Y872D02*
X1696Y872D01*
X1714Y872D02*
X1720Y872D01*
X1738Y872D02*
X1744Y872D01*
X398Y871D02*
X405Y871D01*
X1390Y871D02*
X1397Y871D01*
X1690Y871D02*
X1696Y871D01*
X1714Y871D02*
X1720Y871D01*
X1738Y871D02*
X1744Y871D01*
X398Y870D02*
X405Y870D01*
X1390Y870D02*
X1397Y870D01*
X1690Y870D02*
X1696Y870D01*
X1714Y870D02*
X1720Y870D01*
X1738Y870D02*
X1744Y870D01*
X398Y869D02*
X405Y869D01*
X1390Y869D02*
X1397Y869D01*
X1690Y869D02*
X1696Y869D01*
X1714Y869D02*
X1720Y869D01*
X1738Y869D02*
X1744Y869D01*
X398Y868D02*
X405Y868D01*
X1390Y868D02*
X1397Y868D01*
X1690Y868D02*
X1696Y868D01*
X1714Y868D02*
X1720Y868D01*
X1738Y868D02*
X1744Y868D01*
X398Y867D02*
X405Y867D01*
X1390Y867D02*
X1397Y867D01*
X1690Y867D02*
X1696Y867D01*
X1714Y867D02*
X1720Y867D01*
X1738Y867D02*
X1744Y867D01*
X398Y866D02*
X405Y866D01*
X1390Y866D02*
X1397Y866D01*
X1690Y866D02*
X1696Y866D01*
X1714Y866D02*
X1720Y866D01*
X1737Y866D02*
X1744Y866D01*
X398Y865D02*
X405Y865D01*
X1390Y865D02*
X1397Y865D01*
X1690Y865D02*
X1696Y865D01*
X1714Y865D02*
X1744Y865D01*
X398Y864D02*
X405Y864D01*
X1390Y864D02*
X1397Y864D01*
X1690Y864D02*
X1696Y864D01*
X1714Y864D02*
X1744Y864D01*
X398Y863D02*
X405Y863D01*
X1390Y863D02*
X1397Y863D01*
X1690Y863D02*
X1696Y863D01*
X1715Y863D02*
X1744Y863D01*
X398Y862D02*
X405Y862D01*
X1390Y862D02*
X1397Y862D01*
X1690Y862D02*
X1696Y862D01*
X1715Y862D02*
X1744Y862D01*
X398Y861D02*
X405Y861D01*
X1390Y861D02*
X1397Y861D01*
X1691Y861D02*
X1696Y861D01*
X1716Y861D02*
X1744Y861D01*
X398Y860D02*
X405Y860D01*
X1390Y860D02*
X1397Y860D01*
X1691Y860D02*
X1696Y860D01*
X1717Y860D02*
X1744Y860D01*
X398Y859D02*
X405Y859D01*
X1390Y859D02*
X1397Y859D01*
X1693Y859D02*
X1694Y859D01*
X1719Y859D02*
X1743Y859D01*
X398Y858D02*
X405Y858D01*
X1390Y858D02*
X1397Y858D01*
X398Y857D02*
X405Y857D01*
X1390Y857D02*
X1397Y857D01*
X398Y856D02*
X405Y856D01*
X1390Y856D02*
X1397Y856D01*
X398Y855D02*
X405Y855D01*
X1390Y855D02*
X1397Y855D01*
X398Y854D02*
X405Y854D01*
X1390Y854D02*
X1397Y854D01*
X398Y853D02*
X405Y853D01*
X1390Y853D02*
X1397Y853D01*
X398Y852D02*
X405Y852D01*
X1390Y852D02*
X1397Y852D01*
X398Y851D02*
X405Y851D01*
X1390Y851D02*
X1397Y851D01*
X398Y850D02*
X405Y850D01*
X1390Y850D02*
X1397Y850D01*
X398Y849D02*
X405Y849D01*
X1390Y849D02*
X1397Y849D01*
X398Y848D02*
X405Y848D01*
X1390Y848D02*
X1397Y848D01*
X398Y847D02*
X405Y847D01*
X1390Y847D02*
X1397Y847D01*
X398Y846D02*
X405Y846D01*
X1390Y846D02*
X1397Y846D01*
X398Y845D02*
X405Y845D01*
X1390Y845D02*
X1397Y845D01*
X398Y844D02*
X405Y844D01*
X1390Y844D02*
X1397Y844D01*
X398Y843D02*
X405Y843D01*
X1390Y843D02*
X1397Y843D01*
X1698Y843D02*
X1715Y843D01*
X398Y842D02*
X405Y842D01*
X1390Y842D02*
X1397Y842D01*
X1696Y842D02*
X1717Y842D01*
X398Y841D02*
X405Y841D01*
X1390Y841D02*
X1397Y841D01*
X1694Y841D02*
X1719Y841D01*
X398Y840D02*
X405Y840D01*
X1390Y840D02*
X1397Y840D01*
X1693Y840D02*
X1720Y840D01*
X398Y839D02*
X405Y839D01*
X1390Y839D02*
X1397Y839D01*
X1693Y839D02*
X1721Y839D01*
X398Y838D02*
X405Y838D01*
X1390Y838D02*
X1397Y838D01*
X1692Y838D02*
X1721Y838D01*
X398Y837D02*
X405Y837D01*
X1390Y837D02*
X1397Y837D01*
X1691Y837D02*
X1722Y837D01*
X398Y836D02*
X405Y836D01*
X1390Y836D02*
X1397Y836D01*
X1691Y836D02*
X1699Y836D01*
X1715Y836D02*
X1722Y836D01*
X398Y835D02*
X405Y835D01*
X1390Y835D02*
X1397Y835D01*
X1691Y835D02*
X1697Y835D01*
X1716Y835D02*
X1723Y835D01*
X398Y834D02*
X405Y834D01*
X1390Y834D02*
X1397Y834D01*
X1691Y834D02*
X1697Y834D01*
X1717Y834D02*
X1723Y834D01*
X398Y833D02*
X405Y833D01*
X1390Y833D02*
X1397Y833D01*
X1690Y833D02*
X1696Y833D01*
X1717Y833D02*
X1723Y833D01*
X398Y832D02*
X405Y832D01*
X1390Y832D02*
X1397Y832D01*
X1690Y832D02*
X1696Y832D01*
X1717Y832D02*
X1723Y832D01*
X398Y831D02*
X405Y831D01*
X1390Y831D02*
X1397Y831D01*
X1690Y831D02*
X1696Y831D01*
X1717Y831D02*
X1723Y831D01*
X398Y830D02*
X405Y830D01*
X1390Y830D02*
X1397Y830D01*
X1690Y830D02*
X1696Y830D01*
X1717Y830D02*
X1723Y830D01*
X398Y829D02*
X405Y829D01*
X1390Y829D02*
X1397Y829D01*
X1690Y829D02*
X1696Y829D01*
X1717Y829D02*
X1723Y829D01*
X398Y828D02*
X405Y828D01*
X1390Y828D02*
X1397Y828D01*
X1690Y828D02*
X1696Y828D01*
X1717Y828D02*
X1723Y828D01*
X398Y827D02*
X405Y827D01*
X1390Y827D02*
X1397Y827D01*
X1690Y827D02*
X1696Y827D01*
X1717Y827D02*
X1723Y827D01*
X398Y826D02*
X405Y826D01*
X1390Y826D02*
X1397Y826D01*
X1690Y826D02*
X1696Y826D01*
X1717Y826D02*
X1723Y826D01*
X398Y825D02*
X405Y825D01*
X1390Y825D02*
X1397Y825D01*
X1690Y825D02*
X1696Y825D01*
X1717Y825D02*
X1723Y825D01*
X398Y824D02*
X405Y824D01*
X1390Y824D02*
X1397Y824D01*
X1690Y824D02*
X1696Y824D01*
X1717Y824D02*
X1723Y824D01*
X398Y823D02*
X405Y823D01*
X1390Y823D02*
X1397Y823D01*
X1690Y823D02*
X1696Y823D01*
X1717Y823D02*
X1723Y823D01*
X398Y822D02*
X405Y822D01*
X1390Y822D02*
X1397Y822D01*
X1690Y822D02*
X1696Y822D01*
X1717Y822D02*
X1723Y822D01*
X398Y821D02*
X405Y821D01*
X1390Y821D02*
X1397Y821D01*
X1690Y821D02*
X1696Y821D01*
X1717Y821D02*
X1723Y821D01*
X398Y820D02*
X405Y820D01*
X1390Y820D02*
X1397Y820D01*
X1690Y820D02*
X1696Y820D01*
X1717Y820D02*
X1723Y820D01*
X398Y819D02*
X405Y819D01*
X1390Y819D02*
X1397Y819D01*
X1690Y819D02*
X1696Y819D01*
X1717Y819D02*
X1723Y819D01*
X398Y818D02*
X405Y818D01*
X1390Y818D02*
X1397Y818D01*
X1690Y818D02*
X1696Y818D01*
X1717Y818D02*
X1723Y818D01*
X398Y817D02*
X405Y817D01*
X1390Y817D02*
X1397Y817D01*
X1690Y817D02*
X1696Y817D01*
X1717Y817D02*
X1723Y817D01*
X398Y816D02*
X405Y816D01*
X1390Y816D02*
X1397Y816D01*
X1690Y816D02*
X1697Y816D01*
X1717Y816D02*
X1723Y816D01*
X398Y815D02*
X405Y815D01*
X1390Y815D02*
X1397Y815D01*
X1690Y815D02*
X1742Y815D01*
X398Y814D02*
X405Y814D01*
X1390Y814D02*
X1397Y814D01*
X1690Y814D02*
X1743Y814D01*
X398Y813D02*
X405Y813D01*
X1390Y813D02*
X1397Y813D01*
X1690Y813D02*
X1743Y813D01*
X398Y812D02*
X405Y812D01*
X1390Y812D02*
X1397Y812D01*
X1690Y812D02*
X1744Y812D01*
X398Y811D02*
X405Y811D01*
X1390Y811D02*
X1397Y811D01*
X1690Y811D02*
X1743Y811D01*
X398Y810D02*
X405Y810D01*
X1390Y810D02*
X1397Y810D01*
X1690Y810D02*
X1743Y810D01*
X398Y809D02*
X405Y809D01*
X1390Y809D02*
X1397Y809D01*
X1691Y809D02*
X1741Y809D01*
X398Y808D02*
X405Y808D01*
X1390Y808D02*
X1397Y808D01*
X398Y807D02*
X405Y807D01*
X1390Y807D02*
X1397Y807D01*
X398Y806D02*
X405Y806D01*
X1390Y806D02*
X1397Y806D01*
X398Y805D02*
X405Y805D01*
X1390Y805D02*
X1397Y805D01*
X398Y804D02*
X405Y804D01*
X1390Y804D02*
X1397Y804D01*
X398Y803D02*
X405Y803D01*
X1390Y803D02*
X1397Y803D01*
X398Y802D02*
X405Y802D01*
X1390Y802D02*
X1397Y802D01*
X398Y801D02*
X405Y801D01*
X1390Y801D02*
X1397Y801D01*
X398Y800D02*
X405Y800D01*
X1390Y800D02*
X1397Y800D01*
X398Y799D02*
X405Y799D01*
X1390Y799D02*
X1397Y799D01*
X398Y798D02*
X405Y798D01*
X1390Y798D02*
X1397Y798D01*
X398Y797D02*
X405Y797D01*
X1390Y797D02*
X1397Y797D01*
X398Y796D02*
X405Y796D01*
X1390Y796D02*
X1397Y796D01*
X398Y795D02*
X405Y795D01*
X1390Y795D02*
X1397Y795D01*
X398Y794D02*
X405Y794D01*
X1390Y794D02*
X1397Y794D01*
X398Y793D02*
X405Y793D01*
X1390Y793D02*
X1397Y793D01*
X398Y792D02*
X405Y792D01*
X1390Y792D02*
X1397Y792D01*
X398Y791D02*
X405Y791D01*
X1390Y791D02*
X1397Y791D01*
X398Y790D02*
X405Y790D01*
X1390Y790D02*
X1397Y790D01*
X398Y789D02*
X405Y789D01*
X1390Y789D02*
X1397Y789D01*
X1692Y789D02*
X1737Y789D01*
X398Y788D02*
X405Y788D01*
X1390Y788D02*
X1397Y788D01*
X1691Y788D02*
X1739Y788D01*
X398Y787D02*
X405Y787D01*
X1390Y787D02*
X1397Y787D01*
X1691Y787D02*
X1740Y787D01*
X398Y786D02*
X405Y786D01*
X1390Y786D02*
X1397Y786D01*
X1690Y786D02*
X1741Y786D01*
X398Y785D02*
X405Y785D01*
X1390Y785D02*
X1397Y785D01*
X1691Y785D02*
X1742Y785D01*
X398Y784D02*
X405Y784D01*
X1390Y784D02*
X1397Y784D01*
X1691Y784D02*
X1742Y784D01*
X398Y783D02*
X405Y783D01*
X1390Y783D02*
X1397Y783D01*
X1693Y783D02*
X1743Y783D01*
X398Y782D02*
X405Y782D01*
X1390Y782D02*
X1397Y782D01*
X1736Y782D02*
X1743Y782D01*
X398Y781D02*
X405Y781D01*
X1390Y781D02*
X1397Y781D01*
X1737Y781D02*
X1743Y781D01*
X398Y780D02*
X405Y780D01*
X1390Y780D02*
X1397Y780D01*
X1737Y780D02*
X1744Y780D01*
X398Y779D02*
X405Y779D01*
X1390Y779D02*
X1397Y779D01*
X1738Y779D02*
X1744Y779D01*
X398Y778D02*
X405Y778D01*
X1390Y778D02*
X1397Y778D01*
X1738Y778D02*
X1744Y778D01*
X398Y777D02*
X405Y777D01*
X1390Y777D02*
X1397Y777D01*
X1738Y777D02*
X1744Y777D01*
X398Y776D02*
X405Y776D01*
X1390Y776D02*
X1397Y776D01*
X1738Y776D02*
X1744Y776D01*
X398Y775D02*
X405Y775D01*
X1390Y775D02*
X1397Y775D01*
X1738Y775D02*
X1744Y775D01*
X398Y774D02*
X405Y774D01*
X1390Y774D02*
X1397Y774D01*
X1738Y774D02*
X1744Y774D01*
X398Y773D02*
X405Y773D01*
X1390Y773D02*
X1397Y773D01*
X1738Y773D02*
X1744Y773D01*
X398Y772D02*
X405Y772D01*
X1390Y772D02*
X1397Y772D01*
X1737Y772D02*
X1744Y772D01*
X398Y771D02*
X405Y771D01*
X1390Y771D02*
X1397Y771D01*
X1737Y771D02*
X1743Y771D01*
X398Y770D02*
X405Y770D01*
X1390Y770D02*
X1397Y770D01*
X1736Y770D02*
X1743Y770D01*
X398Y769D02*
X405Y769D01*
X1390Y769D02*
X1397Y769D01*
X1722Y769D02*
X1743Y769D01*
X398Y768D02*
X405Y768D01*
X1390Y768D02*
X1397Y768D01*
X1721Y768D02*
X1742Y768D01*
X398Y767D02*
X405Y767D01*
X1390Y767D02*
X1397Y767D01*
X1720Y767D02*
X1742Y767D01*
X398Y766D02*
X405Y766D01*
X1390Y766D02*
X1397Y766D01*
X1720Y766D02*
X1741Y766D01*
X398Y765D02*
X405Y765D01*
X1390Y765D02*
X1397Y765D01*
X1720Y765D02*
X1740Y765D01*
X398Y764D02*
X405Y764D01*
X1390Y764D02*
X1397Y764D01*
X1720Y764D02*
X1739Y764D01*
X398Y763D02*
X405Y763D01*
X1390Y763D02*
X1397Y763D01*
X1721Y763D02*
X1737Y763D01*
X398Y762D02*
X405Y762D01*
X1390Y762D02*
X1397Y762D01*
X398Y761D02*
X405Y761D01*
X1390Y761D02*
X1397Y761D01*
X398Y760D02*
X405Y760D01*
X1390Y760D02*
X1397Y760D01*
X398Y759D02*
X405Y759D01*
X1390Y759D02*
X1397Y759D01*
X398Y758D02*
X405Y758D01*
X1390Y758D02*
X1397Y758D01*
X398Y757D02*
X405Y757D01*
X1390Y757D02*
X1397Y757D01*
X398Y756D02*
X405Y756D01*
X1390Y756D02*
X1397Y756D01*
X398Y755D02*
X405Y755D01*
X1390Y755D02*
X1397Y755D01*
X398Y754D02*
X405Y754D01*
X1390Y754D02*
X1397Y754D01*
X398Y753D02*
X405Y753D01*
X1390Y753D02*
X1397Y753D01*
X398Y752D02*
X405Y752D01*
X1390Y752D02*
X1397Y752D01*
X398Y751D02*
X405Y751D01*
X1390Y751D02*
X1397Y751D01*
X398Y750D02*
X405Y750D01*
X1390Y750D02*
X1397Y750D01*
X398Y749D02*
X405Y749D01*
X1390Y749D02*
X1397Y749D01*
X398Y748D02*
X405Y748D01*
X1390Y748D02*
X1397Y748D01*
X398Y747D02*
X405Y747D01*
X1390Y747D02*
X1397Y747D01*
X398Y746D02*
X405Y746D01*
X1390Y746D02*
X1397Y746D01*
X398Y745D02*
X405Y745D01*
X1390Y745D02*
X1397Y745D01*
X398Y744D02*
X405Y744D01*
X1390Y744D02*
X1397Y744D01*
X398Y743D02*
X405Y743D01*
X1390Y743D02*
X1397Y743D01*
X398Y742D02*
X405Y742D01*
X1390Y742D02*
X1397Y742D01*
X398Y741D02*
X405Y741D01*
X1390Y741D02*
X1397Y741D01*
X398Y740D02*
X405Y740D01*
X1390Y740D02*
X1397Y740D01*
X398Y739D02*
X405Y739D01*
X1390Y739D02*
X1397Y739D01*
X398Y738D02*
X405Y738D01*
X1390Y738D02*
X1397Y738D01*
X398Y737D02*
X405Y737D01*
X1390Y737D02*
X1397Y737D01*
X398Y736D02*
X405Y736D01*
X1390Y736D02*
X1397Y736D01*
X398Y735D02*
X405Y735D01*
X1390Y735D02*
X1397Y735D01*
X398Y734D02*
X405Y734D01*
X1390Y734D02*
X1397Y734D01*
X398Y733D02*
X405Y733D01*
X1390Y733D02*
X1397Y733D01*
X398Y732D02*
X405Y732D01*
X1390Y732D02*
X1397Y732D01*
X398Y731D02*
X405Y731D01*
X1390Y731D02*
X1397Y731D01*
X398Y730D02*
X405Y730D01*
X1390Y730D02*
X1397Y730D01*
X398Y729D02*
X405Y729D01*
X1390Y729D02*
X1397Y729D01*
X398Y728D02*
X405Y728D01*
X1390Y728D02*
X1397Y728D01*
X398Y727D02*
X405Y727D01*
X1390Y727D02*
X1397Y727D01*
X398Y726D02*
X405Y726D01*
X1390Y726D02*
X1397Y726D01*
X398Y725D02*
X405Y725D01*
X1390Y725D02*
X1397Y725D01*
X398Y724D02*
X405Y724D01*
X1390Y724D02*
X1397Y724D01*
X398Y723D02*
X405Y723D01*
X1390Y723D02*
X1397Y723D01*
X398Y722D02*
X405Y722D01*
X1390Y722D02*
X1397Y722D01*
X398Y721D02*
X405Y721D01*
X1390Y721D02*
X1397Y721D01*
X398Y720D02*
X405Y720D01*
X1390Y720D02*
X1397Y720D01*
X398Y719D02*
X405Y719D01*
X1390Y719D02*
X1397Y719D01*
X398Y718D02*
X405Y718D01*
X1390Y718D02*
X1397Y718D01*
X398Y717D02*
X405Y717D01*
X1390Y717D02*
X1397Y717D01*
X398Y716D02*
X405Y716D01*
X1390Y716D02*
X1397Y716D01*
X398Y715D02*
X405Y715D01*
X1390Y715D02*
X1397Y715D01*
X398Y714D02*
X405Y714D01*
X1390Y714D02*
X1397Y714D01*
X398Y713D02*
X405Y713D01*
X1390Y713D02*
X1397Y713D01*
X398Y712D02*
X405Y712D01*
X1390Y712D02*
X1397Y712D01*
X398Y711D02*
X405Y711D01*
X1390Y711D02*
X1397Y711D01*
X398Y710D02*
X405Y710D01*
X1390Y710D02*
X1397Y710D01*
X398Y709D02*
X405Y709D01*
X1390Y709D02*
X1397Y709D01*
X398Y708D02*
X405Y708D01*
X1390Y708D02*
X1397Y708D01*
X398Y707D02*
X405Y707D01*
X1390Y707D02*
X1397Y707D01*
X398Y706D02*
X405Y706D01*
X1390Y706D02*
X1397Y706D01*
X398Y705D02*
X405Y705D01*
X1390Y705D02*
X1397Y705D01*
X398Y704D02*
X405Y704D01*
X1390Y704D02*
X1397Y704D01*
X398Y703D02*
X405Y703D01*
X1390Y703D02*
X1397Y703D01*
X398Y702D02*
X405Y702D01*
X1390Y702D02*
X1397Y702D01*
X398Y701D02*
X405Y701D01*
X1390Y701D02*
X1397Y701D01*
X398Y700D02*
X405Y700D01*
X1390Y700D02*
X1397Y700D01*
X398Y699D02*
X405Y699D01*
X1390Y699D02*
X1397Y699D01*
X398Y698D02*
X405Y698D01*
X1390Y698D02*
X1397Y698D01*
X398Y697D02*
X405Y697D01*
X1390Y697D02*
X1397Y697D01*
X398Y696D02*
X405Y696D01*
X1390Y696D02*
X1397Y696D01*
X398Y695D02*
X405Y695D01*
X1390Y695D02*
X1397Y695D01*
X398Y694D02*
X405Y694D01*
X1390Y694D02*
X1397Y694D01*
X398Y693D02*
X405Y693D01*
X1390Y693D02*
X1397Y693D01*
X398Y692D02*
X405Y692D01*
X1390Y692D02*
X1397Y692D01*
X398Y691D02*
X405Y691D01*
X1390Y691D02*
X1397Y691D01*
X398Y690D02*
X405Y690D01*
X1390Y690D02*
X1397Y690D01*
X398Y689D02*
X405Y689D01*
X1390Y689D02*
X1397Y689D01*
X398Y688D02*
X405Y688D01*
X1390Y688D02*
X1397Y688D01*
X398Y687D02*
X405Y687D01*
X1390Y687D02*
X1397Y687D01*
X398Y686D02*
X405Y686D01*
X1390Y686D02*
X1397Y686D01*
X398Y685D02*
X405Y685D01*
X1390Y685D02*
X1397Y685D01*
X398Y684D02*
X405Y684D01*
X1390Y684D02*
X1397Y684D01*
X398Y683D02*
X405Y683D01*
X1390Y683D02*
X1397Y683D01*
X398Y682D02*
X405Y682D01*
X1390Y682D02*
X1397Y682D01*
X398Y681D02*
X405Y681D01*
X1390Y681D02*
X1397Y681D01*
X398Y680D02*
X405Y680D01*
X1390Y680D02*
X1397Y680D01*
X398Y679D02*
X405Y679D01*
X1390Y679D02*
X1397Y679D01*
X398Y678D02*
X405Y678D01*
X1390Y678D02*
X1397Y678D01*
X398Y677D02*
X405Y677D01*
X1390Y677D02*
X1397Y677D01*
X398Y676D02*
X405Y676D01*
X1390Y676D02*
X1397Y676D01*
X398Y675D02*
X405Y675D01*
X1390Y675D02*
X1397Y675D01*
X398Y674D02*
X405Y674D01*
X1390Y674D02*
X1397Y674D01*
X398Y673D02*
X405Y673D01*
X1390Y673D02*
X1397Y673D01*
X398Y672D02*
X405Y672D01*
X1390Y672D02*
X1397Y672D01*
X398Y671D02*
X405Y671D01*
X1390Y671D02*
X1397Y671D01*
X398Y670D02*
X405Y670D01*
X1390Y670D02*
X1397Y670D01*
X398Y669D02*
X405Y669D01*
X1390Y669D02*
X1397Y669D01*
X398Y668D02*
X405Y668D01*
X1390Y668D02*
X1397Y668D01*
X398Y667D02*
X405Y667D01*
X1390Y667D02*
X1397Y667D01*
X398Y666D02*
X405Y666D01*
X1390Y666D02*
X1397Y666D01*
X398Y665D02*
X405Y665D01*
X1390Y665D02*
X1397Y665D01*
X398Y664D02*
X405Y664D01*
X1390Y664D02*
X1397Y664D01*
X398Y663D02*
X405Y663D01*
X1390Y663D02*
X1397Y663D01*
X398Y662D02*
X405Y662D01*
X1390Y662D02*
X1397Y662D01*
X398Y661D02*
X405Y661D01*
X1390Y661D02*
X1397Y661D01*
X398Y660D02*
X405Y660D01*
X1390Y660D02*
X1397Y660D01*
X398Y659D02*
X405Y659D01*
X1390Y659D02*
X1397Y659D01*
X398Y658D02*
X405Y658D01*
X1390Y658D02*
X1397Y658D01*
X398Y657D02*
X405Y657D01*
X1390Y657D02*
X1397Y657D01*
X398Y656D02*
X405Y656D01*
X1390Y656D02*
X1397Y656D01*
X398Y655D02*
X405Y655D01*
X1390Y655D02*
X1397Y655D01*
X398Y654D02*
X405Y654D01*
X1390Y654D02*
X1397Y654D01*
X398Y653D02*
X405Y653D01*
X1390Y653D02*
X1397Y653D01*
X398Y652D02*
X405Y652D01*
X1390Y652D02*
X1397Y652D01*
X398Y651D02*
X405Y651D01*
X1390Y651D02*
X1397Y651D01*
X398Y650D02*
X405Y650D01*
X1390Y650D02*
X1397Y650D01*
X398Y649D02*
X405Y649D01*
X1390Y649D02*
X1397Y649D01*
X398Y648D02*
X405Y648D01*
X1390Y648D02*
X1397Y648D01*
X398Y647D02*
X405Y647D01*
X1390Y647D02*
X1397Y647D01*
X398Y646D02*
X405Y646D01*
X1390Y646D02*
X1397Y646D01*
X398Y645D02*
X405Y645D01*
X1390Y645D02*
X1397Y645D01*
X398Y644D02*
X405Y644D01*
X1390Y644D02*
X1397Y644D01*
X398Y643D02*
X405Y643D01*
X1390Y643D02*
X1397Y643D01*
X398Y642D02*
X405Y642D01*
X1390Y642D02*
X1397Y642D01*
X398Y641D02*
X405Y641D01*
X1390Y641D02*
X1397Y641D01*
X398Y640D02*
X405Y640D01*
X1390Y640D02*
X1397Y640D01*
X398Y639D02*
X405Y639D01*
X1390Y639D02*
X1397Y639D01*
X398Y638D02*
X405Y638D01*
X1390Y638D02*
X1397Y638D01*
X398Y637D02*
X405Y637D01*
X1390Y637D02*
X1397Y637D01*
X398Y636D02*
X405Y636D01*
X1390Y636D02*
X1397Y636D01*
X398Y635D02*
X405Y635D01*
X1390Y635D02*
X1397Y635D01*
X398Y634D02*
X405Y634D01*
X1390Y634D02*
X1397Y634D01*
X398Y633D02*
X405Y633D01*
X1390Y633D02*
X1397Y633D01*
X398Y632D02*
X405Y632D01*
X1390Y632D02*
X1397Y632D01*
X398Y631D02*
X405Y631D01*
X1390Y631D02*
X1397Y631D01*
X398Y630D02*
X405Y630D01*
X1390Y630D02*
X1397Y630D01*
X398Y629D02*
X405Y629D01*
X1390Y629D02*
X1397Y629D01*
X398Y628D02*
X405Y628D01*
X1390Y628D02*
X1397Y628D01*
X398Y627D02*
X405Y627D01*
X1390Y627D02*
X1397Y627D01*
X398Y626D02*
X405Y626D01*
X1390Y626D02*
X1397Y626D01*
X398Y625D02*
X405Y625D01*
X1390Y625D02*
X1397Y625D01*
X398Y624D02*
X405Y624D01*
X1390Y624D02*
X1397Y624D01*
X398Y623D02*
X405Y623D01*
X1390Y623D02*
X1397Y623D01*
X398Y622D02*
X405Y622D01*
X1390Y622D02*
X1397Y622D01*
X398Y621D02*
X405Y621D01*
X1390Y621D02*
X1397Y621D01*
X398Y620D02*
X405Y620D01*
X1390Y620D02*
X1397Y620D01*
X398Y619D02*
X405Y619D01*
X1390Y619D02*
X1397Y619D01*
X398Y618D02*
X405Y618D01*
X1390Y618D02*
X1397Y618D01*
X398Y617D02*
X405Y617D01*
X1390Y617D02*
X1397Y617D01*
X398Y616D02*
X405Y616D01*
X1390Y616D02*
X1397Y616D01*
X398Y615D02*
X405Y615D01*
X1390Y615D02*
X1397Y615D01*
X398Y614D02*
X405Y614D01*
X1390Y614D02*
X1397Y614D01*
X398Y613D02*
X405Y613D01*
X1390Y613D02*
X1397Y613D01*
X398Y612D02*
X405Y612D01*
X1390Y612D02*
X1397Y612D01*
X398Y611D02*
X405Y611D01*
X1390Y611D02*
X1397Y611D01*
X398Y610D02*
X405Y610D01*
X1390Y610D02*
X1397Y610D01*
X398Y609D02*
X405Y609D01*
X1390Y609D02*
X1397Y609D01*
X398Y608D02*
X405Y608D01*
X1390Y608D02*
X1397Y608D01*
X398Y607D02*
X405Y607D01*
X1390Y607D02*
X1397Y607D01*
X398Y606D02*
X405Y606D01*
X1390Y606D02*
X1397Y606D01*
X398Y605D02*
X405Y605D01*
X1390Y605D02*
X1397Y605D01*
X398Y604D02*
X405Y604D01*
X1390Y604D02*
X1397Y604D01*
X398Y603D02*
X405Y603D01*
X1390Y603D02*
X1397Y603D01*
X398Y602D02*
X405Y602D01*
X1390Y602D02*
X1397Y602D01*
X398Y601D02*
X405Y601D01*
X1390Y601D02*
X1397Y601D01*
X398Y600D02*
X405Y600D01*
X1390Y600D02*
X1397Y600D01*
X398Y599D02*
X405Y599D01*
X1390Y599D02*
X1397Y599D01*
X398Y598D02*
X405Y598D01*
X1390Y598D02*
X1397Y598D01*
X398Y597D02*
X405Y597D01*
X1390Y597D02*
X1397Y597D01*
X398Y596D02*
X405Y596D01*
X1390Y596D02*
X1397Y596D01*
X398Y595D02*
X405Y595D01*
X1390Y595D02*
X1397Y595D01*
X398Y594D02*
X405Y594D01*
X1390Y594D02*
X1397Y594D01*
X398Y593D02*
X405Y593D01*
X1390Y593D02*
X1397Y593D01*
X398Y592D02*
X405Y592D01*
X1390Y592D02*
X1397Y592D01*
X398Y591D02*
X405Y591D01*
X1390Y591D02*
X1397Y591D01*
X398Y590D02*
X405Y590D01*
X1390Y590D02*
X1397Y590D01*
X398Y589D02*
X405Y589D01*
X1390Y589D02*
X1397Y589D01*
X398Y588D02*
X405Y588D01*
X1390Y588D02*
X1397Y588D01*
X398Y587D02*
X405Y587D01*
X1390Y587D02*
X1397Y587D01*
X398Y586D02*
X405Y586D01*
X1390Y586D02*
X1397Y586D01*
X398Y585D02*
X405Y585D01*
X1390Y585D02*
X1397Y585D01*
X398Y584D02*
X405Y584D01*
X1390Y584D02*
X1397Y584D01*
X398Y583D02*
X405Y583D01*
X1390Y583D02*
X1397Y583D01*
X398Y582D02*
X405Y582D01*
X1390Y582D02*
X1397Y582D01*
X398Y581D02*
X405Y581D01*
X1390Y581D02*
X1397Y581D01*
X398Y580D02*
X405Y580D01*
X1390Y580D02*
X1397Y580D01*
X398Y579D02*
X405Y579D01*
X1390Y579D02*
X1397Y579D01*
X398Y578D02*
X405Y578D01*
X1390Y578D02*
X1397Y578D01*
X398Y577D02*
X405Y577D01*
X1390Y577D02*
X1397Y577D01*
X398Y576D02*
X405Y576D01*
X1390Y576D02*
X1397Y576D01*
X398Y575D02*
X405Y575D01*
X1390Y575D02*
X1397Y575D01*
X398Y574D02*
X405Y574D01*
X1390Y574D02*
X1397Y574D01*
X398Y573D02*
X405Y573D01*
X1390Y573D02*
X1397Y573D01*
X398Y572D02*
X405Y572D01*
X1390Y572D02*
X1397Y572D01*
X398Y571D02*
X405Y571D01*
X1390Y571D02*
X1397Y571D01*
X398Y570D02*
X405Y570D01*
X1390Y570D02*
X1397Y570D01*
X398Y569D02*
X405Y569D01*
X1390Y569D02*
X1397Y569D01*
X398Y568D02*
X405Y568D01*
X1390Y568D02*
X1397Y568D01*
X398Y567D02*
X405Y567D01*
X1390Y567D02*
X1397Y567D01*
X398Y566D02*
X405Y566D01*
X1390Y566D02*
X1397Y566D01*
X398Y565D02*
X405Y565D01*
X1390Y565D02*
X1397Y565D01*
X398Y564D02*
X405Y564D01*
X1390Y564D02*
X1397Y564D01*
X398Y563D02*
X405Y563D01*
X1390Y563D02*
X1397Y563D01*
X398Y562D02*
X405Y562D01*
X1390Y562D02*
X1397Y562D01*
X398Y561D02*
X405Y561D01*
X1390Y561D02*
X1397Y561D01*
X398Y560D02*
X405Y560D01*
X1390Y560D02*
X1397Y560D01*
X398Y559D02*
X405Y559D01*
X1390Y559D02*
X1397Y559D01*
X398Y558D02*
X405Y558D01*
X1390Y558D02*
X1397Y558D01*
X398Y557D02*
X405Y557D01*
X1390Y557D02*
X1397Y557D01*
X398Y556D02*
X405Y556D01*
X1390Y556D02*
X1397Y556D01*
X398Y555D02*
X405Y555D01*
X1390Y555D02*
X1397Y555D01*
X398Y554D02*
X405Y554D01*
X1390Y554D02*
X1397Y554D01*
X398Y553D02*
X405Y553D01*
X1390Y553D02*
X1397Y553D01*
X398Y552D02*
X405Y552D01*
X1390Y552D02*
X1397Y552D01*
X398Y551D02*
X405Y551D01*
X1390Y551D02*
X1397Y551D01*
X398Y550D02*
X405Y550D01*
X398Y549D02*
X405Y549D01*
X398Y548D02*
X405Y548D01*
X398Y547D02*
X405Y547D01*
X398Y546D02*
X405Y546D01*
X398Y545D02*
X405Y545D01*
X398Y544D02*
X405Y544D01*
X398Y543D02*
X405Y543D01*
X398Y542D02*
X405Y542D01*
X398Y541D02*
X405Y541D01*
X398Y540D02*
X405Y540D01*
X398Y539D02*
X405Y539D01*
X398Y538D02*
X405Y538D01*
X398Y537D02*
X405Y537D01*
X398Y536D02*
X405Y536D01*
X398Y535D02*
X405Y535D01*
X398Y534D02*
X405Y534D01*
X398Y533D02*
X405Y533D01*
X398Y532D02*
X405Y532D01*
X398Y531D02*
X405Y531D01*
X398Y530D02*
X405Y530D01*
X398Y529D02*
X405Y529D01*
X398Y528D02*
X405Y528D01*
X398Y527D02*
X405Y527D01*
X398Y526D02*
X405Y526D01*
X398Y525D02*
X405Y525D01*
X398Y524D02*
X405Y524D01*
X398Y523D02*
X405Y523D01*
X398Y522D02*
X405Y522D01*
X398Y521D02*
X405Y521D01*
X398Y520D02*
X405Y520D01*
X398Y519D02*
X405Y519D01*
X398Y518D02*
X405Y518D01*
X398Y517D02*
X405Y517D01*
X398Y516D02*
X405Y516D01*
X398Y515D02*
X405Y515D01*
X398Y514D02*
X405Y514D01*
X398Y513D02*
X405Y513D01*
X398Y512D02*
X405Y512D01*
X398Y511D02*
X405Y511D01*
X398Y510D02*
X405Y510D01*
X398Y509D02*
X405Y509D01*
X398Y508D02*
X405Y508D01*
X398Y507D02*
X405Y507D01*
X398Y506D02*
X405Y506D01*
X398Y505D02*
X405Y505D01*
X398Y504D02*
X405Y504D01*
X398Y503D02*
X405Y503D01*
X398Y502D02*
X405Y502D01*
X398Y501D02*
X405Y501D01*
X398Y500D02*
X405Y500D01*
X398Y499D02*
X405Y499D01*
X398Y498D02*
X405Y498D01*
X398Y497D02*
X405Y497D01*
X398Y496D02*
X405Y496D01*
X398Y495D02*
X405Y495D01*
X398Y494D02*
X405Y494D01*
X398Y493D02*
X405Y493D01*
X398Y492D02*
X405Y492D01*
X398Y491D02*
X405Y491D01*
X398Y490D02*
X405Y490D01*
X398Y489D02*
X405Y489D01*
X398Y488D02*
X405Y488D01*
X398Y487D02*
X405Y487D01*
X398Y486D02*
X405Y486D01*
X398Y485D02*
X405Y485D01*
X398Y484D02*
X405Y484D01*
X398Y483D02*
X405Y483D01*
X398Y482D02*
X405Y482D01*
X398Y481D02*
X405Y481D01*
X398Y480D02*
X405Y480D01*
X398Y479D02*
X405Y479D01*
X398Y478D02*
X405Y478D01*
X398Y477D02*
X405Y477D01*
X398Y476D02*
X405Y476D01*
X398Y475D02*
X405Y475D01*
X398Y474D02*
X405Y474D01*
X398Y473D02*
X405Y473D01*
X398Y472D02*
X405Y472D01*
X398Y471D02*
X405Y471D01*
X398Y470D02*
X405Y470D01*
X398Y469D02*
X405Y469D01*
X398Y468D02*
X405Y468D01*
X398Y467D02*
X405Y467D01*
X398Y466D02*
X405Y466D01*
X398Y465D02*
X405Y465D01*
X398Y464D02*
X405Y464D01*
X398Y463D02*
X405Y463D01*
X398Y462D02*
X405Y462D01*
X398Y461D02*
X405Y461D01*
X398Y460D02*
X405Y460D01*
X398Y459D02*
X405Y459D01*
X398Y458D02*
X405Y458D01*
X398Y457D02*
X405Y457D01*
X398Y456D02*
X405Y456D01*
X398Y455D02*
X405Y455D01*
X398Y454D02*
X405Y454D01*
X398Y453D02*
X405Y453D01*
X398Y452D02*
X405Y452D01*
X398Y451D02*
X405Y451D01*
X398Y450D02*
X405Y450D01*
X398Y449D02*
X405Y449D01*
X398Y448D02*
X405Y448D01*
X398Y447D02*
X405Y447D01*
X1390Y447D02*
X1390Y447D01*
X398Y446D02*
X405Y446D01*
X1390Y446D02*
X1397Y446D01*
X398Y445D02*
X405Y445D01*
X1390Y445D02*
X1397Y445D01*
X398Y444D02*
X405Y444D01*
X1390Y444D02*
X1397Y444D01*
X398Y443D02*
X405Y443D01*
X1390Y443D02*
X1397Y443D01*
X398Y442D02*
X405Y442D01*
X1390Y442D02*
X1397Y442D01*
X398Y441D02*
X405Y441D01*
X1390Y441D02*
X1397Y441D01*
X398Y440D02*
X405Y440D01*
X1390Y440D02*
X1397Y440D01*
X398Y439D02*
X405Y439D01*
X1390Y439D02*
X1397Y439D01*
X398Y438D02*
X405Y438D01*
X1390Y438D02*
X1397Y438D01*
X398Y437D02*
X405Y437D01*
X1390Y437D02*
X1397Y437D01*
X398Y436D02*
X405Y436D01*
X1390Y436D02*
X1397Y436D01*
X398Y435D02*
X405Y435D01*
X1390Y435D02*
X1397Y435D01*
X398Y434D02*
X405Y434D01*
X1390Y434D02*
X1397Y434D01*
X398Y433D02*
X405Y433D01*
X1390Y433D02*
X1397Y433D01*
X398Y432D02*
X405Y432D01*
X1390Y432D02*
X1397Y432D01*
X398Y431D02*
X405Y431D01*
X1390Y431D02*
X1397Y431D01*
X398Y430D02*
X405Y430D01*
X1390Y430D02*
X1397Y430D01*
X398Y429D02*
X405Y429D01*
X1390Y429D02*
X1397Y429D01*
X398Y428D02*
X405Y428D01*
X1390Y428D02*
X1397Y428D01*
X398Y427D02*
X405Y427D01*
X1390Y427D02*
X1397Y427D01*
X398Y426D02*
X405Y426D01*
X1390Y426D02*
X1397Y426D01*
X398Y425D02*
X405Y425D01*
X1390Y425D02*
X1397Y425D01*
X398Y424D02*
X405Y424D01*
X1390Y424D02*
X1397Y424D01*
X398Y423D02*
X405Y423D01*
X1390Y423D02*
X1397Y423D01*
X398Y422D02*
X405Y422D01*
X1390Y422D02*
X1397Y422D01*
X398Y421D02*
X405Y421D01*
X1390Y421D02*
X1397Y421D01*
X398Y420D02*
X405Y420D01*
X1390Y420D02*
X1397Y420D01*
X398Y419D02*
X405Y419D01*
X1390Y419D02*
X1397Y419D01*
X398Y418D02*
X405Y418D01*
X1390Y418D02*
X1397Y418D01*
X398Y417D02*
X405Y417D01*
X1390Y417D02*
X1397Y417D01*
X398Y416D02*
X405Y416D01*
X1390Y416D02*
X1397Y416D01*
X398Y415D02*
X405Y415D01*
X1390Y415D02*
X1397Y415D01*
X398Y414D02*
X405Y414D01*
X1390Y414D02*
X1397Y414D01*
X398Y413D02*
X405Y413D01*
X1390Y413D02*
X1397Y413D01*
X398Y412D02*
X405Y412D01*
X1390Y412D02*
X1397Y412D01*
X398Y411D02*
X405Y411D01*
X1390Y411D02*
X1397Y411D01*
X398Y410D02*
X405Y410D01*
X1390Y410D02*
X1397Y410D01*
X398Y409D02*
X405Y409D01*
X1390Y409D02*
X1397Y409D01*
X398Y408D02*
X405Y408D01*
X1390Y408D02*
X1397Y408D01*
X398Y407D02*
X405Y407D01*
X1390Y407D02*
X1397Y407D01*
X398Y406D02*
X405Y406D01*
X1390Y406D02*
X1397Y406D01*
X398Y405D02*
X405Y405D01*
X1390Y405D02*
X1397Y405D01*
X398Y404D02*
X405Y404D01*
X1390Y404D02*
X1397Y404D01*
X398Y403D02*
X405Y403D01*
X1390Y403D02*
X1397Y403D01*
X398Y402D02*
X405Y402D01*
X1390Y402D02*
X1397Y402D01*
X398Y401D02*
X405Y401D01*
X1390Y401D02*
X1397Y401D01*
X398Y400D02*
X405Y400D01*
X1390Y400D02*
X1397Y400D01*
X398Y399D02*
X405Y399D01*
X1390Y399D02*
X1397Y399D01*
X398Y398D02*
X405Y398D01*
X1390Y398D02*
X1397Y398D01*
X398Y397D02*
X405Y397D01*
X1390Y397D02*
X1397Y397D01*
X398Y396D02*
X405Y396D01*
X1390Y396D02*
X1397Y396D01*
X398Y395D02*
X405Y395D01*
X1390Y395D02*
X1397Y395D01*
X398Y394D02*
X405Y394D01*
X1390Y394D02*
X1397Y394D01*
X398Y393D02*
X405Y393D01*
X1390Y393D02*
X1397Y393D01*
X398Y392D02*
X405Y392D01*
X1390Y392D02*
X1397Y392D01*
X398Y391D02*
X405Y391D01*
X1390Y391D02*
X1397Y391D01*
X398Y390D02*
X405Y390D01*
X1390Y390D02*
X1397Y390D01*
X398Y389D02*
X405Y389D01*
X1390Y389D02*
X1397Y389D01*
X398Y388D02*
X405Y388D01*
X1390Y388D02*
X1397Y388D01*
X398Y387D02*
X405Y387D01*
X1390Y387D02*
X1397Y387D01*
X398Y386D02*
X405Y386D01*
X1390Y386D02*
X1397Y386D01*
X398Y385D02*
X405Y385D01*
X1390Y385D02*
X1397Y385D01*
X398Y384D02*
X405Y384D01*
X1390Y384D02*
X1397Y384D01*
X398Y383D02*
X405Y383D01*
X1390Y383D02*
X1397Y383D01*
X398Y382D02*
X405Y382D01*
X1390Y382D02*
X1397Y382D01*
X398Y381D02*
X405Y381D01*
X1390Y381D02*
X1397Y381D01*
X398Y380D02*
X405Y380D01*
X1390Y380D02*
X1397Y380D01*
X398Y379D02*
X405Y379D01*
X1390Y379D02*
X1397Y379D01*
X398Y378D02*
X405Y378D01*
X1390Y378D02*
X1397Y378D01*
X398Y377D02*
X405Y377D01*
X1390Y377D02*
X1397Y377D01*
X398Y376D02*
X405Y376D01*
X1390Y376D02*
X1397Y376D01*
X398Y375D02*
X405Y375D01*
X1390Y375D02*
X1397Y375D01*
X398Y374D02*
X405Y374D01*
X1390Y374D02*
X1397Y374D01*
X398Y373D02*
X405Y373D01*
X1390Y373D02*
X1397Y373D01*
X398Y372D02*
X405Y372D01*
X1390Y372D02*
X1397Y372D01*
X398Y371D02*
X405Y371D01*
X1390Y371D02*
X1397Y371D01*
X398Y370D02*
X405Y370D01*
X1390Y370D02*
X1397Y370D01*
X398Y369D02*
X405Y369D01*
X1390Y369D02*
X1397Y369D01*
X398Y368D02*
X405Y368D01*
X1390Y368D02*
X1397Y368D01*
X398Y367D02*
X405Y367D01*
X1390Y367D02*
X1397Y367D01*
X398Y366D02*
X405Y366D01*
X1390Y366D02*
X1397Y366D01*
X398Y365D02*
X405Y365D01*
X1390Y365D02*
X1397Y365D01*
X398Y364D02*
X405Y364D01*
X1390Y364D02*
X1397Y364D01*
X398Y363D02*
X405Y363D01*
X1390Y363D02*
X1397Y363D01*
X398Y362D02*
X405Y362D01*
X1390Y362D02*
X1397Y362D01*
X398Y361D02*
X405Y361D01*
X1390Y361D02*
X1397Y361D01*
X398Y360D02*
X405Y360D01*
X1390Y360D02*
X1397Y360D01*
X398Y359D02*
X405Y359D01*
X1390Y359D02*
X1397Y359D01*
X398Y358D02*
X405Y358D01*
X1390Y358D02*
X1397Y358D01*
X398Y357D02*
X405Y357D01*
X1390Y357D02*
X1397Y357D01*
X398Y356D02*
X405Y356D01*
X1390Y356D02*
X1397Y356D01*
X398Y355D02*
X405Y355D01*
X1390Y355D02*
X1397Y355D01*
X398Y354D02*
X405Y354D01*
X1390Y354D02*
X1397Y354D01*
X398Y353D02*
X405Y353D01*
X1390Y353D02*
X1397Y353D01*
X398Y352D02*
X405Y352D01*
X1390Y352D02*
X1397Y352D01*
X398Y351D02*
X405Y351D01*
X1390Y351D02*
X1397Y351D01*
X398Y350D02*
X405Y350D01*
X1390Y350D02*
X1397Y350D01*
X398Y349D02*
X405Y349D01*
X1390Y349D02*
X1397Y349D01*
X398Y348D02*
X405Y348D01*
X1390Y348D02*
X1397Y348D01*
X398Y347D02*
X405Y347D01*
X1390Y347D02*
X1397Y347D01*
X398Y346D02*
X405Y346D01*
X1390Y346D02*
X1397Y346D01*
X398Y345D02*
X405Y345D01*
X1390Y345D02*
X1397Y345D01*
X398Y344D02*
X405Y344D01*
X1390Y344D02*
X1397Y344D01*
X398Y343D02*
X405Y343D01*
X1390Y343D02*
X1397Y343D01*
X398Y342D02*
X405Y342D01*
X1390Y342D02*
X1397Y342D01*
X398Y341D02*
X405Y341D01*
X1390Y341D02*
X1397Y341D01*
X398Y340D02*
X405Y340D01*
X1390Y340D02*
X1397Y340D01*
X398Y339D02*
X405Y339D01*
X1390Y339D02*
X1397Y339D01*
X398Y338D02*
X405Y338D01*
X1390Y338D02*
X1397Y338D01*
X398Y337D02*
X405Y337D01*
X1390Y337D02*
X1397Y337D01*
X398Y336D02*
X405Y336D01*
X1390Y336D02*
X1397Y336D01*
X398Y335D02*
X405Y335D01*
X1390Y335D02*
X1397Y335D01*
X398Y334D02*
X405Y334D01*
X1390Y334D02*
X1397Y334D01*
X398Y333D02*
X405Y333D01*
X1390Y333D02*
X1397Y333D01*
X398Y332D02*
X405Y332D01*
X1390Y332D02*
X1397Y332D01*
X398Y331D02*
X405Y331D01*
X1390Y331D02*
X1397Y331D01*
X398Y330D02*
X405Y330D01*
X1390Y330D02*
X1397Y330D01*
X398Y329D02*
X405Y329D01*
X1390Y329D02*
X1397Y329D01*
X398Y328D02*
X405Y328D01*
X1390Y328D02*
X1397Y328D01*
X398Y327D02*
X405Y327D01*
X1390Y327D02*
X1397Y327D01*
X398Y326D02*
X405Y326D01*
X1390Y326D02*
X1397Y326D01*
X398Y325D02*
X405Y325D01*
X1390Y325D02*
X1397Y325D01*
X398Y324D02*
X405Y324D01*
X1390Y324D02*
X1397Y324D01*
X398Y323D02*
X405Y323D01*
X1390Y323D02*
X1397Y323D01*
X398Y322D02*
X405Y322D01*
X1390Y322D02*
X1397Y322D01*
X398Y321D02*
X405Y321D01*
X1390Y321D02*
X1397Y321D01*
X398Y320D02*
X405Y320D01*
X1390Y320D02*
X1397Y320D01*
X398Y319D02*
X405Y319D01*
X1390Y319D02*
X1397Y319D01*
X398Y318D02*
X405Y318D01*
X1390Y318D02*
X1397Y318D01*
X398Y317D02*
X405Y317D01*
X1390Y317D02*
X1397Y317D01*
X398Y316D02*
X405Y316D01*
X1390Y316D02*
X1397Y316D01*
X398Y315D02*
X405Y315D01*
X1390Y315D02*
X1397Y315D01*
X398Y314D02*
X405Y314D01*
X1390Y314D02*
X1397Y314D01*
X398Y313D02*
X405Y313D01*
X1390Y313D02*
X1397Y313D01*
X398Y312D02*
X405Y312D01*
X1390Y312D02*
X1397Y312D01*
X398Y311D02*
X405Y311D01*
X1390Y311D02*
X1397Y311D01*
X398Y310D02*
X405Y310D01*
X1390Y310D02*
X1397Y310D01*
X398Y309D02*
X405Y309D01*
X1390Y309D02*
X1397Y309D01*
X398Y308D02*
X405Y308D01*
X1390Y308D02*
X1397Y308D01*
X398Y307D02*
X405Y307D01*
X1390Y307D02*
X1397Y307D01*
X398Y306D02*
X405Y306D01*
X1390Y306D02*
X1397Y306D01*
X398Y305D02*
X405Y305D01*
X1390Y305D02*
X1397Y305D01*
X398Y304D02*
X405Y304D01*
X1390Y304D02*
X1397Y304D01*
X398Y303D02*
X405Y303D01*
X1390Y303D02*
X1397Y303D01*
X398Y302D02*
X405Y302D01*
X1390Y302D02*
X1397Y302D01*
X398Y301D02*
X405Y301D01*
X1390Y301D02*
X1397Y301D01*
X398Y300D02*
X405Y300D01*
X1390Y300D02*
X1397Y300D01*
X398Y299D02*
X405Y299D01*
X1390Y299D02*
X1397Y299D01*
X398Y298D02*
X405Y298D01*
X1390Y298D02*
X1397Y298D01*
X398Y297D02*
X405Y297D01*
X1390Y297D02*
X1397Y297D01*
X398Y296D02*
X405Y296D01*
X1390Y296D02*
X1397Y296D01*
X398Y295D02*
X405Y295D01*
X1390Y295D02*
X1397Y295D01*
X398Y294D02*
X405Y294D01*
X1390Y294D02*
X1397Y294D01*
X398Y293D02*
X405Y293D01*
X1390Y293D02*
X1397Y293D01*
X398Y292D02*
X405Y292D01*
X1390Y292D02*
X1397Y292D01*
X398Y291D02*
X405Y291D01*
X1390Y291D02*
X1397Y291D01*
X398Y290D02*
X405Y290D01*
X1390Y290D02*
X1397Y290D01*
X398Y289D02*
X405Y289D01*
X1390Y289D02*
X1397Y289D01*
X398Y288D02*
X405Y288D01*
X1390Y288D02*
X1397Y288D01*
X398Y287D02*
X405Y287D01*
X1390Y287D02*
X1397Y287D01*
X398Y286D02*
X405Y286D01*
X1390Y286D02*
X1397Y286D01*
X398Y285D02*
X405Y285D01*
X1390Y285D02*
X1397Y285D01*
X398Y284D02*
X405Y284D01*
X1390Y284D02*
X1397Y284D01*
X398Y283D02*
X405Y283D01*
X1390Y283D02*
X1397Y283D01*
X398Y282D02*
X405Y282D01*
X1390Y282D02*
X1397Y282D01*
X398Y281D02*
X405Y281D01*
X1390Y281D02*
X1397Y281D01*
X398Y280D02*
X405Y280D01*
X1390Y280D02*
X1397Y280D01*
X398Y279D02*
X405Y279D01*
X1390Y279D02*
X1397Y279D01*
X398Y278D02*
X405Y278D01*
X1390Y278D02*
X1397Y278D01*
X398Y277D02*
X405Y277D01*
X1390Y277D02*
X1397Y277D01*
X398Y276D02*
X405Y276D01*
X1390Y276D02*
X1397Y276D01*
X398Y275D02*
X405Y275D01*
X1390Y275D02*
X1397Y275D01*
X398Y274D02*
X405Y274D01*
X1390Y274D02*
X1397Y274D01*
X398Y273D02*
X405Y273D01*
X1390Y273D02*
X1397Y273D01*
X398Y272D02*
X405Y272D01*
X1390Y272D02*
X1397Y272D01*
X398Y271D02*
X405Y271D01*
X1390Y271D02*
X1397Y271D01*
X398Y270D02*
X405Y270D01*
X1390Y270D02*
X1397Y270D01*
X398Y269D02*
X405Y269D01*
X1390Y269D02*
X1397Y269D01*
X398Y268D02*
X405Y268D01*
X1390Y268D02*
X1397Y268D01*
X398Y267D02*
X405Y267D01*
X1390Y267D02*
X1397Y267D01*
X398Y266D02*
X405Y266D01*
X1390Y266D02*
X1397Y266D01*
X398Y265D02*
X405Y265D01*
X1390Y265D02*
X1397Y265D01*
X398Y264D02*
X405Y264D01*
X1390Y264D02*
X1397Y264D01*
X398Y263D02*
X405Y263D01*
X1390Y263D02*
X1397Y263D01*
X398Y262D02*
X405Y262D01*
X1390Y262D02*
X1397Y262D01*
X398Y261D02*
X405Y261D01*
X1390Y261D02*
X1397Y261D01*
X398Y260D02*
X405Y260D01*
X1390Y260D02*
X1397Y260D01*
X398Y259D02*
X405Y259D01*
X1390Y259D02*
X1397Y259D01*
X398Y258D02*
X405Y258D01*
X1390Y258D02*
X1397Y258D01*
X398Y257D02*
X405Y257D01*
X1390Y257D02*
X1397Y257D01*
X398Y256D02*
X405Y256D01*
X1390Y256D02*
X1397Y256D01*
X398Y255D02*
X405Y255D01*
X1390Y255D02*
X1397Y255D01*
X398Y254D02*
X405Y254D01*
X1390Y254D02*
X1397Y254D01*
X398Y253D02*
X405Y253D01*
X1390Y253D02*
X1397Y253D01*
X398Y252D02*
X405Y252D01*
X1390Y252D02*
X1397Y252D01*
X398Y251D02*
X405Y251D01*
X1390Y251D02*
X1397Y251D01*
X398Y250D02*
X405Y250D01*
X1390Y250D02*
X1397Y250D01*
X398Y249D02*
X405Y249D01*
X1390Y249D02*
X1397Y249D01*
X398Y248D02*
X405Y248D01*
X1390Y248D02*
X1397Y248D01*
X398Y247D02*
X405Y247D01*
X1390Y247D02*
X1397Y247D01*
X398Y246D02*
X405Y246D01*
X1390Y246D02*
X1397Y246D01*
X398Y245D02*
X405Y245D01*
X1390Y245D02*
X1397Y245D01*
X398Y244D02*
X405Y244D01*
X1390Y244D02*
X1397Y244D01*
X398Y243D02*
X405Y243D01*
X1390Y243D02*
X1397Y243D01*
X398Y242D02*
X405Y242D01*
X1390Y242D02*
X1397Y242D01*
X398Y241D02*
X405Y241D01*
X1390Y241D02*
X1397Y241D01*
X398Y240D02*
X405Y240D01*
X1390Y240D02*
X1397Y240D01*
X398Y239D02*
X405Y239D01*
X1390Y239D02*
X1397Y239D01*
X398Y238D02*
X405Y238D01*
X1390Y238D02*
X1397Y238D01*
X398Y237D02*
X405Y237D01*
X1390Y237D02*
X1397Y237D01*
X398Y236D02*
X405Y236D01*
X1390Y236D02*
X1397Y236D01*
X398Y235D02*
X405Y235D01*
X1390Y235D02*
X1397Y235D01*
X398Y234D02*
X405Y234D01*
X1390Y234D02*
X1397Y234D01*
X398Y233D02*
X405Y233D01*
X1390Y233D02*
X1397Y233D01*
X398Y232D02*
X405Y232D01*
X1390Y232D02*
X1397Y232D01*
X398Y231D02*
X405Y231D01*
X1390Y231D02*
X1397Y231D01*
X398Y230D02*
X405Y230D01*
X1390Y230D02*
X1397Y230D01*
X398Y229D02*
X405Y229D01*
X1390Y229D02*
X1397Y229D01*
X398Y228D02*
X405Y228D01*
X1390Y228D02*
X1397Y228D01*
X398Y227D02*
X405Y227D01*
X1390Y227D02*
X1397Y227D01*
X398Y226D02*
X405Y226D01*
X1390Y226D02*
X1397Y226D01*
X398Y225D02*
X405Y225D01*
X1390Y225D02*
X1397Y225D01*
X398Y224D02*
X405Y224D01*
X1390Y224D02*
X1397Y224D01*
X398Y223D02*
X405Y223D01*
X1390Y223D02*
X1397Y223D01*
X398Y222D02*
X405Y222D01*
X1390Y222D02*
X1397Y222D01*
X398Y221D02*
X405Y221D01*
X1390Y221D02*
X1397Y221D01*
X398Y220D02*
X405Y220D01*
X1390Y220D02*
X1397Y220D01*
X398Y219D02*
X405Y219D01*
X1390Y219D02*
X1397Y219D01*
X398Y218D02*
X405Y218D01*
X1390Y218D02*
X1397Y218D01*
X398Y217D02*
X405Y217D01*
X1390Y217D02*
X1397Y217D01*
X398Y216D02*
X405Y216D01*
X1390Y216D02*
X1397Y216D01*
X398Y215D02*
X405Y215D01*
X1390Y215D02*
X1397Y215D01*
X398Y214D02*
X405Y214D01*
X1390Y214D02*
X1397Y214D01*
X398Y213D02*
X405Y213D01*
X1390Y213D02*
X1397Y213D01*
X398Y212D02*
X405Y212D01*
X1390Y212D02*
X1397Y212D01*
X398Y211D02*
X405Y211D01*
X1390Y211D02*
X1397Y211D01*
X398Y210D02*
X405Y210D01*
X1390Y210D02*
X1397Y210D01*
X398Y209D02*
X405Y209D01*
X1390Y209D02*
X1397Y209D01*
X398Y208D02*
X405Y208D01*
X1390Y208D02*
X1397Y208D01*
X398Y207D02*
X405Y207D01*
X1390Y207D02*
X1397Y207D01*
X398Y206D02*
X405Y206D01*
X1390Y206D02*
X1397Y206D01*
X398Y205D02*
X405Y205D01*
X1390Y205D02*
X1397Y205D01*
X398Y204D02*
X405Y204D01*
X1390Y204D02*
X1397Y204D01*
X398Y203D02*
X405Y203D01*
X1390Y203D02*
X1397Y203D01*
X398Y202D02*
X405Y202D01*
X1390Y202D02*
X1397Y202D01*
X398Y201D02*
X405Y201D01*
X1390Y201D02*
X1397Y201D01*
X398Y200D02*
X405Y200D01*
X1390Y200D02*
X1397Y200D01*
X398Y199D02*
X405Y199D01*
X1390Y199D02*
X1397Y199D01*
X398Y198D02*
X405Y198D01*
X1390Y198D02*
X1397Y198D01*
X398Y197D02*
X405Y197D01*
X1390Y197D02*
X1397Y197D01*
X398Y196D02*
X405Y196D01*
X1390Y196D02*
X1397Y196D01*
X398Y195D02*
X405Y195D01*
X1390Y195D02*
X1397Y195D01*
X398Y194D02*
X405Y194D01*
X1390Y194D02*
X1397Y194D01*
X398Y193D02*
X405Y193D01*
X1390Y193D02*
X1397Y193D01*
X398Y192D02*
X405Y192D01*
X1390Y192D02*
X1397Y192D01*
X398Y191D02*
X405Y191D01*
X1390Y191D02*
X1397Y191D01*
X398Y190D02*
X405Y190D01*
X1390Y190D02*
X1397Y190D01*
X398Y189D02*
X405Y189D01*
X1390Y189D02*
X1397Y189D01*
X398Y188D02*
X405Y188D01*
X1390Y188D02*
X1397Y188D01*
X398Y187D02*
X405Y187D01*
X1390Y187D02*
X1397Y187D01*
X398Y186D02*
X405Y186D01*
X1390Y186D02*
X1397Y186D01*
X398Y185D02*
X405Y185D01*
X1390Y185D02*
X1397Y185D01*
X398Y184D02*
X405Y184D01*
X1390Y184D02*
X1397Y184D01*
X398Y183D02*
X405Y183D01*
X1390Y183D02*
X1397Y183D01*
X398Y182D02*
X405Y182D01*
X1390Y182D02*
X1397Y182D01*
X398Y181D02*
X405Y181D01*
X1390Y181D02*
X1397Y181D01*
X398Y180D02*
X405Y180D01*
X1390Y180D02*
X1397Y180D01*
X398Y179D02*
X405Y179D01*
X1390Y179D02*
X1397Y179D01*
X398Y178D02*
X405Y178D01*
X1390Y178D02*
X1397Y178D01*
X398Y177D02*
X405Y177D01*
X1390Y177D02*
X1397Y177D01*
X398Y176D02*
X405Y176D01*
X1390Y176D02*
X1397Y176D01*
X398Y175D02*
X405Y175D01*
X1390Y175D02*
X1397Y175D01*
X398Y174D02*
X405Y174D01*
X1390Y174D02*
X1397Y174D01*
X398Y173D02*
X405Y173D01*
X1390Y173D02*
X1397Y173D01*
X398Y172D02*
X405Y172D01*
X1390Y172D02*
X1397Y172D01*
X398Y171D02*
X405Y171D01*
X1390Y171D02*
X1397Y171D01*
X398Y170D02*
X405Y170D01*
X1390Y170D02*
X1397Y170D01*
X398Y169D02*
X405Y169D01*
X1390Y169D02*
X1397Y169D01*
X398Y168D02*
X405Y168D01*
X1390Y168D02*
X1397Y168D01*
X398Y167D02*
X405Y167D01*
X1390Y167D02*
X1397Y167D01*
X398Y166D02*
X405Y166D01*
X1390Y166D02*
X1397Y166D01*
X398Y165D02*
X405Y165D01*
X1390Y165D02*
X1397Y165D01*
X398Y164D02*
X405Y164D01*
X1390Y164D02*
X1397Y164D01*
X398Y163D02*
X405Y163D01*
X1390Y163D02*
X1397Y163D01*
X398Y162D02*
X405Y162D01*
X1390Y162D02*
X1397Y162D01*
X398Y161D02*
X405Y161D01*
X1390Y161D02*
X1397Y161D01*
X398Y160D02*
X405Y160D01*
X1390Y160D02*
X1397Y160D01*
X398Y159D02*
X405Y159D01*
X1390Y159D02*
X1397Y159D01*
X398Y158D02*
X405Y158D01*
X1390Y158D02*
X1397Y158D01*
X398Y157D02*
X405Y157D01*
X1390Y157D02*
X1397Y157D01*
X398Y156D02*
X405Y156D01*
X1390Y156D02*
X1397Y156D01*
X398Y155D02*
X405Y155D01*
X1390Y155D02*
X1397Y155D01*
X398Y154D02*
X405Y154D01*
X1390Y154D02*
X1397Y154D01*
X398Y153D02*
X405Y153D01*
X1390Y153D02*
X1397Y153D01*
X398Y152D02*
X405Y152D01*
X1390Y152D02*
X1397Y152D01*
X398Y151D02*
X405Y151D01*
X1390Y151D02*
X1397Y151D01*
X398Y150D02*
X405Y150D01*
X1390Y150D02*
X1397Y150D01*
X398Y149D02*
X405Y149D01*
X1390Y149D02*
X1397Y149D01*
X398Y148D02*
X405Y148D01*
X1390Y148D02*
X1397Y148D01*
X398Y147D02*
X405Y147D01*
X1390Y147D02*
X1397Y147D01*
X398Y146D02*
X405Y146D01*
X1390Y146D02*
X1397Y146D01*
X398Y145D02*
X405Y145D01*
X1390Y145D02*
X1397Y145D01*
X398Y144D02*
X405Y144D01*
X1390Y144D02*
X1397Y144D01*
X398Y143D02*
X405Y143D01*
X1390Y143D02*
X1397Y143D01*
X398Y142D02*
X405Y142D01*
X1390Y142D02*
X1397Y142D01*
X398Y141D02*
X405Y141D01*
X1390Y141D02*
X1397Y141D01*
X398Y140D02*
X405Y140D01*
X1389Y140D02*
X1396Y140D01*
X398Y139D02*
X405Y139D01*
X1389Y139D02*
X1396Y139D01*
X399Y138D02*
X406Y138D01*
X1389Y138D02*
X1396Y138D01*
X399Y137D02*
X406Y137D01*
X1389Y137D02*
X1396Y137D01*
X399Y136D02*
X406Y136D01*
X1389Y136D02*
X1396Y136D01*
X399Y135D02*
X406Y135D01*
X1389Y135D02*
X1396Y135D01*
X399Y134D02*
X406Y134D01*
X1389Y134D02*
X1396Y134D01*
X399Y133D02*
X406Y133D01*
X1389Y133D02*
X1396Y133D01*
X399Y132D02*
X406Y132D01*
X1388Y132D02*
X1395Y132D01*
X400Y131D02*
X407Y131D01*
X1388Y131D02*
X1395Y131D01*
X400Y130D02*
X407Y130D01*
X1388Y130D02*
X1395Y130D01*
X400Y129D02*
X407Y129D01*
X1388Y129D02*
X1395Y129D01*
X400Y128D02*
X407Y128D01*
X1388Y128D02*
X1395Y128D01*
X400Y127D02*
X407Y127D01*
X1387Y127D02*
X1394Y127D01*
X401Y126D02*
X408Y126D01*
X1387Y126D02*
X1394Y126D01*
X401Y125D02*
X408Y125D01*
X1387Y125D02*
X1394Y125D01*
X401Y124D02*
X408Y124D01*
X1387Y124D02*
X1394Y124D01*
X401Y123D02*
X409Y123D01*
X1386Y123D02*
X1393Y123D01*
X402Y122D02*
X409Y122D01*
X1386Y122D02*
X1393Y122D01*
X402Y121D02*
X409Y121D01*
X1386Y121D02*
X1393Y121D01*
X402Y120D02*
X409Y120D01*
X1385Y120D02*
X1392Y120D01*
X403Y119D02*
X410Y119D01*
X1385Y119D02*
X1392Y119D01*
X403Y118D02*
X410Y118D01*
X1385Y118D02*
X1392Y118D01*
X403Y117D02*
X411Y117D01*
X1384Y117D02*
X1392Y117D01*
X404Y116D02*
X411Y116D01*
X1384Y116D02*
X1391Y116D01*
X404Y115D02*
X411Y115D01*
X1383Y115D02*
X1391Y115D01*
X404Y114D02*
X412Y114D01*
X1383Y114D02*
X1390Y114D01*
X405Y113D02*
X412Y113D01*
X1383Y113D02*
X1390Y113D01*
X405Y112D02*
X413Y112D01*
X1382Y112D02*
X1390Y112D01*
X405Y111D02*
X413Y111D01*
X1382Y111D02*
X1389Y111D01*
X406Y110D02*
X414Y110D01*
X1381Y110D02*
X1389Y110D01*
X406Y109D02*
X414Y109D01*
X1381Y109D02*
X1388Y109D01*
X407Y108D02*
X414Y108D01*
X1380Y108D02*
X1388Y108D01*
X407Y107D02*
X415Y107D01*
X1380Y107D02*
X1388Y107D01*
X408Y106D02*
X415Y106D01*
X1379Y106D02*
X1387Y106D01*
X408Y105D02*
X416Y105D01*
X1379Y105D02*
X1387Y105D01*
X409Y104D02*
X417Y104D01*
X1378Y104D02*
X1386Y104D01*
X409Y103D02*
X417Y103D01*
X1378Y103D02*
X1386Y103D01*
X410Y102D02*
X418Y102D01*
X1377Y102D02*
X1385Y102D01*
X410Y101D02*
X418Y101D01*
X1376Y101D02*
X1385Y101D01*
X411Y100D02*
X419Y100D01*
X1376Y100D02*
X1384Y100D01*
X411Y99D02*
X420Y99D01*
X1375Y99D02*
X1383Y99D01*
X412Y98D02*
X420Y98D01*
X1374Y98D02*
X1383Y98D01*
X413Y97D02*
X421Y97D01*
X1374Y97D02*
X1382Y97D01*
X413Y96D02*
X422Y96D01*
X1373Y96D02*
X1382Y96D01*
X414Y95D02*
X422Y95D01*
X1372Y95D02*
X1381Y95D01*
X414Y94D02*
X423Y94D01*
X1372Y94D02*
X1380Y94D01*
X415Y93D02*
X424Y93D01*
X1371Y93D02*
X1380Y93D01*
X416Y92D02*
X425Y92D01*
X1370Y92D02*
X1379Y92D01*
X416Y91D02*
X425Y91D01*
X1369Y91D02*
X1378Y91D01*
X417Y90D02*
X426Y90D01*
X1368Y90D02*
X1378Y90D01*
X418Y89D02*
X427Y89D01*
X1368Y89D02*
X1377Y89D01*
X419Y88D02*
X428Y88D01*
X1367Y88D02*
X1376Y88D01*
X419Y87D02*
X429Y87D01*
X1366Y87D02*
X1375Y87D01*
X420Y86D02*
X430Y86D01*
X1365Y86D02*
X1375Y86D01*
X421Y85D02*
X431Y85D01*
X1364Y85D02*
X1374Y85D01*
X422Y84D02*
X432Y84D01*
X1363Y84D02*
X1373Y84D01*
X423Y83D02*
X433Y83D01*
X1362Y83D02*
X1372Y83D01*
X424Y82D02*
X434Y82D01*
X1361Y82D02*
X1371Y82D01*
X425Y81D02*
X435Y81D01*
X1360Y81D02*
X1370Y81D01*
X426Y80D02*
X436Y80D01*
X1359Y80D02*
X1369Y80D01*
X426Y79D02*
X437Y79D01*
X1358Y79D02*
X1368Y79D01*
X427Y78D02*
X438Y78D01*
X1356Y78D02*
X1367Y78D01*
X428Y77D02*
X440Y77D01*
X1355Y77D02*
X1366Y77D01*
X430Y76D02*
X441Y76D01*
X1354Y76D02*
X1365Y76D01*
X431Y75D02*
X442Y75D01*
X1352Y75D02*
X1364Y75D01*
X432Y74D02*
X444Y74D01*
X1351Y74D02*
X1363Y74D01*
X433Y73D02*
X445Y73D01*
X1350Y73D02*
X1362Y73D01*
X434Y72D02*
X446Y72D01*
X1348Y72D02*
X1361Y72D01*
X435Y71D02*
X448Y71D01*
X1347Y71D02*
X1359Y71D01*
X437Y70D02*
X450Y70D01*
X1345Y70D02*
X1358Y70D01*
X438Y69D02*
X451Y69D01*
X1343Y69D02*
X1357Y69D01*
X439Y68D02*
X453Y68D01*
X1342Y68D02*
X1356Y68D01*
X441Y67D02*
X455Y67D01*
X1340Y67D02*
X1354Y67D01*
X442Y66D02*
X457Y66D01*
X1338Y66D02*
X1353Y66D01*
X444Y65D02*
X459Y65D01*
X1335Y65D02*
X1351Y65D01*
X445Y64D02*
X462Y64D01*
X1333Y64D02*
X1349Y64D01*
X447Y63D02*
X464Y63D01*
X1331Y63D02*
X1348Y63D01*
X449Y62D02*
X467Y62D01*
X1328Y62D02*
X1346Y62D01*
X451Y61D02*
X470Y61D01*
X1325Y61D02*
X1344Y61D01*
X452Y60D02*
X473Y60D01*
X1322Y60D02*
X1342Y60D01*
X454Y59D02*
X477Y59D01*
X1317Y59D02*
X1340Y59D01*
X457Y58D02*
X483Y58D01*
X1312Y58D02*
X1338Y58D01*
X459Y57D02*
X495Y57D01*
X499Y57D02*
X1296Y57D01*
X1300Y57D02*
X1336Y57D01*
X461Y56D02*
X1333Y56D01*
X464Y55D02*
X1331Y55D01*
X467Y54D02*
X1328Y54D01*
X470Y53D02*
X1325Y53D01*
X474Y52D02*
X1321Y52D01*
X478Y51D02*
X1317Y51D01*
X484Y50D02*
X1311Y50D01*
X496Y49D02*
X497Y49D01*
X501Y49D02*
X501Y49D01*
X1294Y49D02*
X1294Y49D01*
X1298Y49D02*
X1299Y49D01*
D02*
G04 End of Silk1*
M02*