G04 MADE WITH FRITZING*
G04 WWW.FRITZING.ORG*
G04 DOUBLE SIDED*
G04 HOLES PLATED*
G04 CONTOUR ON CENTER OF CONTOUR VECTOR*
%ASAXBY*%
%FSLAX23Y23*%
%MOIN*%
%OFA0B0*%
%SFA1.0B1.0*%
%ADD10C,0.094488*%
%ADD11C,0.074000*%
%ADD12C,0.070000*%
%ADD13C,0.024000*%
%ADD14R,0.001000X0.001000*%
%LNCOPPER1*%
G90*
G70*
G54D10*
X1599Y701D03*
G54D11*
X1889Y401D03*
X1899Y501D03*
X1889Y601D03*
X1899Y701D03*
X1889Y401D03*
X1899Y501D03*
X1889Y601D03*
X1899Y701D03*
G54D10*
X1299Y301D03*
G54D12*
X1099Y301D03*
X1099Y401D03*
X1099Y501D03*
X1099Y601D03*
X1099Y701D03*
X1099Y801D03*
X1099Y901D03*
G54D13*
X1599Y300D02*
X1599Y674D01*
D02*
X1326Y300D02*
X1599Y300D01*
G54D14*
X1852Y438D02*
X1925Y438D01*
X1852Y437D02*
X1925Y437D01*
X1852Y436D02*
X1925Y436D01*
X1852Y435D02*
X1925Y435D01*
X1852Y434D02*
X1925Y434D01*
X1852Y433D02*
X1925Y433D01*
X1852Y432D02*
X1925Y432D01*
X1852Y431D02*
X1925Y431D01*
X1852Y430D02*
X1925Y430D01*
X1852Y429D02*
X1925Y429D01*
X1852Y428D02*
X1925Y428D01*
X1852Y427D02*
X1925Y427D01*
X1852Y426D02*
X1925Y426D01*
X1852Y425D02*
X1925Y425D01*
X1852Y424D02*
X1925Y424D01*
X1852Y423D02*
X1925Y423D01*
X1852Y422D02*
X1925Y422D01*
X1852Y421D02*
X1883Y421D01*
X1894Y421D02*
X1925Y421D01*
X1852Y420D02*
X1880Y420D01*
X1897Y420D02*
X1925Y420D01*
X1852Y419D02*
X1878Y419D01*
X1899Y419D02*
X1925Y419D01*
X1852Y418D02*
X1876Y418D01*
X1900Y418D02*
X1925Y418D01*
X1852Y417D02*
X1875Y417D01*
X1902Y417D02*
X1925Y417D01*
X1852Y416D02*
X1874Y416D01*
X1903Y416D02*
X1925Y416D01*
X1852Y415D02*
X1873Y415D01*
X1904Y415D02*
X1925Y415D01*
X1852Y414D02*
X1872Y414D01*
X1905Y414D02*
X1925Y414D01*
X1852Y413D02*
X1871Y413D01*
X1905Y413D02*
X1925Y413D01*
X1852Y412D02*
X1871Y412D01*
X1906Y412D02*
X1925Y412D01*
X1852Y411D02*
X1870Y411D01*
X1906Y411D02*
X1925Y411D01*
X1852Y410D02*
X1870Y410D01*
X1907Y410D02*
X1925Y410D01*
X1852Y409D02*
X1869Y409D01*
X1907Y409D02*
X1925Y409D01*
X1852Y408D02*
X1869Y408D01*
X1908Y408D02*
X1925Y408D01*
X1852Y407D02*
X1869Y407D01*
X1908Y407D02*
X1925Y407D01*
X1852Y406D02*
X1868Y406D01*
X1908Y406D02*
X1925Y406D01*
X1852Y405D02*
X1868Y405D01*
X1909Y405D02*
X1925Y405D01*
X1852Y404D02*
X1868Y404D01*
X1909Y404D02*
X1925Y404D01*
X1852Y403D02*
X1868Y403D01*
X1909Y403D02*
X1925Y403D01*
X1852Y402D02*
X1868Y402D01*
X1909Y402D02*
X1925Y402D01*
X1852Y401D02*
X1868Y401D01*
X1909Y401D02*
X1925Y401D01*
X1852Y400D02*
X1868Y400D01*
X1909Y400D02*
X1925Y400D01*
X1852Y399D02*
X1868Y399D01*
X1909Y399D02*
X1925Y399D01*
X1852Y398D02*
X1868Y398D01*
X1908Y398D02*
X1925Y398D01*
X1852Y397D02*
X1869Y397D01*
X1908Y397D02*
X1925Y397D01*
X1852Y396D02*
X1869Y396D01*
X1908Y396D02*
X1925Y396D01*
X1852Y395D02*
X1869Y395D01*
X1908Y395D02*
X1925Y395D01*
X1852Y394D02*
X1869Y394D01*
X1907Y394D02*
X1925Y394D01*
X1852Y393D02*
X1870Y393D01*
X1907Y393D02*
X1925Y393D01*
X1852Y392D02*
X1871Y392D01*
X1906Y392D02*
X1925Y392D01*
X1852Y391D02*
X1871Y391D01*
X1906Y391D02*
X1925Y391D01*
X1852Y390D02*
X1872Y390D01*
X1905Y390D02*
X1925Y390D01*
X1852Y389D02*
X1873Y389D01*
X1904Y389D02*
X1925Y389D01*
X1852Y388D02*
X1873Y388D01*
X1903Y388D02*
X1925Y388D01*
X1852Y387D02*
X1875Y387D01*
X1902Y387D02*
X1925Y387D01*
X1852Y386D02*
X1876Y386D01*
X1901Y386D02*
X1925Y386D01*
X1852Y385D02*
X1877Y385D01*
X1900Y385D02*
X1925Y385D01*
X1852Y384D02*
X1879Y384D01*
X1898Y384D02*
X1925Y384D01*
X1852Y383D02*
X1881Y383D01*
X1895Y383D02*
X1925Y383D01*
X1852Y382D02*
X1886Y382D01*
X1891Y382D02*
X1925Y382D01*
X1852Y381D02*
X1925Y381D01*
X1852Y380D02*
X1925Y380D01*
X1852Y379D02*
X1925Y379D01*
X1852Y378D02*
X1925Y378D01*
X1852Y377D02*
X1925Y377D01*
X1852Y376D02*
X1925Y376D01*
X1852Y375D02*
X1925Y375D01*
X1852Y374D02*
X1925Y374D01*
X1852Y373D02*
X1925Y373D01*
X1852Y372D02*
X1925Y372D01*
X1852Y371D02*
X1925Y371D01*
X1852Y370D02*
X1925Y370D01*
X1852Y369D02*
X1925Y369D01*
X1852Y368D02*
X1925Y368D01*
X1852Y367D02*
X1925Y367D01*
X1852Y366D02*
X1925Y366D01*
X1852Y365D02*
X1925Y365D01*
D02*
G04 End of Copper1*
M02*