G04 MADE WITH FRITZING*
G04 WWW.FRITZING.ORG*
G04 DOUBLE SIDED*
G04 HOLES PLATED*
G04 CONTOUR ON CENTER OF CONTOUR VECTOR*
%ASAXBY*%
%FSLAX23Y23*%
%MOIN*%
%OFA0B0*%
%SFA1.0B1.0*%
%ADD10R,2.099290X1.100650X2.083290X1.084650*%
%ADD11C,0.008000*%
%ADD12C,0.005000*%
%ADD13R,0.001000X0.001000*%
%LNSILK1*%
G90*
G70*
G54D11*
X4Y1097D02*
X2095Y1097D01*
X2095Y4D01*
X4Y4D01*
X4Y1097D01*
D02*
G54D12*
X1774Y351D02*
X1994Y351D01*
D02*
X1774Y751D02*
X1994Y751D01*
D02*
X1774Y751D02*
X1774Y351D01*
D02*
X1994Y751D02*
X1994Y701D01*
D02*
X1994Y701D02*
X1994Y401D01*
D02*
X1994Y401D02*
X1994Y351D01*
D02*
X1994Y401D02*
X1944Y401D01*
D02*
X1944Y401D02*
X1944Y701D01*
D02*
X1944Y701D02*
X1994Y701D01*
G54D13*
X390Y1093D02*
X397Y1093D01*
X389Y1092D02*
X398Y1092D01*
X387Y1091D02*
X399Y1091D01*
X386Y1090D02*
X399Y1090D01*
X386Y1089D02*
X398Y1089D01*
X385Y1088D02*
X398Y1088D01*
X385Y1087D02*
X396Y1087D01*
X384Y1086D02*
X391Y1086D01*
X384Y1085D02*
X390Y1085D01*
X384Y1084D02*
X390Y1084D01*
X384Y1083D02*
X390Y1083D01*
X384Y1082D02*
X390Y1082D01*
X384Y1081D02*
X390Y1081D01*
X384Y1080D02*
X390Y1080D01*
X384Y1079D02*
X390Y1079D01*
X384Y1078D02*
X390Y1078D01*
X384Y1077D02*
X391Y1077D01*
X384Y1076D02*
X391Y1076D01*
X384Y1075D02*
X392Y1075D01*
X385Y1074D02*
X393Y1074D01*
X386Y1073D02*
X394Y1073D01*
X387Y1072D02*
X395Y1072D01*
X387Y1071D02*
X396Y1071D01*
X388Y1070D02*
X397Y1070D01*
X389Y1069D02*
X397Y1069D01*
X390Y1068D02*
X398Y1068D01*
X391Y1067D02*
X399Y1067D01*
X386Y1066D02*
X420Y1066D01*
X385Y1065D02*
X421Y1065D01*
X384Y1064D02*
X422Y1064D01*
X384Y1063D02*
X422Y1063D01*
X384Y1062D02*
X422Y1062D01*
X384Y1061D02*
X422Y1061D01*
X385Y1060D02*
X421Y1060D01*
X396Y1043D02*
X421Y1043D01*
X390Y1042D02*
X422Y1042D01*
X388Y1041D02*
X422Y1041D01*
X387Y1040D02*
X422Y1040D01*
X386Y1039D02*
X422Y1039D01*
X385Y1038D02*
X421Y1038D01*
X385Y1037D02*
X420Y1037D01*
X385Y1036D02*
X396Y1036D01*
X399Y1036D02*
X407Y1036D01*
X412Y1036D02*
X419Y1036D01*
X384Y1035D02*
X391Y1035D01*
X399Y1035D02*
X405Y1035D01*
X413Y1035D02*
X420Y1035D01*
X384Y1034D02*
X390Y1034D01*
X399Y1034D02*
X405Y1034D01*
X413Y1034D02*
X421Y1034D01*
X384Y1033D02*
X390Y1033D01*
X399Y1033D02*
X405Y1033D01*
X414Y1033D02*
X421Y1033D01*
X384Y1032D02*
X390Y1032D01*
X399Y1032D02*
X405Y1032D01*
X415Y1032D02*
X422Y1032D01*
X384Y1031D02*
X390Y1031D01*
X399Y1031D02*
X405Y1031D01*
X415Y1031D02*
X422Y1031D01*
X384Y1030D02*
X390Y1030D01*
X399Y1030D02*
X405Y1030D01*
X416Y1030D02*
X422Y1030D01*
X384Y1029D02*
X390Y1029D01*
X399Y1029D02*
X405Y1029D01*
X416Y1029D02*
X422Y1029D01*
X384Y1028D02*
X390Y1028D01*
X399Y1028D02*
X405Y1028D01*
X416Y1028D02*
X422Y1028D01*
X384Y1027D02*
X390Y1027D01*
X399Y1027D02*
X405Y1027D01*
X416Y1027D02*
X422Y1027D01*
X384Y1026D02*
X390Y1026D01*
X399Y1026D02*
X405Y1026D01*
X416Y1026D02*
X422Y1026D01*
X384Y1025D02*
X390Y1025D01*
X399Y1025D02*
X405Y1025D01*
X416Y1025D02*
X422Y1025D01*
X384Y1024D02*
X390Y1024D01*
X399Y1024D02*
X405Y1024D01*
X416Y1024D02*
X422Y1024D01*
X384Y1023D02*
X390Y1023D01*
X399Y1023D02*
X405Y1023D01*
X416Y1023D02*
X422Y1023D01*
X384Y1022D02*
X390Y1022D01*
X399Y1022D02*
X405Y1022D01*
X416Y1022D02*
X422Y1022D01*
X384Y1021D02*
X390Y1021D01*
X399Y1021D02*
X405Y1021D01*
X416Y1021D02*
X422Y1021D01*
X384Y1020D02*
X390Y1020D01*
X399Y1020D02*
X405Y1020D01*
X416Y1020D02*
X422Y1020D01*
X384Y1019D02*
X390Y1019D01*
X399Y1019D02*
X405Y1019D01*
X416Y1019D02*
X422Y1019D01*
X384Y1018D02*
X389Y1018D01*
X399Y1018D02*
X405Y1018D01*
X416Y1018D02*
X422Y1018D01*
X385Y1017D02*
X389Y1017D01*
X399Y1017D02*
X406Y1017D01*
X415Y1017D02*
X422Y1017D01*
X399Y1016D02*
X422Y1016D01*
X400Y1015D02*
X421Y1015D01*
X400Y1014D02*
X421Y1014D01*
X401Y1013D02*
X420Y1013D01*
X402Y1012D02*
X419Y1012D01*
X403Y1011D02*
X418Y1011D01*
X405Y1010D02*
X416Y1010D01*
X376Y993D02*
X395Y993D01*
X374Y992D02*
X397Y992D01*
X373Y991D02*
X398Y991D01*
X372Y990D02*
X399Y990D01*
X371Y989D02*
X400Y989D01*
X370Y988D02*
X401Y988D01*
X370Y987D02*
X401Y987D01*
X370Y986D02*
X377Y986D01*
X394Y986D02*
X401Y986D01*
X369Y985D02*
X376Y985D01*
X395Y985D02*
X402Y985D01*
X369Y984D02*
X375Y984D01*
X396Y984D02*
X402Y984D01*
X369Y983D02*
X375Y983D01*
X396Y983D02*
X402Y983D01*
X369Y982D02*
X375Y982D01*
X396Y982D02*
X402Y982D01*
X369Y981D02*
X375Y981D01*
X396Y981D02*
X402Y981D01*
X369Y980D02*
X375Y980D01*
X396Y980D02*
X402Y980D01*
X369Y979D02*
X375Y979D01*
X396Y979D02*
X402Y979D01*
X369Y978D02*
X375Y978D01*
X396Y978D02*
X402Y978D01*
X369Y977D02*
X375Y977D01*
X396Y977D02*
X402Y977D01*
X369Y976D02*
X375Y976D01*
X396Y976D02*
X402Y976D01*
X369Y975D02*
X375Y975D01*
X396Y975D02*
X402Y975D01*
X369Y974D02*
X375Y974D01*
X396Y974D02*
X402Y974D01*
X369Y973D02*
X375Y973D01*
X396Y973D02*
X402Y973D01*
X369Y972D02*
X375Y972D01*
X396Y972D02*
X402Y972D01*
X369Y971D02*
X375Y971D01*
X396Y971D02*
X402Y971D01*
X369Y970D02*
X375Y970D01*
X396Y970D02*
X402Y970D01*
X369Y969D02*
X375Y969D01*
X396Y969D02*
X402Y969D01*
X369Y968D02*
X375Y968D01*
X396Y968D02*
X402Y968D01*
X369Y967D02*
X375Y967D01*
X396Y967D02*
X402Y967D01*
X369Y966D02*
X420Y966D01*
X369Y965D02*
X421Y965D01*
X369Y964D02*
X422Y964D01*
X369Y963D02*
X422Y963D01*
X369Y962D02*
X422Y962D01*
X369Y961D02*
X422Y961D01*
X369Y960D02*
X421Y960D01*
X539Y951D02*
X1108Y951D01*
X532Y950D02*
X1115Y950D01*
X527Y949D02*
X1120Y949D01*
X523Y948D02*
X1124Y948D01*
X520Y947D02*
X1127Y947D01*
X517Y946D02*
X1130Y946D01*
X514Y945D02*
X1133Y945D01*
X511Y944D02*
X1136Y944D01*
X509Y943D02*
X538Y943D01*
X1109Y943D02*
X1138Y943D01*
X507Y942D02*
X531Y942D01*
X1116Y942D02*
X1140Y942D01*
X505Y941D02*
X526Y941D01*
X1121Y941D02*
X1142Y941D01*
X503Y940D02*
X523Y940D01*
X1124Y940D02*
X1144Y940D01*
X501Y939D02*
X519Y939D01*
X1128Y939D02*
X1146Y939D01*
X499Y938D02*
X516Y938D01*
X1131Y938D02*
X1148Y938D01*
X497Y937D02*
X514Y937D01*
X1133Y937D02*
X1150Y937D01*
X496Y936D02*
X512Y936D01*
X1135Y936D02*
X1151Y936D01*
X494Y935D02*
X509Y935D01*
X1138Y935D02*
X1153Y935D01*
X493Y934D02*
X507Y934D01*
X1140Y934D02*
X1154Y934D01*
X491Y933D02*
X505Y933D01*
X1142Y933D02*
X1156Y933D01*
X490Y932D02*
X503Y932D01*
X1144Y932D02*
X1157Y932D01*
X489Y931D02*
X502Y931D01*
X1145Y931D02*
X1158Y931D01*
X487Y930D02*
X500Y930D01*
X1147Y930D02*
X1160Y930D01*
X486Y929D02*
X498Y929D01*
X1149Y929D02*
X1161Y929D01*
X485Y928D02*
X497Y928D01*
X1150Y928D02*
X1162Y928D01*
X483Y927D02*
X495Y927D01*
X1152Y927D02*
X1164Y927D01*
X482Y926D02*
X494Y926D01*
X1153Y926D02*
X1165Y926D01*
X481Y925D02*
X493Y925D01*
X1154Y925D02*
X1166Y925D01*
X480Y924D02*
X491Y924D01*
X1156Y924D02*
X1167Y924D01*
X479Y923D02*
X490Y923D01*
X1157Y923D02*
X1168Y923D01*
X478Y922D02*
X489Y922D01*
X1158Y922D02*
X1169Y922D01*
X477Y921D02*
X488Y921D01*
X1159Y921D02*
X1170Y921D01*
X476Y920D02*
X487Y920D01*
X1160Y920D02*
X1171Y920D01*
X475Y919D02*
X486Y919D01*
X1161Y919D02*
X1172Y919D01*
X474Y918D02*
X485Y918D01*
X1162Y918D02*
X1173Y918D01*
X473Y917D02*
X483Y917D01*
X1164Y917D02*
X1174Y917D01*
X473Y916D02*
X482Y916D01*
X1165Y916D02*
X1174Y916D01*
X472Y915D02*
X482Y915D01*
X1165Y915D02*
X1175Y915D01*
X471Y914D02*
X481Y914D01*
X1166Y914D02*
X1176Y914D01*
X470Y913D02*
X480Y913D01*
X1167Y913D02*
X1177Y913D01*
X470Y912D02*
X479Y912D01*
X1168Y912D02*
X1177Y912D01*
X469Y911D02*
X478Y911D01*
X1169Y911D02*
X1178Y911D01*
X468Y910D02*
X477Y910D01*
X1170Y910D02*
X1179Y910D01*
X467Y909D02*
X476Y909D01*
X1171Y909D02*
X1180Y909D01*
X467Y908D02*
X475Y908D01*
X1172Y908D02*
X1180Y908D01*
X466Y907D02*
X475Y907D01*
X1172Y907D02*
X1181Y907D01*
X465Y906D02*
X474Y906D01*
X1173Y906D02*
X1182Y906D01*
X465Y905D02*
X473Y905D01*
X1174Y905D02*
X1182Y905D01*
X464Y904D02*
X472Y904D01*
X1175Y904D02*
X1183Y904D01*
X463Y903D02*
X472Y903D01*
X1175Y903D02*
X1184Y903D01*
X463Y902D02*
X471Y902D01*
X1176Y902D02*
X1184Y902D01*
X462Y901D02*
X470Y901D01*
X1177Y901D02*
X1185Y901D01*
X462Y900D02*
X470Y900D01*
X1177Y900D02*
X1185Y900D01*
X461Y899D02*
X469Y899D01*
X1178Y899D02*
X1186Y899D01*
X461Y898D02*
X469Y898D01*
X1178Y898D02*
X1186Y898D01*
X460Y897D02*
X468Y897D01*
X1179Y897D02*
X1187Y897D01*
X460Y896D02*
X467Y896D01*
X1180Y896D02*
X1187Y896D01*
X1696Y896D02*
X1713Y896D01*
X1723Y896D02*
X1740Y896D01*
X459Y895D02*
X467Y895D01*
X1180Y895D02*
X1188Y895D01*
X1694Y895D02*
X1716Y895D01*
X1720Y895D02*
X1742Y895D01*
X459Y894D02*
X466Y894D01*
X1181Y894D02*
X1188Y894D01*
X1693Y894D02*
X1717Y894D01*
X1719Y894D02*
X1743Y894D01*
X458Y893D02*
X466Y893D01*
X1181Y893D02*
X1189Y893D01*
X1693Y893D02*
X1744Y893D01*
X458Y892D02*
X465Y892D01*
X1182Y892D02*
X1189Y892D01*
X1692Y892D02*
X1744Y892D01*
X457Y891D02*
X465Y891D01*
X1182Y891D02*
X1190Y891D01*
X1692Y891D02*
X1744Y891D01*
X457Y890D02*
X464Y890D01*
X1183Y890D02*
X1190Y890D01*
X1692Y890D02*
X1745Y890D01*
X456Y889D02*
X464Y889D01*
X1183Y889D02*
X1191Y889D01*
X1692Y889D02*
X1698Y889D01*
X1713Y889D02*
X1723Y889D01*
X1739Y889D02*
X1745Y889D01*
X456Y888D02*
X464Y888D01*
X1183Y888D02*
X1191Y888D01*
X1692Y888D02*
X1698Y888D01*
X1714Y888D02*
X1722Y888D01*
X1739Y888D02*
X1745Y888D01*
X456Y887D02*
X463Y887D01*
X1184Y887D02*
X1191Y887D01*
X1692Y887D02*
X1698Y887D01*
X1715Y887D02*
X1721Y887D01*
X1739Y887D02*
X1745Y887D01*
X455Y886D02*
X463Y886D01*
X1184Y886D02*
X1192Y886D01*
X1692Y886D02*
X1698Y886D01*
X1715Y886D02*
X1721Y886D01*
X1739Y886D02*
X1745Y886D01*
X455Y885D02*
X462Y885D01*
X1185Y885D02*
X1192Y885D01*
X1692Y885D02*
X1698Y885D01*
X1715Y885D02*
X1721Y885D01*
X1739Y885D02*
X1745Y885D01*
X455Y884D02*
X462Y884D01*
X1185Y884D02*
X1192Y884D01*
X1692Y884D02*
X1698Y884D01*
X1715Y884D02*
X1721Y884D01*
X1739Y884D02*
X1745Y884D01*
X454Y883D02*
X461Y883D01*
X1186Y883D02*
X1193Y883D01*
X1692Y883D02*
X1698Y883D01*
X1715Y883D02*
X1721Y883D01*
X1739Y883D02*
X1745Y883D01*
X454Y882D02*
X461Y882D01*
X1186Y882D02*
X1193Y882D01*
X1692Y882D02*
X1698Y882D01*
X1715Y882D02*
X1721Y882D01*
X1739Y882D02*
X1745Y882D01*
X454Y881D02*
X461Y881D01*
X1186Y881D02*
X1193Y881D01*
X1692Y881D02*
X1698Y881D01*
X1715Y881D02*
X1721Y881D01*
X1739Y881D02*
X1745Y881D01*
X453Y880D02*
X460Y880D01*
X1187Y880D02*
X1194Y880D01*
X1692Y880D02*
X1698Y880D01*
X1715Y880D02*
X1721Y880D01*
X1739Y880D02*
X1745Y880D01*
X453Y879D02*
X460Y879D01*
X1187Y879D02*
X1194Y879D01*
X1692Y879D02*
X1698Y879D01*
X1715Y879D02*
X1721Y879D01*
X1739Y879D02*
X1745Y879D01*
X453Y878D02*
X460Y878D01*
X1187Y878D02*
X1194Y878D01*
X1692Y878D02*
X1698Y878D01*
X1715Y878D02*
X1721Y878D01*
X1739Y878D02*
X1745Y878D01*
X452Y877D02*
X460Y877D01*
X1187Y877D02*
X1195Y877D01*
X1692Y877D02*
X1698Y877D01*
X1715Y877D02*
X1721Y877D01*
X1739Y877D02*
X1745Y877D01*
X452Y876D02*
X459Y876D01*
X1188Y876D02*
X1195Y876D01*
X1692Y876D02*
X1698Y876D01*
X1715Y876D02*
X1721Y876D01*
X1739Y876D02*
X1745Y876D01*
X452Y875D02*
X459Y875D01*
X1188Y875D02*
X1195Y875D01*
X1692Y875D02*
X1698Y875D01*
X1715Y875D02*
X1721Y875D01*
X1739Y875D02*
X1745Y875D01*
X452Y874D02*
X459Y874D01*
X1188Y874D02*
X1195Y874D01*
X1692Y874D02*
X1698Y874D01*
X1715Y874D02*
X1721Y874D01*
X1739Y874D02*
X1745Y874D01*
X451Y873D02*
X458Y873D01*
X1189Y873D02*
X1196Y873D01*
X1692Y873D02*
X1698Y873D01*
X1715Y873D02*
X1721Y873D01*
X1739Y873D02*
X1745Y873D01*
X451Y872D02*
X458Y872D01*
X1189Y872D02*
X1196Y872D01*
X1692Y872D02*
X1698Y872D01*
X1715Y872D02*
X1721Y872D01*
X1739Y872D02*
X1745Y872D01*
X451Y871D02*
X458Y871D01*
X1189Y871D02*
X1196Y871D01*
X1692Y871D02*
X1698Y871D01*
X1715Y871D02*
X1721Y871D01*
X1739Y871D02*
X1745Y871D01*
X451Y870D02*
X458Y870D01*
X1189Y870D02*
X1196Y870D01*
X1692Y870D02*
X1698Y870D01*
X1716Y870D02*
X1720Y870D01*
X1739Y870D02*
X1745Y870D01*
X451Y869D02*
X458Y869D01*
X1189Y869D02*
X1196Y869D01*
X1692Y869D02*
X1698Y869D01*
X1717Y869D02*
X1719Y869D01*
X1739Y869D02*
X1745Y869D01*
X450Y868D02*
X457Y868D01*
X1190Y868D02*
X1197Y868D01*
X1692Y868D02*
X1698Y868D01*
X1739Y868D02*
X1745Y868D01*
X450Y867D02*
X457Y867D01*
X1190Y867D02*
X1197Y867D01*
X1692Y867D02*
X1698Y867D01*
X1739Y867D02*
X1745Y867D01*
X450Y866D02*
X457Y866D01*
X1190Y866D02*
X1197Y866D01*
X1692Y866D02*
X1698Y866D01*
X1739Y866D02*
X1745Y866D01*
X450Y865D02*
X457Y865D01*
X1190Y865D02*
X1197Y865D01*
X1692Y865D02*
X1697Y865D01*
X1739Y865D02*
X1745Y865D01*
X450Y864D02*
X457Y864D01*
X1190Y864D02*
X1197Y864D01*
X1692Y864D02*
X1697Y864D01*
X1739Y864D02*
X1744Y864D01*
X450Y863D02*
X457Y863D01*
X1190Y863D02*
X1197Y863D01*
X1693Y863D02*
X1697Y863D01*
X1740Y863D02*
X1744Y863D01*
X450Y862D02*
X457Y862D01*
X1190Y862D02*
X1197Y862D01*
X1694Y862D02*
X1695Y862D01*
X1741Y862D02*
X1742Y862D01*
X450Y861D02*
X456Y861D01*
X1191Y861D02*
X1197Y861D01*
X449Y860D02*
X456Y860D01*
X1191Y860D02*
X1198Y860D01*
X449Y859D02*
X456Y859D01*
X1191Y859D02*
X1198Y859D01*
X449Y858D02*
X456Y858D01*
X1191Y858D02*
X1198Y858D01*
X449Y857D02*
X456Y857D01*
X1191Y857D02*
X1198Y857D01*
X449Y856D02*
X456Y856D01*
X1191Y856D02*
X1198Y856D01*
X449Y855D02*
X456Y855D01*
X1191Y855D02*
X1198Y855D01*
X449Y854D02*
X456Y854D01*
X1191Y854D02*
X1198Y854D01*
X449Y853D02*
X456Y853D01*
X1191Y853D02*
X1198Y853D01*
X449Y852D02*
X456Y852D01*
X1191Y852D02*
X1198Y852D01*
X449Y851D02*
X456Y851D01*
X1191Y851D02*
X1198Y851D01*
X449Y850D02*
X456Y850D01*
X1191Y850D02*
X1198Y850D01*
X449Y849D02*
X456Y849D01*
X1191Y849D02*
X1198Y849D01*
X449Y848D02*
X456Y848D01*
X1191Y848D02*
X1198Y848D01*
X449Y847D02*
X456Y847D01*
X1191Y847D02*
X1198Y847D01*
X449Y846D02*
X456Y846D01*
X1191Y846D02*
X1198Y846D01*
X1699Y846D02*
X1716Y846D01*
X449Y845D02*
X456Y845D01*
X1191Y845D02*
X1198Y845D01*
X1697Y845D02*
X1719Y845D01*
X449Y844D02*
X456Y844D01*
X1191Y844D02*
X1198Y844D01*
X1695Y844D02*
X1720Y844D01*
X449Y843D02*
X456Y843D01*
X1191Y843D02*
X1198Y843D01*
X1694Y843D02*
X1721Y843D01*
X449Y842D02*
X456Y842D01*
X1191Y842D02*
X1198Y842D01*
X1693Y842D02*
X1722Y842D01*
X449Y841D02*
X456Y841D01*
X1191Y841D02*
X1198Y841D01*
X1693Y841D02*
X1723Y841D01*
X449Y840D02*
X456Y840D01*
X1191Y840D02*
X1198Y840D01*
X1692Y840D02*
X1723Y840D01*
X449Y839D02*
X456Y839D01*
X1191Y839D02*
X1198Y839D01*
X1692Y839D02*
X1699Y839D01*
X1716Y839D02*
X1724Y839D01*
X449Y838D02*
X456Y838D01*
X1191Y838D02*
X1198Y838D01*
X1692Y838D02*
X1698Y838D01*
X1717Y838D02*
X1724Y838D01*
X449Y837D02*
X456Y837D01*
X1191Y837D02*
X1198Y837D01*
X1692Y837D02*
X1698Y837D01*
X1718Y837D02*
X1724Y837D01*
X449Y836D02*
X456Y836D01*
X1191Y836D02*
X1198Y836D01*
X1692Y836D02*
X1698Y836D01*
X1718Y836D02*
X1724Y836D01*
X449Y835D02*
X456Y835D01*
X1191Y835D02*
X1198Y835D01*
X1692Y835D02*
X1698Y835D01*
X1718Y835D02*
X1724Y835D01*
X449Y834D02*
X456Y834D01*
X1191Y834D02*
X1198Y834D01*
X1692Y834D02*
X1698Y834D01*
X1718Y834D02*
X1724Y834D01*
X449Y833D02*
X456Y833D01*
X1191Y833D02*
X1198Y833D01*
X1692Y833D02*
X1698Y833D01*
X1718Y833D02*
X1724Y833D01*
X449Y832D02*
X456Y832D01*
X1191Y832D02*
X1198Y832D01*
X1692Y832D02*
X1698Y832D01*
X1718Y832D02*
X1724Y832D01*
X449Y831D02*
X456Y831D01*
X1191Y831D02*
X1198Y831D01*
X1692Y831D02*
X1698Y831D01*
X1718Y831D02*
X1724Y831D01*
X449Y830D02*
X456Y830D01*
X1191Y830D02*
X1198Y830D01*
X1692Y830D02*
X1698Y830D01*
X1718Y830D02*
X1724Y830D01*
X449Y829D02*
X456Y829D01*
X1191Y829D02*
X1198Y829D01*
X1692Y829D02*
X1698Y829D01*
X1718Y829D02*
X1724Y829D01*
X449Y828D02*
X456Y828D01*
X1191Y828D02*
X1198Y828D01*
X1692Y828D02*
X1698Y828D01*
X1718Y828D02*
X1724Y828D01*
X449Y827D02*
X456Y827D01*
X1191Y827D02*
X1198Y827D01*
X1692Y827D02*
X1698Y827D01*
X1718Y827D02*
X1724Y827D01*
X449Y826D02*
X456Y826D01*
X1191Y826D02*
X1198Y826D01*
X1692Y826D02*
X1698Y826D01*
X1718Y826D02*
X1724Y826D01*
X449Y825D02*
X456Y825D01*
X1191Y825D02*
X1198Y825D01*
X1692Y825D02*
X1698Y825D01*
X1718Y825D02*
X1724Y825D01*
X449Y824D02*
X456Y824D01*
X1191Y824D02*
X1198Y824D01*
X1692Y824D02*
X1698Y824D01*
X1718Y824D02*
X1724Y824D01*
X449Y823D02*
X456Y823D01*
X1191Y823D02*
X1198Y823D01*
X1692Y823D02*
X1698Y823D01*
X1718Y823D02*
X1724Y823D01*
X449Y822D02*
X456Y822D01*
X1191Y822D02*
X1198Y822D01*
X1692Y822D02*
X1698Y822D01*
X1718Y822D02*
X1724Y822D01*
X449Y821D02*
X456Y821D01*
X1191Y821D02*
X1198Y821D01*
X1692Y821D02*
X1698Y821D01*
X1718Y821D02*
X1724Y821D01*
X449Y820D02*
X456Y820D01*
X1191Y820D02*
X1198Y820D01*
X1692Y820D02*
X1698Y820D01*
X1718Y820D02*
X1724Y820D01*
X449Y819D02*
X456Y819D01*
X1191Y819D02*
X1198Y819D01*
X1692Y819D02*
X1698Y819D01*
X1718Y819D02*
X1724Y819D01*
X449Y818D02*
X456Y818D01*
X1191Y818D02*
X1198Y818D01*
X1692Y818D02*
X1743Y818D01*
X449Y817D02*
X456Y817D01*
X1191Y817D02*
X1198Y817D01*
X1692Y817D02*
X1744Y817D01*
X449Y816D02*
X456Y816D01*
X1191Y816D02*
X1198Y816D01*
X1692Y816D02*
X1745Y816D01*
X449Y815D02*
X456Y815D01*
X1191Y815D02*
X1198Y815D01*
X1692Y815D02*
X1745Y815D01*
X449Y814D02*
X456Y814D01*
X1191Y814D02*
X1198Y814D01*
X1692Y814D02*
X1744Y814D01*
X449Y813D02*
X456Y813D01*
X1191Y813D02*
X1198Y813D01*
X1692Y813D02*
X1744Y813D01*
X449Y812D02*
X456Y812D01*
X1191Y812D02*
X1198Y812D01*
X1692Y812D02*
X1742Y812D01*
X449Y811D02*
X456Y811D01*
X1191Y811D02*
X1198Y811D01*
X449Y810D02*
X456Y810D01*
X1191Y810D02*
X1198Y810D01*
X449Y809D02*
X456Y809D01*
X1191Y809D02*
X1198Y809D01*
X449Y808D02*
X456Y808D01*
X1191Y808D02*
X1198Y808D01*
X449Y807D02*
X456Y807D01*
X1191Y807D02*
X1198Y807D01*
X449Y806D02*
X456Y806D01*
X1191Y806D02*
X1198Y806D01*
X449Y805D02*
X456Y805D01*
X1191Y805D02*
X1198Y805D01*
X449Y804D02*
X456Y804D01*
X1191Y804D02*
X1198Y804D01*
X449Y803D02*
X456Y803D01*
X1191Y803D02*
X1198Y803D01*
X449Y802D02*
X456Y802D01*
X1191Y802D02*
X1198Y802D01*
X449Y801D02*
X456Y801D01*
X1191Y801D02*
X1198Y801D01*
X449Y800D02*
X456Y800D01*
X1191Y800D02*
X1198Y800D01*
X449Y799D02*
X456Y799D01*
X1191Y799D02*
X1198Y799D01*
X449Y798D02*
X456Y798D01*
X1191Y798D02*
X1198Y798D01*
X449Y797D02*
X456Y797D01*
X1191Y797D02*
X1198Y797D01*
X449Y796D02*
X456Y796D01*
X1191Y796D02*
X1198Y796D01*
X449Y795D02*
X456Y795D01*
X1191Y795D02*
X1198Y795D01*
X449Y794D02*
X456Y794D01*
X1191Y794D02*
X1198Y794D01*
X449Y793D02*
X456Y793D01*
X1191Y793D02*
X1198Y793D01*
X1695Y793D02*
X1734Y793D01*
X449Y792D02*
X456Y792D01*
X1191Y792D02*
X1198Y792D01*
X1693Y792D02*
X1739Y792D01*
X449Y791D02*
X456Y791D01*
X1191Y791D02*
X1198Y791D01*
X1692Y791D02*
X1740Y791D01*
X449Y790D02*
X456Y790D01*
X1191Y790D02*
X1198Y790D01*
X1692Y790D02*
X1741Y790D01*
X449Y789D02*
X456Y789D01*
X1191Y789D02*
X1198Y789D01*
X1692Y789D02*
X1742Y789D01*
X449Y788D02*
X456Y788D01*
X1191Y788D02*
X1198Y788D01*
X1692Y788D02*
X1743Y788D01*
X449Y787D02*
X456Y787D01*
X1191Y787D02*
X1198Y787D01*
X1693Y787D02*
X1744Y787D01*
X449Y786D02*
X456Y786D01*
X1191Y786D02*
X1198Y786D01*
X1695Y786D02*
X1744Y786D01*
X449Y785D02*
X456Y785D01*
X1191Y785D02*
X1198Y785D01*
X1737Y785D02*
X1744Y785D01*
X449Y784D02*
X456Y784D01*
X1191Y784D02*
X1198Y784D01*
X1738Y784D02*
X1745Y784D01*
X449Y783D02*
X456Y783D01*
X1191Y783D02*
X1198Y783D01*
X1739Y783D02*
X1745Y783D01*
X449Y782D02*
X456Y782D01*
X1191Y782D02*
X1198Y782D01*
X1739Y782D02*
X1745Y782D01*
X449Y781D02*
X456Y781D01*
X1191Y781D02*
X1198Y781D01*
X1739Y781D02*
X1745Y781D01*
X449Y780D02*
X456Y780D01*
X1191Y780D02*
X1198Y780D01*
X1739Y780D02*
X1745Y780D01*
X449Y779D02*
X456Y779D01*
X1191Y779D02*
X1198Y779D01*
X1739Y779D02*
X1745Y779D01*
X449Y778D02*
X456Y778D01*
X1191Y778D02*
X1198Y778D01*
X1739Y778D02*
X1745Y778D01*
X449Y777D02*
X456Y777D01*
X1191Y777D02*
X1198Y777D01*
X1739Y777D02*
X1745Y777D01*
X449Y776D02*
X456Y776D01*
X1191Y776D02*
X1198Y776D01*
X1739Y776D02*
X1745Y776D01*
X449Y775D02*
X456Y775D01*
X1191Y775D02*
X1198Y775D01*
X1738Y775D02*
X1745Y775D01*
X449Y774D02*
X456Y774D01*
X1191Y774D02*
X1198Y774D01*
X1738Y774D02*
X1744Y774D01*
X449Y773D02*
X456Y773D01*
X1191Y773D02*
X1198Y773D01*
X1737Y773D02*
X1744Y773D01*
X449Y772D02*
X456Y772D01*
X1191Y772D02*
X1198Y772D01*
X1723Y772D02*
X1744Y772D01*
X449Y771D02*
X456Y771D01*
X1191Y771D02*
X1198Y771D01*
X1722Y771D02*
X1743Y771D01*
X449Y770D02*
X456Y770D01*
X1191Y770D02*
X1198Y770D01*
X1721Y770D02*
X1743Y770D01*
X449Y769D02*
X456Y769D01*
X1191Y769D02*
X1198Y769D01*
X1721Y769D02*
X1742Y769D01*
X449Y768D02*
X456Y768D01*
X1191Y768D02*
X1198Y768D01*
X1721Y768D02*
X1741Y768D01*
X449Y767D02*
X456Y767D01*
X1191Y767D02*
X1198Y767D01*
X1722Y767D02*
X1740Y767D01*
X449Y766D02*
X456Y766D01*
X1191Y766D02*
X1198Y766D01*
X1723Y766D02*
X1738Y766D01*
X449Y765D02*
X456Y765D01*
X1191Y765D02*
X1198Y765D01*
X449Y764D02*
X456Y764D01*
X1191Y764D02*
X1198Y764D01*
X449Y763D02*
X456Y763D01*
X1191Y763D02*
X1198Y763D01*
X449Y762D02*
X456Y762D01*
X1191Y762D02*
X1198Y762D01*
X449Y761D02*
X456Y761D01*
X1191Y761D02*
X1198Y761D01*
X449Y760D02*
X456Y760D01*
X1191Y760D02*
X1198Y760D01*
X449Y759D02*
X456Y759D01*
X1191Y759D02*
X1198Y759D01*
X449Y758D02*
X456Y758D01*
X1191Y758D02*
X1198Y758D01*
X449Y757D02*
X456Y757D01*
X1191Y757D02*
X1198Y757D01*
X449Y756D02*
X456Y756D01*
X1191Y756D02*
X1198Y756D01*
X449Y755D02*
X456Y755D01*
X1191Y755D02*
X1198Y755D01*
X449Y754D02*
X456Y754D01*
X1191Y754D02*
X1198Y754D01*
X449Y753D02*
X456Y753D01*
X1191Y753D02*
X1198Y753D01*
X449Y752D02*
X456Y752D01*
X1191Y752D02*
X1198Y752D01*
X449Y751D02*
X456Y751D01*
X1191Y751D02*
X1198Y751D01*
X449Y750D02*
X456Y750D01*
X1191Y750D02*
X1198Y750D01*
X449Y749D02*
X456Y749D01*
X1191Y749D02*
X1198Y749D01*
X449Y748D02*
X456Y748D01*
X1191Y748D02*
X1198Y748D01*
X449Y747D02*
X456Y747D01*
X1191Y747D02*
X1198Y747D01*
X449Y746D02*
X456Y746D01*
X1191Y746D02*
X1198Y746D01*
X449Y745D02*
X456Y745D01*
X1191Y745D02*
X1198Y745D01*
X449Y744D02*
X456Y744D01*
X1191Y744D02*
X1198Y744D01*
X449Y743D02*
X456Y743D01*
X1191Y743D02*
X1198Y743D01*
X449Y742D02*
X456Y742D01*
X1191Y742D02*
X1198Y742D01*
X449Y741D02*
X456Y741D01*
X1191Y741D02*
X1198Y741D01*
X449Y740D02*
X456Y740D01*
X1191Y740D02*
X1198Y740D01*
X449Y739D02*
X456Y739D01*
X1191Y739D02*
X1198Y739D01*
X449Y738D02*
X456Y738D01*
X1191Y738D02*
X1198Y738D01*
X449Y737D02*
X456Y737D01*
X1191Y737D02*
X1198Y737D01*
X449Y736D02*
X456Y736D01*
X1191Y736D02*
X1198Y736D01*
X449Y735D02*
X456Y735D01*
X1191Y735D02*
X1198Y735D01*
X449Y734D02*
X456Y734D01*
X1191Y734D02*
X1198Y734D01*
X449Y733D02*
X456Y733D01*
X1191Y733D02*
X1198Y733D01*
X449Y732D02*
X456Y732D01*
X1191Y732D02*
X1198Y732D01*
X449Y731D02*
X456Y731D01*
X1191Y731D02*
X1198Y731D01*
X449Y730D02*
X456Y730D01*
X1191Y730D02*
X1198Y730D01*
X449Y729D02*
X456Y729D01*
X1191Y729D02*
X1198Y729D01*
X449Y728D02*
X456Y728D01*
X1191Y728D02*
X1198Y728D01*
X449Y727D02*
X456Y727D01*
X1191Y727D02*
X1198Y727D01*
X449Y726D02*
X456Y726D01*
X1191Y726D02*
X1198Y726D01*
X449Y725D02*
X456Y725D01*
X1191Y725D02*
X1198Y725D01*
X449Y724D02*
X456Y724D01*
X1191Y724D02*
X1198Y724D01*
X449Y723D02*
X456Y723D01*
X1191Y723D02*
X1198Y723D01*
X449Y722D02*
X456Y722D01*
X1191Y722D02*
X1198Y722D01*
X449Y721D02*
X456Y721D01*
X1191Y721D02*
X1198Y721D01*
X449Y720D02*
X456Y720D01*
X1191Y720D02*
X1198Y720D01*
X449Y719D02*
X456Y719D01*
X1191Y719D02*
X1198Y719D01*
X449Y718D02*
X456Y718D01*
X1191Y718D02*
X1198Y718D01*
X449Y717D02*
X456Y717D01*
X1191Y717D02*
X1198Y717D01*
X449Y716D02*
X456Y716D01*
X1191Y716D02*
X1198Y716D01*
X449Y715D02*
X456Y715D01*
X1191Y715D02*
X1198Y715D01*
X449Y714D02*
X456Y714D01*
X1191Y714D02*
X1198Y714D01*
X449Y713D02*
X456Y713D01*
X1191Y713D02*
X1198Y713D01*
X449Y712D02*
X456Y712D01*
X1191Y712D02*
X1198Y712D01*
X449Y711D02*
X456Y711D01*
X1191Y711D02*
X1198Y711D01*
X449Y710D02*
X456Y710D01*
X1191Y710D02*
X1198Y710D01*
X449Y709D02*
X456Y709D01*
X1191Y709D02*
X1198Y709D01*
X449Y708D02*
X456Y708D01*
X1191Y708D02*
X1198Y708D01*
X449Y707D02*
X456Y707D01*
X1191Y707D02*
X1198Y707D01*
X449Y706D02*
X456Y706D01*
X1191Y706D02*
X1198Y706D01*
X449Y705D02*
X456Y705D01*
X1191Y705D02*
X1198Y705D01*
X449Y704D02*
X456Y704D01*
X1191Y704D02*
X1198Y704D01*
X449Y703D02*
X456Y703D01*
X1191Y703D02*
X1198Y703D01*
X449Y702D02*
X456Y702D01*
X1191Y702D02*
X1198Y702D01*
X449Y701D02*
X456Y701D01*
X1191Y701D02*
X1198Y701D01*
X449Y700D02*
X456Y700D01*
X1191Y700D02*
X1198Y700D01*
X449Y699D02*
X456Y699D01*
X1191Y699D02*
X1198Y699D01*
X449Y698D02*
X456Y698D01*
X1191Y698D02*
X1198Y698D01*
X449Y697D02*
X456Y697D01*
X1191Y697D02*
X1198Y697D01*
X449Y696D02*
X456Y696D01*
X1191Y696D02*
X1198Y696D01*
X449Y695D02*
X456Y695D01*
X1191Y695D02*
X1198Y695D01*
X449Y694D02*
X456Y694D01*
X1191Y694D02*
X1198Y694D01*
X449Y693D02*
X456Y693D01*
X1191Y693D02*
X1198Y693D01*
X449Y692D02*
X456Y692D01*
X1191Y692D02*
X1198Y692D01*
X449Y691D02*
X456Y691D01*
X1191Y691D02*
X1198Y691D01*
X449Y690D02*
X456Y690D01*
X1191Y690D02*
X1198Y690D01*
X449Y689D02*
X456Y689D01*
X1191Y689D02*
X1198Y689D01*
X449Y688D02*
X456Y688D01*
X1191Y688D02*
X1198Y688D01*
X449Y687D02*
X456Y687D01*
X1191Y687D02*
X1198Y687D01*
X449Y686D02*
X456Y686D01*
X1191Y686D02*
X1198Y686D01*
X449Y685D02*
X456Y685D01*
X1191Y685D02*
X1198Y685D01*
X449Y684D02*
X456Y684D01*
X1191Y684D02*
X1198Y684D01*
X449Y683D02*
X456Y683D01*
X1191Y683D02*
X1198Y683D01*
X449Y682D02*
X456Y682D01*
X1191Y682D02*
X1198Y682D01*
X449Y681D02*
X456Y681D01*
X1191Y681D02*
X1198Y681D01*
X449Y680D02*
X456Y680D01*
X1191Y680D02*
X1198Y680D01*
X449Y679D02*
X456Y679D01*
X1191Y679D02*
X1198Y679D01*
X449Y678D02*
X456Y678D01*
X1191Y678D02*
X1198Y678D01*
X449Y677D02*
X456Y677D01*
X1191Y677D02*
X1198Y677D01*
X449Y676D02*
X456Y676D01*
X1191Y676D02*
X1198Y676D01*
X449Y675D02*
X456Y675D01*
X1191Y675D02*
X1198Y675D01*
X449Y674D02*
X456Y674D01*
X1191Y674D02*
X1198Y674D01*
X449Y673D02*
X456Y673D01*
X1191Y673D02*
X1198Y673D01*
X449Y672D02*
X456Y672D01*
X1191Y672D02*
X1198Y672D01*
X449Y671D02*
X456Y671D01*
X1191Y671D02*
X1198Y671D01*
X449Y670D02*
X456Y670D01*
X1191Y670D02*
X1198Y670D01*
X449Y669D02*
X456Y669D01*
X1191Y669D02*
X1198Y669D01*
X449Y668D02*
X456Y668D01*
X1191Y668D02*
X1198Y668D01*
X449Y667D02*
X456Y667D01*
X1191Y667D02*
X1198Y667D01*
X449Y666D02*
X456Y666D01*
X1191Y666D02*
X1198Y666D01*
X449Y665D02*
X456Y665D01*
X1191Y665D02*
X1198Y665D01*
X449Y664D02*
X456Y664D01*
X1191Y664D02*
X1198Y664D01*
X449Y663D02*
X456Y663D01*
X1191Y663D02*
X1198Y663D01*
X449Y662D02*
X456Y662D01*
X1191Y662D02*
X1198Y662D01*
X449Y661D02*
X456Y661D01*
X1191Y661D02*
X1198Y661D01*
X449Y660D02*
X456Y660D01*
X1191Y660D02*
X1198Y660D01*
X449Y659D02*
X456Y659D01*
X1191Y659D02*
X1198Y659D01*
X449Y658D02*
X456Y658D01*
X1191Y658D02*
X1198Y658D01*
X449Y657D02*
X456Y657D01*
X1191Y657D02*
X1198Y657D01*
X449Y656D02*
X456Y656D01*
X1191Y656D02*
X1198Y656D01*
X449Y655D02*
X456Y655D01*
X1191Y655D02*
X1198Y655D01*
X449Y654D02*
X456Y654D01*
X1191Y654D02*
X1198Y654D01*
X449Y653D02*
X456Y653D01*
X1191Y653D02*
X1198Y653D01*
X449Y652D02*
X456Y652D01*
X1191Y652D02*
X1198Y652D01*
X449Y651D02*
X456Y651D01*
X1191Y651D02*
X1198Y651D01*
X449Y650D02*
X456Y650D01*
X1191Y650D02*
X1198Y650D01*
X449Y649D02*
X456Y649D01*
X1191Y649D02*
X1198Y649D01*
X449Y648D02*
X456Y648D01*
X1191Y648D02*
X1198Y648D01*
X449Y647D02*
X456Y647D01*
X1191Y647D02*
X1198Y647D01*
X449Y646D02*
X456Y646D01*
X1191Y646D02*
X1198Y646D01*
X449Y645D02*
X456Y645D01*
X1191Y645D02*
X1198Y645D01*
X449Y644D02*
X456Y644D01*
X1191Y644D02*
X1198Y644D01*
X449Y643D02*
X456Y643D01*
X1191Y643D02*
X1198Y643D01*
X449Y642D02*
X456Y642D01*
X1191Y642D02*
X1198Y642D01*
X449Y641D02*
X456Y641D01*
X1191Y641D02*
X1198Y641D01*
X449Y640D02*
X456Y640D01*
X1191Y640D02*
X1198Y640D01*
X449Y639D02*
X456Y639D01*
X1191Y639D02*
X1198Y639D01*
X449Y638D02*
X456Y638D01*
X1191Y638D02*
X1198Y638D01*
X449Y637D02*
X456Y637D01*
X1191Y637D02*
X1198Y637D01*
X449Y636D02*
X456Y636D01*
X1191Y636D02*
X1198Y636D01*
X449Y635D02*
X456Y635D01*
X1191Y635D02*
X1198Y635D01*
X449Y634D02*
X456Y634D01*
X1191Y634D02*
X1198Y634D01*
X449Y633D02*
X456Y633D01*
X1191Y633D02*
X1198Y633D01*
X449Y632D02*
X456Y632D01*
X1191Y632D02*
X1198Y632D01*
X449Y631D02*
X456Y631D01*
X1191Y631D02*
X1198Y631D01*
X449Y630D02*
X456Y630D01*
X1191Y630D02*
X1198Y630D01*
X449Y629D02*
X456Y629D01*
X1191Y629D02*
X1198Y629D01*
X449Y628D02*
X456Y628D01*
X1191Y628D02*
X1198Y628D01*
X449Y627D02*
X456Y627D01*
X1191Y627D02*
X1198Y627D01*
X449Y626D02*
X456Y626D01*
X1191Y626D02*
X1198Y626D01*
X449Y625D02*
X456Y625D01*
X1191Y625D02*
X1198Y625D01*
X449Y624D02*
X456Y624D01*
X1191Y624D02*
X1198Y624D01*
X449Y623D02*
X456Y623D01*
X1191Y623D02*
X1198Y623D01*
X449Y622D02*
X456Y622D01*
X1191Y622D02*
X1198Y622D01*
X449Y621D02*
X456Y621D01*
X1191Y621D02*
X1198Y621D01*
X449Y620D02*
X456Y620D01*
X1191Y620D02*
X1198Y620D01*
X449Y619D02*
X456Y619D01*
X1191Y619D02*
X1198Y619D01*
X449Y618D02*
X456Y618D01*
X1191Y618D02*
X1198Y618D01*
X449Y617D02*
X456Y617D01*
X1191Y617D02*
X1198Y617D01*
X449Y616D02*
X456Y616D01*
X1191Y616D02*
X1198Y616D01*
X449Y615D02*
X456Y615D01*
X1191Y615D02*
X1198Y615D01*
X449Y614D02*
X456Y614D01*
X1191Y614D02*
X1198Y614D01*
X449Y613D02*
X456Y613D01*
X1191Y613D02*
X1198Y613D01*
X449Y612D02*
X456Y612D01*
X1191Y612D02*
X1198Y612D01*
X449Y611D02*
X456Y611D01*
X1191Y611D02*
X1198Y611D01*
X449Y610D02*
X456Y610D01*
X1191Y610D02*
X1198Y610D01*
X449Y609D02*
X456Y609D01*
X1191Y609D02*
X1198Y609D01*
X449Y608D02*
X456Y608D01*
X1191Y608D02*
X1198Y608D01*
X449Y607D02*
X456Y607D01*
X1191Y607D02*
X1198Y607D01*
X449Y606D02*
X456Y606D01*
X1191Y606D02*
X1198Y606D01*
X449Y605D02*
X456Y605D01*
X1191Y605D02*
X1198Y605D01*
X449Y604D02*
X456Y604D01*
X1191Y604D02*
X1198Y604D01*
X449Y603D02*
X456Y603D01*
X1191Y603D02*
X1198Y603D01*
X449Y602D02*
X456Y602D01*
X1191Y602D02*
X1198Y602D01*
X449Y601D02*
X456Y601D01*
X1191Y601D02*
X1198Y601D01*
X449Y600D02*
X456Y600D01*
X1191Y600D02*
X1198Y600D01*
X449Y599D02*
X456Y599D01*
X1191Y599D02*
X1198Y599D01*
X449Y598D02*
X456Y598D01*
X1191Y598D02*
X1198Y598D01*
X449Y597D02*
X456Y597D01*
X1191Y597D02*
X1198Y597D01*
X449Y596D02*
X456Y596D01*
X1191Y596D02*
X1198Y596D01*
X449Y595D02*
X456Y595D01*
X1191Y595D02*
X1198Y595D01*
X449Y594D02*
X456Y594D01*
X1191Y594D02*
X1198Y594D01*
X449Y593D02*
X456Y593D01*
X1191Y593D02*
X1198Y593D01*
X449Y592D02*
X456Y592D01*
X1191Y592D02*
X1198Y592D01*
X449Y591D02*
X456Y591D01*
X1191Y591D02*
X1198Y591D01*
X449Y590D02*
X456Y590D01*
X1191Y590D02*
X1198Y590D01*
X449Y589D02*
X456Y589D01*
X1191Y589D02*
X1198Y589D01*
X449Y588D02*
X456Y588D01*
X1191Y588D02*
X1198Y588D01*
X449Y587D02*
X456Y587D01*
X1191Y587D02*
X1198Y587D01*
X449Y586D02*
X456Y586D01*
X1191Y586D02*
X1198Y586D01*
X449Y585D02*
X456Y585D01*
X1191Y585D02*
X1198Y585D01*
X449Y584D02*
X456Y584D01*
X1191Y584D02*
X1198Y584D01*
X449Y583D02*
X456Y583D01*
X1191Y583D02*
X1198Y583D01*
X449Y582D02*
X456Y582D01*
X1191Y582D02*
X1198Y582D01*
X449Y581D02*
X456Y581D01*
X1191Y581D02*
X1198Y581D01*
X449Y580D02*
X456Y580D01*
X1191Y580D02*
X1198Y580D01*
X449Y579D02*
X456Y579D01*
X1191Y579D02*
X1198Y579D01*
X449Y578D02*
X456Y578D01*
X1191Y578D02*
X1198Y578D01*
X449Y577D02*
X456Y577D01*
X1191Y577D02*
X1198Y577D01*
X449Y576D02*
X456Y576D01*
X1191Y576D02*
X1198Y576D01*
X449Y575D02*
X456Y575D01*
X1191Y575D02*
X1198Y575D01*
X449Y574D02*
X456Y574D01*
X1191Y574D02*
X1198Y574D01*
X449Y573D02*
X456Y573D01*
X1191Y573D02*
X1198Y573D01*
X449Y572D02*
X456Y572D01*
X1191Y572D02*
X1198Y572D01*
X449Y571D02*
X456Y571D01*
X1191Y571D02*
X1198Y571D01*
X449Y570D02*
X456Y570D01*
X1191Y570D02*
X1198Y570D01*
X449Y569D02*
X456Y569D01*
X1191Y569D02*
X1198Y569D01*
X449Y568D02*
X456Y568D01*
X1191Y568D02*
X1198Y568D01*
X449Y567D02*
X456Y567D01*
X1191Y567D02*
X1198Y567D01*
X449Y566D02*
X456Y566D01*
X1191Y566D02*
X1198Y566D01*
X449Y565D02*
X456Y565D01*
X1191Y565D02*
X1198Y565D01*
X449Y564D02*
X456Y564D01*
X1191Y564D02*
X1198Y564D01*
X449Y563D02*
X456Y563D01*
X1191Y563D02*
X1198Y563D01*
X449Y562D02*
X456Y562D01*
X1191Y562D02*
X1198Y562D01*
X449Y561D02*
X456Y561D01*
X1191Y561D02*
X1198Y561D01*
X449Y560D02*
X456Y560D01*
X1191Y560D02*
X1198Y560D01*
X449Y559D02*
X456Y559D01*
X1191Y559D02*
X1198Y559D01*
X449Y558D02*
X456Y558D01*
X1191Y558D02*
X1198Y558D01*
X449Y557D02*
X456Y557D01*
X1191Y557D02*
X1198Y557D01*
X449Y556D02*
X456Y556D01*
X1191Y556D02*
X1198Y556D01*
X449Y555D02*
X456Y555D01*
X1191Y555D02*
X1198Y555D01*
X449Y554D02*
X456Y554D01*
X1191Y554D02*
X1198Y554D01*
X449Y553D02*
X456Y553D01*
X1191Y553D02*
X1198Y553D01*
X449Y552D02*
X456Y552D01*
X1191Y552D02*
X1198Y552D01*
X449Y551D02*
X456Y551D01*
X1191Y551D02*
X1198Y551D01*
X449Y550D02*
X456Y550D01*
X1191Y550D02*
X1198Y550D01*
X449Y549D02*
X456Y549D01*
X1191Y549D02*
X1198Y549D01*
X449Y548D02*
X456Y548D01*
X1191Y548D02*
X1198Y548D01*
X449Y547D02*
X456Y547D01*
X1191Y547D02*
X1198Y547D01*
X449Y546D02*
X456Y546D01*
X1191Y546D02*
X1198Y546D01*
X449Y545D02*
X456Y545D01*
X1191Y545D02*
X1198Y545D01*
X449Y544D02*
X456Y544D01*
X1191Y544D02*
X1198Y544D01*
X449Y543D02*
X456Y543D01*
X1191Y543D02*
X1198Y543D01*
X449Y542D02*
X456Y542D01*
X1191Y542D02*
X1198Y542D01*
X449Y541D02*
X456Y541D01*
X1191Y541D02*
X1198Y541D01*
X449Y540D02*
X456Y540D01*
X1191Y540D02*
X1198Y540D01*
X449Y539D02*
X456Y539D01*
X1191Y539D02*
X1198Y539D01*
X449Y538D02*
X456Y538D01*
X1191Y538D02*
X1198Y538D01*
X449Y537D02*
X456Y537D01*
X1191Y537D02*
X1198Y537D01*
X449Y536D02*
X456Y536D01*
X1191Y536D02*
X1198Y536D01*
X449Y535D02*
X456Y535D01*
X1191Y535D02*
X1198Y535D01*
X449Y534D02*
X456Y534D01*
X1191Y534D02*
X1198Y534D01*
X449Y533D02*
X456Y533D01*
X1191Y533D02*
X1198Y533D01*
X449Y532D02*
X456Y532D01*
X1191Y532D02*
X1198Y532D01*
X449Y531D02*
X456Y531D01*
X1191Y531D02*
X1198Y531D01*
X449Y530D02*
X456Y530D01*
X1191Y530D02*
X1198Y530D01*
X449Y529D02*
X456Y529D01*
X1191Y529D02*
X1198Y529D01*
X449Y528D02*
X456Y528D01*
X1191Y528D02*
X1198Y528D01*
X449Y527D02*
X456Y527D01*
X1191Y527D02*
X1198Y527D01*
X449Y526D02*
X456Y526D01*
X1191Y526D02*
X1198Y526D01*
X449Y525D02*
X456Y525D01*
X1191Y525D02*
X1198Y525D01*
X449Y524D02*
X456Y524D01*
X1191Y524D02*
X1198Y524D01*
X449Y523D02*
X456Y523D01*
X1191Y523D02*
X1198Y523D01*
X449Y522D02*
X456Y522D01*
X1191Y522D02*
X1198Y522D01*
X449Y521D02*
X456Y521D01*
X1191Y521D02*
X1198Y521D01*
X449Y520D02*
X456Y520D01*
X1191Y520D02*
X1198Y520D01*
X449Y519D02*
X456Y519D01*
X1191Y519D02*
X1198Y519D01*
X449Y518D02*
X456Y518D01*
X1191Y518D02*
X1198Y518D01*
X449Y517D02*
X456Y517D01*
X1191Y517D02*
X1198Y517D01*
X449Y516D02*
X456Y516D01*
X1191Y516D02*
X1198Y516D01*
X449Y515D02*
X456Y515D01*
X1191Y515D02*
X1198Y515D01*
X449Y514D02*
X456Y514D01*
X1191Y514D02*
X1198Y514D01*
X449Y513D02*
X456Y513D01*
X1191Y513D02*
X1198Y513D01*
X449Y512D02*
X456Y512D01*
X1191Y512D02*
X1198Y512D01*
X449Y511D02*
X456Y511D01*
X1191Y511D02*
X1198Y511D01*
X449Y510D02*
X456Y510D01*
X1191Y510D02*
X1198Y510D01*
X449Y509D02*
X456Y509D01*
X1191Y509D02*
X1198Y509D01*
X449Y508D02*
X456Y508D01*
X1191Y508D02*
X1198Y508D01*
X449Y507D02*
X456Y507D01*
X1191Y507D02*
X1198Y507D01*
X449Y506D02*
X456Y506D01*
X1191Y506D02*
X1198Y506D01*
X449Y505D02*
X456Y505D01*
X1191Y505D02*
X1198Y505D01*
X449Y504D02*
X456Y504D01*
X1191Y504D02*
X1198Y504D01*
X449Y503D02*
X456Y503D01*
X1191Y503D02*
X1198Y503D01*
X449Y502D02*
X456Y502D01*
X1191Y502D02*
X1198Y502D01*
X449Y501D02*
X456Y501D01*
X1191Y501D02*
X1198Y501D01*
X449Y500D02*
X456Y500D01*
X1191Y500D02*
X1198Y500D01*
X449Y499D02*
X456Y499D01*
X1191Y499D02*
X1198Y499D01*
X449Y498D02*
X456Y498D01*
X1191Y498D02*
X1198Y498D01*
X449Y497D02*
X456Y497D01*
X1191Y497D02*
X1198Y497D01*
X449Y496D02*
X456Y496D01*
X1191Y496D02*
X1198Y496D01*
X449Y495D02*
X456Y495D01*
X1191Y495D02*
X1198Y495D01*
X449Y494D02*
X456Y494D01*
X1191Y494D02*
X1198Y494D01*
X449Y493D02*
X456Y493D01*
X1191Y493D02*
X1198Y493D01*
X449Y492D02*
X456Y492D01*
X1191Y492D02*
X1198Y492D01*
X449Y491D02*
X456Y491D01*
X1191Y491D02*
X1198Y491D01*
X449Y490D02*
X456Y490D01*
X1191Y490D02*
X1198Y490D01*
X449Y489D02*
X456Y489D01*
X1191Y489D02*
X1198Y489D01*
X449Y488D02*
X456Y488D01*
X1191Y488D02*
X1198Y488D01*
X449Y487D02*
X456Y487D01*
X1191Y487D02*
X1198Y487D01*
X449Y486D02*
X456Y486D01*
X1191Y486D02*
X1198Y486D01*
X449Y485D02*
X456Y485D01*
X1191Y485D02*
X1198Y485D01*
X449Y484D02*
X456Y484D01*
X1191Y484D02*
X1198Y484D01*
X449Y483D02*
X456Y483D01*
X1191Y483D02*
X1198Y483D01*
X449Y482D02*
X456Y482D01*
X1191Y482D02*
X1198Y482D01*
X449Y481D02*
X456Y481D01*
X1191Y481D02*
X1198Y481D01*
X449Y480D02*
X456Y480D01*
X1191Y480D02*
X1198Y480D01*
X449Y479D02*
X456Y479D01*
X1191Y479D02*
X1198Y479D01*
X449Y478D02*
X456Y478D01*
X1191Y478D02*
X1198Y478D01*
X449Y477D02*
X456Y477D01*
X1191Y477D02*
X1198Y477D01*
X449Y476D02*
X456Y476D01*
X1191Y476D02*
X1198Y476D01*
X449Y475D02*
X456Y475D01*
X1191Y475D02*
X1198Y475D01*
X449Y474D02*
X456Y474D01*
X1191Y474D02*
X1198Y474D01*
X449Y473D02*
X456Y473D01*
X1191Y473D02*
X1198Y473D01*
X449Y472D02*
X456Y472D01*
X1191Y472D02*
X1198Y472D01*
X449Y471D02*
X456Y471D01*
X1191Y471D02*
X1198Y471D01*
X449Y470D02*
X456Y470D01*
X1191Y470D02*
X1198Y470D01*
X449Y469D02*
X456Y469D01*
X1191Y469D02*
X1198Y469D01*
X449Y468D02*
X456Y468D01*
X1191Y468D02*
X1198Y468D01*
X449Y467D02*
X456Y467D01*
X1191Y467D02*
X1198Y467D01*
X449Y466D02*
X456Y466D01*
X1191Y466D02*
X1198Y466D01*
X449Y465D02*
X456Y465D01*
X1191Y465D02*
X1198Y465D01*
X449Y464D02*
X456Y464D01*
X1191Y464D02*
X1198Y464D01*
X449Y463D02*
X456Y463D01*
X1191Y463D02*
X1198Y463D01*
X449Y462D02*
X456Y462D01*
X1191Y462D02*
X1198Y462D01*
X449Y461D02*
X456Y461D01*
X1191Y461D02*
X1198Y461D01*
X449Y460D02*
X456Y460D01*
X1191Y460D02*
X1198Y460D01*
X449Y459D02*
X456Y459D01*
X1191Y459D02*
X1198Y459D01*
X449Y458D02*
X456Y458D01*
X1191Y458D02*
X1198Y458D01*
X449Y457D02*
X456Y457D01*
X1191Y457D02*
X1198Y457D01*
X449Y456D02*
X456Y456D01*
X1191Y456D02*
X1198Y456D01*
X449Y455D02*
X456Y455D01*
X1191Y455D02*
X1198Y455D01*
X449Y454D02*
X456Y454D01*
X1191Y454D02*
X1198Y454D01*
X449Y453D02*
X456Y453D01*
X1191Y453D02*
X1198Y453D01*
X449Y452D02*
X456Y452D01*
X1191Y452D02*
X1198Y452D01*
X449Y451D02*
X456Y451D01*
X1191Y451D02*
X1198Y451D01*
X449Y450D02*
X456Y450D01*
X1191Y450D02*
X1198Y450D01*
X449Y449D02*
X456Y449D01*
X1191Y449D02*
X1198Y449D01*
X449Y448D02*
X456Y448D01*
X1191Y448D02*
X1198Y448D01*
X449Y447D02*
X456Y447D01*
X1191Y447D02*
X1198Y447D01*
X449Y446D02*
X456Y446D01*
X1191Y446D02*
X1198Y446D01*
X449Y445D02*
X456Y445D01*
X1191Y445D02*
X1198Y445D01*
X449Y444D02*
X456Y444D01*
X1191Y444D02*
X1198Y444D01*
X449Y443D02*
X456Y443D01*
X1191Y443D02*
X1198Y443D01*
X449Y442D02*
X456Y442D01*
X1191Y442D02*
X1198Y442D01*
X449Y441D02*
X456Y441D01*
X1191Y441D02*
X1198Y441D01*
X449Y440D02*
X456Y440D01*
X1191Y440D02*
X1198Y440D01*
X449Y439D02*
X456Y439D01*
X1191Y439D02*
X1198Y439D01*
X449Y438D02*
X456Y438D01*
X1191Y438D02*
X1198Y438D01*
X449Y437D02*
X456Y437D01*
X1191Y437D02*
X1198Y437D01*
X449Y436D02*
X456Y436D01*
X1191Y436D02*
X1198Y436D01*
X449Y435D02*
X456Y435D01*
X1191Y435D02*
X1198Y435D01*
X449Y434D02*
X456Y434D01*
X1191Y434D02*
X1198Y434D01*
X449Y433D02*
X456Y433D01*
X1191Y433D02*
X1198Y433D01*
X449Y432D02*
X456Y432D01*
X1191Y432D02*
X1198Y432D01*
X449Y431D02*
X456Y431D01*
X1191Y431D02*
X1198Y431D01*
X449Y430D02*
X456Y430D01*
X1191Y430D02*
X1198Y430D01*
X449Y429D02*
X456Y429D01*
X1191Y429D02*
X1198Y429D01*
X449Y428D02*
X456Y428D01*
X1191Y428D02*
X1198Y428D01*
X449Y427D02*
X456Y427D01*
X1191Y427D02*
X1198Y427D01*
X449Y426D02*
X456Y426D01*
X1191Y426D02*
X1198Y426D01*
X449Y425D02*
X456Y425D01*
X1191Y425D02*
X1198Y425D01*
X449Y424D02*
X456Y424D01*
X1191Y424D02*
X1198Y424D01*
X449Y423D02*
X456Y423D01*
X1191Y423D02*
X1198Y423D01*
X449Y422D02*
X456Y422D01*
X1191Y422D02*
X1198Y422D01*
X449Y421D02*
X456Y421D01*
X1191Y421D02*
X1198Y421D01*
X449Y420D02*
X456Y420D01*
X1191Y420D02*
X1198Y420D01*
X449Y419D02*
X456Y419D01*
X1191Y419D02*
X1198Y419D01*
X449Y418D02*
X456Y418D01*
X1191Y418D02*
X1198Y418D01*
X449Y417D02*
X456Y417D01*
X1191Y417D02*
X1198Y417D01*
X449Y416D02*
X456Y416D01*
X1191Y416D02*
X1198Y416D01*
X449Y415D02*
X456Y415D01*
X1191Y415D02*
X1198Y415D01*
X449Y414D02*
X456Y414D01*
X1191Y414D02*
X1198Y414D01*
X449Y413D02*
X456Y413D01*
X1191Y413D02*
X1198Y413D01*
X449Y412D02*
X456Y412D01*
X1191Y412D02*
X1198Y412D01*
X449Y411D02*
X456Y411D01*
X1191Y411D02*
X1198Y411D01*
X449Y410D02*
X456Y410D01*
X1191Y410D02*
X1198Y410D01*
X449Y409D02*
X456Y409D01*
X1191Y409D02*
X1198Y409D01*
X449Y408D02*
X456Y408D01*
X1191Y408D02*
X1198Y408D01*
X449Y407D02*
X456Y407D01*
X1191Y407D02*
X1198Y407D01*
X449Y406D02*
X456Y406D01*
X1191Y406D02*
X1198Y406D01*
X449Y405D02*
X456Y405D01*
X1191Y405D02*
X1198Y405D01*
X449Y404D02*
X456Y404D01*
X1191Y404D02*
X1198Y404D01*
X449Y403D02*
X456Y403D01*
X1191Y403D02*
X1198Y403D01*
X449Y402D02*
X456Y402D01*
X1191Y402D02*
X1198Y402D01*
X449Y401D02*
X456Y401D01*
X1191Y401D02*
X1198Y401D01*
X449Y400D02*
X456Y400D01*
X1191Y400D02*
X1198Y400D01*
X449Y399D02*
X456Y399D01*
X1191Y399D02*
X1198Y399D01*
X449Y398D02*
X456Y398D01*
X1191Y398D02*
X1198Y398D01*
X449Y397D02*
X456Y397D01*
X1191Y397D02*
X1198Y397D01*
X449Y396D02*
X456Y396D01*
X1191Y396D02*
X1198Y396D01*
X449Y395D02*
X456Y395D01*
X1191Y395D02*
X1198Y395D01*
X449Y394D02*
X456Y394D01*
X1191Y394D02*
X1198Y394D01*
X449Y393D02*
X456Y393D01*
X1191Y393D02*
X1198Y393D01*
X449Y392D02*
X456Y392D01*
X1191Y392D02*
X1198Y392D01*
X449Y391D02*
X456Y391D01*
X1191Y391D02*
X1198Y391D01*
X449Y390D02*
X456Y390D01*
X1191Y390D02*
X1198Y390D01*
X449Y389D02*
X456Y389D01*
X1191Y389D02*
X1198Y389D01*
X449Y388D02*
X456Y388D01*
X1191Y388D02*
X1198Y388D01*
X449Y387D02*
X456Y387D01*
X1191Y387D02*
X1198Y387D01*
X449Y386D02*
X456Y386D01*
X1191Y386D02*
X1198Y386D01*
X449Y385D02*
X456Y385D01*
X1191Y385D02*
X1198Y385D01*
X449Y384D02*
X456Y384D01*
X1191Y384D02*
X1198Y384D01*
X449Y383D02*
X456Y383D01*
X1191Y383D02*
X1198Y383D01*
X449Y382D02*
X456Y382D01*
X1191Y382D02*
X1198Y382D01*
X449Y381D02*
X456Y381D01*
X1191Y381D02*
X1198Y381D01*
X449Y380D02*
X456Y380D01*
X1191Y380D02*
X1198Y380D01*
X449Y379D02*
X456Y379D01*
X1191Y379D02*
X1198Y379D01*
X449Y378D02*
X456Y378D01*
X1191Y378D02*
X1198Y378D01*
X449Y377D02*
X456Y377D01*
X1191Y377D02*
X1198Y377D01*
X449Y376D02*
X456Y376D01*
X1191Y376D02*
X1198Y376D01*
X449Y375D02*
X456Y375D01*
X1191Y375D02*
X1198Y375D01*
X449Y374D02*
X456Y374D01*
X1191Y374D02*
X1198Y374D01*
X449Y373D02*
X456Y373D01*
X1191Y373D02*
X1198Y373D01*
X449Y372D02*
X456Y372D01*
X1191Y372D02*
X1198Y372D01*
X449Y371D02*
X456Y371D01*
X1191Y371D02*
X1198Y371D01*
X449Y370D02*
X456Y370D01*
X1191Y370D02*
X1198Y370D01*
X449Y369D02*
X456Y369D01*
X1191Y369D02*
X1198Y369D01*
X449Y368D02*
X456Y368D01*
X1191Y368D02*
X1198Y368D01*
X449Y367D02*
X456Y367D01*
X1191Y367D02*
X1198Y367D01*
X449Y366D02*
X456Y366D01*
X1191Y366D02*
X1198Y366D01*
X449Y365D02*
X456Y365D01*
X1191Y365D02*
X1198Y365D01*
X449Y364D02*
X456Y364D01*
X1191Y364D02*
X1198Y364D01*
X449Y363D02*
X456Y363D01*
X1191Y363D02*
X1198Y363D01*
X449Y362D02*
X456Y362D01*
X1191Y362D02*
X1198Y362D01*
X449Y361D02*
X456Y361D01*
X1191Y361D02*
X1198Y361D01*
X449Y360D02*
X456Y360D01*
X1191Y360D02*
X1198Y360D01*
X449Y359D02*
X456Y359D01*
X1191Y359D02*
X1198Y359D01*
X449Y358D02*
X456Y358D01*
X1191Y358D02*
X1198Y358D01*
X449Y357D02*
X456Y357D01*
X1191Y357D02*
X1198Y357D01*
X449Y356D02*
X456Y356D01*
X1191Y356D02*
X1198Y356D01*
X449Y355D02*
X456Y355D01*
X1191Y355D02*
X1198Y355D01*
X449Y354D02*
X456Y354D01*
X1191Y354D02*
X1198Y354D01*
X449Y353D02*
X456Y353D01*
X1191Y353D02*
X1198Y353D01*
X449Y352D02*
X456Y352D01*
X1191Y352D02*
X1198Y352D01*
X449Y351D02*
X456Y351D01*
X1191Y351D02*
X1198Y351D01*
X449Y350D02*
X456Y350D01*
X1191Y350D02*
X1198Y350D01*
X449Y349D02*
X456Y349D01*
X1191Y349D02*
X1198Y349D01*
X449Y348D02*
X456Y348D01*
X1191Y348D02*
X1198Y348D01*
X449Y347D02*
X456Y347D01*
X1191Y347D02*
X1198Y347D01*
X449Y346D02*
X456Y346D01*
X1191Y346D02*
X1198Y346D01*
X449Y345D02*
X456Y345D01*
X1191Y345D02*
X1198Y345D01*
X449Y344D02*
X456Y344D01*
X1191Y344D02*
X1198Y344D01*
X449Y343D02*
X456Y343D01*
X1191Y343D02*
X1198Y343D01*
X450Y342D02*
X457Y342D01*
X1190Y342D02*
X1197Y342D01*
X450Y341D02*
X457Y341D01*
X1190Y341D02*
X1197Y341D01*
X450Y340D02*
X457Y340D01*
X1190Y340D02*
X1197Y340D01*
X450Y339D02*
X457Y339D01*
X1190Y339D02*
X1197Y339D01*
X450Y338D02*
X457Y338D01*
X1190Y338D02*
X1197Y338D01*
X450Y337D02*
X457Y337D01*
X1190Y337D02*
X1197Y337D01*
X450Y336D02*
X457Y336D01*
X1190Y336D02*
X1197Y336D01*
X450Y335D02*
X458Y335D01*
X1189Y335D02*
X1197Y335D01*
X451Y334D02*
X458Y334D01*
X1189Y334D02*
X1196Y334D01*
X451Y333D02*
X458Y333D01*
X1189Y333D02*
X1196Y333D01*
X451Y332D02*
X458Y332D01*
X1189Y332D02*
X1196Y332D01*
X451Y331D02*
X458Y331D01*
X1189Y331D02*
X1196Y331D01*
X451Y330D02*
X459Y330D01*
X1188Y330D02*
X1196Y330D01*
X452Y329D02*
X459Y329D01*
X1188Y329D02*
X1195Y329D01*
X452Y328D02*
X459Y328D01*
X1188Y328D02*
X1195Y328D01*
X452Y327D02*
X459Y327D01*
X1188Y327D02*
X1195Y327D01*
X452Y326D02*
X460Y326D01*
X1187Y326D02*
X1195Y326D01*
X453Y325D02*
X460Y325D01*
X1187Y325D02*
X1194Y325D01*
X453Y324D02*
X460Y324D01*
X1187Y324D02*
X1194Y324D01*
X453Y323D02*
X461Y323D01*
X1186Y323D02*
X1194Y323D01*
X454Y322D02*
X461Y322D01*
X1186Y322D02*
X1193Y322D01*
X454Y321D02*
X461Y321D01*
X1186Y321D02*
X1193Y321D01*
X454Y320D02*
X462Y320D01*
X1185Y320D02*
X1193Y320D01*
X455Y319D02*
X462Y319D01*
X1185Y319D02*
X1192Y319D01*
X455Y318D02*
X462Y318D01*
X1185Y318D02*
X1192Y318D01*
X455Y317D02*
X463Y317D01*
X1184Y317D02*
X1192Y317D01*
X456Y316D02*
X463Y316D01*
X1184Y316D02*
X1191Y316D01*
X456Y315D02*
X464Y315D01*
X1183Y315D02*
X1191Y315D01*
X457Y314D02*
X464Y314D01*
X1183Y314D02*
X1190Y314D01*
X457Y313D02*
X465Y313D01*
X1182Y313D02*
X1190Y313D01*
X457Y312D02*
X465Y312D01*
X1182Y312D02*
X1190Y312D01*
X458Y311D02*
X466Y311D01*
X1181Y311D02*
X1189Y311D01*
X458Y310D02*
X466Y310D01*
X1181Y310D02*
X1189Y310D01*
X459Y309D02*
X467Y309D01*
X1180Y309D02*
X1188Y309D01*
X459Y308D02*
X467Y308D01*
X1180Y308D02*
X1188Y308D01*
X460Y307D02*
X468Y307D01*
X1179Y307D02*
X1187Y307D01*
X460Y306D02*
X468Y306D01*
X1179Y306D02*
X1187Y306D01*
X461Y305D02*
X469Y305D01*
X1178Y305D02*
X1186Y305D01*
X461Y304D02*
X469Y304D01*
X1178Y304D02*
X1186Y304D01*
X462Y303D02*
X470Y303D01*
X1177Y303D02*
X1185Y303D01*
X462Y302D02*
X471Y302D01*
X1176Y302D02*
X1185Y302D01*
X463Y301D02*
X471Y301D01*
X1176Y301D02*
X1184Y301D01*
X464Y300D02*
X472Y300D01*
X1175Y300D02*
X1183Y300D01*
X464Y299D02*
X473Y299D01*
X1174Y299D02*
X1183Y299D01*
X465Y298D02*
X473Y298D01*
X1174Y298D02*
X1182Y298D01*
X465Y297D02*
X474Y297D01*
X1173Y297D02*
X1182Y297D01*
X466Y296D02*
X475Y296D01*
X1172Y296D02*
X1181Y296D01*
X467Y295D02*
X476Y295D01*
X1171Y295D02*
X1180Y295D01*
X468Y294D02*
X476Y294D01*
X1171Y294D02*
X1179Y294D01*
X468Y293D02*
X477Y293D01*
X1170Y293D02*
X1179Y293D01*
X469Y292D02*
X478Y292D01*
X1169Y292D02*
X1178Y292D01*
X470Y291D02*
X479Y291D01*
X1168Y291D02*
X1177Y291D01*
X471Y290D02*
X480Y290D01*
X1167Y290D02*
X1176Y290D01*
X471Y289D02*
X481Y289D01*
X1166Y289D02*
X1176Y289D01*
X472Y288D02*
X482Y288D01*
X1165Y288D02*
X1175Y288D01*
X473Y287D02*
X483Y287D01*
X1164Y287D02*
X1174Y287D01*
X474Y286D02*
X484Y286D01*
X1163Y286D02*
X1173Y286D01*
X475Y285D02*
X485Y285D01*
X1162Y285D02*
X1172Y285D01*
X476Y284D02*
X486Y284D01*
X1161Y284D02*
X1171Y284D01*
X476Y283D02*
X487Y283D01*
X1160Y283D02*
X1171Y283D01*
X477Y282D02*
X488Y282D01*
X1159Y282D02*
X1170Y282D01*
X478Y281D02*
X489Y281D01*
X1158Y281D02*
X1169Y281D01*
X479Y280D02*
X491Y280D01*
X1156Y280D02*
X1168Y280D01*
X481Y279D02*
X492Y279D01*
X1155Y279D02*
X1166Y279D01*
X482Y278D02*
X493Y278D01*
X1154Y278D02*
X1165Y278D01*
X483Y277D02*
X495Y277D01*
X1152Y277D02*
X1164Y277D01*
X484Y276D02*
X496Y276D01*
X1151Y276D02*
X1163Y276D01*
X485Y275D02*
X497Y275D01*
X1150Y275D02*
X1162Y275D01*
X486Y274D02*
X499Y274D01*
X1148Y274D02*
X1161Y274D01*
X488Y273D02*
X501Y273D01*
X1146Y273D02*
X1159Y273D01*
X489Y272D02*
X502Y272D01*
X1145Y272D02*
X1158Y272D01*
X490Y271D02*
X504Y271D01*
X1143Y271D02*
X1157Y271D01*
X492Y270D02*
X506Y270D01*
X1141Y270D02*
X1155Y270D01*
X493Y269D02*
X508Y269D01*
X1139Y269D02*
X1154Y269D01*
X495Y268D02*
X510Y268D01*
X1137Y268D02*
X1152Y268D01*
X496Y267D02*
X512Y267D01*
X1135Y267D02*
X1151Y267D01*
X498Y266D02*
X515Y266D01*
X1132Y266D02*
X1149Y266D01*
X500Y265D02*
X517Y265D01*
X1130Y265D02*
X1147Y265D01*
X501Y264D02*
X520Y264D01*
X1127Y264D02*
X1146Y264D01*
X503Y263D02*
X524Y263D01*
X1123Y263D02*
X1144Y263D01*
X505Y262D02*
X528Y262D01*
X1119Y262D02*
X1142Y262D01*
X507Y261D02*
X533Y261D01*
X1114Y261D02*
X1140Y261D01*
X510Y260D02*
X543Y260D01*
X1104Y260D02*
X1137Y260D01*
X512Y259D02*
X1135Y259D01*
X515Y258D02*
X1132Y258D01*
X518Y257D02*
X1129Y257D01*
X521Y256D02*
X1126Y256D01*
X524Y255D02*
X1123Y255D01*
X529Y254D02*
X1118Y254D01*
X534Y253D02*
X1113Y253D01*
X544Y252D02*
X1103Y252D01*
D02*
G04 End of Silk1*
M02*