G04 MADE WITH FRITZING*
G04 WWW.FRITZING.ORG*
G04 DOUBLE SIDED*
G04 HOLES PLATED*
G04 CONTOUR ON CENTER OF CONTOUR VECTOR*
%ASAXBY*%
%FSLAX23Y23*%
%MOIN*%
%OFA0B0*%
%SFA1.0B1.0*%
%ADD10C,0.084000*%
%ADD11C,0.104488*%
%ADD12R,0.001000X0.001000*%
%LNMASK1*%
G90*
G70*
G54D10*
X1417Y392D03*
X1427Y492D03*
X1417Y592D03*
X1427Y692D03*
X1417Y392D03*
X1427Y492D03*
X1417Y592D03*
X1427Y692D03*
X1907Y392D03*
X1917Y492D03*
X1907Y592D03*
X1917Y692D03*
X1907Y392D03*
X1917Y492D03*
X1907Y592D03*
X1917Y692D03*
G54D11*
X1817Y692D03*
X1517Y492D03*
G54D12*
X1374Y435D02*
X1457Y435D01*
X1864Y435D02*
X1947Y435D01*
X1374Y434D02*
X1457Y434D01*
X1864Y434D02*
X1947Y434D01*
X1374Y433D02*
X1457Y433D01*
X1864Y433D02*
X1947Y433D01*
X1374Y432D02*
X1457Y432D01*
X1864Y432D02*
X1947Y432D01*
X1374Y431D02*
X1457Y431D01*
X1864Y431D02*
X1947Y431D01*
X1374Y430D02*
X1457Y430D01*
X1864Y430D02*
X1947Y430D01*
X1374Y429D02*
X1457Y429D01*
X1864Y429D02*
X1947Y429D01*
X1374Y428D02*
X1457Y428D01*
X1864Y428D02*
X1947Y428D01*
X1374Y427D02*
X1457Y427D01*
X1864Y427D02*
X1947Y427D01*
X1374Y426D02*
X1457Y426D01*
X1864Y426D02*
X1947Y426D01*
X1374Y425D02*
X1457Y425D01*
X1864Y425D02*
X1947Y425D01*
X1374Y424D02*
X1457Y424D01*
X1864Y424D02*
X1947Y424D01*
X1374Y423D02*
X1457Y423D01*
X1864Y423D02*
X1947Y423D01*
X1374Y422D02*
X1457Y422D01*
X1864Y422D02*
X1947Y422D01*
X1374Y421D02*
X1457Y421D01*
X1864Y421D02*
X1947Y421D01*
X1374Y420D02*
X1457Y420D01*
X1864Y420D02*
X1947Y420D01*
X1374Y419D02*
X1457Y419D01*
X1864Y419D02*
X1947Y419D01*
X1374Y418D02*
X1457Y418D01*
X1864Y418D02*
X1947Y418D01*
X1374Y417D02*
X1457Y417D01*
X1864Y417D02*
X1947Y417D01*
X1374Y416D02*
X1457Y416D01*
X1864Y416D02*
X1947Y416D01*
X1374Y415D02*
X1457Y415D01*
X1864Y415D02*
X1947Y415D01*
X1374Y414D02*
X1457Y414D01*
X1864Y414D02*
X1947Y414D01*
X1374Y413D02*
X1457Y413D01*
X1864Y413D02*
X1947Y413D01*
X1374Y412D02*
X1457Y412D01*
X1864Y412D02*
X1947Y412D01*
X1374Y411D02*
X1457Y411D01*
X1864Y411D02*
X1947Y411D01*
X1374Y410D02*
X1457Y410D01*
X1864Y410D02*
X1947Y410D01*
X1374Y409D02*
X1457Y409D01*
X1864Y409D02*
X1947Y409D01*
X1374Y408D02*
X1412Y408D01*
X1419Y408D02*
X1457Y408D01*
X1864Y408D02*
X1902Y408D01*
X1909Y408D02*
X1947Y408D01*
X1374Y407D02*
X1409Y407D01*
X1422Y407D02*
X1457Y407D01*
X1864Y407D02*
X1899Y407D01*
X1912Y407D02*
X1947Y407D01*
X1374Y406D02*
X1407Y406D01*
X1424Y406D02*
X1457Y406D01*
X1864Y406D02*
X1897Y406D01*
X1914Y406D02*
X1947Y406D01*
X1374Y405D02*
X1406Y405D01*
X1425Y405D02*
X1457Y405D01*
X1864Y405D02*
X1896Y405D01*
X1915Y405D02*
X1947Y405D01*
X1374Y404D02*
X1405Y404D01*
X1426Y404D02*
X1457Y404D01*
X1864Y404D02*
X1894Y404D01*
X1916Y404D02*
X1947Y404D01*
X1374Y403D02*
X1404Y403D01*
X1427Y403D02*
X1457Y403D01*
X1864Y403D02*
X1893Y403D01*
X1917Y403D02*
X1947Y403D01*
X1374Y402D02*
X1403Y402D01*
X1428Y402D02*
X1457Y402D01*
X1864Y402D02*
X1893Y402D01*
X1918Y402D02*
X1947Y402D01*
X1374Y401D02*
X1402Y401D01*
X1429Y401D02*
X1457Y401D01*
X1864Y401D02*
X1892Y401D01*
X1919Y401D02*
X1947Y401D01*
X1374Y400D02*
X1402Y400D01*
X1429Y400D02*
X1457Y400D01*
X1864Y400D02*
X1891Y400D01*
X1919Y400D02*
X1947Y400D01*
X1374Y399D02*
X1401Y399D01*
X1430Y399D02*
X1457Y399D01*
X1864Y399D02*
X1891Y399D01*
X1920Y399D02*
X1947Y399D01*
X1374Y398D02*
X1401Y398D01*
X1430Y398D02*
X1457Y398D01*
X1864Y398D02*
X1891Y398D01*
X1920Y398D02*
X1947Y398D01*
X1374Y397D02*
X1400Y397D01*
X1431Y397D02*
X1457Y397D01*
X1864Y397D02*
X1890Y397D01*
X1920Y397D02*
X1947Y397D01*
X1374Y396D02*
X1400Y396D01*
X1431Y396D02*
X1457Y396D01*
X1864Y396D02*
X1890Y396D01*
X1921Y396D02*
X1947Y396D01*
X1374Y395D02*
X1400Y395D01*
X1431Y395D02*
X1457Y395D01*
X1864Y395D02*
X1890Y395D01*
X1921Y395D02*
X1947Y395D01*
X1374Y394D02*
X1400Y394D01*
X1431Y394D02*
X1457Y394D01*
X1864Y394D02*
X1890Y394D01*
X1921Y394D02*
X1947Y394D01*
X1374Y393D02*
X1400Y393D01*
X1431Y393D02*
X1457Y393D01*
X1864Y393D02*
X1890Y393D01*
X1921Y393D02*
X1947Y393D01*
X1374Y392D02*
X1400Y392D01*
X1431Y392D02*
X1457Y392D01*
X1864Y392D02*
X1890Y392D01*
X1921Y392D02*
X1947Y392D01*
X1374Y391D02*
X1400Y391D01*
X1431Y391D02*
X1457Y391D01*
X1864Y391D02*
X1890Y391D01*
X1921Y391D02*
X1947Y391D01*
X1374Y390D02*
X1400Y390D01*
X1431Y390D02*
X1457Y390D01*
X1864Y390D02*
X1890Y390D01*
X1920Y390D02*
X1947Y390D01*
X1374Y389D02*
X1401Y389D01*
X1430Y389D02*
X1457Y389D01*
X1864Y389D02*
X1890Y389D01*
X1920Y389D02*
X1947Y389D01*
X1374Y388D02*
X1401Y388D01*
X1430Y388D02*
X1457Y388D01*
X1864Y388D02*
X1891Y388D01*
X1920Y388D02*
X1947Y388D01*
X1374Y387D02*
X1401Y387D01*
X1430Y387D02*
X1457Y387D01*
X1864Y387D02*
X1891Y387D01*
X1919Y387D02*
X1947Y387D01*
X1374Y386D02*
X1402Y386D01*
X1429Y386D02*
X1457Y386D01*
X1864Y386D02*
X1892Y386D01*
X1919Y386D02*
X1947Y386D01*
X1374Y385D02*
X1403Y385D01*
X1429Y385D02*
X1457Y385D01*
X1864Y385D02*
X1892Y385D01*
X1918Y385D02*
X1947Y385D01*
X1374Y384D02*
X1403Y384D01*
X1428Y384D02*
X1457Y384D01*
X1864Y384D02*
X1893Y384D01*
X1918Y384D02*
X1947Y384D01*
X1374Y383D02*
X1404Y383D01*
X1427Y383D02*
X1457Y383D01*
X1864Y383D02*
X1894Y383D01*
X1917Y383D02*
X1947Y383D01*
X1374Y382D02*
X1405Y382D01*
X1426Y382D02*
X1457Y382D01*
X1864Y382D02*
X1895Y382D01*
X1916Y382D02*
X1947Y382D01*
X1374Y381D02*
X1406Y381D01*
X1425Y381D02*
X1457Y381D01*
X1864Y381D02*
X1896Y381D01*
X1914Y381D02*
X1947Y381D01*
X1374Y380D02*
X1408Y380D01*
X1423Y380D02*
X1457Y380D01*
X1864Y380D02*
X1898Y380D01*
X1913Y380D02*
X1947Y380D01*
X1374Y379D02*
X1410Y379D01*
X1421Y379D02*
X1457Y379D01*
X1864Y379D02*
X1900Y379D01*
X1910Y379D02*
X1947Y379D01*
X1374Y378D02*
X1457Y378D01*
X1864Y378D02*
X1947Y378D01*
X1374Y377D02*
X1457Y377D01*
X1864Y377D02*
X1947Y377D01*
X1374Y376D02*
X1457Y376D01*
X1864Y376D02*
X1947Y376D01*
X1374Y375D02*
X1457Y375D01*
X1864Y375D02*
X1947Y375D01*
X1374Y374D02*
X1457Y374D01*
X1864Y374D02*
X1947Y374D01*
X1374Y373D02*
X1457Y373D01*
X1864Y373D02*
X1947Y373D01*
X1374Y372D02*
X1457Y372D01*
X1864Y372D02*
X1947Y372D01*
X1374Y371D02*
X1457Y371D01*
X1864Y371D02*
X1947Y371D01*
X1374Y370D02*
X1457Y370D01*
X1864Y370D02*
X1947Y370D01*
X1374Y369D02*
X1457Y369D01*
X1864Y369D02*
X1947Y369D01*
X1374Y368D02*
X1457Y368D01*
X1864Y368D02*
X1947Y368D01*
X1374Y367D02*
X1457Y367D01*
X1864Y367D02*
X1947Y367D01*
X1374Y366D02*
X1457Y366D01*
X1864Y366D02*
X1947Y366D01*
X1374Y365D02*
X1457Y365D01*
X1864Y365D02*
X1947Y365D01*
X1374Y364D02*
X1457Y364D01*
X1864Y364D02*
X1947Y364D01*
X1374Y363D02*
X1457Y363D01*
X1864Y363D02*
X1947Y363D01*
X1374Y362D02*
X1457Y362D01*
X1864Y362D02*
X1947Y362D01*
X1374Y361D02*
X1457Y361D01*
X1864Y361D02*
X1947Y361D01*
X1374Y360D02*
X1457Y360D01*
X1864Y360D02*
X1947Y360D01*
X1374Y359D02*
X1457Y359D01*
X1864Y359D02*
X1947Y359D01*
X1374Y358D02*
X1457Y358D01*
X1864Y358D02*
X1947Y358D01*
X1374Y357D02*
X1457Y357D01*
X1864Y357D02*
X1947Y357D01*
X1374Y356D02*
X1457Y356D01*
X1864Y356D02*
X1947Y356D01*
X1374Y355D02*
X1457Y355D01*
X1864Y355D02*
X1947Y355D01*
X1374Y354D02*
X1457Y354D01*
X1864Y354D02*
X1947Y354D01*
X1374Y353D02*
X1457Y353D01*
X1864Y353D02*
X1947Y353D01*
X1374Y352D02*
X1457Y352D01*
X1864Y352D02*
X1947Y352D01*
D02*
G04 End of Mask1*
M02*