G04 MADE WITH FRITZING*
G04 WWW.FRITZING.ORG*
G04 DOUBLE SIDED*
G04 HOLES PLATED*
G04 CONTOUR ON CENTER OF CONTOUR VECTOR*
%ASAXBY*%
%FSLAX23Y23*%
%MOIN*%
%OFA0B0*%
%SFA1.0B1.0*%
%ADD10C,0.138425*%
%ADD11C,0.070000*%
%ADD12C,0.074000*%
%ADD13C,0.094488*%
%ADD14C,0.024000*%
%ADD15R,0.001000X0.001000*%
%LNCOPPER0*%
G90*
G70*
G54D10*
X1298Y148D03*
X498Y148D03*
G54D11*
X1298Y298D03*
X1298Y398D03*
X1298Y498D03*
X1298Y598D03*
X1298Y698D03*
X1298Y798D03*
X498Y298D03*
X498Y398D03*
X498Y498D03*
G54D10*
X1298Y948D03*
G54D11*
X498Y598D03*
G54D10*
X498Y948D03*
G54D11*
X498Y698D03*
X498Y798D03*
G54D12*
X1888Y398D03*
X1898Y498D03*
X1888Y598D03*
X1898Y698D03*
G54D13*
X1698Y698D03*
X1398Y498D03*
G54D14*
X1496Y296D02*
X1599Y399D01*
D02*
X1599Y399D02*
X1857Y398D01*
D02*
X1329Y297D02*
X1496Y296D01*
D02*
X1496Y598D02*
X1329Y598D01*
D02*
X1599Y498D02*
X1496Y598D01*
D02*
X1867Y498D02*
X1599Y498D01*
D02*
X1496Y697D02*
X1599Y598D01*
D02*
X1599Y598D02*
X1857Y598D01*
D02*
X1329Y697D02*
X1496Y697D01*
D02*
X1725Y698D02*
X1867Y698D01*
D02*
X1329Y498D02*
X1371Y498D01*
G54D15*
X1851Y435D02*
X1924Y435D01*
X1851Y434D02*
X1924Y434D01*
X1851Y433D02*
X1924Y433D01*
X1851Y432D02*
X1924Y432D01*
X1851Y431D02*
X1924Y431D01*
X1851Y430D02*
X1924Y430D01*
X1851Y429D02*
X1924Y429D01*
X1851Y428D02*
X1924Y428D01*
X1851Y427D02*
X1924Y427D01*
X1851Y426D02*
X1924Y426D01*
X1851Y425D02*
X1924Y425D01*
X1851Y424D02*
X1924Y424D01*
X1851Y423D02*
X1924Y423D01*
X1851Y422D02*
X1924Y422D01*
X1851Y421D02*
X1924Y421D01*
X1851Y420D02*
X1924Y420D01*
X1851Y419D02*
X1924Y419D01*
X1851Y418D02*
X1882Y418D01*
X1893Y418D02*
X1924Y418D01*
X1851Y417D02*
X1879Y417D01*
X1896Y417D02*
X1924Y417D01*
X1851Y416D02*
X1877Y416D01*
X1898Y416D02*
X1924Y416D01*
X1851Y415D02*
X1875Y415D01*
X1899Y415D02*
X1924Y415D01*
X1851Y414D02*
X1874Y414D01*
X1901Y414D02*
X1924Y414D01*
X1851Y413D02*
X1873Y413D01*
X1902Y413D02*
X1924Y413D01*
X1851Y412D02*
X1872Y412D01*
X1903Y412D02*
X1924Y412D01*
X1851Y411D02*
X1871Y411D01*
X1903Y411D02*
X1924Y411D01*
X1851Y410D02*
X1870Y410D01*
X1904Y410D02*
X1924Y410D01*
X1851Y409D02*
X1870Y409D01*
X1905Y409D02*
X1924Y409D01*
X1851Y408D02*
X1869Y408D01*
X1905Y408D02*
X1924Y408D01*
X1851Y407D02*
X1869Y407D01*
X1906Y407D02*
X1924Y407D01*
X1851Y406D02*
X1868Y406D01*
X1906Y406D02*
X1924Y406D01*
X1851Y405D02*
X1868Y405D01*
X1907Y405D02*
X1924Y405D01*
X1851Y404D02*
X1868Y404D01*
X1907Y404D02*
X1924Y404D01*
X1851Y403D02*
X1867Y403D01*
X1907Y403D02*
X1924Y403D01*
X1851Y402D02*
X1867Y402D01*
X1907Y402D02*
X1924Y402D01*
X1851Y401D02*
X1867Y401D01*
X1908Y401D02*
X1924Y401D01*
X1851Y400D02*
X1867Y400D01*
X1908Y400D02*
X1924Y400D01*
X1851Y399D02*
X1867Y399D01*
X1908Y399D02*
X1924Y399D01*
X1851Y398D02*
X1867Y398D01*
X1908Y398D02*
X1924Y398D01*
X1851Y397D02*
X1867Y397D01*
X1908Y397D02*
X1924Y397D01*
X1851Y396D02*
X1867Y396D01*
X1907Y396D02*
X1924Y396D01*
X1851Y395D02*
X1867Y395D01*
X1907Y395D02*
X1924Y395D01*
X1851Y394D02*
X1867Y394D01*
X1907Y394D02*
X1924Y394D01*
X1851Y393D02*
X1868Y393D01*
X1907Y393D02*
X1924Y393D01*
X1851Y392D02*
X1868Y392D01*
X1906Y392D02*
X1924Y392D01*
X1851Y391D02*
X1868Y391D01*
X1906Y391D02*
X1924Y391D01*
X1851Y390D02*
X1869Y390D01*
X1906Y390D02*
X1924Y390D01*
X1851Y389D02*
X1869Y389D01*
X1905Y389D02*
X1924Y389D01*
X1851Y388D02*
X1870Y388D01*
X1905Y388D02*
X1924Y388D01*
X1851Y387D02*
X1871Y387D01*
X1904Y387D02*
X1924Y387D01*
X1851Y386D02*
X1871Y386D01*
X1903Y386D02*
X1924Y386D01*
X1851Y385D02*
X1872Y385D01*
X1902Y385D02*
X1924Y385D01*
X1851Y384D02*
X1873Y384D01*
X1901Y384D02*
X1924Y384D01*
X1851Y383D02*
X1875Y383D01*
X1900Y383D02*
X1924Y383D01*
X1851Y382D02*
X1876Y382D01*
X1899Y382D02*
X1924Y382D01*
X1851Y381D02*
X1878Y381D01*
X1897Y381D02*
X1924Y381D01*
X1851Y380D02*
X1880Y380D01*
X1894Y380D02*
X1924Y380D01*
X1851Y379D02*
X1884Y379D01*
X1890Y379D02*
X1924Y379D01*
X1851Y378D02*
X1924Y378D01*
X1851Y377D02*
X1924Y377D01*
X1851Y376D02*
X1924Y376D01*
X1851Y375D02*
X1924Y375D01*
X1851Y374D02*
X1924Y374D01*
X1851Y373D02*
X1924Y373D01*
X1851Y372D02*
X1924Y372D01*
X1851Y371D02*
X1924Y371D01*
X1851Y370D02*
X1924Y370D01*
X1851Y369D02*
X1924Y369D01*
X1851Y368D02*
X1924Y368D01*
X1851Y367D02*
X1924Y367D01*
X1851Y366D02*
X1924Y366D01*
X1851Y365D02*
X1924Y365D01*
X1851Y364D02*
X1924Y364D01*
X1851Y363D02*
X1924Y363D01*
X1851Y362D02*
X1924Y362D01*
D02*
G04 End of Copper0*
M02*